<svg width="475" height="331" viewBox="0 0 475 331" fill="none" xmlns="http://www.w3.org/2000/svg">
<path d="M48.27 229.52C43.6301 226.622 38.3908 224.82 32.95 224.25C30.45 224 27.71 224.07 25.71 225.58C25.4767 225.714 25.2838 225.908 25.1517 226.142C25.0197 226.376 24.9535 226.641 24.96 226.91C25.0807 227.286 25.3328 227.605 25.67 227.81C31.9 232.57 41.33 233.17 48.27 229.52" fill="#E0E0E0"/>
<path d="M47.89 229.09C44.3449 226.485 41.0355 223.574 38 220.39C34.9552 217.182 32.8157 213.225 31.8 208.92C31.5984 208.283 31.5378 207.609 31.6224 206.946C31.707 206.283 31.9348 205.646 32.29 205.08C40.17 211.24 46.37 219.2 47.89 229.08" fill="#E0E0E0"/>
<path d="M48.2 229.47C47.4711 225.161 47.5355 220.755 48.39 216.47C49.2603 212.164 51.7157 208.342 55.27 205.76C56.63 208.95 56.04 212.61 55.08 215.94C53.6099 221.094 51.3098 225.975 48.27 230.39" fill="#E0E0E0"/>
<path d="M55.93 243.32C51.24 243.89 47.16 246.32 43.65 249.53C40.1372 252.739 37.6939 256.949 36.65 261.59C41.25 261.31 45.15 258.06 47.98 254.42C50.81 250.78 52.78 246.79 55.89 243.42" fill="#E0E0E0"/>
<path d="M57.6101 245.53C55.7603 240.839 55.1115 235.761 55.7227 230.756C56.334 225.751 58.1858 220.978 61.1101 216.87C63.7801 226.38 62.8001 237.12 57.6101 245.52" fill="#E0E0E0"/>
<path d="M67.83 257.69C63.5318 257.413 59.2474 258.41 55.5124 260.555C51.7774 262.7 48.7575 265.898 46.83 269.75C46.57 270.27 46.34 270.93 46.69 271.39C46.8722 271.564 47.0934 271.692 47.3352 271.763C47.5771 271.835 47.8324 271.847 48.08 271.8C52.21 271.53 55.87 269.05 58.88 266.22C61.89 263.39 64.53 260.13 67.88 257.68" fill="#E0E0E0"/>
<path d="M67.5 257.03C65.302 249.951 65.1667 242.393 67.1099 235.24C67.8799 232.43 69.1699 229.48 71.7599 228.17C71.8621 228.099 71.9783 228.05 72.1008 228.028C72.2233 228.005 72.3492 228.01 72.4699 228.04C72.6809 228.149 72.8419 228.336 72.92 228.56C73.7882 230.523 74.1658 232.668 74.0199 234.81C73.857 236.943 73.5226 239.06 73.02 241.14C72.2 245.01 71.7699 249.14 69.6499 252.5C69.1453 253.303 68.6943 254.138 68.2999 255C67.8999 255.85 67.89 256.14 67.52 256.82" fill="#E0E0E0"/>
<path d="M94.5301 261.06C92.5301 253.44 94.6601 244.2 99.4601 237.96C99.8101 237.5 100.28 236.96 100.86 237.06C101.74 237.14 101.97 238.32 101.93 239.2C101.567 247.037 99.0027 254.614 94.5301 261.06" fill="#E0E0E0"/>
<path d="M96.97 262.72C106.23 265.13 116.85 262.79 124.55 257.12C119.937 254.796 114.66 254.145 109.62 255.28C104.62 256.42 100.08 258.66 96.97 262.72" fill="#E0E0E0"/>
<path d="M99.03 257.65C104.21 249.2 114.15 243.65 124.03 243.18C122.89 247.18 119.58 250.34 115.85 252.23C112.12 254.12 107.94 254.94 103.85 255.74C102.25 256.05 100.05 256.39 99.02 257.65" fill="#E0E0E0"/>
<path d="M95.05 233.03C96.6156 228.269 97.6879 223.36 98.25 218.38C98.64 213.38 97.92 208.17 95.33 203.88C90.49 213.25 90 224.2 94.9 233.54" fill="#E0E0E0"/>
<path d="M111.35 224.79C117.02 214.5 128.57 206.28 140.26 205.13C135.75 216.36 123.45 225.04 111.35 224.79" fill="#E0E0E0"/>
<path d="M107.79 226.81C116.24 228.1 123.43 233.49 131.32 236.76C132.976 237.552 134.81 237.897 136.64 237.76C137.494 237.753 138.325 237.483 139.02 236.987C139.715 236.492 140.241 235.794 140.526 234.989C140.811 234.184 140.841 233.311 140.613 232.489C140.385 231.666 139.909 230.933 139.25 230.39C138.133 229.36 136.82 228.564 135.39 228.05C126.79 224.47 117.57 224.38 108.52 226.55" fill="#E0E0E0"/>
<path d="M102.9 232.74C104.82 233.28 105.47 234.27 106.98 235.56C112.144 239.951 118.253 243.089 124.83 244.73C125.51 244.9 126.4 244.97 126.74 244.35C127.08 243.73 126.66 243.16 126.28 242.68C123.413 239.319 119.692 236.794 115.51 235.37C111.39 233.83 107.82 231.98 102.9 232.37" fill="#E0E0E0"/>
<path d="M97.39 196.96C100.852 200.151 104.942 202.583 109.399 204.1C113.856 205.618 118.58 206.186 123.27 205.77C123.701 205.777 124.12 205.628 124.45 205.35C125.1 204.64 124.32 203.54 123.56 202.95C115.95 197.02 106.73 194.55 97.38 196.95" fill="#E0E0E0"/>
<path d="M103.93 194.57C108.517 191.19 113.838 188.946 119.46 188.019C125.081 187.093 130.842 187.511 136.27 189.24C132.2 193.24 126.55 195.4 120.87 195.99C115.194 196.514 109.469 196.033 103.96 194.57" fill="#E0E0E0"/>
<path d="M101.33 178.13C100.58 170.53 101.07 164.53 100.54 156.9C100.54 156.29 100.36 155.55 99.79 155.33C99 155.03 98.34 156 98.08 156.81C96.971 160.349 96.6864 164.095 97.248 167.761C97.8096 171.427 99.2024 174.916 101.32 177.96" fill="#E0E0E0"/>
<path d="M100.78 178.97C105.742 175.759 110.021 171.6 113.37 166.73C115.85 163.33 117.95 159.26 117.37 155.08C115.621 155.125 113.903 155.552 112.336 156.331C110.769 157.11 109.392 158.223 108.3 159.59C106.127 162.338 104.55 165.509 103.67 168.9C102.67 172.25 101.95 175.68 100.77 178.97" fill="#E0E0E0"/>
<path d="M113.15 175.53C124.487 171.335 134.985 165.151 144.15 157.27C140.45 155.78 136.22 156.67 132.52 158.16C124.07 161.57 117.16 167.33 113.02 175.45" fill="#E0E0E0"/>
<path d="M104.27 183.12C109.99 183.75 115.79 184.12 121.47 183.21C127.15 182.3 132.27 180.06 137.51 177.87C137.969 177.743 138.362 177.446 138.61 177.04C138.69 176.798 138.694 176.537 138.623 176.293C138.551 176.048 138.407 175.831 138.21 175.67C137.815 175.35 137.348 175.131 136.85 175.03C131.18 173.44 125.07 174.19 119.49 176.03C114.185 177.859 109.084 180.235 104.27 183.12" fill="#E0E0E0"/>
<path d="M71.61 197.22C67.71 189.34 67.96 180.15 71.33 172.04C73.7 175.65 73.99 180.26 73.56 184.56C73.13 188.86 71.82 193.29 71.73 197.61" fill="#E0E0E0"/>
<path d="M56.0201 189.36C51.1366 189.294 46.2933 190.249 41.8005 192.164C37.3076 194.079 33.2645 196.911 29.9301 200.48C34.7901 201.24 39.7901 199.99 44.2201 197.83C48.5681 195.519 52.6693 192.772 56.4601 189.63" fill="#E0E0E0"/>
<path d="M45.55 185.87C40.78 185.49 36.2 184.87 31.61 186.3C27.02 187.73 22.86 190.89 21 195.3C25.4922 195.671 30.0019 194.832 34.06 192.87C38.0911 190.884 41.9365 188.541 45.55 185.87" fill="#E0E0E0"/>
<path d="M61.06 186.02C56.77 183.21 52.37 180.35 47.38 179.18C42.39 178.01 36.6 178.88 33.12 182.64C37.12 185.01 42.07 185.29 46.75 185.29C51.43 185.29 57.18 185.23 61.59 186.79" fill="#E0E0E0"/>
<path d="M61.08 186.24C53.76 179.05 50.98 166.12 53.93 156.24C59.7252 165.106 62.2532 175.713 61.08 186.24" fill="#E0E0E0"/>
<path d="M81.27 165.87C82.65 162.66 83.62 159.29 84.86 156.02C85.9914 152.7 87.7273 149.618 89.98 146.93C92.2727 144.232 95.5339 142.544 99.06 142.229C97.9246 147.18 95.7694 151.839 92.7321 155.909C89.6948 159.979 85.8421 163.372 81.42 165.87" fill="#E0E0E0"/>
<path d="M77.59 170.1C75.3 166.95 72.66 162.68 69.59 160.33C66.52 157.98 62.45 156.56 58.66 157.46C60.6259 160.899 63.3669 163.832 66.6652 166.027C69.9635 168.221 73.7282 169.615 77.66 170.1" fill="#E0E0E0"/>
<path d="M78.32 166.11C76.6772 162.359 75.4628 158.434 74.7 154.41C73.9526 150.346 74.6011 146.149 76.54 142.5C80.54 150.11 81.85 158.27 78.54 166.2" fill="#E0E0E0"/>
<path d="M81.27 142.5C83.55 134.96 90.45 129.41 97.91 126.87C98.8309 126.492 99.8288 126.342 100.82 126.43C101.315 126.482 101.784 126.68 102.166 126.999C102.549 127.318 102.829 127.742 102.97 128.22C103.24 129.51 102.18 130.65 101.19 131.51C95.3605 136.483 88.5844 140.225 81.27 142.51" fill="#E0E0E0"/>
<path d="M81.35 136.34C81.64 131.48 81.95 126.55 83.53 121.94C85.11 117.33 88.16 113.02 92.59 111C93.34 115.91 91.18 120.79 88.59 125C86 129.21 82.83 133.21 81.27 137.92" fill="#E0E0E0"/>
<path d="M81.27 139.68C79.38 134.19 79.19 127.21 75.9 122.43C73.6 119.08 69.9 116.8 67.9 113.26C66.7078 116.657 66.8762 120.384 68.37 123.66C69.8615 126.905 71.9204 129.858 74.45 132.38C76.89 134.98 78.97 136.93 81.24 139.68" fill="#E0E0E0"/>
<path d="M81.27 301.47C81.13 301.47 81 264.82 80.99 219.62C80.98 174.42 81.09 137.77 81.24 137.77C81.39 137.77 81.51 174.41 81.52 219.62C81.53 264.83 81.42 301.47 81.27 301.47Z" fill="#E0E0E0"/>
<path d="M113.27 191.69C112.827 191.905 112.365 192.079 111.89 192.21L108.1 193.49C104.9 194.58 100.51 196.15 95.74 198.11C90.97 200.07 86.57 201.77 84.04 203.97C83.0279 204.815 82.2209 205.878 81.68 207.08C81.32 207.94 81.25 208.47 81.21 208.46C81.17 208.45 81.21 208.33 81.21 208.08C81.2664 207.716 81.3568 207.358 81.48 207.01C81.9602 205.73 82.7505 204.59 83.78 203.69C85.3095 202.397 87.0212 201.335 88.86 200.54C90.86 199.59 93.14 198.6 95.53 197.62C100.31 195.62 104.74 194.13 107.97 193.13C109.59 192.63 110.91 192.25 111.82 192.01C112.291 191.855 112.777 191.748 113.27 191.69V191.69Z" fill="#E0E0E0"/>
<path d="M123.8 165.87C123.8 165.87 123.68 166.03 123.41 166.29L122.23 167.39L117.84 171.39L103.23 184.39C97.53 189.47 92.6 194.32 89.23 197.97C87.52 199.79 86.17 201.31 85.23 202.36L84.16 203.57C84.0462 203.721 83.9154 203.859 83.77 203.98C83.77 203.98 83.86 203.8 84.08 203.51C84.3 203.22 84.63 202.77 85.08 202.23C85.95 201.13 87.26 199.58 88.94 197.72C93.3583 192.897 98.0316 188.314 102.94 183.99C108.66 178.93 113.87 174.38 117.66 171.1C119.51 169.5 121.04 168.2 122.16 167.24L123.4 166.24C123.517 166.1 123.651 165.975 123.8 165.87V165.87Z" fill="#E0E0E0"/>
<path d="M97.07 189.58C96.92 189.52 98.07 186.76 99.3 183.28C100.53 179.8 101.07 176.87 101.27 176.87C101.147 179.117 100.672 181.331 99.86 183.43C99.3481 184.932 98.7538 186.404 98.08 187.84C97.8355 188.469 97.4948 189.056 97.07 189.58V189.58Z" fill="#E0E0E0"/>
<path d="M81.2699 211.76C80.937 211.463 80.6415 211.128 80.3899 210.76L78.1799 207.87C76.2799 205.42 73.6699 202.05 70.7399 198.35C67.8099 194.65 65.1099 191.35 63.1599 188.95L60.8599 186.1C60.5554 185.768 60.2903 185.402 60.0699 185.01C60.4325 185.313 60.7671 185.647 61.0699 186.01C61.6499 186.64 62.4799 187.58 63.4999 188.75C65.4999 191.09 68.2699 194.37 71.1999 198.06C74.1299 201.75 76.7099 205.18 78.5199 207.68C79.4299 208.93 80.1599 209.96 80.6399 210.68C80.8814 211.02 81.0923 211.382 81.2699 211.76V211.76Z" fill="#E0E0E0"/>
<path d="M74.27 202.75C72.8568 201.18 71.8477 199.289 71.33 197.24C70.7841 195.444 70.5574 193.565 70.66 191.69H70.9C70.79 192.11 70.72 192.34 70.68 192.33C70.64 192.32 70.68 192.09 70.68 191.65H70.91C71.0309 193.479 71.346 195.289 71.85 197.05C72.5195 199.006 73.3283 200.911 74.27 202.75V202.75Z" fill="#E0E0E0"/>
<path d="M65.27 191.35C64.6378 190.863 63.9454 190.46 63.21 190.15C61.3632 189.599 59.4205 189.445 57.51 189.7C55.5743 189.851 53.6543 190.162 51.77 190.63C50.9972 190.871 50.2087 191.058 49.41 191.19C50.1134 190.77 50.8749 190.457 51.67 190.26C53.5566 189.682 55.5021 189.316 57.47 189.17C59.4522 188.906 61.4689 189.122 63.35 189.8C64.1518 190.076 64.8313 190.625 65.27 191.35Z" fill="#E0E0E0"/>
<path d="M63.07 188.58C63.07 188.66 61.87 188.1 59.92 187.44C57.379 186.592 54.7419 186.064 52.07 185.87C49.3967 185.676 46.7096 185.814 44.07 186.28C42.07 186.64 40.82 187.02 40.79 186.93C41.0487 186.774 41.3282 186.657 41.62 186.58C42.3976 186.304 43.1927 186.08 44 185.91C49.3573 184.735 54.9417 185.159 60.06 187.13C60.8279 187.421 61.5791 187.755 62.31 188.13C62.5835 188.243 62.8394 188.394 63.07 188.58V188.58Z" fill="#E0E0E0"/>
<path d="M81.2699 176.87C80.3287 174.256 79.5603 171.584 78.9699 168.87C78.2029 166.211 77.6084 163.505 77.1899 160.77C78.1249 163.384 78.8898 166.056 79.4799 168.77C80.2459 171.429 80.8437 174.135 81.2699 176.87V176.87Z" fill="#E0E0E0"/>
<path d="M81.38 176.87C80.6411 175.225 79.7926 173.632 78.84 172.1C77.7656 170.654 76.5047 169.356 75.09 168.24C75.6258 168.367 76.1232 168.62 76.54 168.98C77.6079 169.781 78.5312 170.758 79.27 171.87C80.3957 173.325 81.1229 175.049 81.38 176.87Z" fill="#E0E0E0"/>
<path d="M81.27 281.93C81.27 281.93 81.11 281.05 80.69 279.49C80.0955 277.302 79.2848 275.178 78.27 273.15C75.73 267.98 71.13 261.41 65.27 254.84C62.37 251.53 59.56 248.4 57.17 245.41C55.0244 242.777 53.0853 239.982 51.37 237.05C50.2193 235.072 49.2424 232.998 48.45 230.85C48.18 230.08 47.98 229.49 47.87 229.07C47.7986 228.866 47.7483 228.655 47.72 228.44C47.72 228.44 48.04 229.28 48.64 230.77C49.4958 232.878 50.5122 234.918 51.68 236.87C53.4272 239.756 55.3824 242.51 57.53 245.11C59.93 248.11 62.74 251.18 65.65 254.5C71.52 261.09 76.12 267.74 78.58 273C79.5816 275.06 80.3562 277.223 80.89 279.45C81.0306 280.058 81.1408 280.672 81.22 281.29C81.2603 281.501 81.277 281.716 81.27 281.93V281.93Z" fill="#E0E0E0"/>
<path d="M110.21 249.24C109.727 249.561 109.222 249.848 108.7 250.1C107.322 250.865 106.005 251.734 104.76 252.7C102.92 254.134 101.195 255.708 99.6 257.41C97.78 259.32 95.91 261.55 94.01 263.93C90.2 268.72 86.63 272.93 84.5 276.33C83.6354 277.646 82.8377 279.004 82.11 280.4C81.8675 280.93 81.5868 281.441 81.27 281.93C81.2974 281.781 81.3445 281.637 81.41 281.5C81.53 281.23 81.68 280.82 81.92 280.31C82.587 278.872 83.3418 277.476 84.18 276.13C86.25 272.67 89.79 268.38 93.59 263.6C95.5 261.21 97.4 258.98 99.24 257.07C100.87 255.365 102.643 253.802 104.54 252.4C105.821 251.457 107.179 250.624 108.6 249.91C109.1 249.66 109.51 249.51 109.78 249.39C109.918 249.327 110.062 249.277 110.21 249.24V249.24Z" fill="#E0E0E0"/>
<path d="M110.78 259.87C109.723 260.1 108.65 260.254 107.57 260.33C104.997 260.6 102.453 261.102 99.97 261.83C97.5171 262.632 95.2154 263.839 93.16 265.4C91.59 266.62 90.85 267.62 90.78 267.56C90.71 267.5 90.91 267.27 91.26 266.82C91.7565 266.194 92.3161 265.621 92.93 265.11C94.96 263.42 97.2957 262.137 99.81 261.33C102.325 260.575 104.919 260.115 107.54 259.96C108.615 259.831 109.7 259.801 110.78 259.87V259.87Z" fill="#E0E0E0"/>
<path d="M91.7201 266.38C91.5501 266.28 92.9901 264.07 94.1101 261.11C95.2301 258.15 95.4101 255.48 95.6001 255.52C95.7013 256.089 95.7013 256.671 95.6001 257.24C95.4394 258.621 95.1241 259.979 94.6601 261.29C94.1755 262.59 93.5519 263.834 92.8001 265C92.5185 265.516 92.1536 265.983 91.7201 266.38V266.38Z" fill="#E0E0E0"/>
<path d="M119.59 220.77C119.429 220.884 119.254 220.978 119.07 221.05L117.57 221.73C116.91 222.02 116.1 222.37 115.2 222.85C114.3 223.33 113.2 223.8 112.14 224.46L110.39 225.46C109.78 225.81 109.18 226.23 108.55 226.63C107.26 227.41 105.96 228.37 104.55 229.35C98.6427 233.746 93.4918 239.076 89.3 245.13C88.36 246.55 87.44 247.87 86.7 249.19C86.33 249.84 85.93 250.45 85.61 251.07L84.67 252.85C84.05 253.97 83.6 255.05 83.17 255.97C82.74 256.89 82.39 257.7 82.17 258.37C81.95 259.04 81.71 259.49 81.54 259.9C81.4741 260.083 81.3869 260.257 81.28 260.42C81.3151 260.228 81.3687 260.041 81.44 259.86L81.98 258.29C82.21 257.61 82.52 256.78 82.98 255.85C83.44 254.92 83.81 253.85 84.42 252.68L85.27 250.87C85.59 250.25 85.97 249.62 86.35 248.96C87.07 247.63 87.98 246.29 88.92 244.86C91.0216 241.812 93.3623 238.936 95.92 236.26C98.5111 233.611 101.306 231.17 104.28 228.96C105.67 227.96 106.98 227.03 108.28 226.26C108.93 225.86 109.54 225.45 110.15 225.11L111.93 224.11C113.05 223.47 114.12 223.01 115.04 222.56C115.96 222.11 116.78 221.78 117.45 221.56L119 220.97C119.19 220.885 119.388 220.818 119.59 220.77V220.77Z" fill="#E0E0E0"/>
<path d="M96.6801 236.12C96.8909 235.379 97.3322 234.724 97.94 234.25C99.3473 233.022 101.143 232.332 103.01 232.3C104.842 232.278 106.66 232.618 108.36 233.3C109.073 233.532 109.747 233.869 110.36 234.3C109.628 234.163 108.911 233.956 108.22 233.68C106.547 233.104 104.79 232.81 103.02 232.81C101.264 232.846 99.5645 233.441 98.1701 234.51C97.637 235.012 97.1391 235.55 96.6801 236.12V236.12Z" fill="#E0E0E0"/>
<path d="M93.27 239.65C93.9453 238.154 94.4291 236.578 94.71 234.96C94.8137 233.323 94.7061 231.68 94.39 230.07C94.6866 230.477 94.8882 230.945 94.98 231.44C95.592 233.794 95.2995 236.292 94.16 238.44C93.7 239.27 93.27 239.69 93.27 239.65Z" fill="#E0E0E0"/>
<path d="M55.96 287.18C56.75 301.18 60.96 315.43 67.46 329.83H95.69C101.88 315.58 105.81 301.35 106.51 287.18H55.96Z" fill="#E0E0E0"/>
<path d="M101.94 309.87C101.94 310.01 92.64 310.13 81.18 310.13C69.72 310.13 60.42 310.01 60.42 309.87C60.42 309.73 69.71 309.6 81.18 309.6C92.65 309.6 101.94 309.7 101.94 309.87Z" fill="#FAFAFA"/>
<path d="M101.27 314.92C101.27 315.07 92.56 315.18 81.81 315.18C71.06 315.18 62.35 315.07 62.35 314.92C62.35 314.77 71.07 314.66 81.81 314.66C92.55 314.66 101.27 314.77 101.27 314.92Z" fill="#FAFAFA"/>
<path d="M67.92 296.38C68.2667 300.706 68.2667 305.053 67.92 309.38C67.56 305.054 67.56 300.706 67.92 296.38V296.38Z" fill="#FAFAFA"/>
<path d="M83.04 296.38C83.4 300.863 83.4 305.367 83.04 309.85C82.6934 305.367 82.6934 300.863 83.04 296.38V296.38Z" fill="#FAFAFA"/>
<path d="M97.27 296.26C97.63 300.833 97.63 305.427 97.27 310C96.9233 305.426 96.9233 300.833 97.27 296.26V296.26Z" fill="#FAFAFA"/>
<path d="M105.61 296.38C105.61 296.52 94.71 296.64 81.27 296.64C67.83 296.64 56.92 296.52 56.92 296.38C56.92 296.24 67.82 296.11 81.27 296.11C94.72 296.11 105.61 296.23 105.61 296.38Z" fill="#FAFAFA"/>
<path d="M474.8 330.443C474.8 330.583 368.507 330.633 237.414 330.563C106.322 330.493 0 330.303 0 330.153C0 330.003 106.272 329.963 237.414 330.033C368.557 330.103 474.8 330.303 474.8 330.443Z" fill="#263238"/>
<path d="M360.386 151.382C360.386 151.382 338.446 173.102 331.776 194.722C325.106 216.342 320.386 222.782 320.386 222.782L349.556 205.552L364.396 166.942L399.556 171.392L402.886 161.102C402.886 161.102 365.946 150.552 360.386 151.382Z" fill="#FFBE9D"/>
<path d="M399.556 171.392L403.696 173.052L412.926 182.672L423.876 188.102C423.876 188.102 425.346 187.792 424.256 186.242C423.166 184.692 421.626 181.902 421.626 181.902L430.046 182.102C430.046 182.102 430.716 180.402 427.946 179.712C426.987 179.466 426.053 179.131 425.156 178.712L419.316 172.972C419.316 172.972 414.176 166.862 412.466 165.852C410.756 164.842 402.926 161.112 402.926 161.112L399.556 171.392Z" fill="#FFBE9D"/>
<path d="M412.236 178.403C412.657 178.422 413.073 178.51 413.466 178.663C414.556 179.026 415.624 179.45 416.666 179.933L418.816 180.933C419.185 181.115 419.575 181.253 419.976 181.343C420.175 181.35 420.372 181.305 420.547 181.212C420.723 181.119 420.871 180.981 420.976 180.813C421.221 180.436 421.351 179.997 421.351 179.548C421.351 179.099 421.221 178.659 420.976 178.283C420.264 177.534 419.406 176.939 418.456 176.533C417.257 175.952 416.021 175.451 414.756 175.033H414.666V174.953L413.376 172.823C412.972 172.199 412.502 171.619 411.976 171.093C411.066 170.224 410.06 169.462 408.976 168.823C407.166 167.743 405.976 167.293 405.976 167.213C406.272 167.271 406.56 167.362 406.836 167.483C407.618 167.784 408.376 168.142 409.106 168.553C410.229 169.167 411.274 169.916 412.216 170.783C412.779 171.321 413.279 171.922 413.706 172.573C414.136 173.253 414.566 173.963 415.026 174.693L414.886 174.583C416.175 175.001 417.435 175.506 418.656 176.093C419.683 176.533 420.606 177.184 421.366 178.003C421.677 178.464 421.843 179.007 421.843 179.563C421.843 180.119 421.677 180.662 421.366 181.123C421.214 181.35 421.007 181.535 420.764 181.659C420.52 181.783 420.249 181.843 419.976 181.833C419.521 181.735 419.08 181.577 418.666 181.363L416.536 180.363C415.236 179.723 414.186 179.243 413.436 178.943C413.025 178.789 412.624 178.608 412.236 178.403V178.403Z" fill="#EB996E"/>
<path d="M369.276 219.443C369.276 219.443 374.276 218.983 377.756 221.323C381.236 223.663 401.976 237.833 407.446 238.793C410.439 239.401 413.523 239.401 416.516 238.793L426.986 206.633L436.196 209.763C436.196 209.763 432.296 246.953 427.606 250.853C422.916 254.753 413.226 256.953 404.946 256.323C396.666 255.693 376.356 242.883 376.356 242.883L364.356 245.883V227.883L369.276 219.443Z" fill="#FFBE9D"/>
<path d="M423.216 184.633C423.216 184.633 422.736 182.363 424.216 181.973C424.596 181.846 425.003 181.822 425.395 181.905C425.787 181.987 426.15 182.173 426.446 182.443C426.446 182.443 428.876 180.163 430.046 182.133C430.748 183.443 431.027 184.938 430.846 186.413C430.846 186.413 433.666 185.543 434.026 187.493C434.386 189.443 434.026 189.803 434.026 189.803C434.026 189.803 436.406 190.313 436.836 191.033C437.373 192.3 437.83 193.599 438.206 194.923C438.206 194.923 438.136 201.923 438.206 203.153C438.276 204.383 436.206 209.763 436.206 209.763L426.996 206.633C426.996 206.633 425.476 200.773 425.336 200.553C425.196 200.333 423.126 193.343 423.156 193.123C423.186 192.903 423.536 187.423 423.536 187.423L423.216 184.633Z" fill="#FFBE9D"/>
<path d="M423.146 193.103C423.084 192.458 423.084 191.808 423.146 191.163C423.146 190.503 423.206 189.763 423.246 188.943C423.246 188.513 423.246 188.063 423.306 187.583C423.305 187.444 423.326 187.306 423.366 187.173C423.416 187.033 423.486 186.901 423.576 186.783C423.745 186.56 423.948 186.365 424.176 186.203V186.203C424.693 185.975 425.275 185.94 425.815 186.103C426.356 186.266 426.821 186.617 427.126 187.093C427.738 188.081 428.127 189.19 428.266 190.343C428.406 191.242 428.47 192.152 428.456 193.063C428.446 193.451 428.543 193.835 428.736 194.173C428.949 194.502 429.201 194.804 429.486 195.073C430.518 196.095 431.319 197.326 431.836 198.683C432.185 199.593 432.394 200.55 432.456 201.523C432.499 201.876 432.482 202.235 432.406 202.583C432.265 201.296 431.959 200.032 431.496 198.823C430.955 197.537 430.155 196.376 429.146 195.413C428.822 195.119 428.539 194.783 428.306 194.413C428.071 194.005 427.947 193.543 427.946 193.073C427.954 192.182 427.887 191.292 427.746 190.413C427.624 189.354 427.283 188.333 426.746 187.413C426.51 187.031 426.149 186.743 425.723 186.598C425.298 186.454 424.836 186.463 424.416 186.623V186.623C424.036 186.923 423.676 187.243 423.706 187.623L423.596 188.983C423.526 189.793 423.456 190.533 423.396 191.193C423.366 191.835 423.282 192.474 423.146 193.103Z" fill="#EB996E"/>
<path d="M433.316 190.233C433.312 190.776 433.16 191.309 432.876 191.773C432.604 192.302 432.268 192.795 431.876 193.243C431.627 193.561 431.272 193.781 430.876 193.863C430.752 193.88 430.625 193.871 430.505 193.837C430.384 193.802 430.272 193.743 430.176 193.663C430 193.508 429.872 193.307 429.806 193.083C429.58 191.804 429.563 190.497 429.756 189.213C429.781 188.678 429.925 188.155 430.176 187.683C430.216 188.206 430.199 188.733 430.126 189.253C430.05 190.479 430.111 191.71 430.306 192.923C430.396 193.233 430.586 193.383 430.806 193.353C431.076 193.28 431.317 193.127 431.496 192.913C431.872 192.507 432.207 192.064 432.496 191.593C432.74 191.122 433.014 190.668 433.316 190.233V190.233Z" fill="#EB996E"/>
<path d="M436.206 192.103C436.045 192.612 435.802 193.092 435.486 193.523C435.186 194.003 434.876 194.523 434.576 194.983C434.391 195.297 434.162 195.583 433.896 195.833C433.725 195.99 433.511 196.094 433.282 196.129C433.052 196.165 432.817 196.131 432.606 196.033C432.416 195.915 432.256 195.754 432.139 195.563C432.023 195.372 431.953 195.156 431.936 194.933C431.895 194.577 431.895 194.218 431.936 193.863C432.001 193.272 432.156 192.696 432.396 192.153C432.806 191.233 433.266 190.793 433.316 190.833C433.366 190.873 433.036 191.383 432.736 192.293C432.562 192.817 432.451 193.361 432.406 193.913C432.406 194.513 432.326 195.313 432.816 195.573C432.938 195.623 433.072 195.636 433.202 195.611C433.331 195.586 433.451 195.524 433.546 195.433C433.779 195.222 433.981 194.98 434.146 194.713L435.146 193.323C435.756 192.483 436.146 192.013 436.206 192.103Z" fill="#EB996E"/>
<path d="M427.266 187.552C427.206 187.682 426.166 187.032 425.796 185.652C425.64 185.264 425.587 184.842 425.641 184.427C425.695 184.012 425.855 183.617 426.106 183.282C426.109 184.033 426.173 184.782 426.296 185.522C426.606 186.712 427.366 187.432 427.266 187.552Z" fill="#EB996E"/>
<path d="M378.356 232.843C378.356 232.943 377.356 233.003 375.806 233.413C373.784 233.952 371.882 234.864 370.196 236.103C368.517 237.353 367.083 238.902 365.966 240.673C365.116 242.043 364.766 242.993 364.676 242.953C364.691 242.715 364.749 242.481 364.846 242.263C365.06 241.651 365.328 241.058 365.646 240.493C366.709 238.622 368.156 236.996 369.891 235.722C371.627 234.449 373.612 233.556 375.716 233.103C376.35 232.96 376.996 232.879 377.646 232.863C377.88 232.818 378.12 232.811 378.356 232.843V232.843Z" fill="#EB996E"/>
<path d="M424.236 186.723C423.568 185.867 422.994 184.942 422.526 183.963C421.928 183.067 421.431 182.108 421.046 181.103C422.591 182.664 423.704 184.601 424.276 186.723H424.236Z" fill="#EB996E"/>
<path d="M430.676 186.483C430.508 185.887 430.388 185.278 430.316 184.663C430.183 184.029 429.914 183.432 429.526 182.913C429.314 182.605 429.025 182.357 428.689 182.194C428.352 182.031 427.979 181.958 427.606 181.983C427.353 181.998 427.107 182.075 426.891 182.207C426.674 182.34 426.494 182.524 426.366 182.743L426.176 183.103L425.936 182.783C425.771 182.573 425.554 182.41 425.307 182.31C425.06 182.21 424.79 182.177 424.526 182.213C424.32 182.25 424.124 182.331 423.951 182.45C423.779 182.569 423.634 182.723 423.526 182.903C423.332 183.27 423.225 183.677 423.216 184.093C423.216 184.093 422.866 183.593 423.216 182.753C423.33 182.499 423.503 182.275 423.72 182.102C423.937 181.928 424.193 181.808 424.466 181.753C424.812 181.692 425.169 181.724 425.499 181.846C425.829 181.967 426.121 182.173 426.346 182.443H425.926C426.086 182.141 426.321 181.885 426.608 181.699C426.895 181.514 427.225 181.405 427.566 181.383C428.025 181.352 428.485 181.443 428.897 181.647C429.31 181.85 429.661 182.16 429.916 182.543C430.336 183.135 430.601 183.822 430.686 184.543C430.824 185.183 430.82 185.845 430.676 186.483V186.483Z" fill="#EB996E"/>
<path d="M418.516 258.592C418.426 258.592 415.576 251.482 415.576 251.482C415.576 251.482 409.796 251.012 408.856 246.482C407.916 241.952 409.166 241.482 410.856 235.702C412.546 229.922 411.486 224.602 412.416 221.012C413.346 217.422 418.826 212.262 420.546 214.292C422.266 216.322 419.916 217.572 420.546 220.542C421.176 223.512 423.046 234.602 424.296 239.102C425.546 243.602 429.346 254.992 429.346 254.992L418.516 258.592Z" fill="#FFBE9D"/>
<path d="M418.516 258.593C418.571 258.553 418.631 258.522 418.696 258.503L419.236 258.303L421.336 257.563L429.336 254.833L429.236 255.033C428.486 252.713 427.626 250.033 426.686 247.133C426.206 245.673 425.686 244.133 425.196 242.523C424.706 240.913 424.086 239.273 423.686 237.523C422.856 233.983 422.156 230.183 421.416 226.203C421.046 224.203 420.666 222.203 420.276 220.103C420.214 219.006 420.398 217.909 420.816 216.893C420.988 216.429 421.03 215.928 420.936 215.443C420.876 215.21 420.774 214.989 420.636 214.793C420.523 214.587 420.361 214.412 420.166 214.283C419.922 214.175 419.657 214.124 419.39 214.132C419.124 214.141 418.863 214.209 418.626 214.333C418.083 214.563 417.572 214.862 417.106 215.223C416.166 215.938 415.322 216.771 414.596 217.703C413.862 218.602 413.281 219.615 412.876 220.703C412.554 221.781 412.376 222.897 412.346 224.023C412.236 226.273 412.286 228.503 412.086 230.643C411.923 232.721 411.51 234.773 410.856 236.753C410.276 238.653 409.456 240.413 408.996 242.113C408.648 243.773 408.734 245.495 409.246 247.113C409.729 248.508 410.737 249.659 412.056 250.323C413.168 250.91 414.378 251.289 415.626 251.443H415.706V251.513C417.396 255.793 418.196 257.843 418.526 258.673C418.18 258.103 417.892 257.5 417.666 256.873C417.146 255.683 416.396 253.873 415.456 251.613L415.576 251.693C414.285 251.561 413.03 251.188 411.876 250.593C410.476 249.902 409.4 248.693 408.876 247.223C408.637 246.41 408.48 245.576 408.406 244.733C408.317 243.832 408.378 242.923 408.586 242.043C409.056 240.253 409.846 238.533 410.416 236.633C411.045 234.686 411.445 232.672 411.606 230.633C411.786 228.513 411.736 226.313 411.836 224.033C411.864 222.857 412.046 221.691 412.376 220.563C412.807 219.432 413.418 218.378 414.186 217.443C414.937 216.473 415.811 215.606 416.786 214.863C417.286 214.477 417.834 214.158 418.416 213.913C418.728 213.761 419.07 213.682 419.416 213.682C419.763 213.682 420.105 213.761 420.416 213.913C420.676 214.087 420.894 214.315 421.056 214.583C421.221 214.832 421.346 215.105 421.426 215.393C421.536 215.967 421.491 216.561 421.296 217.113C420.902 218.061 420.724 219.086 420.776 220.113C421.156 222.173 421.526 224.203 421.896 226.183C422.626 230.183 423.306 233.963 424.126 237.483C424.506 239.243 425.126 240.893 425.596 242.483C426.066 244.073 426.596 245.633 427.046 247.103C427.966 250.033 428.796 252.693 429.516 255.013L429.566 255.163H429.416L421.416 257.753L419.286 258.423L418.736 258.583L418.516 258.593Z" fill="#EB996E"/>
<path d="M384.256 149.103C382.103 147.993 379.618 147.709 377.27 148.304C374.921 148.899 372.872 150.332 371.506 152.333C370.61 153.747 370.121 155.38 370.091 157.054C370.061 158.728 370.492 160.377 371.336 161.823C371.92 162.742 372.681 163.534 373.576 164.154C374.471 164.774 375.481 165.209 376.546 165.433H375.446C379.906 167.283 386.116 165.983 388.226 161.623C389.205 159.411 389.341 156.917 388.61 154.612C387.879 152.306 386.33 150.347 384.256 149.103V149.103Z" fill="#263238"/>
<path d="M393.106 167.993C389.956 164.273 385.526 162.993 380.686 162.413C375.79 161.952 370.87 162.999 366.586 165.413C361.661 168.247 357.684 172.474 355.156 177.563C354.147 179.749 353.679 182.147 353.793 184.552C353.906 186.958 354.596 189.301 355.806 191.383C359.356 197.433 365.376 202.153 372.376 202.523C379.376 202.893 386.376 199.613 391.066 194.423C394.399 190.869 396.526 186.355 397.146 181.523C397.439 179.12 397.235 176.683 396.547 174.362C395.859 172.042 394.701 169.887 393.146 168.033" fill="#263238"/>
<path d="M372.106 171.673C373.826 170.723 374.946 168.983 376.416 167.673C379.656 164.793 384.516 164.393 388.656 165.673C392.506 166.883 395.756 170.073 398.256 174.063C400.022 176.795 400.979 179.97 401.016 183.223C400.969 185.377 400.407 187.489 399.377 189.382C398.348 191.275 396.88 192.893 395.096 194.103L380.366 177.493C377.696 177.614 375.024 177.297 372.456 176.553C371.697 176.333 371.007 175.919 370.456 175.353C370.184 175.068 370.001 174.71 369.932 174.322C369.862 173.934 369.909 173.534 370.066 173.173C370.456 172.403 371.356 172.103 372.106 171.673Z" fill="#263238"/>
<path d="M394.706 179.013L377.426 169.753C376.702 169.223 375.805 168.983 374.913 169.081C374.021 169.179 373.198 169.608 372.606 170.283L346.046 202.163C344.218 204.333 343.163 207.048 343.046 209.883L342.926 212.883C342.85 214.455 343.167 216.021 343.848 217.439C344.53 218.857 345.555 220.083 346.83 221.006C348.105 221.928 349.59 222.518 351.15 222.722C352.71 222.926 354.297 222.737 355.766 222.173C356.12 222.033 356.455 221.852 356.766 221.633C357.056 221.383 357.296 221.263 357.516 221.033C359.106 219.658 360.547 218.119 361.816 216.443C364.346 213.733 365.366 212.613 365.346 212.643C365.326 212.673 371.986 216.943 380.036 210.513C384.036 207.313 389.456 201.003 393.706 195.703C397.576 190.903 399.636 182.643 394.706 179.013Z" fill="#FFBE9D"/>
<path d="M386.716 199.913C386.492 200.168 386.177 200.325 385.838 200.35C385.499 200.374 385.164 200.264 384.906 200.043C384.775 199.94 384.665 199.813 384.583 199.667C384.501 199.522 384.449 199.362 384.429 199.197C384.41 199.031 384.423 198.863 384.469 198.703C384.515 198.543 384.592 198.393 384.696 198.263C384.924 198.01 385.242 197.856 385.582 197.834C385.921 197.811 386.257 197.922 386.516 198.143C386.648 198.244 386.757 198.371 386.839 198.516C386.921 198.661 386.972 198.82 386.991 198.985C387.01 199.15 386.995 199.318 386.948 199.477C386.9 199.636 386.822 199.784 386.716 199.913V199.913Z" fill="#263238"/>
<path d="M389.496 197.653C389.266 197.653 389.026 196.463 387.986 195.523C386.946 194.583 385.706 194.403 385.716 194.173C385.726 193.943 386.036 193.953 386.596 194.013C387.342 194.107 388.04 194.428 388.596 194.933C389.136 195.427 389.506 196.077 389.656 196.793C389.706 197.333 389.606 197.653 389.496 197.653Z" fill="#263238"/>
<path d="M377.336 191.673C377.108 191.925 376.79 192.079 376.45 192.102C376.111 192.124 375.776 192.013 375.516 191.793C375.384 191.69 375.274 191.563 375.192 191.417C375.111 191.271 375.059 191.111 375.04 190.945C375.022 190.779 375.037 190.611 375.084 190.451C375.131 190.291 375.21 190.142 375.316 190.013C375.543 189.761 375.859 189.607 376.197 189.585C376.535 189.562 376.868 189.673 377.126 189.893C377.258 189.995 377.367 190.123 377.449 190.268C377.531 190.413 377.583 190.573 377.603 190.739C377.622 190.904 377.609 191.072 377.563 191.233C377.517 191.393 377.44 191.542 377.336 191.673V191.673Z" fill="#263238"/>
<path d="M379.526 188.803C379.296 188.803 379.056 187.603 378.016 186.663C376.976 185.723 375.736 185.543 375.746 185.313C375.756 185.083 376.066 185.093 376.616 185.153C377.363 185.242 378.063 185.564 378.616 186.073C379.159 186.563 379.531 187.215 379.676 187.933C379.736 188.473 379.636 188.793 379.526 188.803Z" fill="#263238"/>
<path d="M375.866 199.683C376.583 200.006 377.255 200.419 377.866 200.913C378.156 201.123 378.456 201.303 378.666 201.163C378.876 201.023 379.056 200.643 379.206 200.213C379.536 199.343 379.896 198.433 380.266 197.483C381.1 195.109 382.12 192.806 383.316 190.593C383.476 190.663 382.316 193.843 380.826 197.713C380.436 198.663 380.076 199.563 379.726 200.433C379.597 200.903 379.306 201.314 378.906 201.593C378.783 201.652 378.648 201.683 378.511 201.683C378.374 201.683 378.239 201.652 378.116 201.593C377.934 201.5 377.766 201.382 377.616 201.243C376.967 200.801 376.379 200.277 375.866 199.683V199.683Z" fill="#263238"/>
<path d="M365.376 212.623C361.783 209.445 359.142 205.333 357.746 200.743C357.746 200.743 355.536 208.263 363.746 214.423L365.376 212.623Z" fill="#EB996E"/>
<path d="M373.136 201.783C373.17 201.357 373.097 200.93 372.922 200.54C372.747 200.15 372.477 199.811 372.136 199.553C371.888 199.365 371.604 199.229 371.301 199.153C370.999 199.077 370.684 199.064 370.376 199.113C370.081 199.161 369.807 199.298 369.591 199.505C369.375 199.712 369.227 199.98 369.166 200.273C369.164 200.612 369.262 200.945 369.449 201.228C369.636 201.511 369.903 201.732 370.216 201.863C370.866 202.134 371.562 202.277 372.266 202.283C372.458 202.318 372.654 202.318 372.846 202.283C372.936 202.259 373.017 202.209 373.079 202.14C373.141 202.071 373.182 201.985 373.196 201.893" fill="#EB996E"/>
<path d="M372.156 197.613C372.326 197.753 371.306 198.883 371.536 200.563C371.766 202.243 373.086 203.213 372.956 203.383C372.826 203.553 372.486 203.383 371.956 202.903C371.287 202.313 370.847 201.505 370.716 200.623C370.588 199.773 370.8 198.907 371.306 198.213C371.696 197.703 372.046 197.533 372.156 197.613Z" fill="#263238"/>
<path d="M382.476 185.823C382.116 186.013 381.206 184.933 379.846 183.973C378.486 183.013 377.206 182.443 377.276 182.043C377.276 181.853 377.726 181.743 378.376 181.833C379.215 181.977 380.007 182.32 380.686 182.833C381.383 183.322 381.95 183.974 382.336 184.733C382.616 185.303 382.646 185.733 382.476 185.823Z" fill="#263238"/>
<path d="M392.176 194.463C391.786 194.533 391.286 193.633 390.436 192.843C389.586 192.053 388.706 191.553 388.766 191.153C388.766 190.963 389.126 190.833 389.656 190.893C390.327 191.017 390.945 191.337 391.435 191.812C391.924 192.287 392.262 192.896 392.406 193.563C392.486 194.103 392.366 194.423 392.176 194.463Z" fill="#263238"/>
<path d="M371.326 167.103C376.616 163.923 388.376 163.443 392.716 167.823L396.216 178.733C394.87 179.782 393.266 180.448 391.572 180.661C389.879 180.874 388.16 180.626 386.596 179.943C384.936 179.193 383.276 177.943 381.506 178.363C379.736 178.783 378.706 180.893 376.926 181.423C374.466 182.163 371.746 179.633 369.416 180.733C368.416 181.213 367.766 182.293 366.746 182.733C365.376 183.353 361.646 182.373 360.876 181.093C360.106 179.813 361.696 177.983 362.186 176.713C362.695 175.245 363.695 173.999 365.016 173.183C367.376 171.493 368.806 168.663 371.326 167.103Z" fill="#263238"/>
<path d="M363.246 184.832C363.756 184.272 364.306 182.362 363.836 181.762C362.566 180.192 359.836 177.882 356.346 181.612C351.636 186.702 357.726 190.382 357.866 190.252C358.006 190.122 361.486 186.772 363.246 184.832Z" fill="#FFBE9D"/>
<path d="M358.096 186.873C358.096 186.873 357.956 186.873 357.736 186.783C357.59 186.734 357.455 186.655 357.339 186.552C357.224 186.449 357.131 186.323 357.066 186.183C356.93 185.67 356.933 185.131 357.073 184.62C357.214 184.109 357.488 183.644 357.866 183.273C358.266 182.842 358.754 182.501 359.296 182.273C359.489 182.156 359.708 182.089 359.933 182.079C360.159 182.068 360.383 182.114 360.586 182.213C360.714 182.278 360.814 182.386 360.869 182.518C360.924 182.65 360.93 182.797 360.886 182.933C360.826 183.143 360.696 183.213 360.716 183.253C360.736 183.293 360.906 183.253 361.056 183.013C361.15 182.864 361.186 182.686 361.156 182.513C361.107 182.278 360.976 182.069 360.786 181.923C360.537 181.773 360.254 181.688 359.964 181.678C359.673 181.667 359.385 181.731 359.126 181.863C358.5 182.098 357.943 182.487 357.506 182.993C356.586 184.053 356.226 185.503 356.766 186.393C356.865 186.562 357.001 186.705 357.164 186.813C357.327 186.92 357.512 186.989 357.706 187.013C357.976 186.993 358.106 186.903 358.096 186.873Z" fill="#EB996E"/>
<path d="M396.046 175.873C394.716 178.443 395.666 183.983 395.686 186.873C395.686 192.393 395.846 193.303 387.686 202.943C391.644 201.147 395.163 198.509 397.996 195.213C400.319 192.339 401.51 188.715 401.346 185.023C401.238 183.192 400.705 181.412 399.788 179.824C398.872 178.235 397.597 176.882 396.066 175.873" fill="#263238"/>
<path d="M368.686 164.793C368.892 165.147 369.129 165.482 369.396 165.793C369.636 166.103 369.936 166.473 370.316 166.883C370.696 167.293 371.096 167.783 371.606 168.263C372.768 169.424 374.015 170.497 375.336 171.473C376.958 172.657 378.674 173.707 380.466 174.613C382.274 175.499 384.15 176.238 386.076 176.823C387.653 177.273 389.261 177.607 390.886 177.823C391.576 177.943 392.216 177.973 392.766 178.023C393.238 178.072 393.712 178.096 394.186 178.093C394.592 178.127 395 178.127 395.406 178.093C395.008 178.008 394.603 177.961 394.196 177.953C393.806 177.953 393.336 177.893 392.786 177.813C392.236 177.733 391.616 177.693 390.926 177.553C389.323 177.284 387.74 176.91 386.186 176.433C384.289 175.838 382.44 175.099 380.656 174.223C378.882 173.325 377.177 172.295 375.556 171.143C374.241 170.187 372.989 169.148 371.806 168.033C371.286 167.573 370.866 167.103 370.486 166.703C370.136 166.387 369.802 166.053 369.486 165.703C369.243 165.379 368.976 165.075 368.686 164.793Z" fill="#455A64"/>
<path d="M364.926 168.103C365.058 168.347 365.222 168.573 365.416 168.773C365.891 169.354 366.399 169.908 366.936 170.433C370.508 173.934 374.957 176.407 379.816 177.593C380.548 177.774 381.289 177.914 382.036 178.013C382.306 178.066 382.581 178.086 382.856 178.073C382.856 178.003 381.706 177.813 379.856 177.303C377.488 176.641 375.206 175.704 373.056 174.513C370.9 173.315 368.887 171.875 367.056 170.223C365.746 168.973 364.976 168.103 364.926 168.103Z" fill="#455A64"/>
<path d="M363.476 167.103C363.166 167.283 362.881 167.501 362.626 167.753C361.89 168.377 361.192 169.045 360.536 169.753C359.546 170.8 358.614 171.902 357.746 173.053C356.652 174.451 355.694 175.951 354.886 177.533C353.468 180.48 353.132 183.832 353.936 187.003C354.194 187.945 354.552 188.857 355.006 189.723C355.155 190.048 355.339 190.357 355.556 190.643C355.453 190.298 355.319 189.963 355.156 189.643C354.765 188.765 354.454 187.855 354.226 186.923C353.892 185.542 353.791 184.116 353.926 182.703C354.066 180.967 354.524 179.272 355.276 177.703C356.069 176.149 357 174.67 358.056 173.283C359.056 171.983 359.946 170.863 360.756 169.943C361.566 169.023 362.246 168.313 362.756 167.833C363.016 167.61 363.257 167.366 363.476 167.103Z" fill="#455A64"/>
<path d="M387.896 164.343C387.846 164.413 387.086 163.873 385.736 163.263C382.199 161.647 378.192 161.387 374.476 162.533C373.056 162.973 372.236 163.403 372.196 163.323C372.84 162.814 373.572 162.427 374.356 162.183C376.226 161.5 378.218 161.214 380.205 161.343C382.192 161.472 384.13 162.013 385.896 162.933C386.643 163.277 387.32 163.755 387.896 164.343V164.343Z" fill="#27DFC1"/>
<path d="M344.316 204.813C344.696 203.959 345.166 203.148 345.716 202.393C346.944 200.492 348.28 198.662 349.716 196.913C351.148 195.164 352.673 193.495 354.286 191.913C354.919 191.221 355.623 190.598 356.386 190.053C355.832 190.803 355.22 191.508 354.556 192.163C353.386 193.433 351.786 195.163 350.116 197.233C348.446 199.303 347.056 201.233 346.046 202.583C345.536 203.375 344.957 204.121 344.316 204.813V204.813Z" fill="#EB996E"/>
<path d="M323.786 292.803C322.956 292.803 270.226 292.803 272.046 313.703C273.406 329.253 289.606 330.203 330.216 330.203L332.916 316.583L342.056 313.643L323.786 292.803Z" fill="#27DFC1"/>
<path d="M320.786 291.852C320.786 291.852 333.446 314.852 344.556 315.422C351.33 315.773 358.015 317.121 364.396 319.422C364.396 319.422 431.566 333.492 441.006 329.422C450.446 325.352 451.226 309.962 447.056 299.422C442.886 288.882 432.616 253.862 432.616 253.862L416.776 259.142C416.776 259.142 419.556 289.422 421.496 295.252C423.436 301.082 424.836 305.532 424.836 305.532L385.556 290.802L377.136 282.332C373.493 278.671 368.687 276.393 363.546 275.892L360.106 275.562L353.716 272.502L320.786 291.852Z" fill="#27DFC1"/>
<g opacity="0.3">
<path opacity="0.3" d="M364.286 318.013C364.286 316.793 363.146 315.933 362.136 315.253C358.136 312.503 353.576 309.623 348.696 310.123C347.497 310.378 346.266 310.446 345.046 310.323C343.836 310.063 342.706 308.893 343.046 307.713C342.461 308.832 341.58 309.769 340.499 310.422C339.418 311.074 338.179 311.417 336.916 311.413C334.385 311.372 331.914 310.642 329.766 309.303C327.566 308.073 325.526 306.573 323.286 305.433C317.876 302.693 311.546 302.223 305.526 303.013C299.506 303.803 293.736 305.783 288.006 307.753C294.491 306.119 301.148 305.263 307.836 305.203C315.836 305.853 326.556 310.383 332.906 316.583C334.294 316.321 335.64 315.87 336.906 315.243L339.966 314.303C341.452 314.779 342.969 315.153 344.506 315.423C347.196 315.913 354.146 316.473 357.326 317.323C360.506 318.173 364.726 319.533 364.726 319.533L364.286 318.013Z" fill="black"/>
</g>
<path d="M332.516 316.582L346.276 317.362C346.276 317.362 348.146 313.162 351.666 315.152C355.186 317.142 355.606 319.792 357.516 320.812C359.426 321.832 372.606 324.702 373.886 327.042C375.886 330.592 370.496 329.972 370.496 329.972L330.216 330.202L332.516 316.582Z" fill="#FFBE9D"/>
<path d="M285.636 308.532C285.788 308.453 285.949 308.392 286.116 308.352L287.536 307.932C288.766 307.582 290.536 307.102 292.786 306.582C295.407 305.964 298.061 305.5 300.736 305.192C304.019 304.802 307.339 304.825 310.616 305.262C313.887 305.76 317.078 306.688 320.106 308.022C322.584 309.082 324.967 310.353 327.226 311.822C328.757 312.803 330.205 313.907 331.556 315.122C331.907 315.455 332.241 315.805 332.556 316.172C332.682 316.293 332.79 316.431 332.876 316.582C332.876 316.582 332.366 316.082 331.386 315.272C330.012 314.119 328.562 313.06 327.046 312.102C324.779 310.695 322.405 309.468 319.946 308.432C316.946 307.143 313.794 306.239 310.566 305.742C303.656 304.792 297.336 306.012 292.886 306.912C290.656 307.382 288.886 307.812 287.606 308.102L286.166 308.422C285.996 308.486 285.817 308.523 285.636 308.532V308.532Z" fill="#263238"/>
<path d="M385.206 290.802C385.206 290.892 384.076 290.932 382.326 291.362C380.049 291.923 377.917 292.964 376.074 294.414C374.23 295.864 372.717 297.691 371.636 299.772C370.796 301.362 370.496 302.452 370.406 302.432C370.406 302.163 370.454 301.896 370.546 301.642C370.743 300.956 370.997 300.287 371.306 299.642C372.333 297.454 373.857 295.537 375.756 294.042C377.659 292.556 379.88 291.529 382.246 291.042C382.958 290.901 383.68 290.818 384.406 290.792C384.671 290.75 384.942 290.753 385.206 290.802V290.802Z" fill="#263238"/>
<path d="M343.586 307.563C343.584 307.127 343.621 306.692 343.696 306.263C343.786 305.433 343.996 304.263 344.306 302.763C345.978 295.069 349.342 287.843 354.156 281.613C355.076 280.423 355.866 279.493 356.446 278.883C356.719 278.543 357.031 278.238 357.376 277.973C357.152 278.348 356.891 278.7 356.596 279.023C356.066 279.663 355.326 280.623 354.446 281.833C349.843 288.125 346.52 295.26 344.666 302.833C344.306 304.283 344.046 305.463 343.896 306.283C343.846 306.721 343.742 307.151 343.586 307.563V307.563Z" fill="#263238"/>
<path d="M432.606 314.303C431.164 312.985 429.801 311.583 428.526 310.103C427.128 308.734 425.89 307.211 424.836 305.562C426.28 306.875 427.643 308.274 428.916 309.753C430.319 311.121 431.557 312.648 432.606 314.303Z" fill="#263238"/>
<g opacity="0.3">
<path opacity="0.3" d="M379.776 292.032C375.795 294.122 372.626 297.484 370.776 301.582C370.596 301.982 370.456 302.532 370.776 302.822C370.9 302.905 371.041 302.957 371.189 302.975C371.337 302.992 371.487 302.974 371.626 302.922C373.316 302.502 374.486 301.002 375.516 299.602L381.266 291.792C381.088 291.699 380.886 291.661 380.686 291.684C380.486 291.708 380.298 291.791 380.146 291.922" fill="black"/>
</g>
<path d="M344.826 204.723C343.996 204.723 321.826 215.003 317.886 221.673C313.946 228.343 308.436 240.283 309.826 252.503C311.216 264.723 320.936 293.613 321.496 292.783C322.056 291.953 353.716 272.503 353.716 272.503L349.826 263.893L364.396 245.833L369.276 219.443L344.826 204.723Z" fill="#FFBE9D"/>
<path d="M344.476 206.632C344.006 206.472 328.576 218.502 324.656 224.382C321.516 229.082 325.316 231.712 332.036 232.442C338.756 233.172 347.426 230.702 350.486 228.202C353.546 225.702 363.616 216.032 363.616 216.032L369.276 219.442C369.276 219.442 351.816 232.262 351.666 240.852C351.657 243.386 352.249 245.886 353.395 248.146C354.541 250.406 356.207 252.362 358.256 253.852L349.826 263.852L351.996 268.642C351.996 268.642 326.876 270.192 318.636 263.162C310.396 256.132 309.636 254.562 309.636 254.562C307.742 247.534 308.288 240.07 311.186 233.392C313.362 228.859 315.903 224.512 318.786 220.392C323.289 215.162 328.712 210.8 334.786 207.522C342.366 203.412 344.786 204.672 344.786 204.672L344.476 206.632Z" fill="#E0E0E0"/>
<path d="M334.846 280.652C334.132 278.318 333.512 275.956 332.986 273.572C333.656 274.617 334.118 275.782 334.346 277.002C334.737 278.177 334.907 279.415 334.846 280.652V280.652Z" fill="#EB996E"/>
<path d="M336.046 225.822C336.136 225.952 334.286 227.202 332.286 229.062C330.286 230.922 328.886 232.662 328.766 232.572C330.506 229.679 333.03 227.339 336.046 225.822V225.822Z" fill="#EB996E"/>
<g opacity="0.3">
<path opacity="0.3" d="M323.046 245.333H322.946C323.038 248.654 324.258 251.844 326.404 254.379C328.551 256.915 331.496 258.644 334.756 259.283C329.439 256.031 325.328 251.133 323.046 245.333V245.333Z" fill="black"/>
</g>
<path d="M336.266 260.033C335.99 259.99 335.723 259.902 335.476 259.773C334.785 259.49 334.117 259.156 333.476 258.773C331.322 257.498 329.406 255.856 327.816 253.923C326.239 251.989 324.914 249.862 323.876 247.593C323.476 246.733 323.176 246.013 322.996 245.513C322.877 245.26 322.8 244.99 322.766 244.713C323.298 245.591 323.779 246.499 324.206 247.433C325.326 249.617 326.666 251.681 328.206 253.593C329.77 255.479 331.607 257.12 333.656 258.463C335.226 259.463 336.296 259.943 336.266 260.033Z" fill="#263238"/>
<path d="M206.878 250.534C207.853 250.615 208.786 250.96 209.578 251.534C209.97 251.824 210.3 252.191 210.545 252.612C210.791 253.033 210.949 253.5 211.008 253.984C211.058 254.473 210.973 254.966 210.763 255.41C210.554 255.854 210.227 256.232 209.818 256.504C210.152 256.644 210.454 256.848 210.709 257.105C210.964 257.362 211.165 257.666 211.302 258.001C211.439 258.336 211.509 258.694 211.507 259.056C211.506 259.418 211.433 259.776 211.293 260.109C211.153 260.443 210.949 260.745 210.692 261C210.435 261.255 210.131 261.456 209.796 261.593C209.461 261.73 209.103 261.8 208.741 261.798C208.38 261.797 208.022 261.724 207.688 261.584C207.326 263.255 206.501 264.79 205.308 266.014L198.828 260.424L206.878 250.534Z" fill="#263238"/>
<path d="M184.368 204.764L182.848 212.504C182.848 212.504 170.908 211.964 168.428 223.504C167.228 229.074 165.698 240.764 164.428 251.354C163.771 256.847 165.207 262.385 168.45 266.866C171.693 271.347 176.506 274.442 181.928 275.534L183.048 275.754C195.228 277.484 203.508 268.104 204.898 255.874L212.968 210.074L198.218 194.784L184.368 204.764Z" fill="#C8877F"/>
<path d="M182.748 212.504C188.127 213.58 193.081 216.184 197.018 220.004C197.018 220.004 195.138 210.954 183.378 209.664L182.748 212.504Z" fill="#A06763"/>
<path d="M169.638 241.465C169.721 241.033 169.969 240.65 170.329 240.398C170.69 240.146 171.134 240.044 171.568 240.115C171.782 240.142 171.988 240.211 172.174 240.318C172.361 240.426 172.524 240.569 172.654 240.741C172.785 240.912 172.879 241.108 172.933 241.316C172.987 241.524 172.999 241.742 172.968 241.955C172.885 242.386 172.637 242.769 172.277 243.021C171.917 243.273 171.472 243.375 171.038 243.305C170.824 243.279 170.617 243.21 170.43 243.103C170.243 242.996 170.079 242.852 169.949 242.681C169.818 242.509 169.723 242.313 169.67 242.104C169.617 241.895 169.606 241.678 169.638 241.465V241.465Z" fill="#263238"/>
<path d="M168.068 246.204C168.308 246.024 169.378 247.204 171.158 247.564C172.938 247.924 174.418 247.294 174.568 247.564C174.718 247.834 174.358 248.034 173.708 248.334C172.828 248.71 171.854 248.805 170.918 248.604C169.993 248.419 169.149 247.947 168.508 247.254C168.048 246.704 167.948 246.284 168.068 246.204Z" fill="#263238"/>
<path d="M185.458 243.075C185.541 242.643 185.789 242.26 186.149 242.008C186.51 241.756 186.954 241.655 187.388 241.725C187.602 241.752 187.808 241.821 187.995 241.929C188.182 242.036 188.346 242.179 188.477 242.351C188.608 242.522 188.704 242.717 188.759 242.926C188.814 243.134 188.828 243.351 188.798 243.565C188.715 243.997 188.467 244.379 188.107 244.631C187.747 244.884 187.302 244.985 186.868 244.915C186.654 244.888 186.448 244.819 186.261 244.711C186.074 244.604 185.91 244.46 185.779 244.289C185.648 244.118 185.552 243.923 185.497 243.714C185.442 243.506 185.429 243.288 185.458 243.075V243.075Z" fill="#263238"/>
<path d="M185.618 249.385C185.868 249.205 186.938 250.385 188.708 250.745C190.478 251.105 191.978 250.475 192.128 250.745C192.278 251.015 191.918 251.215 191.258 251.505C190.383 251.885 189.411 251.983 188.478 251.785C187.551 251.604 186.706 251.131 186.068 250.435C185.608 249.905 185.498 249.475 185.618 249.385Z" fill="#263238"/>
<path d="M181.828 234.905C180.829 235.007 179.822 234.987 178.828 234.845C178.368 234.845 177.918 234.845 177.778 235.095C177.638 235.554 177.638 236.045 177.778 236.505C177.988 237.695 178.198 238.935 178.428 240.235C179.298 245.535 179.828 249.855 179.618 249.895C179.408 249.935 178.518 245.655 177.618 240.355C177.418 239.045 177.218 237.805 177.038 236.615C176.86 236.01 176.903 235.361 177.158 234.785C177.258 234.638 177.39 234.515 177.544 234.427C177.699 234.339 177.871 234.287 178.048 234.275C178.311 234.243 178.576 234.243 178.838 234.275C179.857 234.358 180.862 234.57 181.828 234.905V234.905Z" fill="#263238"/>
<path d="M187.308 234.734C187.018 234.734 187.408 232.734 186.028 231.054C184.648 229.374 182.558 229.144 182.588 228.874C182.618 228.604 183.128 228.594 183.998 228.744C185.133 228.955 186.157 229.561 186.888 230.454C187.611 231.303 187.97 232.403 187.888 233.514C187.748 234.384 187.438 234.774 187.308 234.734Z" fill="#263238"/>
<path d="M183.748 256.285C184.028 255.835 185.748 256.425 187.888 256.595C190.028 256.765 191.828 256.535 192.018 257.025C192.108 257.255 191.718 257.655 190.938 258.025C189.913 258.413 188.814 258.563 187.723 258.464C186.631 258.366 185.577 258.021 184.638 257.455C183.938 256.955 183.628 256.495 183.748 256.285Z" fill="#263238"/>
<path d="M167.678 251.484C168.078 251.144 169.218 251.814 170.678 252.124C172.138 252.434 173.448 252.404 173.678 252.884C173.768 253.114 173.488 253.484 172.868 253.754C172.046 254.074 171.145 254.133 170.288 253.924C169.424 253.735 168.641 253.28 168.048 252.624C167.588 252.104 167.498 251.654 167.678 251.484Z" fill="#263238"/>
<path d="M164.478 256.895C164.478 256.895 166.058 264.765 169.218 267.165C173.038 270.065 175.798 265.785 179.598 267.735C183.398 269.685 187.048 272.455 191.798 270.165C196.998 267.665 195.368 264.845 196.688 259.765C202.018 239.165 207.018 234.045 206.118 244.075C206.018 245.175 208.828 246.635 208.348 251.265C207.738 257.265 206.518 264.455 204.348 268.375C202.528 271.665 200.028 273.695 195.888 275.655C189.348 278.735 181.528 277.255 176.328 275.655C171.128 274.055 162.158 265.875 164.478 256.895Z" fill="#263238"/>
<path d="M205.318 244.244C205.246 244.672 205.262 245.109 205.364 245.531C205.466 245.952 205.653 246.348 205.913 246.695C206.173 247.042 206.501 247.333 206.876 247.549C207.252 247.766 207.668 247.903 208.098 247.954C210.298 248.184 212.948 247.444 213.708 242.954C215.048 234.954 206.778 235.284 206.708 235.504C206.638 235.724 205.848 240.904 205.318 244.244Z" fill="#C8877F"/>
<path d="M207.948 238.794C207.948 238.794 208.108 238.724 208.358 238.654C208.699 238.579 209.055 238.632 209.358 238.804C210.148 239.264 210.628 240.714 210.428 242.154C210.337 242.842 210.087 243.499 209.698 244.074C209.585 244.312 209.414 244.518 209.201 244.673C208.988 244.829 208.739 244.929 208.478 244.964C208.312 244.982 208.144 244.939 208.007 244.843C207.869 244.748 207.77 244.606 207.728 244.444C207.658 244.204 207.728 244.054 207.728 244.034C207.728 244.014 207.538 244.144 207.548 244.484C207.567 244.687 207.647 244.878 207.778 245.034C207.871 245.137 207.983 245.219 208.109 245.275C208.234 245.332 208.37 245.362 208.508 245.364C208.847 245.352 209.177 245.254 209.467 245.079C209.758 244.904 209.999 244.658 210.168 244.364C210.622 243.73 210.917 242.996 211.028 242.224C211.248 240.614 210.678 238.974 209.578 238.444C209.376 238.346 209.153 238.295 208.928 238.295C208.703 238.295 208.481 238.346 208.278 238.444C207.998 238.604 207.928 238.774 207.948 238.794Z" fill="#A06763"/>
<path d="M199.628 258.514C198.83 257.535 197.798 256.771 196.628 256.294C196.031 256.075 195.374 256.081 194.781 256.309C194.187 256.537 193.696 256.972 193.398 257.534C193.198 258.064 193.198 258.734 192.748 259.084C192.298 259.434 191.448 259.184 190.808 258.974C189.665 258.648 188.444 258.725 187.351 259.193C186.258 259.661 185.36 260.491 184.808 261.544C184.532 261.081 184.093 260.738 183.577 260.581C183.062 260.424 182.506 260.464 182.018 260.694C181.066 261.199 180.185 261.828 179.398 262.564C179.002 262.934 178.522 263.202 177.999 263.345C177.477 263.488 176.927 263.501 176.398 263.384C175.828 263.174 175.398 262.714 174.748 262.654C173.698 262.534 172.938 263.654 172.578 264.654C172.218 265.654 171.848 266.834 170.848 267.224C169.848 267.614 168.938 267.064 168.008 266.724C167.078 266.384 165.798 266.364 165.358 267.254C165.268 267.498 165.228 267.757 165.24 268.017C165.252 268.276 165.316 268.53 165.428 268.764C165.879 269.851 166.683 270.754 167.71 271.327C168.737 271.9 169.927 272.111 171.088 271.924C171.215 273.319 171.751 274.644 172.63 275.734C173.509 276.824 174.69 277.63 176.026 278.049C177.362 278.468 178.792 278.483 180.136 278.09C181.48 277.698 182.678 276.916 183.578 275.844C184.264 276.778 185.165 277.531 186.204 278.041C187.244 278.552 188.391 278.803 189.549 278.775C190.706 278.746 191.84 278.438 192.853 277.878C193.866 277.317 194.729 276.52 195.368 275.554C196.286 276.006 197.316 276.177 198.331 276.047C199.346 275.917 200.3 275.491 201.074 274.823C201.848 274.154 202.408 273.272 202.685 272.288C202.961 271.303 202.941 270.258 202.628 269.284C203.436 269.063 204.176 268.642 204.778 268.06C205.381 267.478 205.828 266.754 206.078 265.954C206.438 264.324 205.178 262.374 203.508 262.484C204.013 261.912 204.27 261.161 204.223 260.399C204.175 259.637 203.826 258.925 203.253 258.419C202.68 257.914 201.93 257.657 201.168 257.705C200.406 257.753 199.693 258.102 199.188 258.674" fill="#263238"/>
<path d="M185.578 107.935C185.578 107.935 174.508 137.455 173.218 141.885C171.928 146.315 168.458 171.994 174.798 188.785C181.138 205.575 197.618 215.085 197.618 215.085L222.998 210.385C222.998 210.385 229.328 189.465 228.698 183.765C228.068 178.065 226.158 171.085 225.208 158.765C224.258 146.445 230.698 118.415 234.208 113.985C234.208 113.985 218.588 102.675 204.648 104.575C190.708 106.475 185.578 107.935 185.578 107.935Z" fill="#C8877F"/>
<path d="M201.218 199.244C200.218 200.504 193.218 229.024 193.558 244.554C193.558 244.554 188.168 262.614 189.118 278.454C190.068 294.294 195.118 325.984 195.118 325.984L205.608 317.754L213.528 249.304C213.528 249.304 226.418 204.614 226.598 197.234" fill="#C8877F"/>
<path d="M226.558 197.234C226.558 197.234 226.558 197.564 226.498 198.234C226.438 198.904 226.308 199.824 226.108 201.054C225.668 203.504 224.918 207.054 223.808 211.634C221.608 220.724 218.148 233.714 213.688 249.394C211.458 268.804 208.748 292.294 205.818 317.844V317.944L205.738 318.014L198.238 323.904L195.238 326.254L194.888 326.524L194.828 326.094C193.598 318.284 192.488 310.644 191.508 303.234C190.528 295.824 189.648 288.624 189.068 281.694C188.509 275.079 188.724 268.42 189.708 261.854C190.526 256.012 191.739 250.232 193.338 244.554V244.614C193.417 238.207 194.012 231.816 195.118 225.504C196.028 219.924 197.008 215.144 197.878 211.244C198.748 207.344 199.528 204.344 200.118 202.324C200.408 201.324 200.658 200.544 200.848 200.044C200.937 199.785 201.054 199.537 201.198 199.304C201.198 199.304 201.078 199.554 200.898 200.064C200.718 200.574 200.498 201.334 200.228 202.354C199.678 204.354 198.938 207.354 198.098 211.294C197.258 215.234 196.308 219.974 195.428 225.554C194.358 231.849 193.79 238.219 193.728 244.604V244.664C192.157 250.328 190.967 256.091 190.168 261.914C189.207 268.449 189.009 275.074 189.578 281.654C190.158 288.564 191.038 295.754 192.028 303.164C193.018 310.574 194.138 318.164 195.358 326.004L194.938 325.844L197.938 323.494L205.438 317.604L205.338 317.784C208.338 292.244 211.048 268.784 213.338 249.344C217.838 233.684 221.338 220.714 223.628 211.644C224.768 207.114 225.558 203.534 226.038 201.094C226.258 199.874 226.438 198.934 226.488 198.304C226.538 197.674 226.558 197.234 226.558 197.234Z" fill="#A06763"/>
<path d="M216.418 185.324C216.587 185.538 216.713 185.782 216.788 186.044C217.05 186.735 217.234 187.453 217.338 188.184C217.706 190.618 217.308 193.107 216.198 195.304C215.053 197.491 213.262 199.272 211.068 200.404C210.412 200.741 209.721 201.006 209.008 201.194C208.754 201.281 208.487 201.322 208.218 201.314C208.218 201.224 209.318 200.974 210.898 200.074C212.969 198.92 214.651 197.179 215.733 195.07C216.815 192.961 217.248 190.579 216.978 188.224C216.788 186.384 216.328 185.384 216.418 185.324Z" fill="#A06763"/>
<path d="M198.958 181.845C198.858 181.845 198.598 180.715 197.878 178.985C196.91 176.742 195.579 174.674 193.938 172.865C192.298 171.059 190.364 169.544 188.218 168.385C186.558 167.505 185.438 167.145 185.468 167.055C185.746 167.072 186.019 167.133 186.278 167.235C187.002 167.453 187.707 167.727 188.388 168.055C192.931 170.257 196.451 174.125 198.218 178.855C198.485 179.56 198.696 180.286 198.848 181.025C198.924 181.291 198.961 181.567 198.958 181.845V181.845Z" fill="#A06763"/>
<path d="M205.968 120.164C206.038 120.164 205.478 121.524 204.648 123.704C203.818 125.884 202.778 128.904 201.848 132.334C200.918 135.764 200.318 138.904 199.948 141.204C199.578 143.504 199.388 144.924 199.308 144.914C199.268 144.582 199.268 144.246 199.308 143.914C199.308 143.254 199.428 142.314 199.568 141.154C200.344 135.107 201.935 129.194 204.298 123.574C204.758 122.504 205.158 121.644 205.448 121.064C205.584 120.744 205.759 120.442 205.968 120.164V120.164Z" fill="#A06763"/>
<path d="M184.148 121.885C183.898 122.705 183.648 123.515 183.388 124.335Z" fill="#455A64"/>
<path d="M183.388 124.385C183.258 124.385 183.308 123.765 183.518 123.085C183.728 122.405 184.008 121.895 184.148 121.935C184.288 121.975 184.228 122.565 184.018 123.235C183.808 123.905 183.528 124.385 183.388 124.385Z" fill="#A06763"/>
<path d="M205.568 317.755L208.618 319.435L224.288 321.615L240.528 327.215C239.779 328.207 238.669 328.865 237.438 329.045C235.784 328.95 234.159 328.564 232.638 327.905C232.638 327.905 234.238 329.735 233.098 329.965C231.958 330.195 228.518 329.395 228.518 329.395L218.518 328.395C218.518 328.395 208.988 329.305 205.518 329.395C202.048 329.485 195.608 329.675 195.028 325.985C194.448 322.295 205.568 317.755 205.568 317.755Z" fill="#C8877F"/>
<path d="M338.358 46.6348C338.358 46.6348 356.268 54.7948 366.158 60.2748C376.048 65.7548 387.288 76.1848 386.478 78.7248C385.668 81.2648 385.278 81.6648 380.738 81.1348C376.198 80.6048 376.058 78.9948 367.628 78.5948C359.198 78.1948 352.628 81.9348 349.318 79.1248C346.008 76.3148 344.908 76.5848 345.168 72.4448C345.428 68.3048 344.638 67.6248 344.638 67.6248L332.468 60.9448L338.358 46.6348Z" fill="#C8877F"/>
<path d="M65.8182 11.1945C70.7282 12.3845 84.2182 19.1945 84.2182 19.1945L96.3482 34.0645L109.508 21.7645C109.508 21.7645 101.508 14.6845 99.3682 12.1845C97.2282 9.68453 96.3682 4.50453 94.3682 2.00453C92.3682 -0.495475 86.8582 -0.835474 82.0182 2.00453C77.1782 4.84453 57.3182 4.84454 57.3182 4.84454C57.3182 4.84454 53.0182 7.63453 54.2082 9.15453C55.3982 10.6745 63.5282 10.6345 65.8182 11.1945Z" fill="#C8877F"/>
<path d="M184.218 110.614C183.162 104.27 183.694 97.7626 185.768 91.6744C189.218 82.3844 222.418 50.0844 222.418 50.0844C222.418 50.0844 270.838 11.2944 286.038 10.9844L341.718 42.2444C341.718 42.2444 337.148 64.8844 330.628 71.3844L281.078 57.5244C281.078 57.5244 274.248 65.9044 271.458 66.5244C268.668 67.1444 261.218 68.7144 261.218 68.7144C261.218 68.7144 255.018 87.0144 251.288 91.9844C247.558 96.9544 241.048 108.234 237.948 110.814C235.933 112.566 234.241 114.658 232.948 116.994L184.218 110.614Z" fill="#455A64"/>
<path d="M108.538 14.8643C109.468 15.7943 161.758 55.1643 161.758 55.1643L199.398 66.9643L211.398 64.4143L186.658 108.224C186.658 108.224 146.538 98.6143 135.988 89.3043C125.438 79.9943 81.7382 40.2343 81.7382 40.2343L108.538 14.8643Z" fill="#455A64"/>
<path d="M211.408 61.5449C211.106 61.9083 210.772 62.2431 210.408 62.5449C209.738 63.1949 208.778 64.1149 207.618 65.2949C204.598 68.3504 201.75 71.5721 199.088 74.9449C196.411 78.299 194.066 81.9061 192.088 85.7149C191.708 86.4549 191.398 87.1249 191.148 87.7149C190.898 88.3049 190.658 88.8249 190.508 89.2649C190.369 89.7238 190.188 90.169 189.968 90.5949C190.036 90.1173 190.153 89.648 190.318 89.1949C190.476 88.6553 190.663 88.1245 190.878 87.6049C191.134 86.8994 191.427 86.2083 191.758 85.5349C193.656 81.6458 195.98 77.98 198.688 74.6049C201.356 71.2085 204.26 68.0039 207.378 65.0149C208.568 63.8649 209.568 63.0149 210.278 62.3749C210.63 62.0657 211.008 61.788 211.408 61.5449Z" fill="#263238"/>
<path d="M264.658 48.3848C264.468 49.3688 264.207 50.3379 263.878 51.2848C263.368 53.0748 262.728 55.5548 262.208 58.2848C261.688 61.0148 261.408 63.6148 261.208 65.4648C261.174 66.4703 261.074 67.4725 260.908 68.4648C260.783 67.4696 260.763 66.4641 260.848 65.4648C260.946 63.0353 261.216 60.6158 261.658 58.2248C262.096 55.8301 262.708 53.4705 263.488 51.1648C263.776 50.1982 264.168 49.266 264.658 48.3848V48.3848Z" fill="#263238"/>
<path d="M284.728 30.7344C284.78 31.0891 284.78 31.4496 284.728 31.8044C284.728 32.4844 284.608 33.4744 284.478 34.6944C284.218 37.1344 283.738 40.4844 283.158 44.1744C282.578 47.8644 282.088 51.0744 281.698 53.6244C281.528 54.7444 281.398 55.6944 281.278 56.4844C281.249 56.8405 281.182 57.1925 281.078 57.5344C281.026 57.1796 281.026 56.8191 281.078 56.4644C281.078 55.7844 281.198 54.7944 281.328 53.5744C281.588 51.1344 282.068 47.7844 282.648 44.0944C283.228 40.4044 283.718 37.1944 284.108 34.6444C284.278 33.5244 284.418 32.5744 284.528 31.7844C284.557 31.4282 284.624 31.0762 284.728 30.7344V30.7344Z" fill="#263238"/>
<path d="M161.668 55.2449C160.773 55.8825 159.842 56.4668 158.878 56.9949C156.623 58.3877 154.443 59.8998 152.348 61.5249C150.258 63.1614 148.255 64.9072 146.348 66.7549C145.596 67.557 144.802 68.3181 143.968 69.0349C143.968 69.0349 144.128 68.7549 144.488 68.3149C144.848 67.8749 145.388 67.2449 146.088 66.4949C149.764 62.6105 154.005 59.3032 158.668 56.6849C159.568 56.1849 160.298 55.8049 160.818 55.5649C161.338 55.3249 161.658 55.2049 161.668 55.2449Z" fill="#263238"/>
<path d="M162.448 55.2441C161.124 57.4413 159.913 59.7042 158.818 62.0241C157.118 65.9141 156.528 69.3441 156.368 69.3141C156.356 68.5508 156.453 67.7896 156.658 67.0541C157.442 63.4707 158.916 60.0742 160.998 57.0541C161.388 56.3816 161.877 55.7714 162.448 55.2441Z" fill="#263238"/>
<g opacity="0.3">
<path opacity="0.3" d="M206.618 65.5643C200.968 67.5218 196.08 71.2107 192.647 76.1065C189.214 81.0023 187.413 86.8557 187.498 92.8343C193.194 83.0986 199.69 73.8534 206.918 65.1943" fill="black"/>
</g>
<g opacity="0.3">
<path opacity="0.3" d="M284.578 34.0742C283.198 42.2142 282.168 49.8842 280.988 57.4542C284.798 50.8842 286.828 41.3142 284.578 34.0742Z" fill="black"/>
</g>
</svg>
