<svg width="440" height="334" viewBox="0 0 440 334" fill="none" xmlns="http://www.w3.org/2000/svg">
<g filter="url(#filter0_d_138_620)">
<path d="M246.29 213.871C246.644 213.206 246.811 212.458 246.774 211.707C246.737 210.955 246.497 210.227 246.08 209.601C245.961 210.617 245.527 211.572 244.84 212.331C244.08 213.011 242.65 213.011 242.22 212.081C241.89 211.361 242.32 210.541 242.55 209.781C242.803 208.893 242.798 207.951 242.536 207.066C242.274 206.181 241.765 205.388 241.07 204.781C239.52 203.461 237.34 203.271 235.36 202.781C232.492 202.005 229.883 200.477 227.803 198.355C225.723 196.233 224.248 193.594 223.53 190.711L221.27 176.221C228.43 174.051 236.36 175.581 242.93 179.161C249.5 182.741 254.86 188.161 259.51 194.041C260.923 195.7 262.11 197.539 263.04 199.511C263.97 201.503 264.206 203.749 263.71 205.891C262.772 205.826 261.864 205.539 261.06 205.051C260.256 204.564 259.581 203.892 259.09 203.091C258.564 204.732 257.712 206.251 256.585 207.555C255.457 208.859 254.078 209.922 252.53 210.681L251.53 207.381C251.175 208.776 250.523 210.078 249.619 211.198C248.715 212.318 247.579 213.23 246.29 213.871V213.871Z" fill="#E0E0E0"/>
<path d="M244.65 160.8C242.258 159.926 239.648 159.842 237.205 160.562C234.762 161.282 232.615 162.768 231.08 164.8L221.08 177.99C217.7 184.09 223.77 191.66 230 194.78C236.93 198.24 244.33 201.69 250 203.1C261.4 205.92 266.22 198.31 266.22 198.31L274.43 201.76L289.52 204.83L280.4 178.78L244.79 160.78C244.62 160.73 244.9 160.88 244.65 160.8Z" fill="#FFBE9D"/>
<path d="M241.1 196.531C241.455 196.685 241.856 196.695 242.218 196.558C242.58 196.422 242.875 196.15 243.04 195.801C243.127 195.632 243.18 195.447 243.195 195.257C243.21 195.068 243.187 194.877 243.128 194.696C243.068 194.516 242.973 194.349 242.848 194.205C242.723 194.062 242.571 193.945 242.4 193.861C242.044 193.707 241.642 193.699 241.28 193.837C240.918 193.975 240.624 194.249 240.46 194.601C240.373 194.769 240.32 194.953 240.305 195.142C240.29 195.331 240.313 195.521 240.373 195.701C240.433 195.88 240.528 196.047 240.653 196.189C240.777 196.332 240.93 196.448 241.1 196.531V196.531Z" fill="#263238"/>
<path d="M234.88 194.94C235.13 194.84 234.8 193.48 235.43 192.01C236.06 190.54 237.25 189.77 237.14 189.53C237.03 189.29 236.69 189.46 236.14 189.78C235.429 190.232 234.874 190.892 234.55 191.67C234.225 192.437 234.151 193.288 234.34 194.1C234.5 194.7 234.76 195 234.88 194.94Z" fill="#263238"/>
<path d="M244.92 183.561C245.276 183.714 245.678 183.722 246.04 183.584C246.402 183.446 246.696 183.172 246.86 182.821C246.947 182.653 247.001 182.47 247.016 182.281C247.032 182.093 247.01 181.903 246.951 181.723C246.892 181.543 246.798 181.377 246.674 181.234C246.551 181.091 246.4 180.974 246.23 180.891C245.875 180.737 245.474 180.727 245.112 180.863C244.75 180.999 244.455 181.271 244.29 181.621C244.202 181.789 244.149 181.973 244.133 182.162C244.118 182.352 244.14 182.542 244.198 182.723C244.257 182.903 244.351 183.07 244.475 183.214C244.599 183.358 244.75 183.476 244.92 183.561V183.561Z" fill="#263238"/>
<path d="M240.77 180.93C241.02 180.83 240.7 179.47 241.32 178C241.94 176.53 243.15 175.76 243.03 175.52C242.91 175.28 242.59 175.44 242.03 175.77C241.314 176.217 240.757 176.879 240.44 177.66C240.115 178.428 240.038 179.277 240.22 180.09C240.4 180.69 240.66 181 240.77 180.93Z" fill="#263238"/>
<path d="M250.42 190.421C249.842 191.091 249.354 191.834 248.97 192.631C248.78 192.991 248.55 193.311 248.27 193.271C247.99 193.231 247.62 192.911 247.27 192.541L244.87 190.221C241.45 186.941 238.56 184.401 238.43 184.541C238.3 184.681 240.97 187.451 244.43 190.721L246.86 193.011C247.218 193.438 247.713 193.727 248.26 193.831C248.416 193.833 248.571 193.8 248.711 193.732C248.852 193.664 248.975 193.564 249.07 193.441C249.213 193.255 249.333 193.054 249.43 192.841C249.858 192.078 250.19 191.265 250.42 190.421V190.421Z" fill="#263238"/>
<path d="M268.39 182.53C268.39 182.53 274.27 189.1 268.75 199.37L266.23 198.31C268.4 193.352 269.148 187.889 268.39 182.53Z" fill="#EB996E"/>
<path d="M235.64 178.22C236.1 178.22 236.53 176.69 237.47 175.05C238.41 173.41 239.47 172.21 239.21 171.83C239.09 171.66 238.61 171.74 237.98 172.14C237.184 172.69 236.524 173.415 236.051 174.259C235.578 175.103 235.304 176.044 235.25 177.01C235.24 177.75 235.42 178.2 235.64 178.22Z" fill="#E0E0E0"/>
<path d="M230.57 192.56C231.01 192.44 231.09 191.28 231.57 190.05C232.05 188.82 232.74 187.89 232.5 187.5C232.37 187.33 231.97 187.35 231.5 187.67C230.853 188.103 230.359 188.73 230.09 189.46C229.799 190.184 229.739 190.981 229.92 191.74C230.07 192.32 230.36 192.6 230.57 192.56Z" fill="#E0E0E0"/>
<path d="M255.5 186.001C255.017 185.924 254.522 186.019 254.102 186.269C253.682 186.519 253.362 186.909 253.2 187.371C253.106 187.715 253.098 188.078 253.177 188.427C253.255 188.775 253.418 189.099 253.65 189.371C253.889 189.64 254.179 189.858 254.503 190.013C254.828 190.167 255.181 190.255 255.54 190.271H255.69C256.151 190.103 256.548 189.797 256.828 189.394C257.107 188.991 257.255 188.511 257.25 188.021C257.217 187.54 257.029 187.082 256.713 186.718C256.397 186.353 255.971 186.102 255.5 186.001V186.001Z" fill="#EB996E"/>
<path d="M255.27 191.34C255.05 191.25 255.75 189.79 254.99 188.15C254.23 186.51 252.61 185.92 252.7 185.72C252.79 185.52 253.18 185.6 253.85 185.9C254.719 186.311 255.411 187.021 255.8 187.9C256.188 188.725 256.239 189.669 255.94 190.53C255.7 191.11 255.37 191.4 255.27 191.34Z" fill="#263238"/>
<path d="M225.5 159.11C221.72 160.042 218.405 162.312 216.17 165.5C214.17 168.78 213.97 171.14 215.17 174.27C215.739 175.625 215.986 177.094 215.89 178.56C215.56 180.38 214.74 181.68 214.99 184.09C215.33 187.39 218.54 190.02 220.86 192.38C223.74 195.32 226.08 198.83 229.38 201.29C232.68 203.75 237.43 204.97 240.89 202.72C237.5 202.1 233.8 201.23 231.77 198.44C230.22 196.32 229.99 193.53 228.88 191.15C227.54 188.27 224.79 186.9 223.58 183.97C220.83 177.28 232.35 171.83 225.49 159.11" fill="#E0E0E0"/>
<path d="M228.23 195.921C225.523 193.564 223.208 190.793 221.37 187.711C219.24 183.737 218.659 179.114 219.739 174.736C220.82 170.358 223.485 166.537 227.22 164.011L227.63 163.181C228.771 165.172 229.453 167.394 229.626 169.683C229.799 171.971 229.459 174.27 228.63 176.411C227.63 178.941 225.91 181.411 226.37 184.131C226.83 186.851 229.14 188.531 230.21 190.931C230.93 192.561 231.04 194.411 231.81 196.021C232.75 197.672 234.024 199.109 235.55 200.241C232.7 200.001 230.34 197.921 228.23 195.921Z" fill="#E0E0E0"/>
<path d="M227.53 169.49L224.12 160.2C225.93 154.69 232.38 153.2 237.04 152.87C240.5 152.63 243.95 153.47 247.42 153.62C250.89 153.77 254.55 153.2 258.1 153.46C261.65 153.72 265.4 155.02 267.38 157.99L264.69 158.34C267.712 159.754 270.148 162.176 271.58 165.19L269.08 164.76C270.992 166.808 272.247 169.382 272.68 172.15L280.1 178.75C263.64 177.89 267.31 165.12 227.53 169.49Z" fill="#E0E0E0"/>
<path d="M251.14 169.001C250.83 168.721 251.23 161.131 258.26 164.001C265.09 166.781 260.87 173.071 260.67 173.001C260.47 172.931 251.14 169.001 251.14 169.001Z" fill="#FFBE9D"/>
<path d="M258.94 169.851C258.94 169.851 259.08 169.761 259.25 169.601C259.487 169.368 259.623 169.052 259.63 168.721C259.533 168.166 259.288 167.646 258.922 167.217C258.557 166.788 258.083 166.465 257.55 166.281C256.972 166.022 256.343 165.896 255.71 165.911C255.471 165.892 255.231 165.929 255.008 166.019C254.786 166.109 254.588 166.25 254.43 166.431C254.332 166.549 254.279 166.698 254.279 166.851C254.279 167.004 254.332 167.153 254.43 167.271C254.59 167.441 254.74 167.451 254.74 167.491C254.74 167.531 254.56 167.591 254.3 167.421C254.156 167.318 254.051 167.17 254 167.001C253.936 166.755 253.968 166.494 254.09 166.271C254.26 166.012 254.494 165.802 254.769 165.66C255.044 165.518 255.351 165.449 255.66 165.461C256.37 165.411 257.081 165.538 257.73 165.831C259.09 166.431 260.08 167.671 259.97 168.771C259.944 168.973 259.874 169.167 259.765 169.34C259.656 169.513 259.511 169.66 259.34 169.771C259.11 169.901 259 169.881 258.94 169.851Z" fill="#EB996E"/>
<path d="M260.47 169.58C260.529 169.311 260.663 169.065 260.857 168.87C261.05 168.674 261.295 168.538 261.563 168.477C261.832 168.416 262.112 168.432 262.371 168.524C262.63 168.616 262.858 168.779 263.027 168.996C263.197 169.212 263.302 169.472 263.329 169.746C263.357 170.02 263.306 170.295 263.182 170.541C263.059 170.787 262.868 170.993 262.632 171.134C262.396 171.275 262.125 171.347 261.85 171.34C261.485 171.319 261.14 171.165 260.88 170.907C260.62 170.649 260.464 170.305 260.44 169.94" fill="white"/>
<path d="M260.44 169.941C260.55 170.332 260.777 170.681 261.09 170.941C261.257 171.066 261.451 171.148 261.657 171.179C261.863 171.211 262.074 171.19 262.27 171.121C262.508 171.036 262.717 170.888 262.876 170.692C263.035 170.496 263.137 170.26 263.17 170.011C263.179 169.759 263.121 169.509 263.002 169.288C262.882 169.066 262.706 168.881 262.49 168.751C262.306 168.65 262.1 168.597 261.89 168.597C261.68 168.597 261.474 168.65 261.29 168.751C260.936 168.947 260.65 169.247 260.47 169.611C260.47 169.611 260.47 169.481 260.53 169.261C260.615 169.069 260.737 168.896 260.891 168.753C261.045 168.611 261.226 168.501 261.423 168.431C261.621 168.361 261.831 168.331 262.04 168.345C262.249 168.359 262.453 168.415 262.64 168.511C262.924 168.653 263.158 168.878 263.313 169.156C263.467 169.433 263.534 169.751 263.505 170.068C263.475 170.384 263.352 170.684 263.149 170.929C262.947 171.174 262.675 171.352 262.37 171.441C262.129 171.522 261.87 171.538 261.621 171.487C261.371 171.436 261.14 171.32 260.95 171.151C260.691 170.942 260.508 170.654 260.43 170.331C260.39 170.071 260.42 169.941 260.44 169.941Z" fill="#263238"/>
<path d="M229.46 169.61C228.144 168.294 227.004 166.811 226.07 165.2C225.279 163.514 224.708 161.733 224.37 159.9C224.251 160.454 224.251 161.027 224.37 161.58C224.766 164.288 226.075 166.779 228.08 168.64C228.467 169.056 228.937 169.387 229.46 169.61Z" fill="#FAFAFA"/>
<path d="M253.49 185.901C253.49 186.041 252.78 185.981 252.13 186.421C251.48 186.861 251.25 187.481 251.13 187.421C251.01 187.361 251.03 187.221 251.13 186.911C251.272 186.52 251.537 186.186 251.885 185.959C252.233 185.732 252.645 185.623 253.06 185.651C253.34 185.721 253.5 185.841 253.49 185.901Z" fill="#EB996E"/>
<path d="M247.45 175.45C247.59 175.51 247.45 176.04 247.34 176.68C247.23 177.32 247.09 177.85 246.95 177.85C246.81 177.85 246.68 177.27 246.83 176.57C246.98 175.87 247.33 175.39 247.45 175.45Z" fill="#EB996E"/>
<path d="M248.59 176.461C248.59 176.611 248.26 176.831 247.93 177.191C247.6 177.551 247.39 177.921 247.25 177.891C247.11 177.861 247.11 177.311 247.55 176.831C247.99 176.351 248.56 176.321 248.59 176.461Z" fill="#EB996E"/>
<path d="M253.34 186.46C253.34 186.61 252.8 186.69 252.34 187.12C251.88 187.55 251.76 188.06 251.61 188.06C251.46 188.06 251.48 187.9 251.51 187.64C251.556 187.294 251.723 186.976 251.98 186.74C252.229 186.499 252.554 186.35 252.9 186.32C253.19 186.31 253.34 186.39 253.34 186.46Z" fill="#EB996E"/>
<path d="M272.47 183.611C272.47 183.661 272.11 183.931 271.55 183.611C271.4 183.505 271.283 183.359 271.21 183.191C271.13 183.021 271.1 182.851 271.04 182.761C270.97 182.668 270.865 182.607 270.75 182.591C270.574 182.571 270.396 182.571 270.22 182.591C269.488 182.666 268.751 182.501 268.12 182.121C267.64 181.811 267.45 181.511 267.49 181.471C268.334 181.889 269.268 182.095 270.21 182.071C270.429 182.041 270.651 182.041 270.87 182.071C270.994 182.098 271.11 182.152 271.212 182.228C271.314 182.303 271.398 182.4 271.46 182.511C271.528 182.675 271.578 182.846 271.61 183.021C271.638 183.129 271.697 183.226 271.78 183.301C272.1 183.601 272.46 183.531 272.47 183.611Z" fill="#EB996E"/>
<path d="M338.35 151.4L329.5 156.25L336.43 198.36C336.43 198.36 347 192.83 353.59 190C358.2 188 367.69 178.4 367.69 178.4L338.35 151.4Z" fill="#FFBE9D"/>
<path d="M272.19 192.17C272.762 187.466 274.008 182.869 275.89 178.52C277.89 173.98 280.32 168.39 281.35 166.24C283.21 162.4 319.17 160.7 319.17 160.7L336.51 152.41C336.51 152.41 354.23 193.41 352.83 199.52C352.83 199.52 341.96 203.52 332.18 206.42C322.87 209.2 316.26 214.5 309.47 214.49C302.68 214.48 294.81 211.88 294.81 211.88L287.88 217.57L269.54 211.1L272.19 192.17Z" fill="#27DFC1"/>
<path d="M305.36 94.9307L296 130.441C296 130.441 279.48 161.501 278.47 170.001C278.429 170.332 278.412 170.667 278.42 171.001C278.72 177.731 303.36 163.251 303.36 163.251C303.36 163.251 313.86 134.501 314.56 125.801C315.26 117.101 317.56 95.8807 317.56 95.8807L305.36 94.9307Z" fill="#27DFC1"/>
<path d="M270.68 206.94C269.621 209.73 269.409 212.77 270.07 215.68C270.998 219.533 271.498 223.477 271.56 227.44C271.5 234.93 261.73 294.13 261.73 294.13L274.56 292.47C274.56 292.47 287.34 262.61 289.25 249.85C291.16 237.09 294.25 205.85 294.25 205.85L295.25 189.09L279.19 184.49L270.68 206.94Z" fill="#27DFC1"/>
<path d="M295.12 209.001C294.697 207.872 294.206 206.77 293.65 205.701C292.229 203.162 290.019 201.157 287.355 199.989C284.691 198.822 281.719 198.555 278.89 199.231C277.728 199.549 276.586 199.937 275.47 200.391C275.721 200.174 276 199.993 276.3 199.851C277.093 199.423 277.931 199.088 278.8 198.851C281.71 198.038 284.81 198.255 287.579 199.462C290.348 200.67 292.616 202.796 294 205.481C294.433 206.274 294.769 207.117 295 207.991C295.09 208.319 295.131 208.66 295.12 209.001V209.001Z" fill="#263238"/>
<path d="M308.47 161.381C308.47 161.481 306.93 161.551 304.47 161.901C301.27 162.383 298.131 163.211 295.11 164.371C291.56 165.721 288.48 167.271 286.19 168.291C285.05 168.801 284.12 169.201 283.47 169.451C283.152 169.607 282.816 169.725 282.47 169.801C282.764 169.587 283.083 169.409 283.42 169.271L286 168.001C288.23 166.911 291.3 165.291 294.88 163.931C297.937 162.758 301.128 161.972 304.38 161.591C305.63 161.471 306.64 161.391 307.38 161.401C307.741 161.343 308.108 161.336 308.47 161.381V161.381Z" fill="#263238"/>
<path d="M314.23 202.831C314.357 202.362 314.521 201.904 314.72 201.461C315.07 200.601 315.54 199.331 316.09 197.761C318.94 189.551 320.294 180.898 320.09 172.211C320.09 170.541 320 169.211 319.94 168.271C319.892 167.785 319.892 167.296 319.94 166.811C320.061 167.283 320.141 167.765 320.18 168.251C320.3 169.171 320.42 170.521 320.5 172.201C320.888 180.948 319.5 189.684 316.42 197.881C315.83 199.451 315.3 200.701 314.89 201.541C314.715 201.992 314.494 202.424 314.23 202.831V202.831Z" fill="#263238"/>
<g opacity="0.3">
<path opacity="0.3" d="M323 197.29C324.343 188.139 324.578 178.858 323.7 169.65C328.25 177.77 328.46 189.76 323 197.29Z" fill="black"/>
</g>
<g opacity="0.3">
<path opacity="0.3" d="M293.68 162.8C290.385 164.227 287.376 166.239 284.8 168.74C291.43 165.69 297.26 162.88 304.16 161.74C300.637 161.094 297.002 161.461 293.68 162.8Z" fill="black"/>
</g>
<path d="M263.35 293.21C263.68 293.56 258.86 308.52 258.86 308.52L258.28 324.52C258.395 324.627 258.53 324.71 258.678 324.763C258.826 324.816 258.982 324.84 259.139 324.831C259.296 324.823 259.449 324.783 259.59 324.714C259.731 324.645 259.857 324.549 259.96 324.43C260.76 323.54 261.96 312.5 261.96 312.5C261.96 312.5 262.66 317.92 263.63 317.97C264.6 318.02 265.56 317.97 265.51 317.02C265.553 315.758 265.666 314.499 265.85 313.25C265.85 313.25 267.05 317 268.29 317.66C269.53 318.32 270.66 316.93 270.66 316.93L271.12 314.78L273.64 307.9L272.83 292.79L263.35 293.21Z" fill="#FFBE9D"/>
<path d="M396.42 293.49L396.68 308.09L397.11 322.58C397.11 323.095 396.912 323.591 396.556 323.963C396.201 324.336 395.715 324.557 395.2 324.58L365.68 324.82C365.348 324.816 365.022 324.737 364.726 324.587C364.43 324.438 364.172 324.223 363.972 323.958C363.772 323.694 363.636 323.387 363.573 323.061C363.51 322.736 363.523 322.4 363.61 322.08C363.685 321.803 363.823 321.546 364.011 321.33C364.2 321.113 364.436 320.942 364.7 320.83C366.82 319.83 382.9 310.38 382.9 310.38L382 291.71L396.42 293.49Z" fill="#FFBE9D"/>
<path d="M338.35 151.4C337.377 145.803 338.178 140.041 340.64 134.92C344.76 126.92 352.82 126.8 356.2 120.18C359.58 113.56 375.77 86.1804 375.77 86.1804L339.84 87.1004C339.84 87.1004 332.79 80.7104 337.38 73.9104C337.38 73.9104 378.56 62.1004 387.65 61.1404C396.74 60.1804 399.49 59.9304 404.17 66.9604C408.85 73.9904 406.55 80.2104 404.81 87.5304C403.07 94.8504 389.15 138.94 389.15 138.94C389.15 138.94 388.35 149.64 385.44 157.43C382.53 165.22 356.64 188.17 356.64 188.17C356.64 188.17 358.88 176.84 352.64 167.24C347.63 159.44 338.35 151.4 338.35 151.4Z" fill="#27DFC1"/>
<path d="M388.84 68.3002C388.96 68.3902 385.84 72.7902 381.84 78.1302C377.84 83.4702 374.53 87.7402 374.41 87.6502C374.29 87.5602 377.41 83.1602 381.41 77.8202C385.41 72.4802 388.73 68.2102 388.84 68.3002Z" fill="#263238"/>
<path d="M375.35 147.801C375.35 147.801 382.57 153.111 387.57 166.801C392.57 180.491 397.15 240.591 397.15 240.591C397.15 240.591 398.78 264.221 399.06 276.241C399.29 286.241 396.98 311.661 396.98 311.661H379.62L373.45 250.861L365.62 220.861L356.62 188.151L375.35 147.801Z" fill="#27DFC1"/>
<path d="M385.23 158C385.068 158.383 384.867 158.748 384.63 159.09C384.23 159.78 383.63 160.76 382.8 161.94C380.693 165.017 378.37 167.941 375.85 170.69C373.336 173.449 370.6 175.998 367.67 178.31C366.55 179.2 365.61 179.88 364.94 180.31C364.61 180.563 364.255 180.781 363.88 180.96C364.164 180.655 364.479 180.38 364.82 180.14C365.45 179.66 366.35 178.93 367.44 178.02C370.268 175.63 372.94 173.061 375.44 170.33C377.927 167.589 380.264 164.715 382.44 161.72C383.28 160.57 383.95 159.63 384.44 158.97C384.666 158.618 384.931 158.293 385.23 158V158Z" fill="#263238"/>
<g opacity="0.3">
<path opacity="0.3" d="M384.18 159.561C379.53 166.981 373.03 173.771 365.07 180.051C372.25 180.271 379.45 176.491 383.99 170.921C385.372 169.402 386.268 167.503 386.56 165.471C386.73 163.441 384.18 159.561 384.18 159.561Z" fill="black"/>
</g>
<path d="M337.38 73.8904L319.22 76.4404C319.22 76.4404 312.97 71.6104 311.59 75.0104C310.21 78.4104 312.8 81.2604 316.72 82.7404C320.64 84.2204 326.08 85.6504 328.18 88.5704C330.28 91.4904 332.29 95.4904 335.83 92.9704C337.868 91.5908 339.299 89.483 339.83 87.0804L337.38 73.8904Z" fill="#FFBE9D"/>
<path d="M311.69 75.8203C311.69 75.8203 309.5 83.8203 308.99 85.8203C308.48 87.8203 308.76 95.0303 308.76 95.0303L315.95 95.7803L325.16 85.2003L324.42 76.0103L311.69 75.8203Z" fill="#FFBE9D"/>
<path d="M311.46 76.7402C311.53 76.7402 311.46 77.0502 311.71 77.5302C312.019 78.2083 312.51 78.7866 313.13 79.2002C314.041 79.8536 315.016 80.4131 316.04 80.8702C317.19 81.4002 318.5 81.9702 319.8 82.6902C322.038 83.89 324.184 85.2537 326.22 86.7702C327.113 87.3457 327.877 88.1019 328.46 88.9902C328.41 88.9902 327.61 88.1602 326 87.0702C323.927 85.6463 321.777 84.3376 319.56 83.1502C318.27 82.4402 316.99 81.8702 315.83 81.3002C314.787 80.8119 313.804 80.2046 312.9 79.4902C312.262 79.0119 311.781 78.3537 311.52 77.6002C311.454 77.3935 311.424 77.1771 311.43 76.9602C311.44 76.8102 311.45 76.7402 311.46 76.7402Z" fill="#EB996E"/>
<path d="M314.36 91.6506C314.28 91.6506 314.63 91.0006 314.82 89.9306C315.074 88.5482 314.852 87.1207 314.19 85.8806C313.701 85.2174 313.36 84.4569 313.19 83.6506C313.143 82.9591 313.284 82.2677 313.6 81.6506C313.826 81.0838 314.166 80.5697 314.6 80.1406C314.418 80.7113 314.191 81.2664 313.92 81.8006C313.682 82.3688 313.589 82.9875 313.65 83.6006C313.852 84.3254 314.191 85.0045 314.65 85.6006C315.369 86.9428 315.558 88.5058 315.18 89.9806C315.079 90.6064 314.793 91.1878 314.36 91.6506V91.6506Z" fill="#EB996E"/>
<path d="M179.713 66.5537C178.943 67.0937 132.893 69.1837 132.893 69.1837L122.293 114.064L130.083 123.064C130.083 123.064 124.723 128.304 132.673 129.974C133.953 130.244 188.603 128.644 188.603 128.644C188.603 128.644 191.143 127.844 190.603 121.974C190.063 116.104 192.263 105.454 190.673 98.1037C189.083 90.7537 179.713 66.5537 179.713 66.5537Z" fill="#A26760"/>
<path d="M171.793 66.9937C172.69 69.1914 173.292 71.4981 173.583 73.8537C173.72 75.0281 173.625 76.2182 173.303 77.3558C172.98 78.4934 172.436 79.5563 171.703 80.4837C170.232 81.9184 168.389 82.9126 166.383 83.3537C160.913 85.0137 154.973 85.9437 149.593 83.9837C144.213 82.0237 139.593 74.7737 140.313 68.8337L132.893 69.1837C132.893 69.1837 125.183 103.594 125.813 106.554C126.443 109.514 130.453 122.104 130.453 122.104L133.863 121.364C152.451 117.728 171.5 117.076 190.293 119.434C190.293 119.434 190.483 100.024 189.913 96.7637C189.343 93.5037 179.683 66.5537 179.683 66.5537L171.793 66.9937Z" fill="#455A64"/>
<g opacity="0.3">
<path opacity="0.3" d="M178.943 108.174C174.079 104.911 168.772 102.365 163.183 100.614C161.588 99.991 159.895 99.6525 158.183 99.6143C154.463 99.7343 151.373 102.384 148.613 104.894L128.953 122.804L130.043 123.094C140.745 119.048 150.478 112.8 158.613 104.754C168.26 111.978 179.087 117.473 190.613 120.994C187.808 115.846 183.805 111.449 178.943 108.174V108.174Z" fill="black"/>
</g>
<path d="M159.103 6.63424C161.613 3.48424 168.323 3.49425 170.033 5.34425C171.18 4.71159 172.526 4.54352 173.793 4.87477C175.061 5.20601 176.152 6.01127 176.843 7.12425L184.053 8.21424C185.299 8.30069 186.502 8.69964 187.553 9.37425C188.067 9.7265 188.434 10.2546 188.585 10.8588C188.736 11.4631 188.66 12.1017 188.373 12.6542C188.978 12.8289 189.531 13.1485 189.985 13.5854C190.438 14.0223 190.778 14.5633 190.975 15.1613C191.172 15.7594 191.22 16.3965 191.115 17.0174C191.01 17.6383 190.756 18.2242 190.373 18.7242C190.631 18.9859 190.833 19.2977 190.966 19.6404C191.099 19.9831 191.16 20.3494 191.146 20.7167C191.132 21.0841 191.043 21.4446 190.884 21.7761C190.726 22.1077 190.5 22.4031 190.223 22.6442C192.344 24.8719 194.069 27.4456 195.323 30.2542C195.956 31.3846 196.168 32.7023 195.923 33.9742C195.553 35.2042 194.033 36.1343 192.923 35.4543C193.302 35.9268 193.538 36.4979 193.604 37.1003C193.669 37.7026 193.562 38.3112 193.293 38.8542C194.493 38.8042 194.973 40.6343 194.203 41.5643C193.761 41.9752 193.239 42.2904 192.669 42.49C192.1 42.6896 191.495 42.7694 190.893 42.7242C189.685 42.63 188.479 42.9168 187.443 43.5442C187.487 43.8389 187.645 44.1046 187.883 44.2842C188.939 44.9899 189.687 46.071 189.974 47.3079C190.262 48.5448 190.069 49.8449 189.433 50.9442L189.073 51.5242C188.15 52.628 187.019 53.5388 185.743 54.2043C183.113 55.7943 181.483 55.6342 178.473 56.2742C179.473 58.1742 174.783 62.8342 168.863 58.9442C158.969 62.4868 148.616 64.5818 138.123 65.1642C136.463 65.2842 134.453 65.1642 133.613 63.7442C132.934 63.9205 132.222 63.9212 131.544 63.7463C130.865 63.5713 130.242 63.2265 129.733 62.7442C128.732 61.7671 127.904 60.6277 127.283 59.3742C125.819 59.0499 124.492 58.281 123.482 57.1729C122.473 56.0648 121.83 54.6716 121.643 53.1842C120.62 52.4786 119.754 51.5688 119.1 50.5121C118.446 49.4553 118.018 48.2746 117.843 47.0442C117.147 46.8422 116.5 46.4987 115.942 46.0353C115.385 45.5718 114.929 44.9984 114.604 44.3508C114.278 43.7032 114.089 42.9954 114.05 42.2716C114.01 41.5478 114.12 40.8236 114.373 40.1442C114.756 36.6796 115.706 33.3014 117.183 30.1442C115.253 29.8542 114.373 27.3342 115.033 25.4942C115.693 23.6542 117.363 22.3942 118.943 21.2442C117.543 21.7142 116.183 20.0042 116.423 18.5442C116.839 17.1095 117.806 15.8978 119.113 15.1742C120.896 13.9487 122.82 12.9415 124.843 12.1742C125.363 9.62424 128.373 6.55425 130.653 5.29425C139.833 0.194247 146.403 -1.37576 159.053 6.67424" fill="#263238"/>
<path d="M169.023 21.0942C169.027 20.1299 168.67 19.1989 168.022 18.4845C167.375 17.7701 166.483 17.3241 165.523 17.2342L145.023 12.3342C138.473 11.7342 134.233 19.8442 133.903 26.4142C133.533 33.7242 133.373 42.6442 134.313 48.0842C134.729 51.0739 136.091 53.8519 138.2 56.0114C140.309 58.1708 143.054 59.5981 146.033 60.0842L146.193 68.0242L146.303 77.2642C149.403 76.6942 169.023 72.8942 169.023 72.8942V21.0942Z" fill="#A26760"/>
<path d="M145.413 42.3945C144.612 42.1629 143.786 42.0253 142.953 41.9845C142.563 41.9845 142.203 41.8845 142.133 41.6145C142.092 41.2188 142.176 40.8202 142.373 40.4745C142.723 39.5345 143.093 38.5545 143.473 37.5245C145.003 33.3145 146.113 29.8645 145.943 29.8045C145.773 29.7445 144.393 33.1045 142.863 37.3045L141.803 40.3045C141.569 40.7751 141.505 41.3123 141.623 41.8245C141.684 41.9584 141.774 42.0771 141.886 42.1721C141.999 42.2672 142.131 42.3363 142.273 42.3745C142.485 42.4277 142.704 42.4546 142.923 42.4545C143.752 42.5472 144.589 42.527 145.413 42.3945V42.3945Z" fill="#263238"/>
<path d="M146.033 60.1346C146.033 60.1346 151.973 60.6646 159.213 56.1846C159.213 56.1846 157.553 64.3646 146.103 63.9246L146.033 60.1346Z" fill="#7B4B45"/>
<path d="M149.623 25.284C149.783 25.694 151.283 25.484 153.063 25.674C154.843 25.864 156.273 26.324 156.503 25.954C156.613 25.774 156.353 25.394 155.773 24.954C155.001 24.4668 154.123 24.1719 153.213 24.094C152.305 23.9973 151.386 24.1172 150.533 24.444C149.883 24.764 149.563 25.094 149.623 25.284Z" fill="#263238"/>
<path d="M136.363 25.8338C136.633 26.1738 137.663 25.8338 138.923 25.7638C140.183 25.6938 141.233 25.9638 141.473 25.6038C141.573 25.4338 141.403 25.0838 140.933 24.7738C140.314 24.3788 139.586 24.1898 138.853 24.2338C138.128 24.2619 137.429 24.5134 136.853 24.9538C136.383 25.3038 136.293 25.6638 136.363 25.8338Z" fill="#263238"/>
<path d="M129.293 31.9437C129.24 30.2144 129.784 28.5196 130.833 27.1437C131.433 26.4137 132.223 25.8537 132.743 25.0737C133.883 23.3837 133.583 21.1537 133.993 19.1637C134.265 17.8781 134.842 16.6763 135.673 15.6586C136.505 14.641 137.567 13.837 138.773 13.3137C140.773 12.4637 143.113 12.4337 144.973 11.3137C146.353 10.4737 147.353 9.10369 148.783 8.31369C151.553 6.84369 154.943 8.11369 157.733 9.56369C158.383 11.6737 157.143 13.5637 155.943 15.4437C155.336 16.3695 154.536 17.1523 153.596 17.7376C152.657 18.323 151.601 18.697 150.503 18.8337C148.803 19.0337 146.783 18.7637 145.653 20.0537C144.523 21.3437 145.083 23.6337 144.133 25.1637C142.773 27.3437 139.353 26.7437 137.213 28.1637C135.553 29.2637 134.953 31.3537 134.213 33.1637C133.473 34.9737 132.073 36.9437 130.083 36.9637C129.635 35.3247 129.37 33.6411 129.293 31.9437V31.9437Z" fill="#263238"/>
<path d="M153.693 13.7339C158.687 13.3605 163.706 13.9582 168.473 15.4939C169.933 15.8362 171.247 16.6348 172.223 17.7739C172.906 18.8998 173.253 20.1974 173.223 21.5139C173.413 25.6139 172.053 30.7139 170.713 34.5839L165.783 37.9339C161.783 37.2339 163.203 30.3339 163.203 26.9339C161.798 26.3874 160.574 25.4577 159.67 24.2503C158.767 23.0429 158.221 21.6064 158.093 20.1039C156.928 19.4409 155.928 18.5239 155.166 17.4211C154.404 16.3183 153.901 15.058 153.693 13.7339V13.7339Z" fill="#263238"/>
<path d="M165.743 36.4938C165.743 34.1438 168.613 33.4938 170.693 34.6138C171.833 35.2138 172.743 36.4738 172.743 38.9638C172.743 45.6138 166.073 44.2438 166.053 44.0538C166.033 43.8638 165.723 39.2438 165.743 36.4938Z" fill="#A26760"/>
<path d="M168.083 41.4938C168.083 41.4938 168.203 41.5738 168.403 41.6638C168.678 41.7771 168.987 41.7771 169.263 41.6638C169.691 41.3901 170.039 41.0084 170.273 40.5572C170.506 40.106 170.617 39.6013 170.593 39.0938C170.608 38.5452 170.506 37.9996 170.293 37.4938C170.232 37.2857 170.12 37.0959 169.968 36.9407C169.817 36.7856 169.63 36.6699 169.423 36.6038C169.29 36.5677 169.149 36.5801 169.024 36.6387C168.9 36.6974 168.8 36.7984 168.743 36.9238C168.653 37.1138 168.693 37.2438 168.653 37.2538C168.613 37.2638 168.513 37.1438 168.573 36.8638C168.603 36.6986 168.697 36.5517 168.833 36.4538C168.923 36.3841 169.026 36.3331 169.136 36.3039C169.246 36.2747 169.36 36.2678 169.473 36.2838C169.743 36.3333 169.996 36.4513 170.208 36.6263C170.42 36.8013 170.583 37.0277 170.683 37.2838C170.965 37.8588 171.102 38.4938 171.083 39.1338C171.116 39.7256 170.974 40.314 170.673 40.8248C170.372 41.3356 169.927 41.7459 169.393 42.0038C169.214 42.056 169.026 42.0669 168.842 42.0357C168.659 42.0045 168.484 41.9321 168.333 41.8238C168.103 41.6938 168.063 41.5438 168.083 41.4938Z" fill="#7B4B45"/>
<path d="M168.983 44.2745C168.985 44.3045 168.985 44.3346 168.983 44.3645C169.012 44.4511 169.049 44.5348 169.093 44.6145C169.282 44.9136 169.568 45.1393 169.903 45.2545C170.429 45.4529 170.991 45.5381 171.553 45.5045C171.91 45.494 172.264 45.4505 172.613 45.3745C173.013 45.2971 173.398 45.1553 173.753 44.9545H173.673C173.795 45.5119 174.06 46.028 174.441 46.4526C174.822 46.8771 175.307 47.1956 175.848 47.377C176.389 47.5583 176.967 47.5963 177.527 47.4872C178.087 47.3781 178.61 47.1257 179.043 46.7545H178.923C179.031 46.8978 179.166 47.0184 179.32 47.1094C179.474 47.2003 179.645 47.2599 179.823 47.2845C180.187 47.3409 180.559 47.2887 180.893 47.1345C181.243 46.9808 181.535 46.7177 181.723 46.3845C181.902 46.0422 181.995 45.6611 181.993 45.2745C181.972 44.474 181.672 43.706 181.143 43.1045C180.591 42.4973 179.971 41.9569 179.293 41.4945V41.6545C179.566 41.4695 179.796 41.2284 179.969 40.9474C180.141 40.6663 180.252 40.3517 180.293 40.0245C180.393 39.3592 180.289 38.6789 179.993 38.0745C179.685 37.4706 179.26 36.9336 178.743 36.4945C178.223 36.0473 177.675 35.6332 177.103 35.2545V35.4045C177.332 35.1296 177.499 34.8089 177.594 34.464C177.689 34.1191 177.709 33.7578 177.653 33.4045C177.56 32.6942 177.261 32.0266 176.793 31.4845C175.842 30.5518 174.694 29.8444 173.433 29.4145L173.483 29.5245C173.617 28.825 173.578 28.1035 173.372 27.422C173.165 26.7405 172.796 26.1193 172.297 25.6118C171.797 25.1044 171.182 24.7257 170.503 24.5085C169.825 24.2912 169.104 24.2418 168.403 24.3645L168.503 24.4745C168.557 23.9216 168.496 23.3635 168.322 22.8356C168.149 22.3078 167.867 21.8219 167.496 21.4089C167.124 20.9959 166.67 20.6649 166.164 20.4368C165.657 20.2088 165.109 20.0888 164.553 20.0845L164.633 20.1645C164.586 19.6015 164.411 19.0565 164.122 18.5713C163.833 18.086 163.436 17.6733 162.963 17.3645C162.561 17.0774 162.104 16.8752 161.621 16.7703C161.138 16.6654 160.638 16.6601 160.153 16.7545L160.233 16.8245C160.161 16.2252 159.945 15.6522 159.603 15.1545C159.312 14.7089 158.947 14.3166 158.523 13.9945C157.864 13.464 157.049 13.1653 156.203 13.1445H155.953H155.723C155.573 13.1445 155.433 13.1445 155.303 13.2145C155.091 13.2718 154.884 13.3454 154.683 13.4345L154.323 13.6145L154.203 13.6745C154.203 13.6745 154.203 13.6745 154.333 13.6745L154.693 13.5145C154.894 13.4354 155.102 13.3719 155.313 13.3245C155.443 13.3245 155.583 13.3245 155.723 13.2545H155.953H156.203C157.03 13.286 157.824 13.5881 158.463 14.1145C158.857 14.4366 159.195 14.8218 159.463 15.2545C159.789 15.7356 159.994 16.2877 160.063 16.8645V16.9445H160.133C160.633 16.8613 161.145 16.8817 161.637 17.0045C162.128 17.1273 162.59 17.3498 162.992 17.6583C163.394 17.9668 163.729 18.3547 163.975 18.7978C164.221 19.241 164.374 19.73 164.423 20.2345V20.3145H164.513C165.026 20.3002 165.535 20.3974 166.007 20.5994C166.478 20.8014 166.9 21.1034 167.243 21.4845C167.626 21.8759 167.916 22.3494 168.089 22.8692C168.262 23.389 168.315 23.9414 168.243 24.4845V24.6145H168.373C169.042 24.4914 169.732 24.532 170.382 24.733C171.033 24.934 171.625 25.2893 172.108 25.7687C172.592 26.2482 172.952 26.8374 173.158 27.4862C173.364 28.135 173.411 28.824 173.293 29.4945V29.5745H173.373C174.601 29.9891 175.722 30.6723 176.653 31.5745C177.1 32.0831 177.385 32.7132 177.473 33.3845C177.521 33.7044 177.501 34.0308 177.415 34.3426C177.329 34.6544 177.178 34.9447 176.973 35.1945L176.903 35.2745L176.993 35.3445C178.161 35.9964 179.14 36.9406 179.833 38.0845C180.103 38.654 180.201 39.2903 180.113 39.9145C180.081 40.2114 179.987 40.4983 179.837 40.7566C179.687 41.0149 179.485 41.2391 179.243 41.4145L179.133 41.4845L179.243 41.5645C179.906 42.0151 180.513 42.542 181.053 43.1345C181.558 43.7008 181.848 44.4263 181.873 45.1845C181.894 45.5366 181.811 45.887 181.633 46.1915C181.455 46.4959 181.19 46.7406 180.873 46.8945C180.585 47.0464 180.254 47.0975 179.933 47.0395C179.612 46.9815 179.32 46.8178 179.103 46.5745V46.5045L179.043 46.5645C178.629 46.9214 178.129 47.165 177.593 47.2717C177.056 47.3783 176.502 47.3445 175.982 47.1734C175.463 47.0023 174.997 46.6997 174.629 46.2952C174.261 45.8906 174.004 45.3978 173.883 44.8645V44.7945H173.823C173.476 44.9876 173.102 45.1259 172.713 45.2045C172.384 45.2811 172.05 45.328 171.713 45.3445C171.161 45.3842 170.607 45.3128 170.083 45.1345C169.753 45.0264 169.468 44.8119 169.273 44.5245C169.023 44.3945 168.993 44.2745 168.983 44.2745Z" fill="#455A64"/>
<path d="M193.803 35.7238C193.893 35.5951 193.97 35.4577 194.033 35.3138C194.211 34.8891 194.306 34.4342 194.313 33.9738C194.309 33.2527 194.074 32.5519 193.643 31.9738C193.349 31.5803 192.975 31.2532 192.546 31.0137C192.117 30.7742 191.642 30.6277 191.153 30.5838L191.223 30.6638C191.373 29.523 191.091 28.3673 190.433 27.4238C190.073 26.8955 189.602 26.4519 189.053 26.1238C188.458 25.8149 187.835 25.5638 187.193 25.3738C186.871 25.2636 186.567 25.1051 186.293 24.9038C186.02 24.6967 185.797 24.4299 185.643 24.1238C185.313 23.5138 185.173 22.7638 184.763 22.1238C184.33 21.4455 183.702 20.9136 182.961 20.5978C182.221 20.2821 181.402 20.197 180.613 20.3538L180.733 20.4638C180.801 19.652 180.681 18.8356 180.383 18.0775C180.085 17.3193 179.617 16.6396 179.016 16.0908C178.414 15.542 177.694 15.1388 176.911 14.9122C176.129 14.6856 175.305 14.6416 174.503 14.7838L174.623 14.8938C174.667 14.0045 174.455 13.1212 174.014 12.3481C173.572 11.5749 172.919 10.9441 172.13 10.5301C171.342 10.116 170.452 9.93587 169.565 10.0109C168.678 10.086 167.83 10.4131 167.123 10.9538H167.233C166.533 10.3611 165.715 9.9247 164.833 9.67377C164.05 9.43867 163.24 9.30426 162.423 9.27378C161.101 9.20282 159.777 9.36877 158.513 9.76378C157.701 10.0032 156.934 10.3748 156.243 10.8638C156.058 10.9924 155.884 11.1363 155.723 11.2938L155.553 11.4438C155.553 11.4438 155.793 11.2438 156.263 10.9138C156.964 10.4448 157.733 10.0872 158.543 9.85378C159.801 9.48343 161.113 9.33124 162.423 9.40378C163.227 9.44567 164.023 9.58673 164.793 9.82378C165.65 10.075 166.444 10.5044 167.123 11.0838L167.173 11.1338L167.223 11.0838C167.904 10.5665 168.719 10.2546 169.571 10.1845C170.423 10.1145 171.278 10.2894 172.034 10.6886C172.791 11.0878 173.417 11.6946 173.84 12.4378C174.264 13.181 174.466 14.0296 174.423 14.8838V15.0038H174.543C175.315 14.8644 176.109 14.9045 176.862 15.1212C177.616 15.3378 178.31 15.7251 178.89 16.253C179.471 16.781 179.921 17.4354 180.208 18.1656C180.495 18.8958 180.609 19.6822 180.543 20.4638V20.4938H180.673C181.423 20.3477 182.199 20.4285 182.903 20.726C183.606 21.0235 184.205 21.5241 184.623 22.1638C185.013 22.7838 185.153 23.5238 185.503 24.1638C185.671 24.495 185.914 24.7825 186.213 25.0038C186.5 25.2106 186.817 25.3725 187.153 25.4838C187.786 25.675 188.401 25.9192 188.993 26.2138C189.513 26.5428 189.956 26.9792 190.293 27.4938C190.943 28.3995 191.222 29.5192 191.073 30.6238V30.6938H191.143C191.616 30.7345 192.075 30.8728 192.491 31.1C192.908 31.3272 193.273 31.6383 193.563 32.0138C194.001 32.5881 194.237 33.2914 194.233 34.0138C194.244 34.4646 194.165 34.9131 194.003 35.3338C193.883 35.5838 193.793 35.7138 193.803 35.7238Z" fill="#455A64"/>
<path d="M130.563 41.2037C130.603 41.1194 130.624 41.0271 130.624 40.9337C130.624 40.8403 130.603 40.7481 130.563 40.6637C130.468 40.4554 130.324 40.2734 130.143 40.1337C129.892 39.9552 129.605 39.8324 129.303 39.7737C128.932 39.7023 128.575 39.5742 128.243 39.3937C127.874 39.1549 127.59 38.8047 127.433 38.3937C127.255 37.9108 127.17 37.3984 127.183 36.8837C127.183 36.3337 127.183 35.7537 127.183 35.1337C126.972 33.8079 126.613 32.5098 126.113 31.2637C125.893 30.5628 125.818 29.8245 125.893 29.0937C125.925 28.7112 126.039 28.34 126.227 28.0053C126.415 27.6706 126.673 27.3802 126.983 27.1537C127.704 26.7576 128.469 26.4487 129.263 26.2337C129.678 26.0932 130.067 25.8836 130.413 25.6137C130.762 25.3235 131.031 24.9481 131.193 24.5237C131.465 23.6612 131.649 22.7734 131.743 21.8737C131.802 21.4267 131.93 20.9915 132.123 20.5837C132.323 20.1852 132.65 19.8649 133.053 19.6737C133.643 19.4801 134.254 19.3593 134.873 19.3137C135.189 19.2694 135.496 19.1749 135.783 19.0337C136.068 18.8763 136.309 18.6493 136.483 18.3737C136.762 17.8252 136.961 17.2391 137.073 16.6337C137.212 16.0733 137.467 15.5485 137.823 15.0937C138.158 14.6566 138.579 14.2932 139.061 14.0265C139.543 13.7598 140.075 13.5954 140.623 13.5437C141.653 13.462 142.677 13.7688 143.493 14.4037L143.583 14.4737V14.3637C143.91 13.529 144.412 12.7741 145.056 12.1497C145.699 11.5253 146.469 11.0459 147.313 10.7437C148.022 10.4959 148.773 10.3873 149.523 10.4237C150.159 10.4437 150.786 10.5792 151.373 10.8237C152.184 11.1748 152.878 11.7508 153.373 12.4837C153.506 12.6807 153.63 12.8843 153.743 13.0937L153.833 13.2537V13.3037C153.837 13.2839 153.837 13.2635 153.833 13.2437L153.753 13.0837C153.66 12.8634 153.546 12.6524 153.413 12.4537C152.924 11.699 152.23 11.099 151.413 10.7237C150.812 10.4726 150.173 10.3271 149.523 10.2937C148.76 10.2586 147.998 10.3636 147.273 10.6037C146.404 10.9092 145.611 11.3976 144.946 12.0359C144.282 12.6742 143.763 13.4475 143.423 14.3037H143.553C142.703 13.6346 141.631 13.3129 140.553 13.4037C139.976 13.4528 139.416 13.6212 138.909 13.8984C138.401 14.1756 137.956 14.5554 137.603 15.0137C137.239 15.4935 136.974 16.0407 136.823 16.6237C136.713 17.2079 136.521 17.7735 136.253 18.3037C136.085 18.5477 135.866 18.7514 135.61 18.9001C135.354 19.0488 135.068 19.1388 134.773 19.1637C134.136 19.2066 133.508 19.3309 132.903 19.5337C132.469 19.7479 132.117 20.0994 131.903 20.5337C131.699 20.9562 131.564 21.4086 131.503 21.8737C131.413 22.7592 131.236 23.6335 130.973 24.4837C130.818 24.8707 130.571 25.214 130.253 25.4837C129.924 25.7438 129.552 25.9436 129.153 26.0737C128.348 26.2965 127.572 26.6154 126.843 27.0237C126.497 27.2568 126.215 27.5732 126.023 27.9437C125.839 28.3032 125.72 28.6927 125.673 29.0937C125.601 29.8483 125.679 30.6095 125.903 31.3337C126.411 32.5647 126.777 33.8497 126.993 35.1637C126.993 35.7637 126.993 36.3537 126.993 36.9037C126.99 37.4333 127.085 37.9588 127.273 38.4537C127.436 38.8918 127.738 39.2643 128.133 39.5137C128.475 39.6903 128.843 39.8118 129.223 39.8737C129.52 39.9305 129.802 40.0461 130.053 40.2137C130.229 40.3401 130.37 40.5086 130.463 40.7037C130.547 40.856 130.582 41.0307 130.563 41.2037Z" fill="#455A64"/>
<path d="M117.103 31.6946C117.103 31.6946 117.103 31.6946 117.163 31.5646C117.223 31.4346 117.263 31.3446 117.323 31.1846C117.473 30.8346 117.673 30.3446 117.923 29.7046C118.173 29.0646 118.483 28.2746 118.923 27.3946C119.371 26.382 120.091 25.5133 121.003 24.8846C121.523 24.5646 122.133 24.3346 122.733 24.0246C123.048 23.8667 123.344 23.672 123.613 23.4446C123.89 23.1996 124.103 22.8906 124.233 22.5446C124.513 21.8346 124.473 21.0546 124.683 20.3246C124.784 19.963 124.985 19.6373 125.263 19.3846C125.565 19.1487 125.902 18.963 126.263 18.8346C126.661 18.6967 127.046 18.5227 127.413 18.3146C127.793 18.077 128.09 17.7277 128.263 17.3146C128.518 16.4709 128.656 15.596 128.673 14.7146C128.712 14.2807 128.838 13.859 129.043 13.4746C129.266 13.1022 129.624 12.8301 130.043 12.7146C130.903 12.4846 131.863 12.7146 132.823 12.5246C133.303 12.4134 133.734 12.1504 134.053 11.7746C134.353 11.4137 134.609 11.0174 134.813 10.5946C135.033 10.1846 135.233 9.77461 135.473 9.40461C135.705 9.03576 136.024 8.73 136.403 8.51461C137.2 8.19955 138.079 8.15735 138.903 8.3946C139.732 8.59757 140.594 8.62144 141.433 8.46461C142.206 8.22026 142.927 7.83736 143.563 7.33461C144.152 6.87709 144.786 6.47851 145.453 6.1446C146.697 5.64594 148.059 5.52084 149.373 5.7846C150.459 6.00009 151.484 6.45439 152.373 7.11461C153.034 7.62855 153.613 8.23867 154.093 8.9246C154.387 9.3661 154.645 9.83101 154.863 10.3146L155.033 10.6846C155.052 10.7302 155.075 10.7738 155.103 10.8146C155.091 10.7664 155.074 10.7195 155.053 10.6746C155.053 10.5846 154.963 10.4546 154.903 10.2946C154.696 9.80285 154.445 9.33091 154.153 8.88461C153.683 8.17969 153.106 7.55219 152.443 7.02461C151.556 6.35114 150.532 5.8801 149.443 5.6446C148.104 5.36815 146.713 5.48983 145.443 5.99461C144.763 6.3261 144.119 6.72832 143.523 7.19461C142.901 7.67991 142.196 8.04913 141.443 8.2846C140.63 8.43187 139.795 8.40461 138.993 8.20462C138.565 8.11843 138.13 8.06825 137.693 8.05461C137.23 8.02983 136.769 8.13229 136.36 8.35087C135.951 8.56946 135.61 8.89584 135.373 9.29461C135.113 9.67461 134.913 10.0946 134.693 10.4946C134.498 10.9069 134.253 11.2932 133.963 11.6446C133.669 11.9883 133.273 12.2298 132.833 12.3346C131.943 12.5346 130.993 12.3346 130.053 12.5246C129.583 12.6514 129.18 12.9516 128.923 13.3646C128.704 13.7734 128.572 14.2226 128.533 14.6846C128.513 15.5485 128.378 16.406 128.133 17.2346C127.976 17.613 127.703 17.9317 127.353 18.1446C127 18.3475 126.629 18.5149 126.243 18.6446C125.854 18.7829 125.489 18.982 125.163 19.2346C124.853 19.4955 124.63 19.8442 124.523 20.2346C124.303 21.0046 124.343 21.7746 124.093 22.4446C123.816 23.0754 123.308 23.5762 122.673 23.8446C122.083 24.1546 121.473 24.3946 120.933 24.7246C120.004 25.3695 119.276 26.2639 118.833 27.3046C118.403 28.1946 118.123 28.9946 117.833 29.6446C117.543 30.2946 117.403 30.7746 117.273 31.1346L117.123 31.5246C117.111 31.5805 117.104 31.6374 117.103 31.6946V31.6946Z" fill="#455A64"/>
<path d="M123.753 24.3545H123.633C123.51 24.3625 123.391 24.3966 123.283 24.4545C123.091 24.5932 122.937 24.7772 122.834 24.9902C122.731 25.2031 122.683 25.4382 122.693 25.6745C122.708 26.0161 122.776 26.3533 122.893 26.6745C123.023 27.0388 123.104 27.4188 123.133 27.8045C123.106 28.2512 122.969 28.6843 122.733 29.0645C122.503 29.4745 122.193 29.8845 121.953 30.3745C121.817 30.6319 121.741 30.9167 121.73 31.2076C121.72 31.4985 121.776 31.7881 121.893 32.0545C122.133 32.6045 122.573 33.0545 122.803 33.6145C123.014 34.2111 122.989 34.8658 122.733 35.4445C122.503 36.0645 122.173 36.6745 121.963 37.3645C121.842 37.7145 121.791 38.0849 121.813 38.4545C121.837 38.8326 121.943 39.201 122.123 39.5345C122.524 40.1776 122.983 40.7834 123.493 41.3445C124.013 41.9056 124.305 42.6398 124.313 43.4045C124.181 44.1884 123.956 44.9538 123.643 45.6845C123.513 46.0847 123.453 46.504 123.463 46.9245C123.505 47.337 123.635 47.7358 123.843 48.0945C124.286 48.7483 124.803 49.3489 125.383 49.8845C125.925 50.3949 126.357 51.0109 126.653 51.6945C126.878 52.3786 127.148 53.0467 127.463 53.6945C127.639 54.0122 127.885 54.2858 128.183 54.4945C128.492 54.6814 128.83 54.8165 129.183 54.8945C129.502 54.9633 129.816 55.0535 130.123 55.1645C130.41 55.2809 130.677 55.443 130.913 55.6445C131.364 56.038 131.757 56.4924 132.083 56.9945C132.393 57.4646 132.727 57.9186 133.083 58.3545C133.692 59.1234 134.534 59.6742 135.483 59.9245C136.195 60.1074 136.939 60.1347 137.663 60.0045C138.118 59.9176 138.557 59.759 138.963 59.5345C139.104 59.4597 139.237 59.3727 139.363 59.2745C138.793 59.6257 138.157 59.8551 137.495 59.948C136.832 60.041 136.157 59.9955 135.513 59.8145C134.593 59.5599 133.78 59.0165 133.193 58.2645C132.853 57.8545 132.553 57.3845 132.193 56.9045C131.862 56.389 131.461 55.9213 131.003 55.5145C130.75 55.3029 130.467 55.1309 130.163 55.0045C129.836 54.8862 129.502 54.7893 129.163 54.7145C128.839 54.6481 128.531 54.5226 128.253 54.3445C127.983 54.1476 127.758 53.8953 127.593 53.6045C127.283 52.9572 127.019 52.2889 126.803 51.6045C126.499 50.898 126.053 50.2614 125.493 49.7345C124.925 49.2133 124.421 48.6257 123.993 47.9845C123.788 47.6557 123.668 47.2812 123.643 46.8945C123.628 46.5014 123.682 46.1088 123.803 45.7345C124.122 44.988 124.351 44.2057 124.483 43.4045C124.503 42.9951 124.424 42.587 124.253 42.2145C124.079 41.8576 123.864 41.5221 123.613 41.2145C123.11 40.6634 122.658 40.0676 122.263 39.4345C122.097 39.1247 121.995 38.7846 121.963 38.4345C121.953 38.0956 122 37.7575 122.103 37.4345C122.313 36.7745 122.643 36.1645 122.863 35.5245C123.134 34.9073 123.16 34.2096 122.933 33.5745C122.673 32.9745 122.233 32.5245 122.003 32.0045C121.892 31.7595 121.839 31.4924 121.848 31.2237C121.857 30.955 121.927 30.6919 122.053 30.4545C122.283 29.9845 122.583 29.5645 122.813 29.1445C123.063 28.7485 123.201 28.2925 123.213 27.8245C123.185 27.427 123.097 27.036 122.953 26.6645C122.831 26.3442 122.76 26.0068 122.743 25.6645C122.733 25.4395 122.778 25.2155 122.874 25.0117C122.969 24.8078 123.113 24.6304 123.293 24.4945C123.43 24.4055 123.589 24.357 123.753 24.3545V24.3545Z" fill="#455A64"/>
<path d="M193.633 35.4939C193.809 35.4852 193.983 35.4584 194.153 35.4139C194.799 35.2465 195.386 34.9054 195.851 34.4276C196.317 33.9499 196.643 33.3537 196.793 32.7039C196.911 32.1662 196.908 31.6088 196.783 31.0725C196.659 30.5362 196.416 30.0345 196.073 29.6039C195.655 29.1271 195.185 28.6978 194.673 28.3239C194.122 27.9271 193.667 27.411 193.343 26.8139C193.087 26.1338 193.087 25.384 193.343 24.7039C193.553 23.9839 193.903 23.2639 194.103 22.4639C194.322 21.583 194.354 20.6661 194.197 19.772C194.04 18.878 193.698 18.0268 193.192 17.2732C192.686 16.5195 192.028 15.8802 191.26 15.3964C190.492 14.9125 189.631 14.5949 188.733 14.4639L188.803 14.6139C189.084 14.1676 189.252 13.6597 189.293 13.1339C189.335 12.6031 189.27 12.0694 189.103 11.5639C188.944 11.05 188.693 10.5689 188.363 10.1439C188.024 9.71954 187.623 9.34872 187.173 9.04388C185.823 8.20137 184.297 7.68125 182.713 7.52388C181.228 7.33314 179.723 7.35333 178.243 7.58388L178.353 7.67387C178.276 6.8185 177.966 6.0006 177.457 5.30935C176.947 4.61811 176.257 4.08005 175.463 3.75387C174.719 3.4519 173.911 3.34187 173.113 3.43388C172.369 3.56081 171.648 3.79668 170.973 4.13388C170.653 4.27098 170.317 4.36836 169.973 4.42387C169.64 4.47769 169.299 4.46067 168.973 4.37388C168.342 4.19613 167.735 3.94438 167.163 3.62388C166.624 3.32867 166.049 3.10352 165.453 2.95389C164.899 2.82774 164.33 2.78393 163.763 2.82388C162.795 2.88398 161.861 3.19785 161.053 3.73388C160.452 4.12761 159.932 4.6335 159.523 5.22387C159.263 5.58821 159.051 5.98488 158.893 6.40388C158.834 6.54752 158.784 6.69443 158.743 6.84388C158.743 6.84388 158.803 6.69388 158.923 6.41388C159.366 5.34433 160.127 4.43674 161.103 3.81389C161.903 3.29857 162.823 2.99886 163.773 2.94388C164.327 2.91288 164.882 2.96001 165.423 3.08388C166.008 3.23729 166.573 3.46232 167.103 3.75387C167.678 4.08956 168.293 4.35162 168.933 4.53387C169.279 4.62076 169.64 4.63776 169.993 4.58388C170.355 4.53323 170.709 4.43225 171.043 4.28387C171.707 3.95941 172.414 3.73369 173.143 3.61387C173.74 3.54616 174.345 3.5986 174.922 3.76811C175.499 3.93762 176.036 4.22076 176.502 4.6009C176.968 4.98105 177.353 5.45051 177.635 5.98167C177.917 6.51284 178.089 7.09498 178.143 7.69388V7.79388H178.243C179.702 7.5583 181.188 7.53809 182.653 7.73388C184.204 7.88697 185.698 8.39325 187.023 9.21388C187.457 9.50828 187.844 9.86552 188.173 10.2739C188.485 10.6837 188.725 11.1436 188.883 11.6339C189.042 12.1135 189.103 12.6202 189.063 13.1239C189.024 13.6176 188.866 14.0946 188.603 14.5139L188.523 14.6439H188.673C189.543 14.7748 190.376 15.0851 191.12 15.5551C191.864 16.0252 192.502 16.6446 192.994 17.3743C193.485 18.1039 193.82 18.9277 193.977 19.7935C194.133 20.6594 194.108 21.5483 193.903 22.4039C193.713 23.1839 193.363 23.8939 193.153 24.6439C192.878 25.3583 192.878 26.1494 193.153 26.8639C193.495 27.4744 193.966 28.0033 194.533 28.4139C195.038 28.7812 195.504 29.2001 195.923 29.6639C196.259 30.0786 196.498 30.5633 196.623 31.0823C196.747 31.6014 196.754 32.1418 196.643 32.6639C196.481 33.4545 196.045 34.1627 195.413 34.6639C195.023 34.9807 194.574 35.2185 194.093 35.3639C193.813 35.4939 193.623 35.4939 193.633 35.4939Z" fill="#263238"/>
<path d="M121.163 19.9341C121.163 19.9341 121.163 19.9341 121.163 19.8041C121.163 19.6741 121.163 19.5841 121.163 19.4341C121.163 19.0941 121.163 18.6041 121.213 17.9941C121.263 17.3841 121.293 16.6041 121.403 15.7241C121.529 14.7326 121.77 13.7593 122.123 12.8241C122.548 11.6971 123.21 10.6742 124.063 9.82412C124.547 9.36076 125.1 8.9761 125.703 8.68412C126.354 8.40524 127.022 8.16809 127.703 7.97411C128.424 7.76392 129.102 7.42515 129.703 6.97411C130.308 6.44889 130.845 5.85103 131.303 5.19412C131.773 4.55412 132.233 3.86412 132.763 3.19412C133.295 2.55223 133.943 2.01622 134.673 1.61411C136.143 0.859708 137.754 0.417141 139.403 0.314126C140.936 0.176727 142.477 0.153322 144.013 0.244119C146.625 0.368423 149.197 0.929531 151.623 1.90412C153.255 2.57104 154.774 3.48876 156.123 4.62412C156.353 4.83412 156.563 5.00411 156.743 5.17411L157.163 5.60412L157.433 5.87412L157.533 5.95413L157.453 5.85412L157.193 5.57412L156.783 5.13412C156.613 4.96412 156.403 4.77413 156.173 4.56413C154.838 3.39673 153.321 2.45441 151.683 1.77412C149.243 0.778033 146.654 0.19669 144.023 0.0541162C142.477 -0.036627 140.926 -0.0132229 139.383 0.124124C137.706 0.219265 136.067 0.665558 134.573 1.43412C133.811 1.84884 133.133 2.40156 132.573 3.06413C132.023 3.70413 131.573 4.38413 131.103 5.06413C130.658 5.70728 130.134 6.29186 129.543 6.80412C128.949 7.26623 128.269 7.6061 127.543 7.80412C126.862 8.00579 126.194 8.24959 125.543 8.53411C124.925 8.83712 124.358 9.23531 123.863 9.71412C122.985 10.5907 122.303 11.644 121.863 12.8041C121.521 13.7577 121.289 14.7476 121.173 15.7541C121.063 16.6341 121.033 17.4041 121.013 18.0341C120.993 18.6641 121.013 19.1441 121.013 19.4741V19.8441C121.153 19.8941 121.153 19.9341 121.163 19.9341Z" fill="#263238"/>
<path d="M172.833 42.9646C173.192 43.0842 173.529 43.2597 173.833 43.4846C174.702 44.1001 175.326 45.0034 175.593 46.0346C175.788 46.7455 175.812 47.4926 175.663 48.2146C175.486 49.0396 175.116 49.8109 174.583 50.4646C173.996 51.1927 173.231 51.7575 172.363 52.1046C171.411 52.4908 170.364 52.5746 169.363 52.3446C168.38 52.1337 167.476 51.6522 166.753 50.9546C166.078 50.2998 165.609 49.4622 165.403 48.5446C165.226 47.7752 165.229 46.9753 165.411 46.207C165.593 45.4387 165.949 44.7228 166.453 44.1146C167.178 43.3323 168.141 42.8119 169.193 42.6346C169.475 42.5905 169.761 42.5905 170.043 42.6346C170.142 42.6463 170.239 42.6698 170.333 42.7046C169.956 42.664 169.575 42.6809 169.203 42.7546C168.771 42.8419 168.353 42.99 167.963 43.1946C167.447 43.4379 166.982 43.7773 166.593 44.1946C166.113 44.7836 165.773 45.4742 165.6 46.2141C165.427 46.954 165.424 47.7237 165.593 48.4646C165.793 49.3334 166.241 50.1253 166.883 50.7446C167.579 51.4062 168.444 51.8629 169.383 52.0646C170.317 52.2746 171.293 52.1979 172.183 51.8446C172.974 51.5288 173.677 51.0265 174.233 50.3806C174.788 49.7346 175.179 48.9642 175.373 48.1346C175.529 47.4467 175.529 46.7325 175.373 46.0446C175.124 45.0446 174.542 44.1593 173.723 43.5346C173.436 43.3293 173.139 43.139 172.833 42.9646V42.9646Z" fill="#E0E0E0"/>
<path d="M142.473 33.4245C142.293 33.1745 141.023 34.1245 139.343 34.0145C137.663 33.9045 136.493 32.8345 136.293 33.0145C136.093 33.1945 136.353 33.5545 136.863 34.0145C137.531 34.6154 138.385 34.9684 139.283 35.0145C140.184 35.0642 141.074 34.7912 141.793 34.2445C142.343 33.9545 142.553 33.4945 142.473 33.4245Z" fill="#263238"/>
<path d="M157.433 32.8739C157.183 32.6739 156.093 33.8739 154.313 34.1739C152.533 34.4739 151.083 33.7339 150.923 33.9939C150.763 34.2539 151.123 34.4939 151.763 34.8439C152.611 35.2868 153.581 35.4379 154.523 35.2739C155.457 35.1171 156.313 34.6525 156.953 33.9539C157.423 33.4139 157.543 32.9639 157.433 32.8739Z" fill="#263238"/>
<path d="M152.103 45.8837C152.01 45.3377 151.722 44.8438 151.293 44.4937C150.901 44.1556 150.409 43.9558 149.892 43.9251C149.375 43.8943 148.862 44.0344 148.433 44.3237C147.983 44.6707 147.635 45.1324 147.426 45.6603C147.217 46.1883 147.153 46.7629 147.243 47.3237V47.3237C147.483 47.6525 147.789 47.9267 148.143 48.1284C148.496 48.33 148.888 48.4545 149.293 48.4937H149.673C150.319 48.4877 150.939 48.2417 151.413 47.8037C151.669 47.5588 151.864 47.2579 151.984 46.9248C152.103 46.5917 152.144 46.2353 152.103 45.8837V45.8837Z" fill="#7B4B45"/>
<path d="M151.203 43.0744C150.953 43.0744 151.043 44.7144 149.703 45.9544C148.363 47.1944 146.613 47.1044 146.613 47.3344C146.613 47.5644 147.023 47.6344 147.753 47.6144C148.713 47.5716 149.628 47.1969 150.343 46.5544C151.022 45.9288 151.434 45.0657 151.493 44.1444C151.513 43.4944 151.293 43.0644 151.203 43.0744Z" fill="#263238"/>
<path d="M132.893 69.1846C132.893 69.1846 120.013 70.1846 114.983 79.5946C110.793 87.4146 101.933 112.905 101.753 115.845C101.573 118.785 97.9029 133.575 108.573 132.995C119.243 132.415 149.343 110.495 156.293 103.095L148.863 97.9246L125.443 106.615L132.893 69.1846Z" fill="#A26760"/>
<path d="M148.843 97.9243L153.843 78.5243L156.293 68.0543C156.293 68.0543 157.293 67.8243 157.423 71.1043C157.342 73.6828 157.412 76.2639 157.633 78.8343C158.023 82.2143 158.933 97.2943 158.633 99.5143C158.333 101.734 155.633 103.604 155.633 103.604" fill="#A26760"/>
<path d="M155.643 103.605C156.308 103.023 156.92 102.384 157.473 101.695C158.115 100.898 158.467 99.9074 158.473 98.8845C158.473 97.6645 158.473 96.2845 158.383 94.7445C158.253 91.6845 158.043 88.0346 157.763 83.9846C157.623 81.9846 157.443 79.8545 157.203 77.6345C156.963 75.4145 157.153 73.0945 157.103 70.7945C157.086 70.2754 157.015 69.7594 156.893 69.2545C156.835 69.0258 156.744 68.8068 156.623 68.6045C156.554 68.4705 156.441 68.3644 156.303 68.3045L156.493 68.1145C155.493 72.3245 154.653 76.3245 153.733 79.9045C152.813 83.4845 151.943 86.6546 151.223 89.3446L149.503 95.6445C149.303 96.3445 149.133 96.9046 149.013 97.3446C148.963 97.5433 148.896 97.7374 148.813 97.9245C148.824 97.7214 148.857 97.5202 148.913 97.3245C149.023 96.8745 149.153 96.3245 149.313 95.6045C149.693 94.0545 150.223 91.9045 150.883 89.2645C151.543 86.6245 152.373 83.3645 153.283 79.7945C154.193 76.2245 155.013 72.2045 155.993 67.9945V67.8146H156.143C156.324 67.8058 156.504 67.8504 156.661 67.9428C156.817 68.0352 156.943 68.1714 157.023 68.3345C157.168 68.5851 157.279 68.8542 157.353 69.1345C157.484 69.6722 157.561 70.2216 157.583 70.7745C157.643 71.9745 157.583 73.1246 157.583 74.2646C157.583 75.4046 157.583 76.5145 157.683 77.6045C157.913 79.7945 158.083 81.9445 158.203 83.9645C158.463 87.9645 158.643 91.6745 158.723 94.7445C158.723 96.2845 158.783 97.6745 158.723 98.9045C158.683 99.9823 158.274 101.014 157.563 101.825C157.143 102.339 156.671 102.809 156.153 103.225C155.998 103.37 155.827 103.498 155.643 103.605V103.605Z" fill="#7B4B45"/>
<path d="M168.563 97.924L163.563 78.524L161.233 68.494C161.233 68.494 160.513 68.094 159.963 69.684C159.413 71.274 160.193 75.484 159.793 78.854C159.393 82.224 158.493 97.314 158.793 99.534C159.093 101.754 161.793 103.624 161.793 103.624" fill="#A26760"/>
<path d="M161.763 103.604C161.556 103.5 161.365 103.369 161.193 103.214C160.675 102.806 160.202 102.343 159.783 101.834C159.073 101.029 158.66 100.006 158.613 98.9337C158.553 97.7137 158.613 96.3337 158.613 94.8137C158.693 91.8137 158.863 88.1337 159.113 84.1137C159.233 82.1137 159.413 79.9737 159.613 77.8137C159.813 75.6537 159.463 73.3937 159.503 71.0337C159.501 70.4356 159.609 69.8422 159.823 69.2837C159.935 68.9962 160.094 68.7292 160.293 68.4937C160.414 68.3541 160.574 68.2544 160.752 68.208C160.931 68.1616 161.12 68.1705 161.293 68.2337L161.393 68.2837V68.4037C162.393 72.5637 163.173 76.5037 164.073 80.0437C164.973 83.5837 165.763 86.7137 166.433 89.3737C167.103 92.0337 167.603 94.0937 167.983 95.6237L168.373 97.3137C168.429 97.5093 168.462 97.7106 168.473 97.9137C168.39 97.7296 168.324 97.539 168.273 97.3437C168.153 96.9137 167.993 96.3437 167.793 95.6737C167.383 94.1537 166.793 92.0537 166.093 89.4637C165.393 86.8737 164.553 83.6637 163.613 80.1537C162.673 76.6437 161.863 72.6737 160.883 68.5237L161.013 68.6937C160.936 68.6786 160.857 68.6857 160.785 68.714C160.712 68.7423 160.649 68.7908 160.603 68.8537C160.439 69.0354 160.311 69.2455 160.223 69.4737C160.03 69.9744 159.935 70.5073 159.943 71.0437C159.943 73.3237 160.183 75.6137 160.043 77.8337C159.903 80.0537 159.653 82.1137 159.513 84.1337C159.233 88.1337 159.023 91.7737 158.893 94.8137C158.833 96.3337 158.783 97.7137 158.813 98.9137C158.825 99.9262 159.178 100.905 159.813 101.694C160.407 102.385 161.059 103.024 161.763 103.604V103.604Z" fill="#7B4B45"/>
<path d="M148.183 98.1738C147.651 98.4118 147.107 98.6221 146.553 98.8038L142.093 100.494C138.333 101.924 133.093 103.894 127.343 105.944C124.433 106.944 121.663 107.944 119.093 108.634C118.458 108.814 117.814 108.958 117.163 109.064C116.523 109.174 115.923 109.184 115.333 109.254C114.249 109.364 113.173 109.544 112.113 109.794C110.575 110.131 109.124 110.785 107.853 111.714C106.973 112.394 106.593 112.894 106.553 112.854C106.513 112.814 106.623 112.714 106.813 112.484C107.085 112.141 107.393 111.829 107.733 111.554C108.986 110.535 110.452 109.811 112.023 109.434C113.095 109.159 114.184 108.956 115.283 108.824C115.873 108.744 116.503 108.724 117.103 108.614C117.73 108.501 118.351 108.354 118.963 108.174C121.503 107.434 124.273 106.474 127.163 105.454L141.973 100.154C143.873 99.4838 145.413 98.9538 146.483 98.6138C147.023 98.4438 147.483 98.3238 147.733 98.2538C147.877 98.2022 148.03 98.1751 148.183 98.1738V98.1738Z" fill="#7B4B45"/>
<path d="M127.703 95.5639C127.102 93.6518 126.651 91.6959 126.353 89.7139C125.9 87.7627 125.566 85.7857 125.353 83.7939C126.073 85.6712 126.579 87.6235 126.863 89.6139C127.328 91.5666 127.61 93.5587 127.703 95.5639Z" fill="#7B4B45"/>
<path d="M179.713 66.554C179.713 66.554 188.823 63.554 197.203 71.554C205.583 79.554 212.203 100.774 212.203 100.774C212.203 100.774 222.883 118.514 214.493 126.254C206.103 133.994 161.763 103.574 161.763 103.574L167.763 96.734C167.763 96.734 185.353 103.834 191.303 103.574L187.593 87.9239L179.713 66.554Z" fill="#A26760"/>
<path d="M209.933 106.714C209.198 106.051 208.397 105.465 207.543 104.964C205.373 103.953 202.981 103.513 200.593 103.684C197.783 103.814 195.213 104.174 193.333 104.094C192.591 104.083 191.852 104.01 191.123 103.874C190.852 103.85 190.587 103.775 190.343 103.654C190.343 103.564 191.483 103.774 193.343 103.724C195.203 103.674 197.723 103.304 200.583 103.164C203.058 102.981 205.534 103.494 207.733 104.644C208.382 105.018 208.969 105.491 209.473 106.044C209.665 106.238 209.821 106.465 209.933 106.714Z" fill="#7B4B45"/>
<path d="M189.003 79.5938C189.153 79.5938 188.853 81.9438 188.813 84.8138C188.773 87.6838 189.003 90.0037 188.813 90.0237C188.331 88.3282 188.142 86.5629 188.253 84.8037C188.211 83.0374 188.464 81.2764 189.003 79.5938Z" fill="#7B4B45"/>
<path d="M167.983 292.904L168.273 307.574L168.743 322.144C168.757 322.668 168.564 323.176 168.207 323.56C167.85 323.943 167.356 324.171 166.833 324.194L137.143 324.504C136.81 324.501 136.482 324.421 136.185 324.271C135.888 324.121 135.629 323.905 135.428 323.639C135.228 323.374 135.09 323.066 135.027 322.739C134.964 322.413 134.976 322.076 135.063 321.754C135.136 321.476 135.271 321.218 135.458 321C135.645 320.782 135.879 320.609 136.143 320.494C138.283 319.494 154.433 309.944 154.433 309.944L149.123 290.654L167.983 292.904Z" fill="#A26760"/>
<path d="M132.633 130.014L131.423 133.164C131.423 133.164 126.223 138.604 124.503 145.274C122.253 153.974 117.823 164.594 122.333 183.694C124.663 193.544 137.833 233.844 137.833 233.844C137.833 233.844 137.723 255.014 139.703 264.844C141.683 274.674 152.353 307.704 152.353 307.704L168.273 307.614C168.273 307.614 168.143 222.024 168.143 222.384C168.143 222.744 167.723 180.654 167.723 180.654L168.723 152.534L166.293 129.314L132.633 130.014Z" fill="#455A64"/>
<g opacity="0.3">
<path opacity="0.3" d="M166.973 250.074L159.863 241.304C159.261 242.399 158.914 243.616 158.846 244.864C158.779 246.112 158.993 247.36 159.473 248.514C159.473 255.414 159.423 262.344 160.473 269.154C161.523 275.964 163.733 282.724 167.793 288.304C168.126 275.557 167.853 262.814 166.973 250.074Z" fill="black"/>
</g>
<path d="M184.473 228.014L172.293 237.954L161.833 238.134C161.289 238.218 160.801 238.513 160.473 238.954C160.146 239.396 160.005 239.949 160.083 240.494L163.943 272.814C163.967 273.158 164.072 273.492 164.25 273.788C164.427 274.084 164.672 274.334 164.965 274.517C165.257 274.7 165.589 274.812 165.933 274.842C166.276 274.873 166.623 274.822 166.943 274.694C167.215 274.564 167.455 274.374 167.644 274.139C167.833 273.903 167.966 273.628 168.033 273.334C168.693 270.874 175.873 251.974 175.873 251.974L191.293 244.494L184.473 228.014Z" fill="#A26760"/>
<path d="M188.563 128.685L190.563 132.105C193.432 137.014 195.663 142.27 197.203 147.745L198.093 150.885C198.093 150.885 225.903 205.215 225.903 215.705C225.903 226.195 224.293 235.495 214.613 240.575C204.933 245.655 176.293 252.005 176.293 252.005C172.823 247.595 169.883 243.005 171.203 238.005L184.763 223.695L176.713 204.985L167.183 186.755L157.853 140.355L161.733 129.475L188.563 128.685Z" fill="#455A64"/>
<path d="M191.893 152.754C191.391 153.061 190.87 153.334 190.333 153.574L189.483 153.984L188.483 154.544C187.685 154.977 186.911 155.451 186.163 155.964L184.853 156.854L183.503 157.914C182.503 158.614 181.653 159.514 180.653 160.404C178.602 162.443 176.75 164.673 175.123 167.064C173.544 169.481 172.204 172.047 171.123 174.724C170.643 175.974 170.193 177.154 169.883 178.294C169.548 179.345 169.271 180.413 169.053 181.494C168.793 182.494 168.703 183.384 168.563 184.174C168.443 184.836 168.356 185.503 168.303 186.174C168.269 186.762 168.196 187.346 168.083 187.924C168.033 187.338 168.033 186.75 168.083 186.164C168.094 185.471 168.151 184.779 168.253 184.094C168.373 183.294 168.433 182.374 168.673 181.374C168.872 180.281 169.129 179.199 169.443 178.134C169.743 176.974 170.193 175.774 170.663 174.504C171.74 171.781 173.098 169.177 174.713 166.734C176.359 164.31 178.245 162.059 180.343 160.014C181.343 159.134 182.273 158.234 183.253 157.534L184.643 156.484L185.983 155.614C186.751 155.114 187.545 154.657 188.363 154.244L189.363 153.714L190.233 153.344C190.768 153.1 191.324 152.903 191.893 152.754V152.754Z" fill="#263238"/>
<path d="M160.983 173.544C160.903 173.544 160.243 172.464 158.983 170.784C157.372 168.604 155.542 166.593 153.523 164.784C151.494 162.975 149.274 161.393 146.903 160.064C145.083 159.064 143.903 158.524 143.903 158.444C144.208 158.489 144.505 158.58 144.783 158.714C145.56 159.007 146.321 159.341 147.063 159.714C149.514 160.974 151.796 162.54 153.853 164.374C155.905 166.213 157.723 168.299 159.263 170.584C159.733 171.271 160.167 171.982 160.563 172.714C160.741 172.97 160.883 173.249 160.983 173.544V173.544Z" fill="#263238"/>
<path d="M189.733 131.374C189.55 131.47 189.355 131.541 189.153 131.584L187.473 132.084C186.743 132.304 185.833 132.514 184.783 132.774C183.733 133.034 182.523 133.294 181.183 133.554C174.203 134.912 167.141 135.804 160.043 136.224C152.948 136.702 145.828 136.702 138.733 136.224C137.373 136.134 136.143 136.024 135.063 135.884C133.983 135.744 133.063 135.664 132.313 135.534L130.573 135.254C130.368 135.233 130.166 135.186 129.973 135.114C130.179 135.094 130.387 135.094 130.593 135.114L132.333 135.304C133.093 135.404 134.023 135.474 135.093 135.564C136.163 135.654 137.403 135.754 138.753 135.834C145.836 136.205 152.935 136.165 160.013 135.714C167.089 135.291 174.135 134.453 181.113 133.204C182.453 132.964 183.663 132.734 184.713 132.494C185.763 132.254 186.713 132.084 187.423 131.894L189.133 131.494C189.329 131.436 189.53 131.396 189.733 131.374V131.374Z" fill="#263238"/>
<path d="M202.823 232.654C202.554 232.798 202.264 232.896 201.963 232.944C201.157 233.141 200.332 233.255 199.503 233.284C196.741 233.386 194.004 232.725 191.593 231.374C189.197 230.007 187.198 228.039 185.793 225.664C185.37 224.955 185.012 224.208 184.723 223.434C184.595 223.159 184.511 222.866 184.473 222.564C184.563 222.564 184.993 223.744 186.113 225.474C187.566 227.722 189.534 229.59 191.853 230.924C194.19 232.225 196.818 232.913 199.493 232.924C201.553 232.914 202.803 232.564 202.823 232.654Z" fill="#263238"/>
<g opacity="0.3">
<path opacity="0.3" d="M174.703 167.284C171.483 172.424 169.843 177.434 168.323 183.284L168.223 183.864C172.223 172.804 180.303 161.964 189.103 154.024C183.134 156.976 178.136 161.578 174.703 167.284V167.284Z" fill="black"/>
</g>
<path d="M478.8 325.443C478.8 325.583 372.507 325.633 241.414 325.563C110.322 325.493 4 325.303 4 325.153C4 325.003 110.272 324.963 241.414 325.033C372.557 325.103 478.8 325.303 478.8 325.443Z" fill="#263238"/>
<path d="M78.9886 325.085L77.2086 320.735H112.019L109.939 325.085H78.9886Z" fill="#E0E0E0"/>
<path d="M103.629 253.945C107.501 252.127 111.854 251.597 116.049 252.435C118.309 252.815 120.659 253.485 122.189 255.185C123.719 256.885 124.019 259.855 122.259 261.305C121.124 262.079 119.756 262.432 118.389 262.305C115.099 262.305 111.459 261.685 108.829 263.665C107.329 264.785 106.339 266.665 104.549 267.215C103.652 267.424 102.713 267.335 101.872 266.961C101.031 266.588 100.335 265.95 99.8886 265.145C99.0355 263.499 98.8458 261.588 99.3586 259.805C99.5713 258.566 100.067 257.392 100.808 256.376C101.549 255.359 102.514 254.527 103.629 253.945V253.945Z" fill="#EBEBEB"/>
<path d="M94.9687 237.256C97.2787 240.556 101.769 239.466 103.849 237.446C105.929 235.426 106.849 232.506 107.619 229.726C109.449 223.366 111.299 216.726 109.929 210.206C109.604 208.24 108.743 206.402 107.439 204.896C106.778 204.155 105.934 203.6 104.992 203.288C104.049 202.976 103.041 202.916 102.069 203.116C99.8087 203.716 98.3987 205.926 97.3787 208.046C94.3788 214.288 92.8074 221.12 92.7787 228.046C92.7787 231.266 93.1487 234.636 94.9687 237.296" fill="#EBEBEB"/>
<path d="M88.6187 241.945C91.1287 238.945 91.6187 234.625 90.4887 230.895C89.2197 227.187 86.9534 223.9 83.9387 221.395C80.5181 218.35 76.5374 215.999 72.2187 214.475C70.5424 213.805 68.7421 213.501 66.9387 213.585C66.039 213.636 65.1655 213.907 64.3949 214.374C63.6243 214.842 62.9801 215.491 62.5187 216.265C61.2887 218.615 62.4687 221.465 63.7487 223.795C66.003 227.901 68.5776 231.823 71.4487 235.525C73.7587 238.525 76.4487 241.435 79.9187 242.775C83.3887 244.115 87.0887 243.965 88.9187 241.525" fill="#EBEBEB"/>
<path d="M94.8087 287.055C94.9257 286.563 94.996 286.061 95.0187 285.555C95.1287 284.455 95.2587 283.085 95.4187 281.455C95.6213 279.441 95.9283 277.438 96.3387 275.455C96.8757 273.038 97.6046 270.667 98.5187 268.365C99.4184 266.069 100.637 263.911 102.139 261.955C103.363 260.36 104.927 259.058 106.719 258.145C107.932 257.548 109.231 257.144 110.569 256.945C111.072 256.93 111.571 256.859 112.059 256.735C111.554 256.677 111.044 256.677 110.539 256.735C109.155 256.851 107.801 257.207 106.539 257.785C104.657 258.676 103.007 259.99 101.719 261.625C100.148 263.605 98.884 265.81 97.9688 268.165C97.0386 270.498 96.3125 272.907 95.7987 275.365C95.4143 277.375 95.1472 279.405 94.9988 281.445C94.8688 283.185 94.8187 284.595 94.7987 285.565C94.7533 286.061 94.7566 286.56 94.8087 287.055V287.055Z" fill="#E0E0E0"/>
<path d="M95.0887 283.946C95.1182 283.713 95.1182 283.478 95.0887 283.246V281.246C95.0887 279.516 95.0887 277.016 95.1787 273.936C95.3287 267.756 95.8587 261.116 96.8887 251.746C97.8887 242.936 99.1587 232.686 100.539 226.026C100.839 224.506 101.129 223.146 101.409 221.946C101.679 220.746 101.909 219.716 102.129 218.886C102.349 218.056 102.469 217.456 102.589 216.946C102.655 216.724 102.698 216.496 102.719 216.266C102.605 216.469 102.521 216.688 102.469 216.916L101.899 218.826C101.639 219.646 101.379 220.676 101.079 221.826C100.779 222.976 100.439 224.376 100.079 225.886C98.3964 233.773 97.1347 241.744 96.2987 249.766C95.2987 259.156 94.8087 267.706 94.7687 273.896C94.7687 276.986 94.7687 279.496 94.8787 281.226C94.9253 282.026 94.9654 282.692 94.9987 283.226C94.9994 283.468 95.0297 283.71 95.0887 283.946V283.946Z" fill="#E0E0E0"/>
<path d="M95.1286 267.415C95.1897 266.723 95.1897 266.027 95.1286 265.335C95.0486 264.005 94.8686 262.065 94.4886 259.705C94.0353 256.936 93.4243 254.195 92.6586 251.495C91.7653 248.176 90.6187 244.93 89.2286 241.785C86.8426 235.987 83.4277 230.668 79.1487 226.085C78.4035 225.305 77.6121 224.571 76.7787 223.885C76.4087 223.575 76.0887 223.275 75.7787 223.025L74.8586 222.395C74.3064 221.971 73.7174 221.596 73.0986 221.275C75.1235 222.853 77.041 224.563 78.8387 226.395C82.9846 231.009 86.3093 236.299 88.6686 242.035C90.0289 245.163 91.1814 248.376 92.1187 251.655C92.9045 254.328 93.5553 257.038 94.0686 259.775C94.4986 262.125 94.7487 264.035 94.8987 265.355C94.9231 266.047 95 266.736 95.1286 267.415V267.415Z" fill="#E0E0E0"/>
<path d="M79.1986 296.495L80.8486 319.125H109.929L111.579 296.495H79.1986Z" fill="#E0E0E0"/>
<path d="M115.039 287.575H76.3887V296.495H115.039V287.575Z" fill="#E0E0E0"/>
<path d="M76.3887 318.255V320.735H78.2087H114.409V318.255H76.3887Z" fill="#EBEBEB"/>
<path d="M111.039 303.945C110.996 304.015 110.949 304.082 110.899 304.145C110.789 304.305 110.639 304.495 110.469 304.725L108.769 306.895L108.699 306.985L108.619 306.885C107.559 305.415 106.139 303.445 104.459 301.135H104.699L100.609 306.935L100.479 307.115L100.299 306.945L95.4486 301.165H95.7286L95.4586 301.495L91.1487 306.945L90.9987 307.125L90.8687 306.935L86.7686 301.135H87.0086L82.0086 306.885L81.9186 306.995L81.8486 306.875C81.1886 305.755 80.6586 304.875 80.2686 304.225L79.8687 303.515C79.8167 303.437 79.7731 303.353 79.7386 303.265C79.7386 303.265 79.8086 303.335 79.9086 303.485L80.3586 304.165C80.7586 304.805 81.3586 305.675 82.0186 306.775H81.8586L86.8586 300.945L86.9786 300.805L87.0986 300.965L91.2286 306.735H90.9486L95.2886 301.285L95.5486 300.945L95.6887 300.775L95.8286 300.945L100.679 306.735H100.299L104.429 300.965L104.559 300.795L104.669 300.965L108.749 306.785H108.599L110.359 304.675L110.829 304.125C110.969 303.945 111.029 303.885 111.039 303.945Z" fill="#F5F5F5"/>
<path d="M111.979 296.345C111.979 296.445 104.699 296.525 95.7087 296.525C86.7187 296.525 79.4387 296.445 79.4387 296.345C79.4387 296.245 86.7287 296.165 95.7087 296.165C104.689 296.165 111.979 296.245 111.979 296.345Z" fill="#F5F5F5"/>
<path d="M112.449 323.946C112.449 324.046 104.529 324.126 94.7687 324.126C85.0087 324.126 77.0887 324.046 77.0887 323.946C77.0887 323.846 84.9987 323.766 94.7687 323.766C104.539 323.766 112.449 323.876 112.449 323.946Z" fill="#F5F5F5"/>
</g>
<defs>
<filter id="filter0_d_138_620" x="0" y="0" width="482.8" height="333.595" filterUnits="userSpaceOnUse" color-interpolation-filters="sRGB">
<feFlood flood-opacity="0" result="BackgroundImageFix"/>
<feColorMatrix in="SourceAlpha" type="matrix" values="0 0 0 0 0 0 0 0 0 0 0 0 0 0 0 0 0 0 127 0" result="hardAlpha"/>
<feOffset dy="4"/>
<feGaussianBlur stdDeviation="2"/>
<feComposite in2="hardAlpha" operator="out"/>
<feColorMatrix type="matrix" values="0 0 0 0 0 0 0 0 0 0 0 0 0 0 0 0 0 0 0.25 0"/>
<feBlend mode="normal" in2="BackgroundImageFix" result="effect1_dropShadow_138_620"/>
<feBlend mode="normal" in="SourceGraphic" in2="effect1_dropShadow_138_620" result="shape"/>
</filter>
</defs>
</svg>
