<svg width="90" height="90" viewBox="0 0 90 90" fill="none" xmlns="http://www.w3.org/2000/svg">
<path d="M45 90C69.8528 90 90 69.8528 90 45C90 20.1472 69.8528 0 45 0C20.1471 0 0 20.1472 0 45C0 69.8528 20.1471 90 45 90Z" fill="#27DFC1"/>
<g opacity="0.7">
<path opacity="0.7" d="M45 90C69.8528 90 90 69.8528 90 45C90 20.1472 69.8528 0 45 0C20.1471 0 0 20.1472 0 45C0 69.8528 20.1471 90 45 90Z" fill="white"/>
</g>
<path d="M77.9553 57.2064C78.3238 52.9229 78.7614 47.7182 73.3494 45.0928C78.6692 42.4905 78.2317 37.2858 77.9553 32.9792C77.5196 30.8646 77.6872 28.67 78.439 26.6461C78.5508 26.4622 78.61 26.251 78.61 26.0358C78.61 25.8205 78.5508 25.6094 78.439 25.4255C78.3271 25.2439 78.1659 25.0978 77.9744 25.0041C77.7828 24.9103 77.5686 24.8728 77.3566 24.8958C75.2125 24.7038 73.1675 23.9049 71.461 22.5928C67.8914 20.4511 63.5848 17.8487 59.048 20.9577C59.6928 14.993 55.0178 12.598 51.1488 10.6174C49.1189 9.88412 47.3437 8.58072 46.0362 6.86358C45.9391 6.67145 45.7911 6.50969 45.6083 6.39597C45.4256 6.28225 45.2151 6.22095 44.9998 6.21875C44.784 6.21832 44.5725 6.27854 44.3892 6.39256C44.206 6.50657 44.0585 6.66978 43.9635 6.86358C42.6381 8.57227 40.8583 9.87319 38.8279 10.6174C34.9589 12.598 30.2839 14.993 30.9287 20.9577C26.3228 17.8487 22.0853 20.4511 18.5157 22.5928C16.8111 23.9083 14.765 24.7076 12.6201 24.8958C12.4081 24.8728 12.1938 24.9103 12.0023 25.0041C11.8107 25.0978 11.6496 25.2439 11.5377 25.4255C11.4258 25.6094 11.3667 25.8205 11.3667 26.0358C11.3667 26.251 11.4258 26.4622 11.5377 26.6461C12.2895 28.67 12.457 30.8646 12.0213 32.9792C11.6759 37.2858 11.2383 42.4905 16.6272 45.0928C11.3304 47.7182 11.768 52.9229 12.0213 57.2064C12.457 59.3211 12.2895 61.5156 11.5377 63.5396C11.4258 63.7235 11.3667 63.9346 11.3667 64.1499C11.3667 64.3652 11.4258 64.5763 11.5377 64.7602C11.6486 64.9441 11.8088 65.0933 12.0001 65.191C12.1913 65.2886 12.4061 65.3309 12.6201 65.3129C14.7659 65.4973 16.813 66.297 18.5157 67.6159C20.8628 69.3432 23.6306 70.4089 26.53 70.7018C28.1095 70.6975 29.6478 70.1981 30.9287 69.274C30.2839 75.2387 34.9819 77.6338 38.8279 79.5913C40.8611 80.3419 42.6412 81.651 43.9635 83.3682C44.0595 83.5594 44.2079 83.7194 44.3914 83.8295C44.5749 83.9396 44.7859 83.9953 44.9998 83.99C45.2132 83.9925 45.4232 83.9358 45.6061 83.826C45.7891 83.7162 45.938 83.5577 46.0362 83.3682C47.3414 81.6435 49.1167 80.332 51.1488 79.5913C55.0178 77.6338 59.6928 75.2387 59.048 69.274C60.3288 70.1981 61.8672 70.6975 63.4466 70.7018C66.3461 70.4089 69.1139 69.3432 71.461 67.6159C73.1656 66.3004 75.2116 65.5012 77.3566 65.3129C77.5706 65.3309 77.7853 65.2886 77.9766 65.191C78.1679 65.0933 78.3281 64.9441 78.439 64.7602C78.5508 64.5763 78.61 64.3652 78.61 64.1499C78.61 63.9346 78.5508 63.7235 78.439 63.5396C77.6872 61.5156 77.5196 59.3211 77.9553 57.2064V57.2064Z" fill="#27DFC1"/>
<g opacity="0.3">
<path opacity="0.3" d="M45.0002 69.3197C40.2085 69.3197 35.5244 67.8988 31.5402 65.2367C27.5561 62.5745 24.4508 58.7908 22.6171 54.3638C20.7834 49.9369 20.3037 45.0656 21.2385 40.366C22.1733 35.6664 24.4807 31.3495 27.8689 27.9612C31.2572 24.573 35.5741 22.2656 40.2737 21.3308C44.9733 20.396 49.8446 20.8757 54.2716 22.7094C58.6985 24.5431 62.4823 27.6484 65.1444 31.6326C67.8065 35.6167 69.2274 40.3008 69.2274 45.0925C69.2213 51.5161 66.6669 57.6748 62.1247 62.217C57.5825 66.7591 51.4237 69.3136 45.0002 69.3197V69.3197Z" fill="black"/>
</g>
<path d="M61.6972 35.8815C61.8826 36.8763 61.9751 37.8863 61.9736 38.8983C61.9736 43.3998 60.1854 47.7169 57.0024 50.9C53.8193 54.083 49.5022 55.8712 45.0007 55.8712C40.4992 55.8712 36.1821 54.083 32.9991 50.9C29.816 47.7169 28.0278 43.3998 28.0278 38.8983C28.0262 37.8863 28.1188 36.8763 28.3042 35.8815C28.6036 34.2463 27.2909 35.2366 26.1855 38.5529C25.1879 41.5342 24.9134 44.71 25.3848 47.8183C25.8562 50.9266 27.06 53.8782 28.8967 56.4297C30.7334 58.9811 33.1505 61.0593 35.9486 62.4927C38.7466 63.9261 41.8453 64.6736 44.9892 64.6736C48.133 64.6736 51.2318 63.9261 54.0298 62.4927C56.8279 61.0593 59.245 58.9811 61.0817 56.4297C62.9184 53.8782 64.1222 50.9266 64.5936 47.8183C65.065 44.71 64.7905 41.5342 63.7929 38.5529C62.6875 35.2366 61.3978 34.2463 61.6972 35.8815Z" fill="#27DFC1"/>
</svg>
