<svg width="90" height="90" viewBox="0 0 90 90" fill="none" xmlns="http://www.w3.org/2000/svg">
<path d="M45 90C69.8528 90 90 69.8528 90 45C90 20.1472 69.8528 0 45 0C20.1472 0 0 20.1472 0 45C0 69.8528 20.1472 90 45 90Z" fill="#27DFC1"/>
<g opacity="0.7">
<path opacity="0.7" d="M45 90C69.8528 90 90 69.8528 90 45C90 20.1472 69.8528 0 45 0C20.1472 0 0 20.1472 0 45C0 69.8528 20.1472 90 45 90Z" fill="white"/>
</g>
<path d="M78.86 51.6366C78.56 50.2275 77.9525 48.902 77.0809 47.7548C76.2093 46.6076 75.0951 45.667 73.818 45.0002C75.0951 44.3334 76.2093 43.3929 77.0809 42.2457C77.9525 41.0985 78.56 39.7729 78.86 38.3638C79.0634 37.6571 79.3725 36.9852 79.7768 36.3709C79.9087 36.2381 80.0058 36.0747 80.0594 35.8953C80.1131 35.716 80.1215 35.5261 80.084 35.3427C80.0465 35.1593 79.9643 34.9879 79.8447 34.844C79.725 34.7 79.5716 34.5878 79.3981 34.5175C78.7821 34.1559 78.2074 33.7282 77.6842 33.242C75.8116 31.2884 73.2537 30.1381 70.5496 30.0334C71.6692 27.7176 71.8893 25.0686 71.1674 22.5998C70.9648 21.8606 70.8907 21.0921 70.9482 20.3278C70.9867 20.1468 70.9834 19.9593 70.9385 19.7797C70.8936 19.6001 70.8083 19.4331 70.6891 19.2915C70.5655 19.1521 70.4111 19.0434 70.2381 18.9742C70.0651 18.905 69.8783 18.8771 69.6926 18.8929C68.979 18.8976 68.2681 18.8037 67.5801 18.6139C66.2658 18.2114 64.8848 18.0729 63.5167 18.2063C62.1485 18.3396 60.8203 18.7423 59.6085 19.3912C59.4655 16.6971 58.2874 14.1625 56.3202 12.3163C55.8251 11.8029 55.3905 11.2345 55.0248 10.6223C54.9496 10.4527 54.834 10.304 54.6881 10.1894C54.5422 10.0747 54.3704 9.99757 54.1877 9.96465C54.0068 9.92637 53.8192 9.93363 53.6418 9.98581C53.4644 10.038 53.3028 10.1334 53.1714 10.2636C52.5327 10.6934 51.8248 11.0103 51.0788 11.2003C48.5855 11.8118 46.4063 13.3238 44.9606 15.4452C43.5123 13.1542 41.2343 11.5118 38.6032 10.8615C37.9059 10.6685 37.2362 10.3872 36.6102 10.0244C36.4593 9.91635 36.2849 9.84557 36.1013 9.81786C35.9177 9.79015 35.7301 9.80629 35.554 9.865C35.3781 9.92046 35.2186 10.0187 35.09 10.1508C34.9613 10.283 34.8674 10.445 34.8166 10.6223C34.4567 11.3023 34.0002 11.9265 33.4614 12.4757C31.525 14.2761 30.3548 16.752 30.1931 19.3912C28.9805 18.7444 27.6524 18.3429 26.2846 18.2095C24.9168 18.0762 23.5361 18.2136 22.2214 18.6139C21.5402 18.8034 20.8359 18.8973 20.1288 18.8929C19.943 18.8755 19.7558 18.9026 19.5825 18.9719C19.4092 19.0412 19.2549 19.1508 19.1324 19.2915C19.0044 19.4278 18.9134 19.5946 18.8681 19.776C18.8227 19.9574 18.8245 20.1473 18.8733 20.3278C18.9206 21.092 18.8466 21.8588 18.6541 22.5998C17.926 25.0662 18.139 27.7151 19.252 30.0334C16.5488 30.1422 13.9924 31.2919 12.1173 33.242C11.5979 33.7328 11.0227 34.1609 10.4034 34.5175C10.2365 34.5949 10.0901 34.7105 9.97603 34.8549C9.86192 34.9992 9.78329 35.1683 9.74645 35.3486C9.70962 35.5289 9.71561 35.7153 9.76395 35.8929C9.81229 36.0704 9.90163 36.2341 10.0248 36.3709C10.4366 36.981 10.7462 37.6541 10.9415 38.3638C11.2424 39.7753 11.8525 41.1025 12.7278 42.2501C13.603 43.3976 14.7218 44.3368 16.0035 45.0002C14.7218 45.6636 13.603 46.6028 12.7278 47.7504C11.8525 48.8979 11.2424 50.2251 10.9415 51.6366C10.7426 52.345 10.4333 53.0176 10.0248 53.6296C9.90163 53.7663 9.81229 53.93 9.76395 54.1076C9.71561 54.2851 9.70962 54.4715 9.74645 54.6518C9.78329 54.8321 9.86192 55.0012 9.97603 55.1456C10.0901 55.2899 10.2365 55.4055 10.4034 55.483C11.0271 55.8328 11.6031 56.2615 12.1173 56.7584C13.9834 58.7151 16.5312 59.8784 19.232 60.0069H19.4313C18.3178 62.318 18.1047 64.9609 18.8335 67.4206C19.0254 68.1685 19.0994 68.9417 19.0527 69.7124C19.0039 69.8929 19.0021 70.0829 19.0474 70.2643C19.0928 70.4457 19.1838 70.6125 19.3117 70.7488C19.4372 70.8858 19.5919 70.9929 19.7645 71.0619C19.937 71.1309 20.1228 71.1601 20.3082 71.1473C21.0139 71.1445 21.7171 71.2316 22.4008 71.4064C23.5454 71.6705 24.714 71.8174 25.8884 71.8449C27.4485 71.8672 28.9829 71.4456 30.3126 70.6292C30.4587 73.3282 31.6359 75.868 33.601 77.724C34.1021 78.2321 34.5373 78.8012 34.8963 79.418C34.9768 79.5839 35.094 79.7293 35.239 79.8433C35.3841 79.9572 35.5531 80.0367 35.7334 80.0756H35.9526C36.2548 80.0729 36.5455 79.9594 36.7697 79.7568C37.3812 79.338 38.0533 79.0153 38.7626 78.8001C41.2602 78.1981 43.4466 76.6931 44.9008 74.5752C46.3474 76.8592 48.6162 78.5001 51.2382 79.1589C51.9355 79.3518 52.6052 79.6331 53.2311 79.9959C53.4357 80.1388 53.6792 80.2154 53.9287 80.2151H54.2874C54.4638 80.1565 54.6241 80.0575 54.7556 79.926C54.887 79.7945 54.986 79.6342 55.0447 79.4578C55.3922 78.7702 55.85 78.1441 56.3999 77.6044C58.3386 75.7996 59.5029 73.3139 59.6483 70.6691C60.9727 71.4808 62.4994 71.9022 64.0527 71.8847C65.2272 71.8585 66.3958 71.7116 67.5403 71.4463C68.2307 71.2712 68.9405 71.1842 69.6528 71.1872C69.838 71.1985 70.0234 71.1687 70.1957 71.0997C70.368 71.0308 70.5229 70.9246 70.6492 70.7886C70.7685 70.647 70.8538 70.48 70.8987 70.3004C70.9436 70.1208 70.9469 69.9334 70.9083 69.7523C70.8513 68.9814 70.9254 68.2065 71.1275 67.4604C71.8501 64.9983 71.6299 62.3553 70.5097 60.0468H70.7289C73.3541 59.8792 75.8213 58.7345 77.6443 56.8382C78.1623 56.3457 78.7377 55.9174 79.3583 55.5627C79.5306 55.4887 79.6824 55.3738 79.8005 55.2279C79.9185 55.0821 79.9993 54.9097 80.0358 54.7257C80.0723 54.5447 80.0642 54.3576 80.0121 54.1805C79.96 54.0034 79.8656 53.8416 79.7369 53.7093C79.3427 53.0661 79.0472 52.3674 78.86 51.6366V51.6366Z" fill="#27DFC1"/>
<g opacity="0.3">
<path opacity="0.3" d="M45.0006 71.0266C39.8529 71.0266 34.8207 69.5001 30.5405 66.6401C26.2603 63.7802 22.9243 59.7153 20.9544 54.9594C18.9844 50.2035 18.469 44.9702 19.4733 39.9214C20.4775 34.8726 22.9564 30.2349 26.5964 26.5949C30.2364 22.9549 34.8741 20.4761 39.9229 19.4718C44.9717 18.4675 50.205 18.9829 54.9609 20.9529C59.7168 22.9229 63.7817 26.2589 66.6416 30.539C69.5016 34.8192 71.0281 39.8514 71.0281 44.9991C71.0228 51.9004 68.2789 58.5175 63.399 63.3975C58.519 68.2774 51.9019 71.0213 45.0006 71.0266Z" fill="black"/>
</g>
<path d="M26.8451 32.4844H63.136C63.3125 32.4859 63.4857 32.5324 63.6392 32.6196C63.7926 32.7068 63.9213 32.8318 64.0129 32.9826C64.1002 33.1378 64.1461 33.3128 64.1461 33.4908C64.1461 33.6688 64.1002 33.8438 64.0129 33.999L45.8575 65.4275C45.7705 65.5781 45.6457 65.7034 45.4954 65.7908C45.345 65.8782 45.1744 65.9247 45.0005 65.9258C44.824 65.9243 44.6509 65.8777 44.4974 65.7905C44.3439 65.7033 44.2153 65.5784 44.1236 65.4275L25.9881 34.0986C25.9008 33.9435 25.855 33.7685 25.855 33.5904C25.855 33.4124 25.9008 33.2374 25.9881 33.0823C26.0616 32.913 26.1807 32.7675 26.332 32.662C26.4833 32.5564 26.6609 32.4949 26.8451 32.4844Z" fill="#27DFC1"/>
<g opacity="0.4">
<path opacity="0.4" d="M26.8451 32.4844H63.136C63.3125 32.4859 63.4857 32.5324 63.6392 32.6196C63.7926 32.7068 63.9213 32.8318 64.0129 32.9826C64.1002 33.1378 64.1461 33.3128 64.1461 33.4908C64.1461 33.6688 64.1002 33.8438 64.0129 33.999L45.8575 65.4275C45.7705 65.5781 45.6457 65.7034 45.4954 65.7908C45.345 65.8782 45.1744 65.9247 45.0005 65.9258C44.824 65.9243 44.6509 65.8777 44.4974 65.7905C44.3439 65.7033 44.2153 65.5784 44.1236 65.4275L25.9881 34.0986C25.9008 33.9435 25.855 33.7685 25.855 33.5904C25.855 33.4124 25.9008 33.2374 25.9881 33.0823C26.0616 32.913 26.1807 32.7675 26.332 32.662C26.4833 32.5564 26.6609 32.4949 26.8451 32.4844Z" fill="black"/>
</g>
<path d="M63.1361 56.5583H26.8451C26.6701 56.5533 26.4994 56.5032 26.3494 56.4129C26.1995 56.3226 26.0754 56.1951 25.9892 56.0428C25.903 55.8904 25.8576 55.7184 25.8574 55.5433C25.8572 55.3683 25.9023 55.1962 25.9882 55.0436L44.1237 23.6154C44.2153 23.4646 44.344 23.3396 44.4974 23.2524C44.6509 23.1652 44.8241 23.1187 45.0005 23.1172C45.1744 23.1182 45.345 23.1648 45.4954 23.2522C45.6457 23.3396 45.7706 23.4648 45.8575 23.6154L64.013 55.0436C64.1004 55.1951 64.1465 55.3669 64.1465 55.5418C64.1465 55.7168 64.1004 55.8886 64.013 56.0401C63.9253 56.196 63.7981 56.326 63.6441 56.4169C63.4901 56.5079 63.3149 56.5567 63.1361 56.5583V56.5583Z" fill="#27DFC1"/>
</svg>
