<svg width="258" height="128" viewBox="0 0 258 128" fill="none" xmlns="http://www.w3.org/2000/svg">
<path d="M241.235 101.731C241.398 100.596 241.28 99.4392 240.892 98.3584C240.504 97.2775 239.857 96.3042 239.005 95.5209C237.321 93.8401 235.212 92.6288 232.895 92.0109C230.592 91.3752 228.151 91.396 225.859 92.0709C223.597 92.8089 221.616 94.2037 220.177 96.0709C219.441 96.9996 218.813 98.0058 218.304 99.0709C217.733 100.171 217.214 101.311 216.613 102.401C215.417 104.623 214.056 106.755 212.54 108.781C211.001 110.835 209.158 112.651 207.072 114.171C204.931 115.686 202.471 116.711 199.873 117.171C197.295 117.596 194.662 117.596 192.084 117.171C190.795 116.98 189.519 116.71 188.265 116.361C187.014 115.956 185.804 115.437 184.65 114.811C180.109 112.301 176.352 109.011 172.258 106.291C168.277 103.49 163.857 101.346 159.174 99.9409C156.846 99.2759 154.459 98.8273 152.046 98.6009C149.618 98.3942 147.177 98.3675 144.745 98.5209C142.3 98.7095 139.869 99.0434 137.464 99.5209C135 99.9509 132.516 100.471 130.021 100.851C125.042 101.671 120.001 102.201 114.941 102.531C109.85 102.787 104.747 102.707 99.6669 102.291C94.5629 101.824 89.5183 100.863 84.6069 99.4209C79.6916 97.9547 74.9763 95.9063 70.5652 93.3209C66.0988 90.7118 62.0298 87.4968 58.4785 83.7709C54.887 79.9553 52.1654 75.4313 50.4954 70.5009C49.6432 68.0361 49.0862 65.4822 48.8356 62.8909C48.7643 62.2409 48.7033 61.5909 48.6829 60.9409C48.6625 60.2909 48.632 59.6309 48.6829 58.9409C48.6925 57.5999 48.8151 56.262 49.0495 54.9409C49.0963 54.6822 49.1945 54.4351 49.3385 54.2136C49.4826 53.9922 49.6696 53.8008 49.889 53.6504C50.1084 53.5 50.3558 53.3934 50.617 53.3369C50.8783 53.2804 51.1484 53.2749 51.4118 53.3209C51.6752 53.3669 51.9269 53.4633 52.1523 53.6048C52.3778 53.7463 52.5727 53.9299 52.7259 54.1454C52.879 54.3608 52.9875 54.6037 53.0451 54.8603C53.1026 55.1169 53.1082 55.3822 53.0614 55.6409V55.6409V55.7609C52.8674 56.851 52.7619 57.9544 52.7457 59.0609C52.7457 59.6409 52.7457 60.2109 52.7457 60.7909C52.7457 61.3709 52.7966 61.9409 52.8577 62.5209C53.0569 64.8324 53.525 67.1139 54.2527 69.3209C55.6731 73.7579 58.0367 77.8481 61.1871 81.3209C64.4723 84.822 68.2429 87.8517 72.3879 90.3209C76.5378 92.8378 80.9825 94.8525 85.6252 96.3209C90.3027 97.7703 95.1157 98.7585 99.9927 99.2709C104.906 99.7379 109.846 99.8748 114.778 99.6809C119.732 99.4352 124.67 98.9447 129.573 98.2109C132.037 97.8709 134.461 97.3909 136.945 96.9909C139.463 96.5343 142.006 96.2271 144.562 96.0709C147.135 95.9376 149.715 95.9944 152.28 96.2409C154.847 96.5261 157.383 97.0382 159.856 97.7709C164.757 99.3014 169.373 101.605 173.521 104.591C177.686 107.441 181.433 110.781 185.628 113.161C186.668 113.728 187.755 114.21 188.876 114.601C190.029 114.923 191.198 115.183 192.379 115.381C194.735 115.786 197.144 115.806 199.507 115.441C201.854 115.044 204.081 114.135 206.024 112.781C207.989 111.377 209.729 109.692 211.186 107.781C212.66 105.841 213.984 103.795 215.147 101.661C215.748 100.601 216.267 99.5009 216.848 98.4109C217.422 97.2567 218.122 96.167 218.935 95.1609C220.579 93.0986 222.818 91.572 225.36 90.7809C227.904 90.0556 230.606 90.0556 233.15 90.7809C235.683 91.4856 237.979 92.8424 239.799 94.7109C240.722 95.6553 241.439 96.7748 241.907 98.0009C242.391 99.2544 242.504 100.617 242.233 101.931C242.19 102.056 242.102 102.162 241.985 102.228C241.868 102.294 241.73 102.316 241.598 102.288C241.466 102.261 241.349 102.187 241.269 102.081C241.189 101.974 241.151 101.843 241.163 101.711L241.235 101.731Z" fill="#99EDA2"/>
<path d="M122.384 101.181C122.384 101.181 117.222 117.251 134.848 119.101C134.848 119.101 141.446 103.731 122.384 101.181Z" fill="#99EDA2"/>
<path d="M122.129 101.181C122.13 101.14 122.14 101.099 122.16 101.063C122.179 101.026 122.207 100.995 122.241 100.971C122.269 100.952 122.301 100.939 122.334 100.933C122.367 100.926 122.401 100.926 122.435 100.933C122.468 100.939 122.499 100.952 122.527 100.971C122.555 100.989 122.579 101.013 122.598 101.041L133.483 116.861C133.502 116.888 133.516 116.918 133.524 116.951C133.531 116.983 133.532 117.016 133.527 117.049C133.521 117.081 133.509 117.112 133.491 117.14C133.473 117.168 133.449 117.192 133.422 117.211C133.394 117.23 133.362 117.243 133.329 117.249C133.296 117.256 133.262 117.256 133.229 117.25C133.195 117.243 133.164 117.23 133.136 117.211C133.108 117.193 133.084 117.169 133.065 117.141L122.18 101.321C122.15 101.28 122.133 101.231 122.129 101.181Z" fill="#27DFC1"/>
<path d="M129.715 112.23C129.716 112.191 129.726 112.151 129.746 112.117C129.765 112.082 129.793 112.052 129.827 112.03C129.861 112.011 129.9 112.001 129.939 112.001C129.979 112.001 130.017 112.011 130.051 112.03L134.756 113.62C134.788 113.63 134.818 113.647 134.843 113.669C134.869 113.691 134.889 113.717 134.904 113.748C134.918 113.778 134.926 113.81 134.927 113.844C134.928 113.877 134.921 113.91 134.908 113.94C134.898 113.972 134.882 114.001 134.859 114.026C134.837 114.051 134.81 114.072 134.779 114.086C134.748 114.1 134.715 114.108 134.681 114.108C134.648 114.109 134.614 114.103 134.583 114.09L130.224 112.61V116.61C130.224 116.677 130.198 116.74 130.15 116.787C130.102 116.834 130.037 116.86 129.97 116.86C129.902 116.86 129.838 116.834 129.79 116.787C129.742 116.74 129.715 116.677 129.715 116.61V112.3V112.23Z" fill="#27DFC1"/>
<path d="M126.355 114.44L127.017 108.28C127.022 108.247 127.033 108.214 127.05 108.185C127.068 108.156 127.091 108.13 127.119 108.11C127.146 108.09 127.177 108.074 127.211 108.066C127.244 108.057 127.278 108.055 127.313 108.06L133.076 108.95C133.143 108.963 133.202 108.999 133.242 109.053C133.281 109.107 133.299 109.174 133.29 109.24C133.285 109.273 133.273 109.305 133.255 109.334C133.238 109.362 133.215 109.387 133.187 109.406C133.16 109.426 133.128 109.44 133.095 109.448C133.062 109.455 133.028 109.456 132.994 109.45L127.496 108.6L126.864 114.49C126.857 114.558 126.823 114.619 126.769 114.662C126.716 114.705 126.648 114.726 126.579 114.72C126.513 114.71 126.453 114.676 126.411 114.624C126.369 114.572 126.349 114.506 126.355 114.44V114.44Z" fill="#27DFC1"/>
<path d="M123.473 108.911V108.851L124.492 104.501C124.504 104.443 124.538 104.391 124.587 104.356C124.636 104.321 124.696 104.305 124.756 104.311L130 104.741C130.068 104.741 130.133 104.767 130.18 104.814C130.228 104.861 130.255 104.925 130.255 104.991C130.255 105.057 130.228 105.121 130.18 105.168C130.133 105.215 130.068 105.241 130 105.241L124.98 104.821L124.044 108.961C124.036 108.993 124.023 109.024 124.003 109.051C123.984 109.078 123.96 109.101 123.931 109.118C123.903 109.136 123.871 109.148 123.838 109.154C123.805 109.159 123.771 109.158 123.738 109.151C123.704 109.154 123.67 109.15 123.638 109.139C123.606 109.128 123.577 109.111 123.552 109.088C123.527 109.065 123.507 109.038 123.494 109.008C123.48 108.977 123.473 108.944 123.473 108.911V108.911Z" fill="#27DFC1"/>
<path d="M78.0192 95.4506C78.0192 95.4506 94.4029 100.451 96.2256 83.1506C96.2256 83.1506 80.5343 76.7206 78.0192 95.4506Z" fill="#99EDA2"/>
<path d="M77.7643 95.4497C77.7646 95.4085 77.775 95.368 77.7945 95.3315C77.8139 95.2949 77.842 95.2635 77.8763 95.2397L93.9443 84.5197C93.9718 84.5007 94.0027 84.4871 94.0354 84.4799C94.0682 84.4726 94.1021 84.4717 94.1352 84.4772C94.1683 84.4828 94.1999 84.4947 94.2283 84.5123C94.2567 84.5299 94.2813 84.5528 94.3007 84.5797C94.3201 84.6067 94.3339 84.6371 94.3413 84.6692C94.3487 84.7014 94.3497 84.7347 94.344 84.7672C94.3383 84.7997 94.3262 84.8307 94.3083 84.8586C94.2903 84.8865 94.267 84.9107 94.2396 84.9297L78.1614 95.6497C78.134 95.6689 78.1031 95.6826 78.0703 95.69C78.0375 95.6973 78.0036 95.6982 77.9704 95.6927C77.9373 95.6871 77.9057 95.6751 77.8773 95.6575C77.8489 95.6398 77.8243 95.6168 77.805 95.5897C77.7763 95.5486 77.762 95.4995 77.7643 95.4497Z" fill="#27DFC1"/>
<path d="M88.9956 87.9607V87.8807L90.6045 83.2607C90.6255 83.1989 90.6702 83.1476 90.7292 83.1177C90.7881 83.0878 90.8566 83.0817 90.9201 83.1007C90.9524 83.1109 90.9824 83.1273 91.0082 83.1489C91.0339 83.1706 91.055 83.1972 91.0702 83.227C91.0854 83.2568 91.0943 83.2893 91.0965 83.3226C91.0987 83.3559 91.0941 83.3892 91.083 83.4207L89.5964 87.7007H93.6185C93.686 87.7007 93.7507 87.727 93.7985 87.7739C93.8462 87.8208 93.873 87.8844 93.873 87.9507C93.873 88.017 93.8462 88.0806 93.7985 88.1275C93.7507 88.1743 93.686 88.2007 93.6185 88.2007L89.24 88.2507C89.198 88.2503 89.1567 88.2402 89.1196 88.221C89.0824 88.2019 89.0504 88.1744 89.0261 88.1407C89.0088 88.1143 88.9972 88.0847 88.9919 88.0538C88.9867 88.0228 88.9879 87.9912 88.9956 87.9607V87.9607Z" fill="#27DFC1"/>
<path d="M84.9735 90.6307L85.8594 84.9607C85.8631 84.9281 85.8736 84.8966 85.8901 84.8681C85.9067 84.8396 85.929 84.8148 85.9557 84.7951C85.9824 84.7754 86.0129 84.7613 86.0454 84.7537C86.0779 84.746 86.1117 84.745 86.1445 84.7507C86.1782 84.7555 86.2105 84.7669 86.2395 84.7842C86.2686 84.8015 86.2938 84.8244 86.3137 84.8514C86.3336 84.8784 86.3479 84.9091 86.3555 84.9416C86.3632 84.9741 86.3642 85.0078 86.3584 85.0407L85.5132 90.4407L91.5209 91.0507C91.5848 91.0606 91.6425 91.094 91.6822 91.1441C91.7219 91.1943 91.7407 91.2574 91.7348 91.3207C91.7323 91.3532 91.723 91.3848 91.7077 91.4137C91.6923 91.4426 91.6712 91.4681 91.6454 91.4887C91.6197 91.5093 91.59 91.5245 91.5581 91.5335C91.5262 91.5424 91.4927 91.5448 91.4598 91.5407L85.1874 90.9107C85.1535 90.9095 85.1203 90.9008 85.0903 90.8853C85.0603 90.8697 85.0343 90.8476 85.0143 90.8207C84.9949 90.7933 84.9814 90.7623 84.9744 90.7297C84.9674 90.6971 84.9671 90.6634 84.9735 90.6307V90.6307Z" fill="#27DFC1"/>
<path d="M81.1955 93.1602L81.613 88.0102C81.6156 87.9773 81.6247 87.9452 81.64 87.9159C81.6552 87.8865 81.6762 87.8604 81.7017 87.839C81.7273 87.8176 81.7569 87.8014 81.7888 87.7913C81.8208 87.7812 81.8545 87.7774 81.8879 87.7802C81.9219 87.7813 81.9552 87.7894 81.9859 87.8039C82.0165 87.8184 82.0437 87.839 82.0657 87.8644C82.0878 87.8898 82.1041 87.9195 82.1139 87.9515C82.1236 87.9834 82.1264 88.0171 82.1221 88.0502L81.725 92.9802L85.9406 93.8802C86.0055 93.8968 86.0617 93.937 86.0976 93.9927C86.1335 94.0484 86.1465 94.1154 86.134 94.1801C86.1268 94.2124 86.1132 94.2429 86.0939 94.27C86.0746 94.297 86.05 94.32 86.0216 94.3377C85.9932 94.3553 85.9615 94.3673 85.9284 94.3729C85.8953 94.3785 85.8614 94.3775 85.8286 94.3702L81.389 93.4202C81.3307 93.4062 81.2793 93.3724 81.244 93.3248C81.2086 93.2773 81.1914 93.2189 81.1955 93.1602V93.1602Z" fill="#27DFC1"/>
<path d="M157.768 98.3899C157.768 98.3899 171.077 109.03 179.325 93.6299C179.304 93.6299 167.218 81.9299 157.768 98.3899Z" fill="#99EDA2"/>
<path d="M157.514 98.3906C157.514 98.3339 157.533 98.2788 157.568 98.2336C157.603 98.1885 157.652 98.1558 157.708 98.1406L176.698 94.0706C176.731 94.0633 176.765 94.0625 176.798 94.0681C176.831 94.0738 176.863 94.0858 176.891 94.1034C176.919 94.1211 176.944 94.144 176.963 94.171C176.982 94.198 176.996 94.2284 177.004 94.2606C177.011 94.2927 177.012 94.326 177.006 94.3585C177 94.391 176.988 94.4221 176.97 94.4499C176.952 94.4778 176.929 94.5019 176.901 94.5209C176.874 94.5399 176.843 94.5533 176.81 94.5605L157.82 98.6306C157.754 98.6428 157.685 98.63 157.629 98.5948C157.572 98.5595 157.531 98.5044 157.514 98.4406V98.3906Z" fill="#27DFC1"/>
<path d="M170.771 95.5403C170.772 95.4815 170.793 95.4249 170.832 95.3802L174.081 91.6802C174.103 91.6563 174.131 91.6373 174.162 91.6242C174.192 91.6112 174.225 91.6045 174.259 91.6045C174.292 91.6045 174.325 91.6112 174.356 91.6242C174.386 91.6373 174.414 91.6563 174.437 91.6802C174.482 91.7297 174.507 91.7938 174.507 91.8603C174.507 91.9267 174.482 91.9908 174.437 92.0403L171.382 95.4702L175.129 96.9002C175.161 96.9121 175.19 96.9298 175.214 96.9526C175.238 96.9753 175.258 97.0025 175.272 97.0327C175.285 97.0629 175.293 97.0954 175.294 97.1285C175.295 97.1615 175.289 97.1944 175.277 97.2252C175.265 97.2561 175.247 97.2843 175.224 97.3083C175.201 97.3323 175.173 97.3516 175.142 97.3651C175.111 97.3785 175.078 97.3859 175.045 97.3868C175.011 97.3877 174.977 97.3821 174.946 97.3702L170.873 95.8102C170.835 95.7934 170.802 95.7685 170.776 95.7374C170.749 95.7062 170.73 95.6696 170.72 95.6302L170.771 95.5403Z" fill="#27DFC1"/>
<path d="M166.067 96.5596C166.057 96.5168 166.057 96.4723 166.067 96.4296L169.041 91.4996C169.055 91.4677 169.077 91.4392 169.103 91.4159C169.13 91.3926 169.161 91.3751 169.195 91.3644C169.229 91.3538 169.265 91.3502 169.3 91.354C169.336 91.3578 169.37 91.3688 169.401 91.3864C169.431 91.404 169.458 91.4277 169.479 91.4561C169.5 91.4844 169.514 91.5168 169.522 91.551C169.529 91.5852 169.529 91.6206 169.522 91.6548C169.514 91.689 169.499 91.7213 169.479 91.7496L166.648 96.4596L171.983 99.2196C172.013 99.2334 172.04 99.253 172.062 99.2773C172.084 99.3017 172.101 99.3301 172.111 99.361C172.122 99.3919 172.126 99.4245 172.123 99.4569C172.12 99.4893 172.111 99.5209 172.095 99.5496C172.08 99.5794 172.059 99.6059 172.034 99.6277C172.008 99.6494 171.978 99.6658 171.946 99.6761C171.914 99.6863 171.88 99.6902 171.846 99.6873C171.812 99.6845 171.779 99.675 171.749 99.6596L166.169 96.7796C166.11 96.7467 166.067 96.6931 166.047 96.6296L166.067 96.5596Z" fill="#27DFC1"/>
<path d="M161.567 97.5204C161.556 97.4844 161.556 97.4463 161.567 97.4104L163.909 92.7803C163.922 92.7473 163.941 92.7173 163.967 92.6924C163.992 92.6674 164.023 92.648 164.056 92.6354C164.09 92.6229 164.126 92.6175 164.162 92.6196C164.198 92.6217 164.233 92.6312 164.265 92.6476C164.297 92.664 164.325 92.6868 164.347 92.7145C164.369 92.7423 164.385 92.7744 164.394 92.8086C164.403 92.8429 164.404 92.8786 164.397 92.9134C164.391 92.9481 164.377 92.9812 164.357 93.0104L162.117 97.4303L165.691 99.8103C165.718 99.8293 165.742 99.8534 165.76 99.8813C165.778 99.9092 165.79 99.9403 165.796 99.9729C165.801 100.005 165.8 100.039 165.793 100.071C165.785 100.103 165.771 100.133 165.752 100.16C165.715 100.214 165.658 100.251 165.593 100.264C165.529 100.277 165.461 100.265 165.406 100.23L161.648 97.7203C161.619 97.6961 161.597 97.6652 161.582 97.6303C161.568 97.5954 161.563 97.5577 161.567 97.5204V97.5204Z" fill="#27DFC1"/>
<path d="M131.365 98.8502C131.365 98.8502 148.268 95.9502 141.833 79.7402C141.833 79.7402 124.889 81.0602 131.365 98.8502Z" fill="#99EDA2"/>
<path d="M131.111 98.8504V98.7304L140.418 81.9804C140.432 81.9505 140.454 81.9239 140.479 81.9024C140.505 81.8808 140.536 81.8649 140.568 81.8555C140.601 81.846 140.635 81.8434 140.669 81.8477C140.702 81.852 140.735 81.8631 140.764 81.8804C140.793 81.8961 140.819 81.9174 140.84 81.943C140.861 81.9686 140.877 81.9981 140.887 82.0297C140.896 82.0612 140.899 82.0944 140.895 82.1271C140.892 82.1598 140.882 82.1915 140.866 82.2204L131.559 98.9704C131.532 99.0195 131.489 99.0583 131.437 99.0807C131.385 99.103 131.327 99.1077 131.272 99.0939C131.217 99.0801 131.168 99.0487 131.133 99.0045C131.099 98.9604 131.08 98.9062 131.08 98.8504H131.111Z" fill="#27DFC1"/>
<path d="M136.884 82.3203C136.884 82.254 136.911 82.1904 136.959 82.1435C137.007 82.0966 137.071 82.0703 137.139 82.0703C137.206 82.0703 137.271 82.0966 137.319 82.1435C137.367 82.1904 137.393 82.254 137.393 82.3203L138.066 86.8003L141.629 84.9203C141.659 84.9045 141.691 84.8945 141.724 84.891C141.758 84.8874 141.792 84.8904 141.824 84.8997C141.856 84.909 141.886 84.9244 141.912 84.9451C141.938 84.9658 141.96 84.9914 141.976 85.0203C141.993 85.0495 142.004 85.0818 142.007 85.1154C142.011 85.1489 142.007 85.1828 141.997 85.2149C141.986 85.247 141.969 85.2765 141.946 85.3015C141.923 85.3266 141.895 85.3466 141.864 85.3603L137.994 87.3603C137.958 87.3796 137.918 87.3896 137.877 87.3896C137.836 87.3896 137.796 87.3796 137.76 87.3603C137.724 87.3398 137.693 87.3123 137.669 87.2797C137.644 87.247 137.627 87.2098 137.618 87.1703L136.895 82.3403L136.884 82.3203Z" fill="#27DFC1"/>
<path d="M133.432 85.8907C133.43 85.8296 133.45 85.7696 133.489 85.7221C133.528 85.6746 133.584 85.643 133.646 85.6331C133.707 85.6233 133.77 85.6359 133.823 85.6686C133.875 85.7014 133.914 85.7519 133.931 85.8107L135.693 91.0007L141.314 88.8407C141.377 88.8155 141.448 88.8161 141.511 88.8423C141.574 88.8686 141.624 88.9184 141.65 88.9807C141.675 89.043 141.675 89.1128 141.648 89.1747C141.621 89.2366 141.571 89.2855 141.507 89.3107L135.632 91.5607C135.6 91.5757 135.565 91.5836 135.53 91.5836C135.495 91.5836 135.46 91.5757 135.428 91.5607C135.396 91.5464 135.368 91.5256 135.345 91.4998C135.323 91.4739 135.306 91.4435 135.296 91.4107L133.483 85.9707L133.432 85.8907Z" fill="#27DFC1"/>
<path d="M131.07 90.5101C131.071 90.4602 131.087 90.4116 131.116 90.3706C131.145 90.3296 131.185 90.2981 131.233 90.2801C131.263 90.2655 131.295 90.2573 131.329 90.256C131.362 90.2548 131.395 90.2605 131.426 90.2728C131.457 90.2851 131.484 90.3037 131.507 90.3274C131.53 90.351 131.548 90.3793 131.559 90.4101L133.504 94.9801L137.668 93.8901C137.7 93.8809 137.734 93.878 137.767 93.8816C137.8 93.8852 137.833 93.8951 137.862 93.9109C137.891 93.9267 137.917 93.948 137.938 93.9736C137.959 93.9992 137.975 94.0286 137.984 94.0601C138 94.125 137.99 94.1934 137.955 94.2511C137.921 94.3088 137.866 94.3514 137.801 94.3701L133.412 95.5201C133.353 95.534 133.29 95.5265 133.236 95.499C133.182 95.4715 133.139 95.4257 133.117 95.3701L131.08 90.6001L131.07 90.5101Z" fill="#27DFC1"/>
<path d="M183.377 114.321C183.377 114.321 180.526 127.451 194.649 127.601C194.578 127.581 198.651 114.891 183.377 114.321Z" fill="#99EDA2"/>
<path d="M183.103 114.321C183.102 114.283 183.109 114.245 183.125 114.21C183.141 114.176 183.165 114.145 183.195 114.121C183.217 114.097 183.245 114.078 183.276 114.065C183.306 114.052 183.339 114.045 183.373 114.045C183.406 114.045 183.439 114.052 183.47 114.065C183.5 114.078 183.528 114.097 183.551 114.121L193.397 125.851C193.444 125.897 193.47 125.96 193.47 126.026C193.47 126.091 193.444 126.154 193.397 126.201C193.375 126.225 193.347 126.244 193.316 126.257C193.286 126.27 193.253 126.276 193.219 126.276C193.186 126.276 193.153 126.27 193.122 126.257C193.092 126.244 193.064 126.225 193.041 126.201L183.205 114.461C183.179 114.445 183.157 114.425 183.139 114.401C183.122 114.377 183.109 114.35 183.103 114.321Z" fill="#27DFC1"/>
<path d="M189.976 122.49C189.975 122.456 189.982 122.422 189.996 122.391C190.01 122.36 190.031 122.333 190.057 122.31C190.088 122.282 190.126 122.262 190.167 122.251C190.208 122.241 190.25 122.24 190.291 122.25L194.14 123.16C194.173 123.167 194.204 123.181 194.231 123.2C194.258 123.219 194.281 123.243 194.298 123.271C194.315 123.3 194.326 123.331 194.331 123.363C194.335 123.396 194.333 123.429 194.324 123.46C194.317 123.493 194.303 123.523 194.284 123.55C194.264 123.577 194.24 123.6 194.211 123.618C194.183 123.636 194.151 123.648 194.118 123.653C194.085 123.659 194.051 123.658 194.018 123.65L190.505 122.82L190.831 125.88C190.838 125.947 190.818 126.013 190.775 126.064C190.732 126.116 190.67 126.149 190.602 126.155C190.535 126.162 190.467 126.142 190.415 126.1C190.362 126.058 190.329 125.997 190.322 125.93L189.966 122.52L189.976 122.49Z" fill="#27DFC1"/>
<path d="M187.451 124.491V119.561C187.451 119.527 187.459 119.494 187.473 119.463C187.487 119.432 187.507 119.404 187.532 119.381C187.556 119.357 187.585 119.339 187.616 119.327C187.648 119.315 187.682 119.309 187.715 119.311L192.359 119.591C192.426 119.591 192.491 119.617 192.539 119.664C192.586 119.711 192.613 119.774 192.613 119.841C192.613 119.907 192.586 119.971 192.539 120.018C192.491 120.064 192.426 120.091 192.359 120.091L187.98 119.831V124.501C187.98 124.567 187.953 124.631 187.906 124.678C187.858 124.724 187.793 124.751 187.726 124.751C187.658 124.751 187.593 124.724 187.546 124.678C187.498 124.631 187.471 124.567 187.471 124.501L187.451 124.491Z" fill="#27DFC1"/>
<path d="M184.763 120.321L185.2 116.801C185.212 116.742 185.243 116.688 185.289 116.648C185.335 116.608 185.394 116.585 185.455 116.581L189.64 116.531C189.709 116.531 189.774 116.557 189.824 116.604C189.873 116.65 189.902 116.714 189.905 116.781C189.9 116.846 189.872 116.907 189.825 116.953C189.778 116.999 189.716 117.027 189.65 117.031L185.679 117.081L185.272 120.391C185.262 120.456 185.226 120.514 185.173 120.553C185.12 120.593 185.053 120.61 184.987 120.601C184.953 120.599 184.919 120.59 184.889 120.574C184.859 120.558 184.832 120.536 184.811 120.51C184.79 120.484 184.775 120.453 184.767 120.421C184.758 120.388 184.757 120.354 184.763 120.321V120.321Z" fill="#27DFC1"/>
<path d="M210.524 110.171C210.524 110.171 213.029 118.531 221.134 114.331C221.134 114.321 219.454 105.871 210.524 110.171Z" fill="#99EDA2"/>
<path d="M210.27 110.17V110.08C210.282 110.049 210.301 110.021 210.324 109.997C210.348 109.973 210.376 109.954 210.408 109.941C210.439 109.928 210.473 109.921 210.507 109.921C210.541 109.921 210.575 109.928 210.606 109.94L219.903 113.65C219.965 113.677 220.014 113.726 220.041 113.787C220.068 113.849 220.069 113.918 220.045 113.98C220.02 114.041 219.972 114.089 219.911 114.116C219.85 114.142 219.781 114.144 219.719 114.12L210.412 110.4C210.369 110.379 210.332 110.347 210.307 110.306C210.282 110.265 210.269 110.218 210.27 110.17V110.17Z" fill="#27DFC1"/>
<path d="M216.776 112.77V112.68C216.79 112.643 216.812 112.609 216.843 112.583C216.873 112.556 216.91 112.538 216.949 112.53L219.434 111.88C219.467 111.867 219.503 111.862 219.538 111.864C219.574 111.865 219.609 111.874 219.641 111.89C219.673 111.906 219.701 111.928 219.723 111.955C219.746 111.983 219.762 112.014 219.771 112.048C219.781 112.082 219.783 112.117 219.777 112.152C219.772 112.186 219.759 112.219 219.74 112.249C219.72 112.278 219.695 112.303 219.665 112.323C219.635 112.342 219.602 112.354 219.566 112.36L217.428 112.92L218.507 114.46C218.543 114.516 218.556 114.584 218.543 114.649C218.529 114.714 218.491 114.772 218.436 114.81C218.409 114.829 218.378 114.843 218.345 114.85C218.312 114.858 218.278 114.859 218.245 114.853C218.212 114.847 218.18 114.835 218.152 114.818C218.124 114.8 218.099 114.777 218.08 114.75L216.807 112.91C216.782 112.868 216.771 112.819 216.776 112.77V112.77Z" fill="#27DFC1"/>
<path d="M214.444 111.84V111.76C214.467 111.696 214.515 111.642 214.577 111.61L217.326 110.32C217.388 110.292 217.459 110.289 217.524 110.312C217.588 110.334 217.641 110.38 217.672 110.44C217.698 110.502 217.7 110.57 217.677 110.633C217.655 110.696 217.609 110.748 217.55 110.78L215.055 111.92L216.45 114.51C216.48 114.569 216.486 114.637 216.467 114.7C216.448 114.763 216.406 114.817 216.348 114.85C216.318 114.866 216.285 114.875 216.252 114.878C216.218 114.881 216.184 114.877 216.152 114.867C216.119 114.856 216.09 114.84 216.064 114.818C216.038 114.797 216.017 114.77 216.002 114.74L214.475 111.92L214.444 111.84Z" fill="#27DFC1"/>
<path d="M212.255 110.97C212.255 110.925 212.267 110.881 212.291 110.842C212.314 110.803 212.347 110.771 212.388 110.75L214.76 109.45C214.789 109.432 214.822 109.421 214.855 109.417C214.889 109.413 214.923 109.415 214.956 109.425C214.988 109.434 215.018 109.45 215.044 109.472C215.07 109.493 215.091 109.52 215.106 109.55C215.14 109.607 215.149 109.675 215.132 109.738C215.115 109.802 215.072 109.856 215.015 109.89L212.836 111.08L213.609 113.02C213.634 113.082 213.632 113.151 213.604 113.212C213.576 113.273 213.525 113.321 213.462 113.345C213.398 113.369 213.328 113.367 213.266 113.34C213.204 113.312 213.155 113.262 213.131 113.2L212.276 111.06L212.255 110.97Z" fill="#27DFC1"/>
<path d="M232.957 91.9606C232.957 91.9606 241.826 91.7206 239.769 82.9606C239.769 82.9606 231.001 82.3906 232.957 91.9606Z" fill="#99EDA2"/>
<path d="M232.702 91.9605C232.703 91.9066 232.721 91.8543 232.753 91.8105L238.791 83.9305C238.81 83.903 238.835 83.8798 238.864 83.8623C238.892 83.8448 238.925 83.8333 238.958 83.8286C238.992 83.8239 239.026 83.8261 239.058 83.835C239.091 83.8439 239.121 83.8594 239.147 83.8805C239.194 83.9272 239.22 83.99 239.22 84.0555C239.22 84.1209 239.194 84.1837 239.147 84.2305L233.109 92.1105C233.062 92.1563 232.998 92.1819 232.931 92.1819C232.864 92.1819 232.8 92.1563 232.753 92.1105C232.718 92.068 232.7 92.0148 232.702 91.9605V91.9605Z" fill="#27DFC1"/>
<path d="M236.918 83.9307C236.918 83.8644 236.945 83.8008 236.992 83.7539C237.04 83.707 237.105 83.6807 237.172 83.6807C237.24 83.6807 237.305 83.707 237.352 83.7539C237.4 83.8008 237.427 83.8644 237.427 83.9307V86.1007L239.229 85.4807C239.293 85.4582 239.363 85.4613 239.424 85.4894C239.485 85.5176 239.532 85.5684 239.555 85.6307C239.575 85.6944 239.569 85.763 239.538 85.8226C239.508 85.8821 239.456 85.928 239.392 85.9507L237.264 86.6907C237.225 86.7055 237.183 86.7106 237.141 86.7056C237.099 86.7005 237.06 86.6855 237.025 86.6617C236.991 86.638 236.963 86.6063 236.945 86.5695C236.926 86.5326 236.917 86.4918 236.918 86.4507V83.9307Z" fill="#27DFC1"/>
<path d="M234.881 85.501C234.881 85.4347 234.908 85.3711 234.956 85.3242C235.004 85.2773 235.068 85.251 235.136 85.251C235.203 85.251 235.268 85.2773 235.316 85.3242C235.364 85.3711 235.39 85.4347 235.39 85.501L235.869 88.161L238.781 87.501C238.815 87.4868 238.852 87.4801 238.89 87.4815C238.927 87.4828 238.963 87.4921 238.996 87.5088C239.029 87.5254 239.058 87.5489 239.081 87.5777C239.104 87.6065 239.12 87.6399 239.128 87.6755C239.137 87.7111 239.137 87.748 239.129 87.7837C239.121 87.8193 239.106 87.8529 239.083 87.882C239.061 87.9112 239.032 87.9351 238.999 87.9522C238.967 87.9693 238.93 87.9791 238.893 87.981L235.726 88.711C235.661 88.7356 235.588 88.7356 235.523 88.711C235.47 88.6714 235.434 88.6146 235.421 88.551L234.881 85.631V85.501Z" fill="#27DFC1"/>
<path d="M233.272 87.6898C233.274 87.6304 233.298 87.5738 233.339 87.53C233.38 87.4863 233.435 87.4583 233.495 87.4511C233.556 87.4439 233.616 87.4579 233.667 87.4906C233.717 87.5234 233.754 87.5727 233.771 87.6298L234.392 89.9998L236.5 89.7598C236.566 89.7542 236.631 89.774 236.683 89.8151C236.734 89.8561 236.767 89.9152 236.775 89.9798C236.781 90.0129 236.779 90.0468 236.771 90.0793C236.762 90.1118 236.747 90.1423 236.726 90.1687C236.705 90.195 236.678 90.2168 236.648 90.2325C236.618 90.2482 236.585 90.2575 236.551 90.2598L234.229 90.5298C234.167 90.5348 234.104 90.5187 234.053 90.4841C234.001 90.4496 233.962 90.3986 233.944 90.3398L233.282 87.7498L233.272 87.6898Z" fill="#27DFC1"/>
<path d="M234.046 90.7998C234.046 90.7998 221.827 96.7998 230.564 107.74C230.564 107.74 243.17 102.89 234.046 90.7998Z" fill="#99EDA2"/>
<path d="M230.645 105.68V105.63L233.802 90.7498C233.814 90.685 233.852 90.6275 233.907 90.5901C233.963 90.5526 234.031 90.5382 234.097 90.5499C234.164 90.5643 234.222 90.6036 234.26 90.6595C234.298 90.7155 234.313 90.7837 234.3 90.8498L231.144 105.73C231.128 105.786 231.092 105.836 231.042 105.869C230.993 105.902 230.933 105.917 230.873 105.911C230.813 105.905 230.758 105.878 230.716 105.836C230.674 105.794 230.649 105.739 230.645 105.68V105.68Z" fill="#27DFC1"/>
<path d="M229.107 103.611C229.108 103.577 229.115 103.543 229.129 103.513C229.143 103.482 229.164 103.454 229.189 103.431L231.663 101.021C231.691 100.991 231.726 100.968 231.766 100.956C231.805 100.944 231.847 100.942 231.887 100.951C231.929 100.957 231.968 100.972 232.002 100.997C232.036 101.021 232.063 101.054 232.081 101.091L233.761 104.611C233.776 104.64 233.785 104.672 233.787 104.705C233.789 104.738 233.784 104.771 233.773 104.802C233.761 104.833 233.744 104.861 233.721 104.885C233.697 104.909 233.67 104.928 233.639 104.941C233.578 104.968 233.509 104.971 233.446 104.948C233.383 104.926 233.331 104.88 233.303 104.821L231.765 101.621L229.545 103.781C229.522 103.805 229.493 103.824 229.462 103.837C229.43 103.85 229.396 103.857 229.362 103.857C229.328 103.857 229.294 103.85 229.262 103.837C229.231 103.824 229.202 103.805 229.179 103.781C229.136 103.734 229.111 103.674 229.107 103.611V103.611Z" fill="#27DFC1"/>
<path d="M228.435 100.531C228.436 100.493 228.444 100.455 228.46 100.421C228.475 100.387 228.498 100.356 228.527 100.331L232.478 97.3205C232.54 97.2955 232.609 97.2955 232.671 97.3205C232.74 97.3312 232.802 97.3669 232.844 97.4205L235.533 101.15C235.572 101.205 235.587 101.272 235.576 101.338C235.564 101.404 235.527 101.462 235.472 101.501C235.416 101.539 235.348 101.554 235.281 101.543C235.214 101.532 235.154 101.495 235.115 101.441L232.58 97.9305L228.843 100.821C228.788 100.858 228.721 100.873 228.655 100.864C228.588 100.855 228.528 100.821 228.486 100.771C228.459 100.737 228.44 100.698 228.432 100.657C228.423 100.615 228.424 100.572 228.435 100.531V100.531Z" fill="#27DFC1"/>
<path d="M230.044 95.8401C230.047 95.7981 230.059 95.7573 230.08 95.7209C230.101 95.6844 230.131 95.6533 230.166 95.6301L233.221 93.7601C233.274 93.7302 233.336 93.7198 233.395 93.7308C233.455 93.7418 233.509 93.7735 233.547 93.8201L236.215 96.9901C236.261 97.0368 236.288 97.0996 236.288 97.1651C236.288 97.2305 236.261 97.2933 236.215 97.3401C236.191 97.3643 236.163 97.3835 236.131 97.3967C236.1 97.4098 236.066 97.4166 236.032 97.4166C235.997 97.4166 235.963 97.4098 235.932 97.3967C235.9 97.3835 235.872 97.3643 235.848 97.3401L233.272 94.3201L230.39 96.0801C230.331 96.112 230.262 96.1214 230.197 96.1067C230.131 96.0919 230.073 96.054 230.034 96.0001C230.024 95.9467 230.027 95.8918 230.044 95.8401V95.8401Z" fill="#27DFC1"/>
<path d="M234.107 91.8603C234.107 91.8603 241.856 102.93 251.672 92.9703C251.672 92.9703 245.084 81.3203 234.107 91.8603Z" fill="#99EDA2"/>
<path d="M233.852 91.8602C233.86 91.7948 233.893 91.7347 233.944 91.692C233.995 91.6493 234.06 91.6272 234.127 91.6301L249.564 92.6702C249.63 92.6798 249.69 92.7124 249.733 92.7621C249.776 92.8117 249.799 92.875 249.798 92.9401C249.796 92.973 249.787 93.0051 249.771 93.0344C249.756 93.0638 249.735 93.0899 249.71 93.1113C249.684 93.1327 249.654 93.1489 249.622 93.159C249.591 93.1691 249.557 93.1729 249.523 93.1702L234.076 92.1102C234.014 92.1028 233.957 92.0732 233.916 92.0271C233.875 91.981 233.852 91.9216 233.852 91.8602Z" fill="#27DFC1"/>
<path d="M244.646 92.6008C244.646 92.561 244.657 92.5218 244.676 92.4869C244.696 92.452 244.724 92.4224 244.758 92.4008L248.077 90.3208C248.135 90.2856 248.204 90.2733 248.27 90.2863C248.336 90.2993 248.395 90.3367 248.434 90.3909C248.469 90.4483 248.48 90.5167 248.465 90.5819C248.449 90.647 248.409 90.704 248.352 90.7409L245.298 92.6608L247.782 94.5408C247.827 94.5887 247.851 94.6511 247.851 94.7158C247.851 94.7806 247.827 94.843 247.782 94.8909C247.759 94.9148 247.732 94.9338 247.701 94.9469C247.67 94.9599 247.637 94.9666 247.604 94.9666C247.571 94.9666 247.538 94.9599 247.507 94.9469C247.476 94.9338 247.449 94.9148 247.426 94.8909L244.656 92.8009C244.641 92.77 244.632 92.7363 244.63 92.7019C244.628 92.6675 244.634 92.6331 244.646 92.6008Z" fill="#27DFC1"/>
<path d="M240.787 92.3208C240.786 92.2868 240.793 92.253 240.807 92.2218C240.821 92.1907 240.842 92.163 240.868 92.1408L244.259 89.0208C244.283 88.9966 244.311 88.9774 244.343 88.9642C244.374 88.9511 244.408 88.9443 244.442 88.9443C244.477 88.9443 244.511 88.9511 244.542 88.9642C244.574 88.9774 244.602 88.9966 244.626 89.0208C244.672 89.0676 244.699 89.1304 244.699 89.1958C244.699 89.2613 244.672 89.3241 244.626 89.3708L241.418 92.3208L244.84 95.5708C244.869 95.5923 244.893 95.6197 244.91 95.6512C244.928 95.6826 244.938 95.7174 244.941 95.7531C244.943 95.7888 244.938 95.8247 244.925 95.8582C244.913 95.8918 244.893 95.9223 244.867 95.9476C244.841 95.9729 244.81 95.9925 244.776 96.005C244.742 96.0176 244.705 96.0227 244.669 96.0202C244.632 96.0177 244.597 96.0075 244.565 95.9903C244.533 95.9732 244.505 95.9495 244.483 95.9208L240.879 92.5008C240.851 92.4787 240.829 92.4513 240.813 92.4203C240.798 92.3893 240.789 92.3554 240.787 92.3208Z" fill="#27DFC1"/>
<path d="M237.152 92.0911C237.151 92.0594 237.157 92.028 237.169 91.9988C237.182 91.9695 237.2 91.9431 237.223 91.9211L240.064 88.9211C240.11 88.872 240.174 88.8429 240.242 88.8401C240.309 88.8373 240.376 88.861 240.426 88.9061C240.476 88.9512 240.505 89.0139 240.508 89.0805C240.511 89.1471 240.487 89.212 240.441 89.2611L237.742 92.1211L239.901 94.6911C239.936 94.7422 239.95 94.8041 239.941 94.8649C239.932 94.9257 239.901 94.9811 239.853 95.0207C239.805 95.0602 239.744 95.0811 239.682 95.0794C239.619 95.0776 239.56 95.0533 239.514 95.0111L237.213 92.2711C237.171 92.2203 237.149 92.1564 237.152 92.0911Z" fill="#27DFC1"/>
<path d="M98.7706 97.3204C98.7706 97.3204 111.621 87.7304 115.928 92.8904C120.235 98.0504 102.996 102.13 102.996 102.13C102.996 102.13 114.951 103.74 116.325 109.26C117.7 114.78 108.261 114.26 100.502 108.47C100.502 108.47 107.344 118.92 104.9 122.64C102.457 126.36 94.4023 120.44 94.443 111.02C94.443 111.02 91.3883 123.71 85.2788 121.34C79.1692 118.97 83.1811 113.46 88.8426 107.34C88.8426 107.34 78.151 112.34 74.5871 104.81C71.0232 97.2804 86.6432 100.32 86.6432 100.32C86.6432 100.32 77.8455 93.3204 78.9961 87.9104C80.1467 82.5004 88.0993 86.2404 92.4371 96.5604C92.4371 96.5604 87.9873 82.3704 95.3187 81.1204C102.65 79.8704 102.935 89.5604 98.7706 97.3204Z" fill="#27DFC1"/>
<path opacity="0.3" d="M98.7706 97.3204C98.7706 97.3204 111.621 87.7304 115.928 92.8904C120.235 98.0504 102.996 102.13 102.996 102.13C102.996 102.13 114.951 103.74 116.325 109.26C117.7 114.78 108.261 114.26 100.502 108.47C100.502 108.47 107.344 118.92 104.9 122.64C102.457 126.36 94.4023 120.44 94.443 111.02C94.443 111.02 91.3883 123.71 85.2788 121.34C79.1692 118.97 83.1811 113.46 88.8426 107.34C88.8426 107.34 78.151 112.34 74.5871 104.81C71.0232 97.2804 86.6432 100.32 86.6432 100.32C86.6432 100.32 77.8455 93.3204 78.9961 87.9104C80.1467 82.5004 88.0993 86.2404 92.4371 96.5604C92.4371 96.5604 87.9873 82.3704 95.3187 81.1204C102.65 79.8704 102.935 89.5604 98.7706 97.3204Z" fill="white"/>
<path opacity="0.3" d="M98.9342 101.511C102.04 106.091 94.6066 108.971 92.0508 104.691C89.4949 100.411 95.9812 97.1612 98.9342 101.511Z" fill="white"/>
<path d="M244.371 98.321C244.371 98.321 253.637 91.421 256.692 95.131C259.747 98.841 247.406 101.771 247.406 101.771C247.406 101.771 255.99 102.921 256.977 106.891C257.965 110.861 251.183 110.491 245.613 106.321C245.613 106.321 250.532 113.821 248.77 116.491C247.009 119.161 241.235 114.911 241.266 108.151C241.266 108.151 239.066 117.271 234.667 115.561C230.268 113.851 233.16 109.901 237.233 105.481C237.233 105.481 229.545 109.061 227.051 103.661C224.556 98.261 235.706 100.511 235.706 100.511C235.706 100.511 229.403 95.511 230.228 91.601C231.052 87.691 236.755 90.401 239.881 97.811C239.881 97.811 236.683 87.621 241.917 86.721C247.151 85.821 247.395 92.751 244.371 98.321Z" fill="#27DFC1"/>
<path opacity="0.5" d="M244.371 98.321C244.371 98.321 253.637 91.421 256.692 95.131C259.747 98.841 247.406 101.771 247.406 101.771C247.406 101.771 255.99 102.921 256.977 106.891C257.965 110.861 251.183 110.491 245.613 106.321C245.613 106.321 250.532 113.821 248.77 116.491C247.009 119.161 241.235 114.911 241.266 108.151C241.266 108.151 239.066 117.271 234.667 115.561C230.268 113.851 233.16 109.901 237.233 105.481C237.233 105.481 229.545 109.061 227.051 103.661C224.556 98.261 235.706 100.511 235.706 100.511C235.706 100.511 229.403 95.511 230.228 91.601C231.052 87.691 236.755 90.401 239.881 97.811C239.881 97.811 236.683 87.621 241.917 86.721C247.151 85.821 247.395 92.751 244.371 98.321Z" fill="white"/>
<path opacity="0.3" d="M244.473 101.32C246.703 104.61 241.367 106.67 239.524 103.6C237.681 100.53 242.365 98.21 244.473 101.32Z" fill="white"/>
<path d="M53.8558 58.7108C53.8558 58.7108 70.2802 90.4808 99.6772 67.6608C99.6772 67.6608 86.4807 34.8508 53.8558 58.7108Z" fill="#27DFC1"/>
<path d="M53.3467 58.7101V58.6101C53.3601 58.5457 53.3862 58.4846 53.4237 58.4302C53.4611 58.3757 53.509 58.3291 53.5648 58.2929C53.6206 58.2567 53.6831 58.2316 53.7488 58.2191C53.8144 58.2066 53.882 58.2069 53.9475 58.2201L94.2093 66.3201C94.2754 66.3319 94.3385 66.3568 94.3947 66.3932C94.4508 66.4296 94.4988 66.4768 94.5359 66.5319C94.573 66.5871 94.5984 66.649 94.6105 66.7139C94.6226 66.7789 94.6212 66.8456 94.6064 66.9101C94.577 67.0388 94.498 67.1512 94.386 67.224C94.274 67.2967 94.1377 67.324 94.0056 67.3001L53.754 59.1901C53.6416 59.1658 53.5405 59.1054 53.4668 59.0185C53.393 58.9316 53.3508 58.8231 53.3467 58.7101V58.7101Z" fill="#99EDA2"/>
<path d="M81.4606 64.3697V64.3197C81.4749 64.2403 81.5083 64.1653 81.5578 64.101C81.6074 64.0367 81.6718 63.9848 81.7457 63.9497L91.2358 59.5197C91.359 59.4645 91.4992 59.4587 91.6266 59.5035C91.754 59.5483 91.8586 59.6403 91.918 59.7597C91.9472 59.8194 91.9641 59.8842 91.9676 59.9503C91.9711 60.0164 91.9612 60.0825 91.9385 60.1449C91.9157 60.2072 91.8806 60.2644 91.8352 60.3133C91.7897 60.3622 91.7348 60.4018 91.6737 60.4297L82.8352 64.5497L88.8531 70.4997C88.9008 70.5462 88.9387 70.6015 88.9645 70.6624C88.9904 70.7233 89.0037 70.7887 89.0037 70.8547C89.0037 70.9207 88.9904 70.9861 88.9645 71.047C88.9387 71.1079 88.9008 71.1632 88.8531 71.2097C88.7579 71.3013 88.63 71.3526 88.4967 71.3526C88.3635 71.3526 88.2355 71.3013 88.1403 71.2097L81.6031 64.7497C81.5542 64.6993 81.5163 64.6395 81.4918 64.5742C81.4673 64.5088 81.4567 64.4392 81.4606 64.3697Z" fill="#99EDA2"/>
<path d="M71.3692 62.3199C71.3779 62.2526 71.4004 62.1878 71.4355 62.1294C71.4705 62.0709 71.5172 62.0201 71.5729 61.9799L81.623 54.9799C81.7338 54.903 81.8711 54.8724 82.0047 54.8949C82.1384 54.9174 82.2575 54.9912 82.3358 55.0999C82.4141 55.2086 82.4453 55.3435 82.4223 55.4747C82.3994 55.606 82.3243 55.723 82.2136 55.7999L72.6013 62.5299L80.5437 72.3799C80.5862 72.4307 80.6179 72.4893 80.6369 72.5524C80.6558 72.6154 80.6617 72.6816 80.6541 72.7469C80.6465 72.8122 80.6256 72.8753 80.5926 72.9325C80.5597 72.9898 80.5153 73.0399 80.4622 73.0799C80.3567 73.1617 80.2226 73.1991 80.089 73.1841C79.9555 73.1691 79.8335 73.1029 79.7494 72.9999L71.471 62.7399C71.4238 62.6815 71.3902 62.6136 71.3726 62.541C71.355 62.4684 71.3539 62.393 71.3692 62.3199V62.3199Z" fill="#99EDA2"/>
<path d="M61.9407 60.4399C61.9419 60.3659 61.9588 60.293 61.9903 60.2259C62.0219 60.1587 62.0674 60.0988 62.124 60.0499L70.6875 53.0499C70.7394 53.0073 70.7994 52.9753 70.8641 52.9558C70.9287 52.9362 70.9966 52.9295 71.0639 52.936C71.1313 52.9425 71.1966 52.9621 71.2561 52.9937C71.3155 53.0253 71.3681 53.0682 71.4105 53.1199C71.4949 53.2223 71.5347 53.3532 71.5214 53.4843C71.5081 53.6154 71.4426 53.736 71.3392 53.8199L63.1219 60.5099L67.9586 68.1299C68.0302 68.2426 68.0532 68.3787 68.0226 68.5081C67.9921 68.6375 67.9104 68.7496 67.7957 68.8199C67.6809 68.8902 67.5424 68.9128 67.4107 68.8828C67.2789 68.8528 67.1646 68.7726 67.0931 68.6599L62.0018 60.6599C61.9645 60.5922 61.9435 60.5169 61.9407 60.4399Z" fill="#99EDA2"/>
<path d="M54.9657 47.3205C54.9657 47.3205 88.6801 60.4905 95.3599 24.3205C95.3599 24.3205 63.3663 8.25048 54.9657 47.3205Z" fill="#27DFC1"/>
<path d="M54.4562 47.3202C54.4567 47.2329 54.4805 47.1473 54.5252 47.0719C54.5698 46.9964 54.6338 46.9338 54.7108 46.8902L90.3497 26.8202C90.4069 26.7863 90.4705 26.7642 90.5366 26.7549C90.6027 26.7456 90.6701 26.7495 90.7347 26.7663C90.7992 26.7831 90.8597 26.8124 90.9125 26.8526C90.9653 26.8928 91.0094 26.943 91.0421 27.0002C91.1085 27.1171 91.1255 27.255 91.0893 27.3841C91.0531 27.5132 90.9666 27.6231 90.8486 27.6902L55.2097 47.7502C55.1525 47.784 55.0889 47.8062 55.0228 47.8155C54.9566 47.8247 54.8893 47.8208 54.8247 47.804C54.7601 47.7872 54.6997 47.7579 54.6469 47.7177C54.594 47.6776 54.55 47.6274 54.5173 47.5702C54.4726 47.4945 54.4514 47.4076 54.4562 47.3202Z" fill="#99EDA2"/>
<path d="M79.3531 33.3205C79.3435 33.2542 79.3435 33.1868 79.3531 33.1205L83.4974 23.6405C83.5229 23.5803 83.5604 23.5257 83.6077 23.48C83.655 23.4342 83.7111 23.3981 83.7727 23.3739C83.8343 23.3497 83.9003 23.3378 83.9667 23.3389C84.033 23.3401 84.0985 23.3542 84.1593 23.3805C84.2831 23.4314 84.3814 23.5282 84.4329 23.6499C84.4844 23.7717 84.4849 23.9084 84.4342 24.0305L80.575 32.8705L89.108 33.4205C89.1745 33.4243 89.2395 33.4411 89.2993 33.47C89.3591 33.4988 89.4123 33.5391 89.456 33.5885C89.4996 33.6379 89.5328 33.6954 89.5535 33.7575C89.5741 33.8197 89.5819 33.8853 89.5764 33.9505C89.5725 34.0162 89.5554 34.0805 89.5262 34.1397C89.4969 34.1989 89.4561 34.2519 89.4059 34.2955C89.3558 34.3392 89.2974 34.3727 89.234 34.3942C89.1707 34.4156 89.1036 34.4246 89.0367 34.4205L79.791 33.8205C79.7099 33.8153 79.6313 33.7907 79.5621 33.7489C79.4929 33.7071 79.4351 33.6493 79.3938 33.5805C79.3569 33.499 79.3428 33.4092 79.3531 33.3205Z" fill="#99EDA2"/>
<path d="M70.4531 38.3207V38.2107L73.2431 26.4007C73.2745 26.2723 73.3564 26.1613 73.4709 26.092C73.5853 26.0227 73.7231 26.0006 73.854 26.0307C73.9195 26.0448 73.9813 26.0716 74.036 26.1097C74.0906 26.1477 74.1369 26.1962 74.172 26.2522C74.2072 26.3082 74.2305 26.3706 74.2406 26.4356C74.2507 26.5006 74.2474 26.567 74.2308 26.6307L71.5629 37.9207L84.1486 40.1507C84.2813 40.1751 84.3991 40.2493 84.477 40.3576C84.5549 40.4659 84.5869 40.5997 84.566 40.7307C84.5538 40.796 84.5286 40.8582 84.4916 40.9137C84.4547 40.9693 84.4069 41.0171 84.351 41.0543C84.2951 41.0915 84.2322 41.1175 84.166 41.1306C84.0997 41.1437 84.0315 41.1438 83.9653 41.1307L70.8502 38.8207C70.7167 38.7915 70.5999 38.7126 70.5243 38.6007C70.4713 38.517 70.4463 38.4191 70.4531 38.3207V38.3207Z" fill="#99EDA2"/>
<path d="M62.0728 43.0502V42.9702L63.8039 32.1802C63.8137 32.1154 63.8367 32.0533 63.8714 31.9975C63.9061 31.9416 63.9519 31.8931 64.006 31.8549C64.0601 31.8167 64.1214 31.7895 64.1864 31.775C64.2514 31.7604 64.3187 31.7588 64.3843 31.7702C64.5169 31.7923 64.6355 31.8641 64.7152 31.9704C64.795 32.0767 64.8297 32.2093 64.812 32.3402L63.1522 42.6902L71.9092 45.2702C71.9741 45.2874 72.0349 45.3173 72.0877 45.3581C72.1406 45.3989 72.1845 45.4498 72.2169 45.5077C72.2492 45.5656 72.2693 45.6294 72.2759 45.6951C72.2825 45.7608 72.2755 45.8272 72.2554 45.8902C72.2155 46.0156 72.1268 46.1206 72.0087 46.1824C71.8905 46.2441 71.7523 46.2577 71.6241 46.2202L62.4598 43.5202C62.3511 43.4956 62.2539 43.436 62.1837 43.3508C62.1136 43.2656 62.0746 43.1597 62.0728 43.0502Z" fill="#99EDA2"/>
<path d="M47.1965 44.18C47.1965 44.18 68.641 15.43 34.6313 0C34.6313 0 10.794 26.38 47.1965 44.18Z" fill="#27DFC1"/>
<path d="M35.8629 5.26062C35.8454 5.12801 35.8822 4.99399 35.9653 4.88803C36.0483 4.78207 36.1708 4.71285 36.3059 4.69561C36.4409 4.67838 36.5774 4.71453 36.6853 4.79611C36.7932 4.87769 36.8636 4.998 36.8812 5.13061L47.7052 44.0506C47.7403 44.1832 47.7204 44.3241 47.6497 44.4423C47.5791 44.5604 47.4635 44.6461 47.3285 44.6806C47.1935 44.7151 47.05 44.6955 46.9297 44.6261C46.8094 44.5567 46.7221 44.4432 46.687 44.3106L35.8629 5.39062V5.26062Z" fill="#99EDA2"/>
<path d="M30.8228 10.6712C30.8221 10.5629 30.8579 10.4574 30.9247 10.3712C31.0072 10.2666 31.1285 10.1985 31.2621 10.1816C31.3957 10.1647 31.5307 10.2006 31.6375 10.2812L39.3864 16.1612L42.0644 8.1612C42.1099 8.0398 42.2015 7.94046 42.3201 7.88404C42.4386 7.82762 42.5748 7.81852 42.7001 7.85865C42.8253 7.89878 42.9298 7.98502 42.9917 8.09925C43.0535 8.21348 43.0679 8.3468 43.0317 8.4712L40.1195 17.1112C40.0939 17.1856 40.0512 17.2531 39.9947 17.3086C39.9382 17.3641 39.8694 17.4061 39.7937 17.4312C39.7148 17.4563 39.631 17.4621 39.5494 17.4482C39.4677 17.4342 39.3908 17.401 39.3253 17.3512L31.0163 11.0312C30.9615 10.9867 30.9162 10.932 30.883 10.8702C30.8498 10.8084 30.8293 10.7408 30.8228 10.6712V10.6712Z" fill="#99EDA2"/>
<path d="M30.8944 21.0909C30.8939 21.0103 30.915 20.931 30.9555 20.8609C30.9866 20.8022 31.0293 20.7501 31.081 20.7077C31.1328 20.6652 31.1926 20.6333 31.257 20.6138C31.3214 20.5942 31.3892 20.5874 31.4563 20.5938C31.5234 20.6002 31.5885 20.6196 31.6479 20.6509L42.1054 26.0209L47.4614 14.6209C47.517 14.5004 47.6189 14.4064 47.7449 14.3596C47.8708 14.3127 48.0105 14.3168 48.1334 14.3709C48.2569 14.4275 48.3527 14.5294 48.4003 14.6547C48.448 14.7801 48.4435 14.9188 48.388 15.0409L42.808 26.9209C42.7774 26.9821 42.7345 27.0366 42.682 27.0813C42.6296 27.1259 42.5685 27.1598 42.5025 27.1809C42.4405 27.2101 42.3727 27.2254 42.3039 27.2254C42.2352 27.2254 42.1673 27.2101 42.1054 27.1809L31.1693 21.5609C31.0823 21.5168 31.0102 21.449 30.9614 21.3657C30.9126 21.2823 30.8894 21.1869 30.8944 21.0909V21.0909Z" fill="#99EDA2"/>
<path d="M34.1827 31.5197C34.1722 31.4534 34.1722 31.3859 34.1827 31.3197C34.2385 31.1991 34.3398 31.1046 34.4652 31.0561C34.5906 31.0076 34.7303 31.0089 34.8548 31.0596L44.6402 35.2397L49.3853 27.5497C49.4206 27.4938 49.4669 27.4453 49.5213 27.407C49.5758 27.3687 49.6375 27.3413 49.7027 27.3264C49.768 27.3115 49.8356 27.3095 49.9017 27.3203C49.9678 27.3312 50.0311 27.3547 50.0879 27.3897C50.1444 27.4234 50.1936 27.4679 50.2325 27.5205C50.2714 27.5731 50.2992 27.6329 50.3144 27.6961C50.3295 27.7594 50.3317 27.825 50.3208 27.8892C50.3099 27.9533 50.2861 28.0147 50.2508 28.0697L45.2817 36.1297C45.2182 36.2316 45.1196 36.3078 45.0038 36.3445C44.888 36.3812 44.7626 36.3759 44.6504 36.3297L34.4679 31.9797C34.3828 31.935 34.3115 31.8688 34.2614 31.7879C34.2112 31.707 34.1841 31.6144 34.1827 31.5197V31.5197Z" fill="#99EDA2"/>
<path d="M42.5225 52.8106C42.5225 52.8106 33.9284 18.1806 0.000154792 33.8106C0.000154792 33.8006 5.18308 68.7006 42.5225 52.8106Z" fill="#27DFC1"/>
<path d="M4.72472 35.8704C4.71018 35.8011 4.71018 35.7297 4.72472 35.6604C4.75313 35.6004 4.79342 35.5464 4.84321 35.5018C4.893 35.4572 4.95131 35.4227 5.01477 35.4004C5.07824 35.378 5.14558 35.3683 5.21291 35.3718C5.28023 35.3752 5.3462 35.3917 5.40697 35.4204L42.7362 52.3204C42.7973 52.3483 42.8522 52.3878 42.8976 52.4367C42.9431 52.4856 42.9782 52.5429 43.001 52.6053C43.0237 52.6676 43.0336 52.7337 43.0301 52.7998C43.0266 52.866 43.0097 52.9307 42.9805 52.9904C42.9532 53.0501 42.9139 53.1038 42.8651 53.1484C42.8162 53.1929 42.7588 53.2274 42.6961 53.2497C42.6335 53.2721 42.5669 53.2819 42.5003 53.2786C42.4337 53.2753 42.3685 53.2589 42.3085 53.2304L5.02003 36.3204C4.93243 36.2806 4.85817 36.2172 4.80589 36.1375C4.75361 36.0578 4.72545 35.9652 4.72472 35.8704Z" fill="#99EDA2"/>
<path d="M5.69244 43.1506C5.69237 43.0379 5.73182 42.9287 5.80415 42.8413C5.87648 42.7538 5.97728 42.6936 6.08957 42.6706L15.6612 40.6706L11.1808 33.5206C11.1457 33.4642 11.1223 33.4015 11.112 33.3362C11.1017 33.2709 11.1047 33.2043 11.1208 33.1401C11.1369 33.076 11.1658 33.0156 11.2058 32.9624C11.2458 32.9093 11.2962 32.8645 11.3539 32.8306C11.4105 32.7963 11.4736 32.7736 11.5393 32.7636C11.605 32.7536 11.6721 32.7566 11.7366 32.7725C11.8011 32.7883 11.8617 32.8166 11.9149 32.8558C11.9681 32.895 12.0128 32.9442 12.0463 33.0006L16.9034 40.7506C16.9409 40.8199 16.9604 40.8971 16.9604 40.9756C16.9604 41.054 16.9409 41.1313 16.9034 41.2006C16.8692 41.2744 16.8184 41.3397 16.755 41.3917C16.6915 41.4436 16.617 41.4808 16.5368 41.5006L6.26266 43.6706C6.19775 43.6852 6.13053 43.687 6.06493 43.6757C5.99933 43.6644 5.93668 43.6404 5.88069 43.605C5.8247 43.5696 5.7765 43.5235 5.73893 43.4695C5.70135 43.4155 5.67515 43.3547 5.66189 43.2906L5.69244 43.1506Z" fill="#99EDA2"/>
<path d="M13.8586 49.8005C13.8563 49.7011 13.8854 49.6035 13.942 49.5211C13.9985 49.4387 14.0797 49.3756 14.1743 49.3404L25.1002 44.9405L19.6627 33.5705C19.6249 33.5104 19.6005 33.4432 19.5911 33.3732C19.5816 33.3033 19.5874 33.2321 19.608 33.1645C19.6286 33.0969 19.6635 33.0343 19.7105 32.9809C19.7574 32.9274 19.8154 32.8844 19.8805 32.8545C19.9456 32.8247 20.0165 32.8087 20.0883 32.8077C20.1602 32.8066 20.2314 32.8205 20.2974 32.8485C20.3634 32.8765 20.4227 32.9178 20.4712 32.9699C20.5198 33.0219 20.5565 33.0834 20.5791 33.1504L26.2406 44.9905C26.2681 45.0537 26.2822 45.1217 26.2822 45.1905C26.2822 45.2592 26.2681 45.3272 26.2406 45.3905C26.2161 45.4544 26.178 45.5124 26.1288 45.5607C26.0797 45.6089 26.0206 45.6464 25.9555 45.6705L14.5409 50.2605C14.4788 50.2866 14.412 50.3004 14.3444 50.301C14.2768 50.3016 14.2098 50.2889 14.1472 50.2638C14.0847 50.2387 14.0278 50.2016 13.9801 50.1546C13.9323 50.1077 13.8944 50.0519 13.8688 49.9905C13.8557 49.928 13.8522 49.8639 13.8586 49.8005V49.8005Z" fill="#99EDA2"/>
<path d="M24.0924 54.0509C24.091 53.9569 24.1171 53.8645 24.1677 53.7847C24.2182 53.7049 24.2911 53.6411 24.3775 53.6008L33.9389 48.9408L31.0064 40.4308C30.9753 40.3671 30.9583 40.2977 30.9566 40.227C30.9548 40.1564 30.9683 40.0862 30.9962 40.0211C31.0241 39.9559 31.0657 39.8974 31.1183 39.8492C31.1709 39.801 31.2334 39.7643 31.3015 39.7415C31.3696 39.7188 31.4418 39.7104 31.5134 39.7171C31.5851 39.7237 31.6544 39.7452 31.717 39.7801C31.7796 39.815 31.8339 39.8625 31.8764 39.9195C31.9188 39.9765 31.9486 40.0417 31.9635 40.1109L35.0183 49.0308C35.0607 49.1454 35.0581 49.2714 35.0111 49.3842C34.964 49.497 34.8758 49.5885 34.7637 49.6409L24.8154 54.5008C24.6924 54.5599 24.5507 54.5688 24.421 54.5257C24.2913 54.4827 24.1842 54.3911 24.123 54.2709C24.0987 54.2001 24.0883 54.1254 24.0924 54.0509V54.0509Z" fill="#99EDA2"/>
<path d="M42.4614 56.321C42.4614 56.321 6.46611 51.8111 9.18485 88.511C9.18485 88.491 44.2331 96.201 42.4614 56.321Z" fill="#27DFC1"/>
<path d="M12.5149 84.4401C12.5152 84.305 12.5702 84.1755 12.6676 84.0801L42.1155 55.9401C42.1601 55.8835 42.2166 55.8369 42.2811 55.8036C42.3457 55.7702 42.4168 55.7509 42.4896 55.7469C42.5624 55.7429 42.6352 55.7542 42.7031 55.7802C42.771 55.8062 42.8325 55.8463 42.8833 55.8976C42.9341 55.949 42.9731 56.0104 42.9977 56.0779C43.0222 56.1453 43.0317 56.2171 43.0255 56.2885C43.0193 56.3598 42.9976 56.429 42.9618 56.4914C42.9261 56.5538 42.877 56.6079 42.8181 56.6501L13.3295 84.8001C13.2822 84.847 13.2258 84.8842 13.1638 84.9096C13.1018 84.935 13.0352 84.948 12.968 84.948C12.9008 84.948 12.8342 84.935 12.7722 84.9096C12.7101 84.8842 12.6539 84.847 12.6065 84.8001C12.5319 84.6953 12.4993 84.5671 12.5149 84.4401V84.4401Z" fill="#99EDA2"/>
<path d="M12.3112 77.6403C12.3096 77.5231 12.3509 77.4092 12.4275 77.3193C12.5041 77.2294 12.611 77.1694 12.7287 77.1503L21.8421 75.4603C21.9227 75.4457 22.0058 75.4508 22.084 75.4752C22.1621 75.4996 22.2329 75.5426 22.2901 75.6003C22.3453 75.6568 22.3868 75.7248 22.4115 75.7992C22.4362 75.8737 22.4434 75.9527 22.4327 76.0303L20.834 86.2303C20.8115 86.3605 20.7384 86.477 20.6301 86.5553C20.5219 86.6336 20.3869 86.6677 20.2536 86.6503C20.1874 86.6405 20.1238 86.618 20.0664 86.584C20.009 86.5501 19.9591 86.5054 19.9194 86.4524C19.8796 86.3995 19.8509 86.3393 19.8349 86.2755C19.8189 86.2116 19.8158 86.1453 19.8259 86.0803L21.3228 76.5803L12.9222 78.1303C12.7887 78.1539 12.6511 78.1252 12.5388 78.0505C12.4265 77.9757 12.3485 77.8608 12.3214 77.7303L12.3112 77.6403Z" fill="#99EDA2"/>
<path d="M15.4572 69.8906C15.4568 69.7646 15.5048 69.6431 15.5917 69.5504C15.6785 69.4577 15.7978 69.4006 15.9256 69.3906L29.2139 68.3906C29.2829 68.3865 29.3521 68.396 29.4173 68.4186C29.4825 68.4412 29.5425 68.4763 29.5937 68.522C29.645 68.5676 29.6864 68.6228 29.7156 68.6844C29.7447 68.746 29.7611 68.8127 29.7637 68.8805L30.0488 80.9906C30.0491 81.1234 29.9975 81.2513 29.9047 81.348C29.8119 81.4447 29.6849 81.5029 29.5499 81.5105C29.483 81.5119 29.4165 81.5002 29.3542 81.4763C29.292 81.4524 29.2351 81.4167 29.1868 81.3712C29.1386 81.3257 29.1 81.2713 29.0732 81.2111C29.0464 81.151 29.0319 81.0862 29.0306 81.0206L28.7556 69.4305L15.9969 70.3505C15.93 70.3546 15.863 70.3457 15.7996 70.3242C15.7363 70.3028 15.6778 70.2693 15.6277 70.2256C15.5776 70.1819 15.5367 70.129 15.5074 70.0698C15.4782 70.0105 15.4611 69.9462 15.4572 69.8805V69.8906Z" fill="#99EDA2"/>
<path d="M26.0876 61.9306C26.0903 61.8649 26.106 61.8004 26.1341 61.7407C26.1621 61.681 26.2019 61.6274 26.2511 61.5828C26.3002 61.5382 26.3579 61.5036 26.4207 61.4809C26.4835 61.4582 26.5502 61.4479 26.6171 61.4506L36.1989 61.8306C36.322 61.8349 36.4394 61.8828 36.5293 61.9655C36.6191 62.0483 36.6754 62.1602 36.6877 62.2806L37.7059 73.1506C37.7146 73.2811 37.6719 73.41 37.5867 73.5105C37.5014 73.611 37.38 73.6755 37.2477 73.6906C37.1808 73.6975 37.1131 73.6913 37.0487 73.6724C36.9842 73.6535 36.9242 73.6222 36.8721 73.5803C36.82 73.5385 36.7769 73.4869 36.7452 73.4286C36.7136 73.3703 36.694 73.3064 36.6877 73.2406L35.6694 62.8106L26.5051 62.4506C26.3829 62.4289 26.273 62.364 26.1961 62.2682C26.1193 62.1724 26.0807 62.0524 26.0876 61.9306V61.9306Z" fill="#99EDA2"/>
<path d="M49.2025 62.2012C49.2025 62.2012 22.7992 86.6512 53.3977 107.891C53.3977 107.891 81.7153 86.2012 49.2025 62.2012Z" fill="#27DFC1"/>
<path d="M48.693 62.2012C48.6926 62.0753 48.7406 61.9538 48.8275 61.8611C48.9143 61.7684 49.0336 61.7113 49.1614 61.7012C49.2959 61.6928 49.4285 61.7361 49.5311 61.822C49.6337 61.9078 49.6983 62.0295 49.7113 62.1612L53.153 102.361C53.1643 102.492 53.1226 102.623 53.0368 102.724C52.951 102.825 52.8281 102.889 52.6948 102.901C52.6284 102.908 52.5613 102.902 52.4974 102.883C52.4336 102.864 52.3743 102.832 52.323 102.79C52.2717 102.748 52.2295 102.697 52.1989 102.639C52.1683 102.58 52.15 102.517 52.1449 102.451L48.693 62.2412V62.2012Z" fill="#99EDA2"/>
<path d="M46.6466 98.2605C46.6474 98.1768 46.6683 98.0946 46.7077 98.0205L51.1677 90.0205C51.2055 89.9493 51.2606 89.8884 51.3281 89.843C51.3956 89.7977 51.4733 89.7693 51.5546 89.7605C51.6353 89.7509 51.7171 89.7604 51.7933 89.7882C51.8695 89.8161 51.9378 89.8614 51.9924 89.9205L58.998 97.6204C59.0913 97.7139 59.1436 97.8396 59.1436 97.9704C59.1436 98.1013 59.0913 98.227 58.998 98.3205C58.9507 98.3673 58.8944 98.4045 58.8323 98.4299C58.7703 98.4553 58.7038 98.4683 58.6365 98.4683C58.5693 98.4683 58.5028 98.4553 58.4407 98.4299C58.3787 98.4045 58.3224 98.3673 58.2751 98.3205L51.7481 91.1605L47.6751 98.5105C47.6211 98.6086 47.5353 98.6862 47.4313 98.7309C47.3273 98.7757 47.2111 98.785 47.101 98.7574C46.991 98.7298 46.8936 98.6669 46.8241 98.5787C46.7547 98.4905 46.7173 98.382 46.7179 98.2705L46.6466 98.2605Z" fill="#99EDA2"/>
<path d="M42.5531 90.9405C42.5522 90.8352 42.5881 90.7329 42.6549 90.6505L50.3325 79.9605C50.3729 79.9044 50.4243 79.8569 50.4838 79.8208C50.5433 79.7847 50.6096 79.7608 50.6787 79.7505C50.816 79.7328 50.955 79.7687 51.0657 79.8505L60.7798 87.3205C60.8847 87.403 60.9521 87.5229 60.9674 87.654C60.9827 87.7852 60.9445 87.9169 60.8613 88.0205C60.7787 88.1251 60.6574 88.1932 60.5238 88.2101C60.3902 88.227 60.2553 88.1912 60.1485 88.1105L50.8518 80.9605L43.4797 91.2205C43.4019 91.3269 43.2847 91.399 43.1533 91.4215C43.022 91.4439 42.8869 91.4148 42.7771 91.3405C42.7101 91.2961 42.6548 91.2366 42.6159 91.1671C42.5769 91.0975 42.5554 91.0198 42.5531 90.9405Z" fill="#99EDA2"/>
<path d="M43.052 77.8202C43.0516 77.6976 43.0989 77.5796 43.1844 77.4902L49.5586 70.4902C49.6407 70.4009 49.7528 70.3436 49.8744 70.3289C49.9959 70.3142 50.1188 70.3431 50.2205 70.4102L59.4459 76.5102C59.5014 76.5464 59.549 76.5931 59.5858 76.6477C59.6226 76.7022 59.648 76.7634 59.6603 76.8277C59.6727 76.8921 59.6717 76.9582 59.6577 77.0221C59.6436 77.0861 59.6166 77.1466 59.5783 77.2002C59.5036 77.3098 59.3879 77.386 59.2563 77.4122C59.1247 77.4384 58.9879 77.4125 58.8757 77.3402L49.9863 71.4402L43.8768 78.1502C43.8338 78.2001 43.7811 78.2412 43.7217 78.2708C43.6623 78.3004 43.5975 78.3181 43.5311 78.3228C43.4647 78.3274 43.398 78.319 43.3349 78.2979C43.2719 78.2769 43.2137 78.2437 43.164 78.2002C43.0771 78.093 43.0369 77.9564 43.052 77.8202V77.8202Z" fill="#99EDA2"/>
<path d="M57.2363 47.9512C57.2363 47.9512 82.8556 39.7612 86.7657 50.2312C90.6758 60.7012 61.2075 57.8112 61.2075 57.8112C61.2075 57.8112 79.1492 66.8112 78.2226 76.2412C77.296 85.6712 62.7145 79.8112 53.7335 66.4612C53.7335 66.4612 58.6823 86.6212 52.7153 91.1712C46.7483 95.7212 37.4415 82.0412 42.7364 67.1712C42.7364 67.1712 30.8228 85.5312 22.4935 78.4812C14.1642 71.4312 23.583 64.9212 35.9548 58.2712C35.9548 58.2712 16.3127 60.3712 14.9075 46.6012C13.5023 32.8312 36.3825 46.1812 36.3825 46.1812C36.3825 46.1812 26.4342 30.4312 31.2912 22.5012C36.1483 14.5712 46.565 24.7712 47.6444 43.3912C47.6444 43.3912 48.571 18.6112 60.8206 20.6012C73.0702 22.5912 68.2029 38.0212 57.2363 47.9512Z" fill="#99EDA2"/>
<path d="M56.2383 55.6807C55.9328 56.4007 62.5412 61.2907 53.8555 60.9507C53.8555 60.9507 54.7007 65.8507 50.1898 65.8807C47.8173 65.8807 46.2593 62.2207 46.2593 62.2207C46.2593 62.2207 42.278 65.4007 40.2924 63.9607C38.3068 62.5207 41.3106 58.7107 41.3106 58.7107C41.3106 58.7107 36.2194 57.7707 36.4536 54.4107C36.6878 51.0507 42.0845 50.8507 42.0845 50.8507C42.0845 50.8507 38.0115 47.6807 41.3615 45.3107C44.7116 42.9407 47.6645 46.6907 47.6645 46.6907C47.6645 46.6907 50.4138 43.1107 53.7741 45.5107C55.332 46.5907 53.7741 50.0207 53.7741 50.0207C53.7741 50.0207 58.2646 50.2107 58.9672 52.1907C59.6698 54.1707 56.2383 55.6807 56.2383 55.6807Z" fill="#27DFC1"/>
<path opacity="0.3" d="M56.2383 55.6807C55.9328 56.4007 62.5412 61.2907 53.8555 60.9507C53.8555 60.9507 54.7007 65.8507 50.1898 65.8807C47.8173 65.8807 46.2593 62.2207 46.2593 62.2207C46.2593 62.2207 42.278 65.4007 40.2924 63.9607C38.3068 62.5207 41.3106 58.7107 41.3106 58.7107C41.3106 58.7107 36.2194 57.7707 36.4536 54.4107C36.6878 51.0507 42.0845 50.8507 42.0845 50.8507C42.0845 50.8507 38.0115 47.6807 41.3615 45.3107C44.7116 42.9407 47.6645 46.6907 47.6645 46.6907C47.6645 46.6907 50.4138 43.1107 53.7741 45.5107C55.332 46.5907 53.7741 50.0207 53.7741 50.0207C53.7741 50.0207 58.2646 50.2107 58.9672 52.1907C59.6698 54.1707 56.2383 55.6807 56.2383 55.6807Z" fill="white"/>
<path opacity="0.3" d="M54.1712 54.4807C56.503 63.3807 43.1842 63.9106 41.555 55.7806C39.9258 47.6506 51.9514 46.0307 54.1712 54.4807Z" fill="white"/>
<path d="M198.051 112.99C198.051 112.99 202.623 113.23 202.969 117.15C203.315 121.07 197.47 121.97 196.493 117.15C196.493 117.15 196.757 122.66 192.929 122.31C189.1 121.96 187.389 117.63 190.505 115.53C190.505 115.53 183.571 115.53 184.915 109.73C186.259 103.93 190.516 108.38 190.516 108.38C190.516 108.38 187.125 103.05 192.929 102.21C198.733 101.37 195.749 108.21 195.749 108.21C195.749 108.21 200.108 102.32 202.541 107.21C204.975 112.1 198.051 112.99 198.051 112.99Z" fill="#27DFC1"/>
<path opacity="0.5" d="M198.051 112.99C198.051 112.99 202.623 113.23 202.969 117.15C203.315 121.07 197.47 121.97 196.493 117.15C196.493 117.15 196.757 122.66 192.929 122.31C189.1 121.96 187.389 117.63 190.505 115.53C190.505 115.53 183.571 115.53 184.915 109.73C186.259 103.93 190.516 108.38 190.516 108.38C190.516 108.38 187.125 103.05 192.929 102.21C198.733 101.37 195.749 108.21 195.749 108.21C195.749 108.21 200.108 102.32 202.541 107.21C204.975 112.1 198.051 112.99 198.051 112.99Z" fill="white"/>
<path opacity="0.3" d="M194.283 115.231C193.671 115.451 193.005 115.479 192.376 115.311C191.747 115.143 191.187 114.788 190.773 114.294C190.358 113.8 190.11 113.192 190.063 112.554C190.016 111.916 190.171 111.279 190.508 110.731C190.845 110.184 191.347 109.752 191.944 109.496C192.542 109.241 193.205 109.174 193.843 109.304C194.481 109.435 195.062 109.757 195.505 110.225C195.949 110.694 196.234 111.286 196.32 111.921C196.484 112.624 196.364 113.363 195.984 113.98C195.604 114.598 194.994 115.047 194.283 115.231Z" fill="white"/>
<path d="M147.189 99.1205C147.189 99.1205 152.351 99.3906 152.738 103.801C153.125 108.211 146.537 109.241 145.437 103.801C145.437 103.801 145.743 110.021 141.425 109.631C137.108 109.241 135.183 104.341 138.696 101.981C138.696 101.981 130.866 101.981 132.383 95.4405C133.9 88.9005 138.696 93.9206 138.696 93.9206C138.696 93.9206 134.878 87.9206 141.425 86.9206C147.973 85.9206 144.602 93.6305 144.602 93.6305C144.602 93.6305 149.51 87.0006 152.249 92.5506C154.989 98.1006 147.189 99.1205 147.189 99.1205Z" fill="#27DFC1"/>
<path opacity="0.2" d="M147.189 99.1205C147.189 99.1205 152.351 99.3906 152.738 103.801C153.125 108.211 146.537 109.241 145.437 103.801C145.437 103.801 145.743 110.021 141.425 109.631C137.108 109.241 135.183 104.341 138.696 101.981C138.696 101.981 130.866 101.981 132.383 95.4405C133.9 88.9005 138.696 93.9206 138.696 93.9206C138.696 93.9206 134.878 87.9206 141.425 86.9206C147.973 85.9206 144.602 93.6305 144.602 93.6305C144.602 93.6305 149.51 87.0006 152.249 92.5506C154.989 98.1006 147.189 99.1205 147.189 99.1205Z" fill="white"/>
<path opacity="0.3" d="M142.953 101.64C141.426 101.83 139.99 100.47 139.746 98.6402C139.501 96.8102 140.55 95.1102 142.078 94.9202C143.605 94.7302 145.031 96.0802 145.275 97.9202C145.519 99.7602 144.481 101.45 142.953 101.64Z" fill="white"/>
</svg>
