<svg width="81" height="57" viewBox="0 0 81 57" fill="none" xmlns="http://www.w3.org/2000/svg">
<path d="M26.2202 36.6798L25.6202 36.7898C23.5653 37.3647 21.69 38.452 20.1702 39.9498C17.0902 39.3498 13.8802 36.3098 11.6502 33.7298C10.6025 32.5265 9.62429 31.2644 8.72021 29.9498C10.9137 29.5875 13.1283 29.367 15.3502 29.2898C17.2847 29.1513 19.2279 29.3751 21.0802 29.9498C22.1416 32.6234 23.9202 34.9522 26.2202 36.6798V36.6798Z" fill="#58F6BC"/>
<path opacity="0.1" d="M26.2202 36.6798L25.6202 36.7898C23.5653 37.3647 21.69 38.452 20.1702 39.9498C17.0902 39.3498 13.8802 36.3098 11.6502 33.7298C10.6025 32.5265 9.62429 31.2644 8.72021 29.9498C10.9137 29.5875 13.1283 29.367 15.3502 29.2898C17.2847 29.1513 19.2279 29.3751 21.0802 29.9498C22.1416 32.6234 23.9202 34.9522 26.2202 36.6798V36.6798Z" fill="black"/>
<path d="M71.8899 29.9498C70.9875 31.263 70.0127 32.525 68.9699 33.7298V33.7298C66.7399 36.3098 63.5299 39.3498 60.4499 39.9498C58.9285 38.4541 57.0538 37.3671 54.9999 36.7898L54.3999 36.6798C56.6999 34.9522 58.4785 32.6234 59.5399 29.9498C61.3922 29.3751 63.3355 29.1513 65.2699 29.2898C67.4885 29.3675 69.6997 29.5879 71.8899 29.9498V29.9498Z" fill="#58F6BC"/>
<path opacity="0.1" d="M71.8899 29.9498C70.9875 31.263 70.0127 32.525 68.9699 33.7298V33.7298C66.7399 36.3098 63.5299 39.3498 60.4499 39.9498C58.9285 38.4541 57.0538 37.3671 54.9999 36.7898L54.3999 36.6798C56.6999 34.9522 58.4785 32.6234 59.5399 29.9498C61.3922 29.3751 63.3355 29.1513 65.2699 29.2898C67.4885 29.3675 69.6997 29.5879 71.8899 29.9498V29.9498Z" fill="black"/>
<path d="M21.08 29.9499C19.2277 29.3752 17.2844 29.1514 15.35 29.2899C12.7736 25.5992 11.4743 21.1675 11.65 16.6699C13.65 19.8299 16.97 19.6699 20.41 21.7599C19.9104 24.5014 20.1415 27.3261 21.08 29.9499V29.9499Z" fill="#58F6BC"/>
<path d="M26.8601 17.4104C26.4952 20.0968 26.5899 22.8257 27.14 25.4804L26.8601 25.3604C21.7501 23.1304 20.6 20.6804 20.6 20.6804C20.53 21.0404 20.47 21.4004 20.41 21.7604C19.6922 19.2106 19.3553 16.5687 19.41 13.9204C19.3863 11.7337 19.6587 9.55396 20.22 7.44043C21.8212 9.0471 23.5465 10.525 25.38 11.8604L25.81 12.1704C27.54 13.4104 29.8101 14.6504 31.7501 17.0204C33.2775 18.9851 34.3346 21.2737 34.84 23.7104C32.22 21.5304 28.2101 19.3604 26.8601 17.4104Z" fill="#58F6BC"/>
<path opacity="0.4" d="M26.8601 17.4104C26.4952 20.0968 26.5899 22.8257 27.14 25.4804L26.8601 25.3604C21.7501 23.1304 20.6 20.6804 20.6 20.6804C20.53 21.0404 20.47 21.4004 20.41 21.7604C19.6922 19.2106 19.3553 16.5687 19.41 13.9204C19.3863 11.7337 19.6587 9.55396 20.22 7.44043C21.8212 9.0471 23.5465 10.525 25.38 11.8604L25.81 12.1704C27.54 13.4104 29.8101 14.6504 31.7501 17.0204C33.2775 18.9851 34.3346 21.2737 34.84 23.7104C32.22 21.5304 28.2101 19.3604 26.8601 17.4104Z" fill="white"/>
<path d="M32.45 11.1299C31.6426 12.9812 31.3689 15.0213 31.66 17.0199C29.74 14.6499 27.45 13.4099 25.72 12.1699L25.29 11.8599C25.2643 9.62029 25.7897 7.40869 26.82 5.41992C27.7897 6.78534 28.9712 7.98714 30.32 8.97992C31.1188 9.59893 31.8347 10.3182 32.45 11.1199V11.1299Z" fill="#58F6BC"/>
<path d="M38.9799 6.70004C37.7291 8.50842 36.852 10.5483 36.3999 12.7C35.9699 12.1 35.5599 11.56 35.2699 11.16C34.6473 10.3044 34.1709 9.35148 33.8599 8.34006C33.3229 9.22845 32.8645 10.162 32.4899 11.13C31.8746 10.3283 31.1587 9.60906 30.3599 8.99005C30.3599 5.51005 33.4799 2.46004 33.8599 0.0400391C34.5899 1.77004 38.6899 4.18004 38.9799 6.70004Z" fill="#58F6BC"/>
<path opacity="0.1" d="M38.9799 6.70004C37.7291 8.50842 36.852 10.5483 36.3999 12.7C35.9699 12.1 35.5599 11.56 35.2699 11.16C34.6473 10.3044 34.1709 9.35148 33.8599 8.34006C33.3229 9.22845 32.8645 10.162 32.4899 11.13C31.8746 10.3283 31.1587 9.60906 30.3599 8.99005C30.3599 5.51005 33.4799 2.46004 33.8599 0.0400391C34.5899 1.77004 38.6899 4.18004 38.9799 6.70004Z" fill="black"/>
<path d="M60.2001 21.7604C60.1401 21.4004 60.0801 21.0404 60.0101 20.6804C60.0101 20.6804 58.8601 23.1304 53.7501 25.3604L53.4601 25.4804C54.0167 22.8267 54.1148 20.0972 53.7501 17.4104C52.4001 19.3604 48.3701 21.5404 45.8101 23.7204C46.3102 21.277 47.3714 18.9833 48.9101 17.0204C50.8301 14.6504 53.1201 13.4104 54.8501 12.1704L55.2801 11.8604C57.1136 10.525 58.8389 9.0471 60.4401 7.44043C61.0014 9.55396 61.2738 11.7337 61.2501 13.9204C61.2886 16.5712 60.9348 19.2132 60.2001 21.7604V21.7604Z" fill="#58F6BC"/>
<path opacity="0.4" d="M60.2001 21.7604C60.1401 21.4004 60.0801 21.0404 60.0101 20.6804C60.0101 20.6804 58.8601 23.1304 53.7501 25.3604L53.4601 25.4804C54.0167 22.8267 54.1148 20.0972 53.7501 17.4104C52.4001 19.3604 48.3701 21.5404 45.8101 23.7204C46.3102 21.277 47.3714 18.9833 48.9101 17.0204C50.8301 14.6504 53.1201 13.4104 54.8501 12.1704L55.2801 11.8604C57.1136 10.525 58.8389 9.0471 60.4401 7.44043C61.0014 9.55396 61.2738 11.7337 61.2501 13.9204C61.2886 16.5712 60.9348 19.2132 60.2001 21.7604V21.7604Z" fill="white"/>
<path d="M68.9598 16.6699C69.1355 21.1675 67.8362 25.5992 65.2598 29.2899C63.3254 29.1514 61.3821 29.3752 59.5298 29.9499C60.4683 27.3261 60.6994 24.5014 60.1998 21.7599C63.6398 19.6499 66.9098 19.8299 68.9598 16.6699Z" fill="#58F6BC"/>
<path d="M55.2801 11.8597L54.8501 12.1697C53.1201 13.4097 50.8501 14.6497 48.9101 17.0197C49.2012 15.0211 48.9275 12.9809 48.1201 11.1297V11.1297C48.7354 10.3279 49.4513 9.6087 50.2501 8.98969C51.5989 7.9969 52.7804 6.79511 53.7501 5.42969C54.7788 7.41546 55.3042 9.62342 55.2801 11.8597V11.8597Z" fill="#58F6BC"/>
<path d="M50.2499 8.97998C49.451 9.59899 48.7351 10.3182 48.1199 11.12C47.7396 10.1526 47.2779 9.21929 46.7399 8.32999C46.434 9.34346 45.9571 10.2972 45.3299 11.15C45.0399 11.55 44.6299 12.08 44.2099 12.68C43.7627 10.5267 42.8851 8.48585 41.6299 6.67999C41.9099 4.15999 46.0199 1.75 46.7399 0C47.1299 2.45 50.2799 5.49998 50.2499 8.97998Z" fill="#58F6BC"/>
<path opacity="0.1" d="M50.2499 8.97998C49.451 9.59899 48.7351 10.3182 48.1199 11.12C47.7396 10.1526 47.2779 9.21929 46.7399 8.32999C46.434 9.34346 45.9571 10.2972 45.3299 11.15C45.0399 11.55 44.6299 12.08 44.2099 12.68C43.7627 10.5267 42.8851 8.48585 41.6299 6.67999C41.9099 4.15999 46.0199 1.75 46.7399 0C47.1299 2.45 50.2799 5.49998 50.2499 8.97998Z" fill="black"/>
<path d="M48.91 17.0504C47.3714 19.0132 46.3101 21.307 45.81 23.7504C45.81 20.7504 43.92 18.4604 42.27 16.1904C42.7591 14.9493 43.4115 13.7789 44.21 12.7104C44.63 12.1104 45.04 11.5804 45.33 11.1804C45.9573 10.3276 46.4341 9.37382 46.74 8.36035C47.2781 9.24966 47.7397 10.183 48.12 11.1504V11.1504C48.9293 13.0046 49.203 15.0485 48.91 17.0504V17.0504Z" fill="#58F6BC"/>
<path opacity="0.6" d="M48.91 17.0504C47.3714 19.0132 46.3101 21.307 45.81 23.7504C45.81 20.7504 43.92 18.4604 42.27 16.1904C42.7591 14.9493 43.4115 13.7789 44.21 12.7104C44.63 12.1104 45.04 11.5804 45.33 11.1804C45.9573 10.3276 46.4341 9.37382 46.74 8.36035C47.2781 9.24966 47.7397 10.183 48.12 11.1504V11.1504C48.9293 13.0046 49.203 15.0485 48.91 17.0504V17.0504Z" fill="white"/>
<path d="M38.3399 16.1598C36.6899 18.4298 34.7699 20.7198 34.7899 23.7098C34.2845 21.2731 33.2274 18.9845 31.6999 17.0198C31.4089 15.0212 31.6826 12.9811 32.4899 11.1298V11.1298C32.8646 10.1618 33.323 9.22824 33.8599 8.33984C34.171 9.35126 34.6474 10.3041 35.2699 11.1598C35.5599 11.5598 35.9699 12.0998 36.3999 12.6998C37.1964 13.7625 37.8488 14.9259 38.3399 16.1598V16.1598Z" fill="#58F6BC"/>
<path opacity="0.6" d="M38.3399 16.1598C36.6899 18.4298 34.7699 20.7198 34.7899 23.7098C34.2845 21.2731 33.2274 18.9845 31.6999 17.0198C31.4089 15.0212 31.6826 12.9811 32.4899 11.1298V11.1298C32.8646 10.1618 33.323 9.22824 33.8599 8.33984C34.171 9.35126 34.6474 10.3041 35.2699 11.1598C35.5599 11.5598 35.9699 12.0998 36.3999 12.6998C37.1964 13.7625 37.8488 14.9259 38.3399 16.1598V16.1598Z" fill="white"/>
<path d="M44.2101 12.6802C43.4116 13.7488 42.7591 14.9191 42.2701 16.1602C41.4558 15.1494 40.783 14.0325 40.2701 12.8402C39.7577 14.0328 39.0848 15.1498 38.2701 16.1602C37.7797 14.9228 37.1273 13.756 36.3301 12.6902C36.7822 10.5385 37.6594 8.49859 38.9101 6.69022C39.5885 5.72343 40.0397 4.61584 40.2301 3.4502C40.4272 4.61866 40.8815 5.72873 41.5601 6.7002C42.8377 8.49441 43.7391 10.5286 44.2101 12.6802V12.6802Z" fill="#58F6BC"/>
<path opacity="0.7" d="M44.2101 12.6802C43.4116 13.7488 42.7591 14.9191 42.2701 16.1602C41.4558 15.1494 40.783 14.0325 40.2701 12.8402C39.7577 14.0328 39.0848 15.1498 38.2701 16.1602C37.7797 14.9228 37.1273 13.756 36.3301 12.6902C36.7822 10.5385 37.6594 8.49859 38.9101 6.69022C39.5885 5.72343 40.0397 4.61584 40.2301 3.4502C40.4272 4.61866 40.8815 5.72873 41.5601 6.7002C42.8377 8.49441 43.7391 10.5286 44.2101 12.6802V12.6802Z" fill="white"/>
<path d="M16.97 43.5103C16.97 43.5103 17.97 43.8803 19.66 44.4103C15.01 45.2703 12.19 44.5303 8.11 42.1603C4.03 39.7903 2.53 38.8004 0 38.3704C0 38.3704 6.12999 33.0603 11.65 33.7303C13.88 36.3103 17.09 39.3503 20.17 39.9503C18.9845 41.0246 17.9123 42.2175 16.97 43.5103V43.5103Z" fill="#58F6BC"/>
<path opacity="0.4" d="M16.97 43.5103C16.97 43.5103 17.97 43.8803 19.66 44.4103C15.01 45.2703 12.19 44.5303 8.11 42.1603C4.03 39.7903 2.53 38.8004 0 38.3704C0 38.3704 6.12999 33.0603 11.65 33.7303C13.88 36.3103 17.09 39.3503 20.17 39.9503C18.9845 41.0246 17.9123 42.2175 16.97 43.5103V43.5103Z" fill="black"/>
<path d="M80.6099 38.37C78.0799 38.8 76.6099 39.75 72.4999 42.16C68.3899 44.57 65.5999 45.27 60.9499 44.41C62.6699 43.88 63.6399 43.51 63.6399 43.51C62.6977 42.2171 61.6254 41.0242 60.4399 39.95C63.5199 39.35 66.7299 36.31 68.9599 33.73C74.4499 33.05 80.6099 38.37 80.6099 38.37Z" fill="#58F6BC"/>
<path opacity="0.4" d="M80.6099 38.37C78.0799 38.8 76.6099 39.75 72.4999 42.16C68.3899 44.57 65.5999 45.27 60.9499 44.41C62.6699 43.88 63.6399 43.51 63.6399 43.51C62.6977 42.2171 61.6254 41.0242 60.4399 39.95C63.5199 39.35 66.7299 36.31 68.9599 33.73C74.4499 33.05 80.6099 38.37 80.6099 38.37Z" fill="black"/>
<path d="M38.3401 30.0499C37.8601 30.5499 37.3401 31.0999 36.8001 31.7299C34.9301 27.9899 31.0701 27.1599 27.1401 25.4899C26.5899 22.8353 26.4952 20.1063 26.8601 17.4199C28.2101 19.3699 32.2201 21.5399 34.7901 23.7199C35.0301 23.9199 35.2601 24.1299 35.4801 24.3399C35.7001 24.5499 35.9001 24.7599 36.0801 24.9699C36.2601 25.1799 36.2901 25.2299 36.3801 25.3599C36.4701 25.4899 36.6201 25.6899 36.7201 25.8499C37.0131 26.2888 37.277 26.7465 37.5101 27.2199C37.6501 27.4999 37.7601 27.7599 37.8601 28.0099C37.9601 28.2599 38.0301 28.4799 38.0901 28.6899C38.2351 29.1297 38.3193 29.5873 38.3401 30.0499V30.0499Z" fill="#58F6BC"/>
<path opacity="0.7" d="M38.3401 30.0499C37.8601 30.5499 37.3401 31.0999 36.8001 31.7299C34.9301 27.9899 31.0701 27.1599 27.1401 25.4899C26.5899 22.8353 26.4952 20.1063 26.8601 17.4199C28.2101 19.3699 32.2201 21.5399 34.7901 23.7199C35.0301 23.9199 35.2601 24.1299 35.4801 24.3399C35.7001 24.5499 35.9001 24.7599 36.0801 24.9699C36.2601 25.1799 36.2901 25.2299 36.3801 25.3599C36.4701 25.4899 36.6201 25.6899 36.7201 25.8499C37.0131 26.2888 37.277 26.7465 37.5101 27.2199C37.6501 27.4999 37.7601 27.7599 37.8601 28.0099C37.9601 28.2599 38.0301 28.4799 38.0901 28.6899C38.2351 29.1297 38.3193 29.5873 38.3401 30.0499V30.0499Z" fill="white"/>
<path d="M45.8102 23.7196C45.2228 24.2044 44.6927 24.7546 44.2302 25.3596C43.1171 26.6886 42.4213 28.3167 42.2302 30.0396C41.4739 29.3781 40.8021 28.6257 40.2302 27.7996C39.6593 28.6266 38.9875 29.3791 38.2302 30.0396C38.2084 29.5804 38.1243 29.1262 37.9802 28.6896C37.9202 28.4796 37.8402 28.2496 37.7502 28.0096C37.6602 27.7696 37.5402 27.4996 37.4002 27.2196C37.1671 26.7462 36.9032 26.2885 36.6102 25.8496C36.5102 25.6896 36.3902 25.5296 36.2702 25.3596C36.1502 25.1896 36.0702 25.0996 35.9702 24.9696C35.8702 24.8396 35.5902 24.5496 35.3702 24.3396C35.1502 24.1296 34.9202 23.9196 34.6802 23.7196C34.6802 20.7196 36.5802 18.4396 38.2302 16.1696C39.0449 15.1592 39.7178 14.0422 40.2302 12.8496C40.7431 14.0419 41.4159 15.1588 42.2302 16.1696C43.9202 18.4296 45.8402 20.7196 45.8102 23.7196Z" fill="#58F6BC"/>
<path opacity="0.8" d="M45.8102 23.7196C45.2228 24.2044 44.6927 24.7546 44.2302 25.3596C43.1171 26.6886 42.4213 28.3167 42.2302 30.0396C41.4739 29.3781 40.8021 28.6257 40.2302 27.7996C39.6593 28.6266 38.9875 29.3791 38.2302 30.0396C38.2084 29.5804 38.1243 29.1262 37.9802 28.6896C37.9202 28.4796 37.8402 28.2496 37.7502 28.0096C37.6602 27.7696 37.5402 27.4996 37.4002 27.2196C37.1671 26.7462 36.9032 26.2885 36.6102 25.8496C36.5102 25.6896 36.3902 25.5296 36.2702 25.3596C36.1502 25.1896 36.0702 25.0996 35.9702 24.9696C35.8702 24.8396 35.5902 24.5496 35.3702 24.3396C35.1502 24.1296 34.9202 23.9196 34.6802 23.7196C34.6802 20.7196 36.5802 18.4396 38.2302 16.1696C39.0449 15.1592 39.7178 14.0422 40.2302 12.8496C40.7431 14.0419 41.4159 15.1588 42.2302 16.1696C43.9202 18.4296 45.8402 20.7196 45.8102 23.7196Z" fill="white"/>
<path d="M53.4498 25.4802C49.5298 27.1502 45.6698 27.9802 43.8098 31.7202C43.2698 31.0902 42.7398 30.5402 42.2598 30.0402C42.4509 28.3172 43.1467 26.6891 44.2598 25.3602C44.7223 24.7551 45.2524 24.2049 45.8398 23.7202C48.3998 21.5402 52.4298 19.3602 53.7798 17.4102C54.1313 20.0993 54.0197 22.8287 53.4498 25.4802Z" fill="#58F6BC"/>
<path opacity="0.7" d="M53.4498 25.4802C49.5298 27.1502 45.6698 27.9802 43.8098 31.7202C43.2698 31.0902 42.7398 30.5402 42.2598 30.0402C42.4509 28.3172 43.1467 26.6891 44.2598 25.3602C44.7223 24.7551 45.2524 24.2049 45.8398 23.7202C48.3998 21.5402 52.4298 19.3602 53.7798 17.4102C54.1313 20.0993 54.0197 22.8287 53.4498 25.4802Z" fill="white"/>
<path d="M47.33 30.3302C47.33 33.5602 44.51 34.0802 40.63 34.0802C36.75 34.0802 33.27 33.5602 33.27 30.3302C33.27 27.1002 36.42 24.4902 40.27 24.4902C44.12 24.4902 47.33 27.1002 47.33 30.3302Z" fill="white"/>
<path d="M36.7502 42.5596C35.7403 44.1017 34.2392 45.2575 32.4902 45.8396V45.8396C30.2204 46.5626 27.7907 46.6182 25.4902 45.9996C23.0902 45.4296 21.1002 44.8496 19.6402 44.3996C17.9202 43.8696 16.9502 43.4996 16.9502 43.4996C17.8925 42.2068 18.9647 41.0139 20.1502 39.9396C21.67 38.4418 23.5453 37.3545 25.6002 36.7796L26.2002 36.6696C28.7586 36.1841 31.3986 36.3597 33.8702 37.1796C33.7734 38.2595 33.9944 39.3442 34.5061 40.3C35.0178 41.2559 35.7979 42.0413 36.7502 42.5596V42.5596Z" fill="#58F6BC"/>
<path opacity="0.15" d="M36.7502 42.5596C35.7403 44.1017 34.2392 45.2575 32.4902 45.8396V45.8396C30.2204 46.5626 27.7907 46.6182 25.4902 45.9996C23.0902 45.4296 21.1002 44.8496 19.6402 44.3996C17.9202 43.8696 16.9502 43.4996 16.9502 43.4996C17.8925 42.2068 18.9647 41.0139 20.1502 39.9396C21.67 38.4418 23.5453 37.3545 25.6002 36.7796L26.2002 36.6696C28.7586 36.1841 31.3986 36.3597 33.8702 37.1796C33.7734 38.2595 33.9944 39.3442 34.5061 40.3C35.0178 41.2559 35.7979 42.0413 36.7502 42.5596V42.5596Z" fill="black"/>
<path d="M63.6398 43.5104C63.6398 43.5104 62.6398 43.8804 60.9498 44.4104C59.4898 44.8704 57.4998 45.4104 55.0998 46.0104C52.7994 46.629 50.3696 46.5734 48.0998 45.8504C46.3508 45.2683 44.8497 44.1125 43.8398 42.5704C44.7841 42.0477 45.5561 41.2619 46.0621 40.3086C46.568 39.3552 46.7861 38.2754 46.6898 37.2004C49.1651 36.3814 51.808 36.2059 54.3698 36.6905L54.9698 36.8005C57.0335 37.3702 58.9189 38.454 60.4498 39.9504C61.6318 41.0252 62.7007 42.2181 63.6398 43.5104V43.5104Z" fill="#58F6BC"/>
<path opacity="0.15" d="M63.6398 43.5104C63.6398 43.5104 62.6398 43.8804 60.9498 44.4104C59.4898 44.8704 57.4998 45.4104 55.0998 46.0104C52.7994 46.629 50.3696 46.5734 48.0998 45.8504C46.3508 45.2683 44.8497 44.1125 43.8398 42.5704C44.7841 42.0477 45.5561 41.2619 46.0621 40.3086C46.568 39.3552 46.7861 38.2754 46.6898 37.2004C49.1651 36.3814 51.808 36.2059 54.3698 36.6905L54.9698 36.8005C57.0335 37.3702 58.9189 38.454 60.4498 39.9504C61.6318 41.0252 62.7007 42.2181 63.6398 43.5104V43.5104Z" fill="black"/>
<path d="M43.86 42.5598C42.7784 43.1819 41.5526 43.5093 40.305 43.5093C39.0573 43.5093 37.8315 43.1819 36.75 42.5598C35.803 42.0394 35.0282 41.2544 34.5203 40.3007C34.0124 39.347 33.7933 38.266 33.89 37.1898C33.963 36.5805 34.1317 35.9865 34.39 35.4298C35.0194 34.0885 35.8303 32.8402 36.8 31.7198C37.33 31.0898 37.86 30.5398 38.34 30.0398C39.0973 29.3793 39.7691 28.6268 40.34 27.7998C40.9119 28.6259 41.5837 29.3783 42.34 30.0398C42.82 30.5398 43.34 31.0898 43.89 31.7198C44.8529 32.8431 45.6601 34.091 46.29 35.4298C46.886 36.6942 46.9734 38.1392 46.5342 39.4662C46.0949 40.7932 45.1626 41.9007 43.93 42.5598H43.86Z" fill="#58F6BC"/>
<path d="M36.8 31.7197C35.8303 32.84 35.0194 34.0884 34.39 35.4297C34.1317 35.9864 33.963 36.5804 33.89 37.1897C31.4184 36.3697 28.7784 36.1942 26.22 36.6797C23.92 34.9521 22.1413 32.6233 21.08 29.9497C20.1415 27.3258 19.9104 24.5012 20.41 21.7597C20.47 21.3997 20.53 21.0397 20.6 20.6797C20.6 20.6797 21.75 23.1297 26.86 25.3597L27.14 25.4797C31.07 27.1497 34.93 27.9797 36.8 31.7197Z" fill="#58F6BC"/>
<path opacity="0.6" d="M36.8 31.7197C35.8303 32.84 35.0194 34.0884 34.39 35.4297C34.1317 35.9864 33.963 36.5804 33.89 37.1897C31.4184 36.3697 28.7784 36.1942 26.22 36.6797C23.92 34.9521 22.1413 32.6233 21.08 29.9497C20.1415 27.3258 19.9104 24.5012 20.41 21.7597C20.47 21.3997 20.53 21.0397 20.6 20.6797C20.6 20.6797 21.75 23.1297 26.86 25.3597L27.14 25.4797C31.07 27.1497 34.93 27.9797 36.8 31.7197Z" fill="white"/>
<path d="M59.5298 29.9497C58.4684 32.6233 56.6898 34.9521 54.3898 36.6797C51.828 36.1951 49.1851 36.3706 46.7098 37.1897C46.6452 36.5799 46.4796 35.9851 46.2198 35.4297C45.59 34.0909 44.7827 32.843 43.8198 31.7197C45.6798 27.9797 49.5398 27.1497 53.4598 25.4797L53.7498 25.3597C58.8598 23.1297 60.0098 20.6797 60.0098 20.6797C60.0798 21.0397 60.1398 21.3997 60.1998 21.7597C60.6994 24.5012 60.4683 27.3258 59.5298 29.9497V29.9497Z" fill="#58F6BC"/>
<path opacity="0.6" d="M59.5298 29.9497C58.4684 32.6233 56.6898 34.9521 54.3898 36.6797C51.828 36.1951 49.1851 36.3706 46.7098 37.1897C46.6452 36.5799 46.4796 35.9851 46.2198 35.4297C45.59 34.0909 44.7827 32.843 43.8198 31.7197C45.6798 27.9797 49.5398 27.1497 53.4598 25.4797L53.7498 25.3597C58.8598 23.1297 60.0098 20.6797 60.0098 20.6797C60.0798 21.0397 60.1398 21.3997 60.1998 21.7597C60.6994 24.5012 60.4683 27.3258 59.5298 29.9497V29.9497Z" fill="white"/>
<path d="M48.1202 45.8396C47.6802 51.2396 40.4902 55.2996 40.3002 56.5396C40.1202 55.2996 32.9302 51.2396 32.4902 45.8396C34.2392 45.2575 35.7404 44.1017 36.7502 42.5596C37.8318 43.1817 39.0576 43.509 40.3052 43.509C41.5529 43.509 42.7787 43.1817 43.8602 42.5596C44.8701 44.1017 46.3712 45.2575 48.1202 45.8396Z" fill="#58F6BC"/>
<path opacity="0.4" d="M48.1202 45.8396C47.6802 51.2396 40.4902 55.2996 40.3002 56.5396C40.1202 55.2996 32.9302 51.2396 32.4902 45.8396C34.2392 45.2575 35.7404 44.1017 36.7502 42.5596C37.8318 43.1817 39.0576 43.509 40.3052 43.509C41.5529 43.509 42.7787 43.1817 43.8602 42.5596C44.8701 44.1017 46.3712 45.2575 48.1202 45.8396Z" fill="black"/>
</svg>
