<svg width="82" height="51" viewBox="0 0 82 51" fill="none" xmlns="http://www.w3.org/2000/svg">
<path d="M32.2636 24.0037L31.8914 24.0757C30.6079 24.4478 29.4358 25.1596 28.4861 26.1436C26.5757 25.751 24.5846 23.7616 23.2014 22.0732C22.5516 21.2858 21.9448 20.4599 21.384 19.5996C22.7446 19.3625 24.1183 19.2182 25.4964 19.1677C26.6963 19.077 27.9017 19.2235 29.0506 19.5996C29.7158 21.3523 30.8278 22.8767 32.2636 24.0037V24.0037Z" fill="#58F6BC"/>
<path opacity="0.1" d="M32.2636 24.0037L31.8914 24.0757C30.6079 24.4478 29.4358 25.1596 28.4861 26.1436C26.5757 25.751 24.5846 23.7616 23.2014 22.0732C22.5516 21.2858 21.9448 20.4599 21.384 19.5996C22.7446 19.3625 24.1183 19.2182 25.4964 19.1677C26.6963 19.077 27.9017 19.2235 29.0506 19.5996C29.7158 21.3523 30.8278 22.8767 32.2636 24.0037V24.0037Z" fill="black"/>
<path d="M60.5912 19.5996C60.0315 20.4589 59.4268 21.2848 58.78 22.0732V22.0732C57.3968 23.7616 55.4058 25.751 53.4953 26.1436C52.5517 25.1648 51.3888 24.4535 50.1148 24.0757L49.7427 24.0037C51.1693 22.8732 52.2725 21.3492 52.9309 19.5996C54.0798 19.2235 55.2852 19.077 56.485 19.1677C57.8611 19.2185 59.2327 19.3627 60.5912 19.5996V19.5996Z" fill="#58F6BC"/>
<path opacity="0.1" d="M60.5912 19.5996C60.0315 20.4589 59.4268 21.2848 58.78 22.0732V22.0732C57.3968 23.7616 55.4058 25.751 53.4953 26.1436C52.5517 25.1648 51.3888 24.4535 50.1148 24.0757L49.7427 24.0037C51.1693 22.8732 52.2725 21.3492 52.9309 19.5996C54.0798 19.2235 55.2852 19.077 56.485 19.1677C57.8611 19.2185 59.2327 19.3627 60.5912 19.5996V19.5996Z" fill="black"/>
<path d="M29.1065 19.5997C27.9576 19.2236 26.7522 19.0771 25.5523 19.1678C23.9543 16.7526 23.1483 13.8524 23.2573 10.9092C24.4979 12.9771 26.5571 12.8724 28.6909 14.2401C28.381 16.0341 28.5243 17.8826 29.1065 19.5997V19.5997Z" fill="#58F6BC"/>
<path d="M32.6605 11.3936C32.4342 13.1516 32.4929 14.9374 32.8342 16.6746L32.6605 16.5961C29.4909 15.1368 28.7776 13.5335 28.7776 13.5335C28.7342 13.7691 28.6969 14.0046 28.6597 14.2402C28.2145 12.5716 28.0055 10.8428 28.0395 9.10968C28.0247 7.67871 28.1937 6.25225 28.5419 4.86914C29.535 5.92055 30.6052 6.8877 31.7425 7.76161L32.0092 7.96447C33.0823 8.77593 34.4903 9.5874 35.6936 11.1383C36.6411 12.4241 37.2967 13.9217 37.6102 15.5163C35.9851 14.0897 33.4978 12.6696 32.6605 11.3936Z" fill="#58F6BC"/>
<path opacity="0.4" d="M32.6605 11.3936C32.4342 13.1516 32.4929 14.9374 32.8342 16.6746L32.6605 16.5961C29.4909 15.1368 28.7776 13.5335 28.7776 13.5335C28.7342 13.7691 28.6969 14.0046 28.6597 14.2402C28.2145 12.5716 28.0055 10.8428 28.0395 9.10968C28.0247 7.67871 28.1937 6.25225 28.5419 4.86914C29.535 5.92055 30.6052 6.8877 31.7425 7.76161L32.0092 7.96447C33.0823 8.77593 34.4903 9.5874 35.6936 11.1383C36.6411 12.4241 37.2967 13.9217 37.6102 15.5163C35.9851 14.0897 33.4978 12.6696 32.6605 11.3936Z" fill="white"/>
<path d="M36.1526 7.28353C35.6518 8.49501 35.4821 9.8301 35.6626 11.138C34.4717 9.58705 33.0513 8.77558 31.9782 7.96412L31.7115 7.76125C31.6956 6.29562 32.0215 4.84834 32.6605 3.54688C33.262 4.44041 33.9949 5.22688 34.8315 5.87656C35.327 6.28165 35.771 6.75233 36.1526 7.277V7.28353Z" fill="#58F6BC"/>
<path d="M40.178 4.38472C39.4022 5.56813 38.8582 6.90302 38.5777 8.31115C38.311 7.91851 38.0567 7.56512 37.8768 7.30336C37.4907 6.7434 37.1952 6.11983 37.0022 5.45795C36.6692 6.03932 36.3849 6.65022 36.1525 7.28373C35.7708 6.75906 35.3268 6.2884 34.8313 5.88331C34.8313 3.60598 36.7665 1.61003 37.0022 0.0263672C37.455 1.15849 39.9982 2.73561 40.178 4.38472Z" fill="#58F6BC"/>
<path opacity="0.1" d="M40.178 4.38472C39.4022 5.56813 38.8582 6.90302 38.5777 8.31115C38.311 7.91851 38.0567 7.56512 37.8768 7.30336C37.4907 6.7434 37.1952 6.11983 37.0022 5.45795C36.6692 6.03932 36.3849 6.65022 36.1525 7.28373C35.7708 6.75906 35.3268 6.2884 34.8313 5.88331C34.8313 3.60598 36.7665 1.61003 37.0022 0.0263672C37.455 1.15849 39.9982 2.73561 40.178 4.38472Z" fill="black"/>
<path d="M53.3403 14.2402C53.303 14.0046 53.2658 13.7691 53.2224 13.5335C53.2224 13.5335 52.5091 15.1368 49.3395 16.5961L49.1596 16.6746C49.5049 14.938 49.5657 13.1518 49.3395 11.3936C48.5021 12.6696 46.0024 14.0963 44.4146 15.5229C44.7247 13.9239 45.383 12.4229 46.3374 11.1383C47.5283 9.5874 48.9487 8.77593 50.0218 7.96447L50.2885 7.76161C51.4258 6.8877 52.496 5.92055 53.4891 4.86914C53.8373 6.25225 54.0063 7.67871 53.9915 9.10968C54.0154 10.8444 53.796 12.5733 53.3403 14.2402V14.2402Z" fill="#58F6BC"/>
<path opacity="0.4" d="M53.3403 14.2402C53.303 14.0046 53.2658 13.7691 53.2224 13.5335C53.2224 13.5335 52.5091 15.1368 49.3395 16.5961L49.1596 16.6746C49.5049 14.938 49.5657 13.1518 49.3395 11.3936C48.5021 12.6696 46.0024 14.0963 44.4146 15.5229C44.7247 13.9239 45.383 12.4229 46.3374 11.1383C47.5283 9.5874 48.9487 8.77593 50.0218 7.96447L50.2885 7.76161C51.4258 6.8877 52.496 5.92055 53.4891 4.86914C53.8373 6.25225 54.0063 7.67871 53.9915 9.10968C54.0154 10.8444 53.796 12.5733 53.3403 14.2402V14.2402Z" fill="white"/>
<path d="M58.774 10.9092C58.8829 13.8524 58.077 16.7526 56.479 19.1678C55.2791 19.0771 54.0737 19.2236 52.9248 19.5997C53.5069 17.8826 53.6503 16.0341 53.3404 14.2401C55.4741 12.8593 57.5024 12.9771 58.774 10.9092Z" fill="#58F6BC"/>
<path d="M50.2886 7.76056L50.0218 7.96343C48.9488 8.77489 47.5408 9.58636 46.3374 11.1373C46.5179 9.82941 46.3482 8.49432 45.8474 7.28284V7.28284C46.229 6.75817 46.6731 6.2875 47.1686 5.88242C48.0052 5.23274 48.7381 4.44627 49.3395 3.55273C49.9776 4.85224 50.3035 6.29714 50.2886 7.76056Z" fill="#58F6BC"/>
<path d="M47.1685 5.87656C46.673 6.28164 46.229 6.75233 45.8473 7.27699C45.6114 6.64396 45.3251 6.03316 44.9914 5.4512C44.8016 6.11442 44.5058 6.73855 44.1168 7.29663C43.9369 7.55839 43.6826 7.90522 43.4221 8.29787C43.1447 6.88872 42.6004 5.5532 41.8218 4.37143C41.9955 2.72233 44.5448 1.14521 44.9914 0C45.2333 1.6033 47.1871 3.59922 47.1685 5.87656Z" fill="#58F6BC"/>
<path opacity="0.1" d="M47.1685 5.87656C46.673 6.28164 46.229 6.75233 45.8473 7.27699C45.6114 6.64396 45.3251 6.03316 44.9914 5.4512C44.8016 6.11442 44.5058 6.73855 44.1168 7.29663C43.9369 7.55839 43.6826 7.90522 43.4221 8.29787C43.1447 6.88872 42.6004 5.5532 41.8218 4.37143C41.9955 2.72233 44.5448 1.14521 44.9914 0C45.2333 1.6033 47.1871 3.59922 47.1685 5.87656Z" fill="black"/>
<path d="M46.3373 11.1575C45.383 12.442 44.7247 13.943 44.4145 15.542C44.4145 13.5788 43.2422 12.0802 42.2188 10.5947C42.5221 9.78253 42.9268 9.01666 43.4221 8.31737C43.6826 7.92473 43.9369 7.5779 44.1168 7.31613C44.5058 6.75806 44.8016 6.13393 44.9913 5.4707C45.3251 6.05267 45.6114 6.66346 45.8473 7.2965C46.3493 8.50995 46.519 9.84747 46.3373 11.1575Z" fill="#58F6BC"/>
<path opacity="0.6" d="M46.3373 11.1575C45.383 12.442 44.7247 13.943 44.4145 15.542C44.4145 13.5788 43.2422 12.0802 42.2188 10.5947C42.5221 9.78253 42.9268 9.01666 43.4221 8.31737C43.6826 7.92473 43.9369 7.5779 44.1168 7.31613C44.5058 6.75806 44.8016 6.13393 44.9913 5.4707C45.3251 6.05267 45.6114 6.66346 45.8473 7.2965C46.3493 8.50995 46.519 9.84747 46.3373 11.1575Z" fill="white"/>
<path d="M39.7812 10.5754C38.7578 12.061 37.5669 13.5596 37.5793 15.5162C37.2658 13.9216 36.6101 12.424 35.6626 11.1382C35.4821 9.83036 35.6518 8.49527 36.1526 7.28379V7.28379C36.385 6.65028 36.6694 6.03938 37.0024 5.45801C37.1954 6.11989 37.4909 6.74346 37.877 7.30342C38.0569 7.56518 38.3112 7.91857 38.5779 8.31121C39.0719 9.00664 39.4766 9.76799 39.7812 10.5754V10.5754Z" fill="#58F6BC"/>
<path opacity="0.6" d="M39.7812 10.5754C38.7578 12.061 37.5669 13.5596 37.5793 15.5162C37.2658 13.9216 36.6101 12.424 35.6626 11.1382C35.4821 9.83036 35.6518 8.49527 36.1526 7.28379V7.28379C36.385 6.65028 36.6694 6.03938 37.0024 5.45801C37.1954 6.11989 37.4909 6.74346 37.877 7.30342C38.0569 7.56518 38.3112 7.91857 38.5779 8.31121C39.0719 9.00664 39.4766 9.76799 39.7812 10.5754V10.5754Z" fill="white"/>
<path d="M43.4221 8.29799C42.9268 8.99727 42.5222 9.76312 42.2188 10.5753C41.7138 9.91385 41.2964 9.18295 40.9783 8.4027C40.6605 9.18313 40.2431 9.91409 39.7378 10.5753C39.4336 9.76557 39.0289 9.002 38.5344 8.30454C38.8149 6.89641 39.3589 5.56152 40.1347 4.3781C40.5555 3.74543 40.8354 3.02061 40.9535 2.25781C41.0758 3.02246 41.3575 3.7489 41.7784 4.38463C42.5709 5.55878 43.13 6.88994 43.4221 8.29799V8.29799Z" fill="#58F6BC"/>
<path opacity="0.7" d="M43.4221 8.29799C42.9268 8.99727 42.5222 9.76312 42.2188 10.5753C41.7138 9.91385 41.2964 9.18295 40.9783 8.4027C40.6605 9.18313 40.2431 9.91409 39.7378 10.5753C39.4336 9.76557 39.0289 9.002 38.5344 8.30454C38.8149 6.89641 39.3589 5.56152 40.1347 4.3781C40.5555 3.74543 40.8354 3.02061 40.9535 2.25781C41.0758 3.02246 41.3575 3.7489 41.7784 4.38463C42.5709 5.55878 43.13 6.88994 43.4221 8.29799V8.29799Z" fill="white"/>
<path d="M26.526 28.4735C26.526 28.4735 27.1463 28.7156 28.1945 29.0625C25.3103 29.6253 23.5611 29.141 21.0304 27.5901C18.4997 26.0391 17.5693 25.3913 16 25.1099C16 25.1099 19.8023 21.635 23.2262 22.0734C24.6094 23.7618 26.6004 25.7512 28.5109 26.1438C27.7756 26.8468 27.1105 27.6275 26.526 28.4735Z" fill="#58F6BC"/>
<path opacity="0.4" d="M26.526 28.4735C26.526 28.4735 27.1463 28.7156 28.1945 29.0625C25.3103 29.6253 23.5611 29.141 21.0304 27.5901C18.4997 26.0391 17.5693 25.3913 16 25.1099C16 25.1099 19.8023 21.635 23.2262 22.0734C24.6094 23.7618 26.6004 25.7512 28.5109 26.1438C27.7756 26.8468 27.1105 27.6275 26.526 28.4735Z" fill="black"/>
<path d="M65.9999 25.1099C64.4306 25.3913 63.5188 26.013 60.9695 27.5901C58.4202 29.1672 56.6896 29.6253 53.8054 29.0625C54.8722 28.7157 55.4739 28.4736 55.4739 28.4736C54.8894 27.6275 54.2243 26.8469 53.489 26.1439C55.3994 25.7512 57.3905 23.7618 58.7737 22.0735C62.2038 21.6285 65.9999 25.1099 65.9999 25.1099Z" fill="#58F6BC"/>
<path opacity="0.4" d="M65.9999 25.1099C64.4306 25.3913 63.5188 26.013 60.9695 27.5901C58.4202 29.1672 56.6896 29.6253 53.8054 29.0625C54.8722 28.7157 55.4739 28.4736 55.4739 28.4736C54.8894 27.6275 54.2243 26.8469 53.489 26.1439C55.3994 25.7512 57.3905 23.7618 58.7737 22.0735C62.2038 21.6285 65.9999 25.1099 65.9999 25.1099Z" fill="black"/>
<path d="M39.7813 19.6646C39.4835 19.9918 39.161 20.3517 38.826 20.764C37.6661 18.3165 35.2719 17.7733 32.8342 16.6805C32.493 14.9432 32.4342 13.1574 32.6606 11.3994C33.4979 12.6755 35.9852 14.0956 37.5793 15.5222C37.7282 15.6531 37.8708 15.7905 38.0073 15.9279C38.1437 16.0653 38.2678 16.2028 38.3795 16.3402C38.4911 16.4776 38.5097 16.5103 38.5655 16.5954C38.6213 16.6805 38.7144 16.8113 38.7764 16.9161C38.9582 17.2033 39.1219 17.5028 39.2664 17.8126C39.3533 17.9958 39.4215 18.166 39.4835 18.3296C39.5456 18.4932 39.589 18.6372 39.6262 18.7746C39.7162 19.0624 39.7683 19.3618 39.7813 19.6646Z" fill="#58F6BC"/>
<path opacity="0.7" d="M39.7813 19.6646C39.4835 19.9918 39.161 20.3517 38.826 20.764C37.6661 18.3165 35.2719 17.7733 32.8342 16.6805C32.493 14.9432 32.4342 13.1574 32.6606 11.3994C33.4979 12.6755 35.9852 14.0956 37.5793 15.5222C37.7282 15.6531 37.8708 15.7905 38.0073 15.9279C38.1437 16.0653 38.2678 16.2028 38.3795 16.3402C38.4911 16.4776 38.5097 16.5103 38.5655 16.5954C38.6213 16.6805 38.7144 16.8113 38.7764 16.9161C38.9582 17.2033 39.1219 17.5028 39.2664 17.8126C39.3533 17.9958 39.4215 18.166 39.4835 18.3296C39.5456 18.4932 39.589 18.6372 39.6262 18.7746C39.7162 19.0624 39.7683 19.3618 39.7813 19.6646Z" fill="white"/>
<path d="M44.4146 15.5226C44.0503 15.8398 43.7215 16.1999 43.4346 16.5958C42.7442 17.4655 42.3126 18.5309 42.194 19.6584C41.7249 19.2255 41.3083 18.7332 40.9535 18.1926C40.5994 18.7338 40.1827 19.2262 39.713 19.6584C39.6995 19.3579 39.6473 19.0607 39.5579 18.775C39.5207 18.6376 39.471 18.487 39.4152 18.33C39.3594 18.1729 39.285 17.9962 39.1981 17.813C39.0536 17.5032 38.8899 17.2037 38.7081 16.9165C38.6461 16.8118 38.5717 16.7071 38.4972 16.5958C38.4228 16.4846 38.3732 16.4257 38.3111 16.3406C38.2491 16.2555 38.0754 16.0657 37.939 15.9283C37.8025 15.7909 37.6599 15.6535 37.511 15.5226C37.511 13.5594 38.6895 12.0673 39.713 10.5818C40.2183 9.92059 40.6357 9.18962 40.9535 8.40918C41.2716 9.18943 41.689 9.92036 42.194 10.5818C43.2423 12.0608 44.4332 13.5594 44.4146 15.5226Z" fill="#58F6BC"/>
<path opacity="0.8" d="M44.4146 15.5226C44.0503 15.8398 43.7215 16.1999 43.4346 16.5958C42.7442 17.4655 42.3126 18.5309 42.194 19.6584C41.7249 19.2255 41.3083 18.7332 40.9535 18.1926C40.5994 18.7338 40.1827 19.2262 39.713 19.6584C39.6995 19.3579 39.6473 19.0607 39.5579 18.775C39.5207 18.6376 39.471 18.487 39.4152 18.33C39.3594 18.1729 39.285 17.9962 39.1981 17.813C39.0536 17.5032 38.8899 17.2037 38.7081 16.9165C38.6461 16.8118 38.5717 16.7071 38.4972 16.5958C38.4228 16.4846 38.3732 16.4257 38.3111 16.3406C38.2491 16.2555 38.0754 16.0657 37.939 15.9283C37.8025 15.7909 37.6599 15.6535 37.511 15.5226C37.511 13.5594 38.6895 12.0673 39.713 10.5818C40.2183 9.92059 40.6357 9.18962 40.9535 8.40918C41.2716 9.18943 41.689 9.92036 42.194 10.5818C43.2423 12.0608 44.4332 13.5594 44.4146 15.5226Z" fill="white"/>
<path d="M49.1596 16.6736C46.7281 17.7665 44.3339 18.3097 43.1802 20.7571C42.8452 20.3449 42.5165 19.9849 42.2188 19.6577C42.3373 18.5302 42.7689 17.4648 43.4593 16.5951C43.7462 16.1992 44.075 15.8391 44.4393 15.5219C46.0272 14.0953 48.5269 12.6687 49.3643 11.3926C49.5823 13.1523 49.5131 14.9385 49.1596 16.6736V16.6736Z" fill="#58F6BC"/>
<path opacity="0.7" d="M49.1596 16.6736C46.7281 17.7665 44.3339 18.3097 43.1802 20.7571C42.8452 20.3449 42.5165 19.9849 42.2188 19.6577C42.3373 18.5302 42.7689 17.4648 43.4593 16.5951C43.7462 16.1992 44.075 15.8391 44.4393 15.5219C46.0272 14.0953 48.5269 12.6687 49.3643 11.3926C49.5823 13.1523 49.5131 14.9385 49.1596 16.6736V16.6736Z" fill="white"/>
<path d="M45.3575 19.8481C45.3575 21.9618 43.6083 22.3021 41.2017 22.3021C38.795 22.3021 36.6365 21.9618 36.6365 19.8481C36.6365 17.7344 38.5903 16.0264 40.9784 16.0264C43.3664 16.0264 45.3575 17.7344 45.3575 19.8481Z" fill="white"/>
<path d="M38.7948 27.8523C38.1684 28.8614 37.2373 29.6178 36.1524 29.9987V29.9987C34.7445 30.4719 33.2374 30.5082 31.8105 30.1034C30.3219 29.7304 29.0876 29.3509 28.182 29.0564C27.1151 28.7095 26.5134 28.4674 26.5134 28.4674C27.0979 27.6214 27.763 26.8407 28.4983 26.1377C29.441 25.1575 30.6042 24.446 31.8788 24.0698L32.2509 23.9978C33.8378 23.6801 35.4753 23.795 37.0084 24.3316C36.9484 25.0383 37.0855 25.7481 37.4029 26.3736C37.7203 26.9991 38.2041 27.5131 38.7948 27.8523Z" fill="#58F6BC"/>
<path opacity="0.15" d="M38.7948 27.8523C38.1684 28.8614 37.2373 29.6178 36.1524 29.9987V29.9987C34.7445 30.4719 33.2374 30.5082 31.8105 30.1034C30.3219 29.7304 29.0876 29.3509 28.182 29.0564C27.1151 28.7095 26.5134 28.4674 26.5134 28.4674C27.0979 27.6214 27.763 26.8407 28.4983 26.1377C29.441 25.1575 30.6042 24.446 31.8788 24.0698L32.2509 23.9978C33.8378 23.6801 35.4753 23.795 37.0084 24.3316C36.9484 25.0383 37.0855 25.7481 37.4029 26.3736C37.7203 26.9991 38.2041 27.5131 38.7948 27.8523Z" fill="black"/>
<path d="M55.4742 28.4731C55.4742 28.4731 54.854 28.7153 53.8057 29.0621C52.9001 29.3631 51.6658 29.7165 50.1771 30.1091C48.7502 30.5139 47.2431 30.4776 45.8352 30.0044C44.7504 29.6235 43.8193 28.8671 43.1929 27.858C43.7786 27.5159 44.2574 27.0017 44.5713 26.3778C44.8851 25.7539 45.0204 25.0473 44.9606 24.3438C46.496 23.8078 48.1353 23.693 49.7243 24.0101L50.0965 24.0821C51.3705 24.4598 52.5333 25.1712 53.477 26.15C54.2163 26.8503 54.8855 27.6287 55.4742 28.4731V28.4731Z" fill="#58F6BC"/>
<path opacity="0.15" d="M55.4742 28.4731C55.4742 28.4731 54.854 28.7153 53.8057 29.0621C52.9001 29.3631 51.6658 29.7165 50.1771 30.1091C48.7502 30.5139 47.2431 30.4776 45.8352 30.0044C44.7504 29.6235 43.8193 28.8671 43.1929 27.858C43.7786 27.5159 44.2574 27.0017 44.5713 26.3778C44.8851 25.7539 45.0204 25.0473 44.9606 24.3438C46.496 23.8078 48.1353 23.693 49.7243 24.0101L50.0965 24.0821C51.3705 24.4598 52.5333 25.1712 53.477 26.15C54.2163 26.8503 54.8855 27.6287 55.4742 28.4731V28.4731Z" fill="black"/>
<path d="M43.2052 27.8514C42.5344 28.2585 41.7741 28.4728 41.0002 28.4728C40.2263 28.4728 39.4659 28.2585 38.7951 27.8514C38.2077 27.5109 37.7272 26.9972 37.4121 26.3731C37.0971 25.749 36.9612 25.0415 37.0211 24.3373C37.0664 23.9385 37.1711 23.5498 37.3313 23.1855C37.7217 22.3077 38.2247 21.4908 38.8261 20.7577C39.1549 20.3454 39.4836 19.9854 39.7813 19.6582C40.2511 19.226 40.6678 18.7336 41.0219 18.1924C41.3767 18.733 41.7933 19.2253 42.2624 19.6582C42.5602 19.9854 42.8827 20.3454 43.2239 20.7577C43.8211 21.4928 44.3218 22.3094 44.7125 23.1855C45.0822 24.0129 45.1364 24.9586 44.864 25.827C44.5915 26.6954 44.0132 27.4201 43.2487 27.8514H43.2052Z" fill="#58F6BC"/>
<path d="M38.826 20.7579C38.2246 21.491 37.7216 22.3079 37.3311 23.1857C37.1709 23.55 37.0663 23.9387 37.021 24.3375C35.4879 23.8009 33.8504 23.686 32.2635 24.0037C30.8483 22.8688 29.7561 21.3452 29.1063 19.5995C28.5242 17.8825 28.3809 16.034 28.6907 14.24C28.728 14.0044 28.7652 13.7688 28.8086 13.5332C28.8086 13.5332 29.5219 15.1365 32.6915 16.5958L32.8652 16.6743C35.2718 17.7672 37.6661 18.3104 38.826 20.7579Z" fill="#58F6BC"/>
<path opacity="0.6" d="M38.826 20.7579C38.2246 21.491 37.7216 22.3079 37.3311 23.1857C37.1709 23.55 37.0663 23.9387 37.021 24.3375C35.4879 23.8009 33.8504 23.686 32.2635 24.0037C30.8483 22.8688 29.7561 21.3452 29.1063 19.5995C28.5242 17.8825 28.3809 16.034 28.6907 14.24C28.728 14.0044 28.7652 13.7688 28.8086 13.5332C28.8086 13.5332 29.5219 15.1365 32.6915 16.5958L32.8652 16.6743C35.2718 17.7672 37.6661 18.3104 38.826 20.7579Z" fill="white"/>
<path d="M52.9249 19.5995C52.2665 21.3491 51.1633 22.8731 49.7367 24.0037C48.1477 23.6866 46.5083 23.8015 44.973 24.3375C44.9329 23.9384 44.8302 23.5492 44.6691 23.1857C44.2784 22.3096 43.7777 21.493 43.1804 20.7579C44.3341 18.3104 46.7284 17.7672 49.1598 16.6743L49.3397 16.5958C52.5093 15.1365 53.2226 13.5332 53.2226 13.5332C53.266 13.7688 53.3032 14.0044 53.3405 14.24C53.6503 16.034 53.507 17.8825 52.9249 19.5995V19.5995Z" fill="#58F6BC"/>
<path opacity="0.6" d="M52.9249 19.5995C52.2665 21.3491 51.1633 22.8731 49.7367 24.0037C48.1477 23.6866 46.5083 23.8015 44.973 24.3375C44.9329 23.9384 44.8302 23.5492 44.6691 23.1857C44.2784 22.3096 43.7777 21.493 43.1804 20.7579C44.3341 18.3104 46.7284 17.7672 49.1598 16.6743L49.3397 16.5958C52.5093 15.1365 53.2226 13.5332 53.2226 13.5332C53.266 13.7688 53.3032 14.0044 53.3405 14.24C53.6503 16.034 53.507 17.8825 52.9249 19.5995V19.5995Z" fill="white"/>
<path d="M45.8535 29.998C45.5806 33.5318 41.1209 36.1887 41.003 37.0001C40.8914 36.1887 36.4316 33.5318 36.1587 29.998C37.2435 29.6171 38.1747 28.8607 38.8011 27.8516C39.4719 28.2587 40.2322 28.4729 41.0061 28.4729C41.78 28.4729 42.5403 28.2587 43.2112 27.8516C43.8376 28.8607 44.7687 29.6171 45.8535 29.998Z" fill="#58F6BC"/>
<path opacity="0.4" d="M45.8535 29.998C45.5806 33.5318 41.1209 36.1887 41.003 37.0001C40.8914 36.1887 36.4316 33.5318 36.1587 29.998C37.2435 29.6171 38.1747 28.8607 38.8011 27.8516C39.4719 28.2587 40.2322 28.4729 41.0061 28.4729C41.78 28.4729 42.5403 28.2587 43.2112 27.8516C43.8376 28.8607 44.7687 29.6171 45.8535 29.998Z" fill="black"/>
<path d="M7.86453 47.084C7.28053 47.084 6.75253 46.984 6.28053 46.784C5.81653 46.584 5.44853 46.296 5.17653 45.92C4.90453 45.544 4.76453 45.1 4.75653 44.588H6.55653C6.58053 44.932 6.70053 45.204 6.91653 45.404C7.14053 45.604 7.44453 45.704 7.82853 45.704C8.22053 45.704 8.52853 45.612 8.75253 45.428C8.97653 45.236 9.08853 44.988 9.08853 44.684C9.08853 44.436 9.01253 44.232 8.86053 44.072C8.70853 43.912 8.51653 43.788 8.28453 43.7C8.06053 43.604 7.74853 43.5 7.34853 43.388C6.80453 43.228 6.36053 43.072 6.01653 42.92C5.68053 42.76 5.38853 42.524 5.14053 42.212C4.90053 41.892 4.78053 41.468 4.78053 40.94C4.78053 40.444 4.90453 40.012 5.15253 39.644C5.40053 39.276 5.74853 38.996 6.19653 38.804C6.64453 38.604 7.15653 38.504 7.73253 38.504C8.59653 38.504 9.29653 38.716 9.83253 39.14C10.3765 39.556 10.6765 40.14 10.7325 40.892H8.88453C8.86853 40.604 8.74453 40.368 8.51253 40.184C8.28853 39.992 7.98853 39.896 7.61253 39.896C7.28453 39.896 7.02053 39.98 6.82053 40.148C6.62853 40.316 6.53253 40.56 6.53253 40.88C6.53253 41.104 6.60453 41.292 6.74853 41.444C6.90053 41.588 7.08453 41.708 7.30053 41.804C7.52453 41.892 7.83653 41.996 8.23653 42.116C8.78053 42.276 9.22453 42.436 9.56853 42.596C9.91253 42.756 10.2085 42.996 10.4565 43.316C10.7045 43.636 10.8285 44.056 10.8285 44.576C10.8285 45.024 10.7125 45.44 10.4805 45.824C10.2485 46.208 9.90853 46.516 9.46053 46.748C9.01253 46.972 8.48053 47.084 7.86453 47.084ZM16.029 40.256C16.533 40.256 16.981 40.368 17.373 40.592C17.765 40.808 18.069 41.132 18.285 41.564C18.509 41.988 18.621 42.5 18.621 43.1V47H16.941V43.328C16.941 42.8 16.809 42.396 16.545 42.116C16.281 41.828 15.921 41.684 15.465 41.684C15.001 41.684 14.633 41.828 14.361 42.116C14.097 42.396 13.965 42.8 13.965 43.328V47H12.285V38.12H13.965V41.18C14.181 40.892 14.469 40.668 14.829 40.508C15.189 40.34 15.589 40.256 16.029 40.256ZM19.7866 43.652C19.7866 42.98 19.9186 42.384 20.1826 41.864C20.4546 41.344 20.8186 40.944 21.2746 40.664C21.7386 40.384 22.2546 40.244 22.8226 40.244C23.3186 40.244 23.7506 40.344 24.1186 40.544C24.4946 40.744 24.7946 40.996 25.0186 41.3V40.352H26.7106V47H25.0186V46.028C24.8026 46.34 24.5026 46.6 24.1186 46.808C23.7426 47.008 23.3066 47.108 22.8106 47.108C22.2506 47.108 21.7386 46.964 21.2746 46.676C20.8186 46.388 20.4546 45.984 20.1826 45.464C19.9186 44.936 19.7866 44.332 19.7866 43.652ZM25.0186 43.676C25.0186 43.268 24.9386 42.92 24.7786 42.632C24.6186 42.336 24.4026 42.112 24.1306 41.96C23.8586 41.8 23.5666 41.72 23.2546 41.72C22.9426 41.72 22.6546 41.796 22.3906 41.948C22.1266 42.1 21.9106 42.324 21.7426 42.62C21.5826 42.908 21.5026 43.252 21.5026 43.652C21.5026 44.052 21.5826 44.404 21.7426 44.708C21.9106 45.004 22.1266 45.232 22.3906 45.392C22.6626 45.552 22.9506 45.632 23.2546 45.632C23.5666 45.632 23.8586 45.556 24.1306 45.404C24.4026 45.244 24.6186 45.02 24.7786 44.732C24.9386 44.436 25.0186 44.084 25.0186 43.676ZM32.0354 40.256C32.8274 40.256 33.4674 40.508 33.9554 41.012C34.4434 41.508 34.6874 42.204 34.6874 43.1V47H33.0074V43.328C33.0074 42.8 32.8754 42.396 32.6114 42.116C32.3474 41.828 31.9874 41.684 31.5314 41.684C31.0674 41.684 30.6994 41.828 30.4274 42.116C30.1634 42.396 30.0314 42.8 30.0314 43.328V47H28.3514V40.352H30.0314V41.18C30.2554 40.892 30.5394 40.668 30.8834 40.508C31.2354 40.34 31.6194 40.256 32.0354 40.256ZM38.241 41.732V44.948C38.241 45.172 38.293 45.336 38.397 45.44C38.509 45.536 38.693 45.584 38.949 45.584H39.729V47H38.673C37.257 47 36.549 46.312 36.549 44.936V41.732H35.757V40.352H36.549V38.708H38.241V40.352H39.729V41.732H38.241ZM41.7894 39.56C41.4934 39.56 41.2454 39.468 41.0454 39.284C40.8534 39.092 40.7574 38.856 40.7574 38.576C40.7574 38.296 40.8534 38.064 41.0454 37.88C41.2454 37.688 41.4934 37.592 41.7894 37.592C42.0854 37.592 42.3294 37.688 42.5214 37.88C42.7214 38.064 42.8214 38.296 42.8214 38.576C42.8214 38.856 42.7214 39.092 42.5214 39.284C42.3294 39.468 42.0854 39.56 41.7894 39.56ZM42.6174 40.352V47H40.9374V40.352H42.6174ZM53.7966 38.624L50.9646 44.084V47H49.2846V44.084L46.4406 38.624H48.3366L50.1366 42.452L51.9246 38.624H53.7966ZM57.7175 47.108C57.0775 47.108 56.5015 46.968 55.9895 46.688C55.4775 46.4 55.0735 45.996 54.7775 45.476C54.4895 44.956 54.3455 44.356 54.3455 43.676C54.3455 42.996 54.4935 42.396 54.7895 41.876C55.0935 41.356 55.5055 40.956 56.0255 40.676C56.5455 40.388 57.1255 40.244 57.7655 40.244C58.4055 40.244 58.9855 40.388 59.5055 40.676C60.0255 40.956 60.4335 41.356 60.7295 41.876C61.0335 42.396 61.1855 42.996 61.1855 43.676C61.1855 44.356 61.0295 44.956 60.7175 45.476C60.4135 45.996 59.9975 46.4 59.4695 46.688C58.9495 46.968 58.3655 47.108 57.7175 47.108ZM57.7175 45.644C58.0215 45.644 58.3055 45.572 58.5695 45.428C58.8415 45.276 59.0575 45.052 59.2175 44.756C59.3775 44.46 59.4575 44.1 59.4575 43.676C59.4575 43.044 59.2895 42.56 58.9535 42.224C58.6255 41.88 58.2215 41.708 57.7415 41.708C57.2615 41.708 56.8575 41.88 56.5295 42.224C56.2095 42.56 56.0495 43.044 56.0495 43.676C56.0495 44.308 56.2055 44.796 56.5175 45.14C56.8375 45.476 57.2375 45.644 57.7175 45.644ZM65.0218 40.244C65.5178 40.244 65.9538 40.344 66.3298 40.544C66.7058 40.736 67.0018 40.988 67.2178 41.3V40.352H68.9098V47.048C68.9098 47.664 68.7858 48.212 68.5378 48.692C68.2898 49.18 67.9178 49.564 67.4218 49.844C66.9258 50.132 66.3258 50.276 65.6218 50.276C64.6778 50.276 63.9018 50.056 63.2938 49.616C62.6938 49.176 62.3538 48.576 62.2738 47.816H63.9418C64.0298 48.12 64.2178 48.36 64.5058 48.536C64.8018 48.72 65.1578 48.812 65.5738 48.812C66.0618 48.812 66.4578 48.664 66.7618 48.368C67.0658 48.08 67.2178 47.64 67.2178 47.048V46.016C67.0018 46.328 66.7018 46.588 66.3178 46.796C65.9418 47.004 65.5098 47.108 65.0218 47.108C64.4618 47.108 63.9498 46.964 63.4858 46.676C63.0218 46.388 62.6538 45.984 62.3818 45.464C62.1178 44.936 61.9858 44.332 61.9858 43.652C61.9858 42.98 62.1178 42.384 62.3818 41.864C62.6538 41.344 63.0178 40.944 63.4738 40.664C63.9378 40.384 64.4538 40.244 65.0218 40.244ZM67.2178 43.676C67.2178 43.268 67.1378 42.92 66.9778 42.632C66.8178 42.336 66.6018 42.112 66.3298 41.96C66.0578 41.8 65.7658 41.72 65.4538 41.72C65.1418 41.72 64.8538 41.796 64.5898 41.948C64.3258 42.1 64.1098 42.324 63.9418 42.62C63.7818 42.908 63.7018 43.252 63.7018 43.652C63.7018 44.052 63.7818 44.404 63.9418 44.708C64.1098 45.004 64.3258 45.232 64.5898 45.392C64.8618 45.552 65.1498 45.632 65.4538 45.632C65.7658 45.632 66.0578 45.556 66.3298 45.404C66.6018 45.244 66.8178 45.02 66.9778 44.732C67.1378 44.436 67.2178 44.084 67.2178 43.676ZM70.1187 43.652C70.1187 42.98 70.2507 42.384 70.5147 41.864C70.7867 41.344 71.1507 40.944 71.6067 40.664C72.0707 40.384 72.5867 40.244 73.1547 40.244C73.6507 40.244 74.0827 40.344 74.4507 40.544C74.8267 40.744 75.1267 40.996 75.3507 41.3V40.352H77.0427V47H75.3507V46.028C75.1347 46.34 74.8347 46.6 74.4507 46.808C74.0747 47.008 73.6387 47.108 73.1427 47.108C72.5827 47.108 72.0707 46.964 71.6067 46.676C71.1507 46.388 70.7867 45.984 70.5147 45.464C70.2507 44.936 70.1187 44.332 70.1187 43.652ZM75.3507 43.676C75.3507 43.268 75.2707 42.92 75.1107 42.632C74.9507 42.336 74.7347 42.112 74.4627 41.96C74.1907 41.8 73.8987 41.72 73.5867 41.72C73.2747 41.72 72.9867 41.796 72.7227 41.948C72.4587 42.1 72.2427 42.324 72.0747 42.62C71.9147 42.908 71.8347 43.252 71.8347 43.652C71.8347 44.052 71.9147 44.404 72.0747 44.708C72.2427 45.004 72.4587 45.232 72.7227 45.392C72.9947 45.552 73.2827 45.632 73.5867 45.632C73.8987 45.632 74.1907 45.556 74.4627 45.404C74.7347 45.244 74.9507 45.02 75.1107 44.732C75.2707 44.436 75.3507 44.084 75.3507 43.676Z" fill="#58F6BC"/>
</svg>
