<svg width="120" height="37" viewBox="0 0 120 37" fill="none" xmlns="http://www.w3.org/2000/svg">
<path d="M16.2636 24.0037L15.8914 24.0757C14.6079 24.4478 13.4358 25.1596 12.4861 26.1436C10.5757 25.751 8.58464 23.7616 7.20144 22.0732C6.5516 21.2858 5.94481 20.4599 5.38403 19.5996C6.7446 19.3625 8.11826 19.2182 9.49643 19.1677C10.6963 19.077 11.9017 19.2235 13.0506 19.5996C13.7158 21.3523 14.8278 22.8767 16.2636 24.0037V24.0037Z" fill="#58F6BC"/>
<path opacity="0.1" d="M16.2636 24.0037L15.8914 24.0757C14.6079 24.4478 13.4358 25.1596 12.4861 26.1436C10.5757 25.751 8.58464 23.7616 7.20144 22.0732C6.5516 21.2858 5.94481 20.4599 5.38403 19.5996C6.7446 19.3625 8.11826 19.2182 9.49643 19.1677C10.6963 19.077 11.9017 19.2235 13.0506 19.5996C13.7158 21.3523 14.8278 22.8767 16.2636 24.0037V24.0037Z" fill="black"/>
<path d="M44.5912 19.5996C44.0315 20.4589 43.4268 21.2848 42.78 22.0732V22.0732C41.3968 23.7616 39.4058 25.751 37.4953 26.1436C36.5517 25.1648 35.3888 24.4535 34.1148 24.0757L33.7427 24.0037C35.1693 22.8732 36.2725 21.3492 36.9309 19.5996C38.0798 19.2235 39.2852 19.077 40.485 19.1677C41.8611 19.2185 43.2327 19.3627 44.5912 19.5996V19.5996Z" fill="#58F6BC"/>
<path opacity="0.1" d="M44.5912 19.5996C44.0315 20.4589 43.4268 21.2848 42.78 22.0732V22.0732C41.3968 23.7616 39.4058 25.751 37.4953 26.1436C36.5517 25.1648 35.3888 24.4535 34.1148 24.0757L33.7427 24.0037C35.1693 22.8732 36.2725 21.3492 36.9309 19.5996C38.0798 19.2235 39.2852 19.077 40.485 19.1677C41.8611 19.2185 43.2327 19.3627 44.5912 19.5996V19.5996Z" fill="black"/>
<path d="M13.1065 19.5997C11.9576 19.2236 10.7522 19.0771 9.55231 19.1678C7.95426 16.7526 7.14834 13.8524 7.25732 10.9092C8.49786 12.9771 10.5571 12.8724 12.6909 14.2401C12.381 16.0341 12.5243 17.8826 13.1065 19.5997V19.5997Z" fill="#58F6BC"/>
<path d="M16.6605 11.3936C16.4342 13.1516 16.4929 14.9374 16.8342 16.6746L16.6605 16.5961C13.4909 15.1368 12.7776 13.5335 12.7776 13.5335C12.7342 13.7691 12.6969 14.0046 12.6597 14.2402C12.2145 12.5716 12.0055 10.8428 12.0395 9.10968C12.0247 7.67871 12.1937 6.25225 12.5419 4.86914C13.535 5.92055 14.6052 6.8877 15.7425 7.76161L16.0092 7.96447C17.0823 8.77593 18.4903 9.5874 19.6936 11.1383C20.6411 12.4241 21.2967 13.9217 21.6102 15.5163C19.9851 14.0897 17.4978 12.6696 16.6605 11.3936Z" fill="#58F6BC"/>
<path opacity="0.4" d="M16.6605 11.3936C16.4342 13.1516 16.4929 14.9374 16.8342 16.6746L16.6605 16.5961C13.4909 15.1368 12.7776 13.5335 12.7776 13.5335C12.7342 13.7691 12.6969 14.0046 12.6597 14.2402C12.2145 12.5716 12.0055 10.8428 12.0395 9.10968C12.0247 7.67871 12.1937 6.25225 12.5419 4.86914C13.535 5.92055 14.6052 6.8877 15.7425 7.76161L16.0092 7.96447C17.0823 8.77593 18.4903 9.5874 19.6936 11.1383C20.6411 12.4241 21.2967 13.9217 21.6102 15.5163C19.9851 14.0897 17.4978 12.6696 16.6605 11.3936Z" fill="white"/>
<path d="M20.1526 7.28353C19.6518 8.49501 19.4821 9.8301 19.6626 11.138C18.4717 9.58705 17.0513 8.77558 15.9782 7.96412L15.7115 7.76125C15.6956 6.29562 16.0215 4.84834 16.6605 3.54688C17.262 4.44041 17.9949 5.22688 18.8315 5.87656C19.327 6.28165 19.771 6.75233 20.1526 7.277V7.28353Z" fill="#58F6BC"/>
<path d="M24.178 4.38472C23.4022 5.56813 22.8582 6.90302 22.5777 8.31115C22.311 7.91851 22.0567 7.56512 21.8768 7.30336C21.4907 6.7434 21.1952 6.11983 21.0022 5.45795C20.6692 6.03932 20.3849 6.65022 20.1525 7.28373C19.7708 6.75906 19.3268 6.2884 18.8313 5.88331C18.8313 3.60598 20.7665 1.61003 21.0022 0.0263672C21.455 1.15849 23.9982 2.73561 24.178 4.38472Z" fill="#58F6BC"/>
<path opacity="0.1" d="M24.178 4.38472C23.4022 5.56813 22.8582 6.90302 22.5777 8.31115C22.311 7.91851 22.0567 7.56512 21.8768 7.30336C21.4907 6.7434 21.1952 6.11983 21.0022 5.45795C20.6692 6.03932 20.3849 6.65022 20.1525 7.28373C19.7708 6.75906 19.3268 6.2884 18.8313 5.88331C18.8313 3.60598 20.7665 1.61003 21.0022 0.0263672C21.455 1.15849 23.9982 2.73561 24.178 4.38472Z" fill="black"/>
<path d="M37.3403 14.2402C37.303 14.0046 37.2658 13.7691 37.2224 13.5335C37.2224 13.5335 36.5091 15.1368 33.3395 16.5961L33.1596 16.6746C33.5049 14.938 33.5657 13.1518 33.3395 11.3936C32.5021 12.6696 30.0024 14.0963 28.4146 15.5229C28.7247 13.9239 29.383 12.4229 30.3374 11.1383C31.5283 9.5874 32.9487 8.77593 34.0218 7.96447L34.2885 7.76161C35.4258 6.8877 36.496 5.92055 37.4891 4.86914C37.8373 6.25225 38.0063 7.67871 37.9915 9.10968C38.0154 10.8444 37.796 12.5733 37.3403 14.2402V14.2402Z" fill="#58F6BC"/>
<path opacity="0.4" d="M37.3403 14.2402C37.303 14.0046 37.2658 13.7691 37.2224 13.5335C37.2224 13.5335 36.5091 15.1368 33.3395 16.5961L33.1596 16.6746C33.5049 14.938 33.5657 13.1518 33.3395 11.3936C32.5021 12.6696 30.0024 14.0963 28.4146 15.5229C28.7247 13.9239 29.383 12.4229 30.3374 11.1383C31.5283 9.5874 32.9487 8.77593 34.0218 7.96447L34.2885 7.76161C35.4258 6.8877 36.496 5.92055 37.4891 4.86914C37.8373 6.25225 38.0063 7.67871 37.9915 9.10968C38.0154 10.8444 37.796 12.5733 37.3403 14.2402V14.2402Z" fill="white"/>
<path d="M42.774 10.9092C42.8829 13.8524 42.077 16.7526 40.479 19.1678C39.2791 19.0771 38.0737 19.2236 36.9248 19.5997C37.5069 17.8826 37.6503 16.0341 37.3404 14.2401C39.4741 12.8593 41.5024 12.9771 42.774 10.9092Z" fill="#58F6BC"/>
<path d="M34.2886 7.76056L34.0218 7.96343C32.9488 8.77489 31.5408 9.58636 30.3374 11.1373C30.5179 9.82941 30.3482 8.49432 29.8474 7.28284V7.28284C30.229 6.75817 30.6731 6.2875 31.1686 5.88242C32.0052 5.23274 32.7381 4.44627 33.3395 3.55273C33.9776 4.85224 34.3035 6.29714 34.2886 7.76056Z" fill="#58F6BC"/>
<path d="M31.1685 5.87656C30.673 6.28164 30.229 6.75233 29.8473 7.27699C29.6114 6.64396 29.3251 6.03316 28.9914 5.4512C28.8016 6.11442 28.5058 6.73855 28.1168 7.29663C27.9369 7.55839 27.6826 7.90522 27.4221 8.29787C27.1447 6.88872 26.6004 5.5532 25.8218 4.37143C25.9955 2.72233 28.5448 1.14521 28.9914 0C29.2333 1.6033 31.1871 3.59922 31.1685 5.87656Z" fill="#58F6BC"/>
<path opacity="0.1" d="M31.1685 5.87656C30.673 6.28164 30.229 6.75233 29.8473 7.27699C29.6114 6.64396 29.3251 6.03316 28.9914 5.4512C28.8016 6.11442 28.5058 6.73855 28.1168 7.29663C27.9369 7.55839 27.6826 7.90522 27.4221 8.29787C27.1447 6.88872 26.6004 5.5532 25.8218 4.37143C25.9955 2.72233 28.5448 1.14521 28.9914 0C29.2333 1.6033 31.1871 3.59922 31.1685 5.87656Z" fill="black"/>
<path d="M30.3373 11.1575C29.383 12.442 28.7247 13.943 28.4145 15.542C28.4145 13.5788 27.2422 12.0802 26.2188 10.5947C26.5221 9.78253 26.9268 9.01666 27.4221 8.31737C27.6826 7.92473 27.9369 7.5779 28.1168 7.31613C28.5058 6.75806 28.8016 6.13393 28.9913 5.4707C29.3251 6.05267 29.6114 6.66346 29.8473 7.2965C30.3493 8.50995 30.519 9.84747 30.3373 11.1575Z" fill="#58F6BC"/>
<path opacity="0.6" d="M30.3373 11.1575C29.383 12.442 28.7247 13.943 28.4145 15.542C28.4145 13.5788 27.2422 12.0802 26.2188 10.5947C26.5221 9.78253 26.9268 9.01666 27.4221 8.31737C27.6826 7.92473 27.9369 7.5779 28.1168 7.31613C28.5058 6.75806 28.8016 6.13393 28.9913 5.4707C29.3251 6.05267 29.6114 6.66346 29.8473 7.2965C30.3493 8.50995 30.519 9.84747 30.3373 11.1575Z" fill="white"/>
<path d="M23.7812 10.5754C22.7578 12.061 21.5669 13.5596 21.5793 15.5162C21.2658 13.9216 20.6101 12.424 19.6626 11.1382C19.4821 9.83036 19.6518 8.49527 20.1526 7.28379V7.28379C20.385 6.65028 20.6694 6.03938 21.0024 5.45801C21.1954 6.11989 21.4909 6.74346 21.877 7.30342C22.0569 7.56518 22.3112 7.91857 22.5779 8.31121C23.0719 9.00664 23.4766 9.76799 23.7812 10.5754V10.5754Z" fill="#58F6BC"/>
<path opacity="0.6" d="M23.7812 10.5754C22.7578 12.061 21.5669 13.5596 21.5793 15.5162C21.2658 13.9216 20.6101 12.424 19.6626 11.1382C19.4821 9.83036 19.6518 8.49527 20.1526 7.28379V7.28379C20.385 6.65028 20.6694 6.03938 21.0024 5.45801C21.1954 6.11989 21.4909 6.74346 21.877 7.30342C22.0569 7.56518 22.3112 7.91857 22.5779 8.31121C23.0719 9.00664 23.4766 9.76799 23.7812 10.5754V10.5754Z" fill="white"/>
<path d="M27.4221 8.29799C26.9268 8.99727 26.5222 9.76312 26.2188 10.5753C25.7138 9.91385 25.2964 9.18295 24.9783 8.4027C24.6605 9.18313 24.2431 9.91409 23.7378 10.5753C23.4336 9.76557 23.0289 9.002 22.5344 8.30454C22.8149 6.89641 23.3589 5.56152 24.1347 4.3781C24.5555 3.74543 24.8354 3.02061 24.9535 2.25781C25.0758 3.02246 25.3575 3.7489 25.7784 4.38463C26.5709 5.55878 27.13 6.88994 27.4221 8.29799V8.29799Z" fill="#58F6BC"/>
<path opacity="0.7" d="M27.4221 8.29799C26.9268 8.99727 26.5222 9.76312 26.2188 10.5753C25.7138 9.91385 25.2964 9.18295 24.9783 8.4027C24.6605 9.18313 24.2431 9.91409 23.7378 10.5753C23.4336 9.76557 23.0289 9.002 22.5344 8.30454C22.8149 6.89641 23.3589 5.56152 24.1347 4.3781C24.5555 3.74543 24.8354 3.02061 24.9535 2.25781C25.0758 3.02246 25.3575 3.7489 25.7784 4.38463C26.5709 5.55878 27.13 6.88994 27.4221 8.29799V8.29799Z" fill="white"/>
<path d="M10.526 28.4735C10.526 28.4735 11.1463 28.7156 12.1945 29.0625C9.31027 29.6253 7.56111 29.141 5.03041 27.5901C2.4997 26.0391 1.56928 25.3913 0 25.1099C0 25.1099 3.80226 21.635 7.22615 22.0734C8.60935 23.7618 10.6004 25.7512 12.5109 26.1438C11.7756 26.8468 11.1105 27.6275 10.526 28.4735Z" fill="#58F6BC"/>
<path opacity="0.4" d="M10.526 28.4735C10.526 28.4735 11.1463 28.7156 12.1945 29.0625C9.31027 29.6253 7.56111 29.141 5.03041 27.5901C2.4997 26.0391 1.56928 25.3913 0 25.1099C0 25.1099 3.80226 21.635 7.22615 22.0734C8.60935 23.7618 10.6004 25.7512 12.5109 26.1438C11.7756 26.8468 11.1105 27.6275 10.526 28.4735Z" fill="black"/>
<path d="M49.9999 25.1099C48.4306 25.3913 47.5188 26.013 44.9695 27.5901C42.4202 29.1672 40.6896 29.6253 37.8054 29.0625C38.8722 28.7157 39.4739 28.4736 39.4739 28.4736C38.8894 27.6275 38.2243 26.8469 37.489 26.1439C39.3994 25.7512 41.3905 23.7618 42.7737 22.0735C46.2038 21.6285 49.9999 25.1099 49.9999 25.1099Z" fill="#58F6BC"/>
<path opacity="0.4" d="M49.9999 25.1099C48.4306 25.3913 47.5188 26.013 44.9695 27.5901C42.4202 29.1672 40.6896 29.6253 37.8054 29.0625C38.8722 28.7157 39.4739 28.4736 39.4739 28.4736C38.8894 27.6275 38.2243 26.8469 37.489 26.1439C39.3994 25.7512 41.3905 23.7618 42.7737 22.0735C46.2038 21.6285 49.9999 25.1099 49.9999 25.1099Z" fill="black"/>
<path d="M23.7813 19.6646C23.4835 19.9918 23.161 20.3517 22.826 20.764C21.6661 18.3165 19.2719 17.7733 16.8342 16.6805C16.493 14.9432 16.4342 13.1574 16.6606 11.3994C17.4979 12.6755 19.9852 14.0956 21.5793 15.5222C21.7282 15.6531 21.8708 15.7905 22.0073 15.9279C22.1437 16.0653 22.2678 16.2028 22.3795 16.3402C22.4911 16.4776 22.5097 16.5103 22.5655 16.5954C22.6213 16.6805 22.7144 16.8113 22.7764 16.9161C22.9582 17.2033 23.1219 17.5028 23.2664 17.8126C23.3533 17.9958 23.4215 18.166 23.4835 18.3296C23.5456 18.4932 23.589 18.6372 23.6262 18.7746C23.7162 19.0624 23.7683 19.3618 23.7813 19.6646Z" fill="#58F6BC"/>
<path opacity="0.7" d="M23.7813 19.6646C23.4835 19.9918 23.161 20.3517 22.826 20.764C21.6661 18.3165 19.2719 17.7733 16.8342 16.6805C16.493 14.9432 16.4342 13.1574 16.6606 11.3994C17.4979 12.6755 19.9852 14.0956 21.5793 15.5222C21.7282 15.6531 21.8708 15.7905 22.0073 15.9279C22.1437 16.0653 22.2678 16.2028 22.3795 16.3402C22.4911 16.4776 22.5097 16.5103 22.5655 16.5954C22.6213 16.6805 22.7144 16.8113 22.7764 16.9161C22.9582 17.2033 23.1219 17.5028 23.2664 17.8126C23.3533 17.9958 23.4215 18.166 23.4835 18.3296C23.5456 18.4932 23.589 18.6372 23.6262 18.7746C23.7162 19.0624 23.7683 19.3618 23.7813 19.6646Z" fill="white"/>
<path d="M28.4146 15.5226C28.0503 15.8398 27.7215 16.1999 27.4346 16.5958C26.7442 17.4655 26.3126 18.5309 26.194 19.6584C25.7249 19.2255 25.3083 18.7332 24.9535 18.1926C24.5994 18.7338 24.1827 19.2262 23.713 19.6584C23.6995 19.3579 23.6473 19.0607 23.5579 18.775C23.5207 18.6376 23.471 18.487 23.4152 18.33C23.3594 18.1729 23.285 17.9962 23.1981 17.813C23.0536 17.5032 22.8899 17.2037 22.7081 16.9165C22.6461 16.8118 22.5717 16.7071 22.4972 16.5958C22.4228 16.4846 22.3732 16.4257 22.3111 16.3406C22.2491 16.2555 22.0754 16.0657 21.939 15.9283C21.8025 15.7909 21.6599 15.6535 21.511 15.5226C21.511 13.5594 22.6895 12.0673 23.713 10.5818C24.2183 9.92059 24.6357 9.18962 24.9535 8.40918C25.2716 9.18943 25.689 9.92036 26.194 10.5818C27.2423 12.0608 28.4332 13.5594 28.4146 15.5226Z" fill="#58F6BC"/>
<path opacity="0.8" d="M28.4146 15.5226C28.0503 15.8398 27.7215 16.1999 27.4346 16.5958C26.7442 17.4655 26.3126 18.5309 26.194 19.6584C25.7249 19.2255 25.3083 18.7332 24.9535 18.1926C24.5994 18.7338 24.1827 19.2262 23.713 19.6584C23.6995 19.3579 23.6473 19.0607 23.5579 18.775C23.5207 18.6376 23.471 18.487 23.4152 18.33C23.3594 18.1729 23.285 17.9962 23.1981 17.813C23.0536 17.5032 22.8899 17.2037 22.7081 16.9165C22.6461 16.8118 22.5717 16.7071 22.4972 16.5958C22.4228 16.4846 22.3732 16.4257 22.3111 16.3406C22.2491 16.2555 22.0754 16.0657 21.939 15.9283C21.8025 15.7909 21.6599 15.6535 21.511 15.5226C21.511 13.5594 22.6895 12.0673 23.713 10.5818C24.2183 9.92059 24.6357 9.18962 24.9535 8.40918C25.2716 9.18943 25.689 9.92036 26.194 10.5818C27.2423 12.0608 28.4332 13.5594 28.4146 15.5226Z" fill="white"/>
<path d="M33.1596 16.6736C30.7281 17.7665 28.3339 18.3097 27.1802 20.7571C26.8452 20.3449 26.5165 19.9849 26.2188 19.6577C26.3373 18.5302 26.7689 17.4648 27.4593 16.5951C27.7462 16.1992 28.075 15.8391 28.4393 15.5219C30.0272 14.0953 32.5269 12.6687 33.3643 11.3926C33.5823 13.1523 33.5131 14.9385 33.1596 16.6736V16.6736Z" fill="#58F6BC"/>
<path opacity="0.7" d="M33.1596 16.6736C30.7281 17.7665 28.3339 18.3097 27.1802 20.7571C26.8452 20.3449 26.5165 19.9849 26.2188 19.6577C26.3373 18.5302 26.7689 17.4648 27.4593 16.5951C27.7462 16.1992 28.075 15.8391 28.4393 15.5219C30.0272 14.0953 32.5269 12.6687 33.3643 11.3926C33.5823 13.1523 33.5131 14.9385 33.1596 16.6736V16.6736Z" fill="white"/>
<path d="M29.3575 19.8481C29.3575 21.9618 27.6083 22.3021 25.2017 22.3021C22.795 22.3021 20.6365 21.9618 20.6365 19.8481C20.6365 17.7344 22.5903 16.0264 24.9784 16.0264C27.3664 16.0264 29.3575 17.7344 29.3575 19.8481Z" fill="white"/>
<path d="M22.7948 27.8523C22.1684 28.8614 21.2373 29.6178 20.1524 29.9987V29.9987C18.7445 30.4719 17.2374 30.5082 15.8105 30.1034C14.3219 29.7304 13.0876 29.3509 12.182 29.0564C11.1151 28.7095 10.5134 28.4674 10.5134 28.4674C11.0979 27.6214 11.763 26.8407 12.4983 26.1377C13.441 25.1575 14.6042 24.446 15.8788 24.0698L16.2509 23.9978C17.8378 23.6801 19.4753 23.795 21.0084 24.3316C20.9484 25.0383 21.0855 25.7481 21.4029 26.3736C21.7203 26.9991 22.2041 27.5131 22.7948 27.8523Z" fill="#58F6BC"/>
<path opacity="0.15" d="M22.7948 27.8523C22.1684 28.8614 21.2373 29.6178 20.1524 29.9987V29.9987C18.7445 30.4719 17.2374 30.5082 15.8105 30.1034C14.3219 29.7304 13.0876 29.3509 12.182 29.0564C11.1151 28.7095 10.5134 28.4674 10.5134 28.4674C11.0979 27.6214 11.763 26.8407 12.4983 26.1377C13.441 25.1575 14.6042 24.446 15.8788 24.0698L16.2509 23.9978C17.8378 23.6801 19.4753 23.795 21.0084 24.3316C20.9484 25.0383 21.0855 25.7481 21.4029 26.3736C21.7203 26.9991 22.2041 27.5131 22.7948 27.8523Z" fill="black"/>
<path d="M39.4742 28.4731C39.4742 28.4731 38.854 28.7153 37.8057 29.0621C36.9001 29.3631 35.6658 29.7165 34.1771 30.1091C32.7502 30.5139 31.2431 30.4776 29.8352 30.0044C28.7504 29.6235 27.8193 28.8671 27.1929 27.858C27.7786 27.5159 28.2574 27.0017 28.5713 26.3778C28.8851 25.7539 29.0204 25.0473 28.9606 24.3438C30.496 23.8078 32.1353 23.693 33.7243 24.0101L34.0965 24.0821C35.3705 24.4598 36.5333 25.1712 37.477 26.15C38.2163 26.8503 38.8855 27.6287 39.4742 28.4731V28.4731Z" fill="#58F6BC"/>
<path opacity="0.15" d="M39.4742 28.4731C39.4742 28.4731 38.854 28.7153 37.8057 29.0621C36.9001 29.3631 35.6658 29.7165 34.1771 30.1091C32.7502 30.5139 31.2431 30.4776 29.8352 30.0044C28.7504 29.6235 27.8193 28.8671 27.1929 27.858C27.7786 27.5159 28.2574 27.0017 28.5713 26.3778C28.8851 25.7539 29.0204 25.0473 28.9606 24.3438C30.496 23.8078 32.1353 23.693 33.7243 24.0101L34.0965 24.0821C35.3705 24.4598 36.5333 25.1712 37.477 26.15C38.2163 26.8503 38.8855 27.6287 39.4742 28.4731V28.4731Z" fill="black"/>
<path d="M27.2052 27.8514C26.5344 28.2585 25.7741 28.4728 25.0002 28.4728C24.2263 28.4728 23.4659 28.2585 22.7951 27.8514C22.2077 27.5109 21.7272 26.9972 21.4121 26.3731C21.0971 25.749 20.9612 25.0415 21.0211 24.3373C21.0664 23.9385 21.1711 23.5498 21.3313 23.1855C21.7217 22.3077 22.2247 21.4908 22.8261 20.7577C23.1549 20.3454 23.4836 19.9854 23.7813 19.6582C24.2511 19.226 24.6678 18.7336 25.0219 18.1924C25.3767 18.733 25.7933 19.2253 26.2624 19.6582C26.5602 19.9854 26.8827 20.3454 27.2239 20.7577C27.8211 21.4928 28.3218 22.3094 28.7125 23.1855C29.0822 24.0129 29.1364 24.9586 28.864 25.827C28.5915 26.6954 28.0132 27.4201 27.2487 27.8514H27.2052Z" fill="#58F6BC"/>
<path d="M22.826 20.7579C22.2246 21.491 21.7216 22.3079 21.3311 23.1857C21.1709 23.55 21.0663 23.9387 21.021 24.3375C19.4879 23.8009 17.8504 23.686 16.2635 24.0037C14.8483 22.8688 13.7561 21.3452 13.1063 19.5995C12.5242 17.8825 12.3809 16.034 12.6907 14.24C12.728 14.0044 12.7652 13.7688 12.8086 13.5332C12.8086 13.5332 13.5219 15.1365 16.6915 16.5958L16.8652 16.6743C19.2718 17.7672 21.6661 18.3104 22.826 20.7579Z" fill="#58F6BC"/>
<path opacity="0.6" d="M22.826 20.7579C22.2246 21.491 21.7216 22.3079 21.3311 23.1857C21.1709 23.55 21.0663 23.9387 21.021 24.3375C19.4879 23.8009 17.8504 23.686 16.2635 24.0037C14.8483 22.8688 13.7561 21.3452 13.1063 19.5995C12.5242 17.8825 12.3809 16.034 12.6907 14.24C12.728 14.0044 12.7652 13.7688 12.8086 13.5332C12.8086 13.5332 13.5219 15.1365 16.6915 16.5958L16.8652 16.6743C19.2718 17.7672 21.6661 18.3104 22.826 20.7579Z" fill="white"/>
<path d="M36.9249 19.5995C36.2665 21.3491 35.1633 22.8731 33.7367 24.0037C32.1477 23.6866 30.5083 23.8015 28.973 24.3375C28.9329 23.9384 28.8302 23.5492 28.6691 23.1857C28.2784 22.3096 27.7777 21.493 27.1804 20.7579C28.3341 18.3104 30.7284 17.7672 33.1598 16.6743L33.3397 16.5958C36.5093 15.1365 37.2226 13.5332 37.2226 13.5332C37.266 13.7688 37.3032 14.0044 37.3405 14.24C37.6503 16.034 37.507 17.8825 36.9249 19.5995V19.5995Z" fill="#58F6BC"/>
<path opacity="0.6" d="M36.9249 19.5995C36.2665 21.3491 35.1633 22.8731 33.7367 24.0037C32.1477 23.6866 30.5083 23.8015 28.973 24.3375C28.9329 23.9384 28.8302 23.5492 28.6691 23.1857C28.2784 22.3096 27.7777 21.493 27.1804 20.7579C28.3341 18.3104 30.7284 17.7672 33.1598 16.6743L33.3397 16.5958C36.5093 15.1365 37.2226 13.5332 37.2226 13.5332C37.266 13.7688 37.3032 14.0044 37.3405 14.24C37.6503 16.034 37.507 17.8825 36.9249 19.5995V19.5995Z" fill="white"/>
<path d="M29.8535 29.998C29.5806 33.5318 25.1209 36.1887 25.003 37.0001C24.8914 36.1887 20.4316 33.5318 20.1587 29.998C21.2435 29.6171 22.1747 28.8607 22.8011 27.8516C23.4719 28.2587 24.2322 28.4729 25.0061 28.4729C25.78 28.4729 26.5403 28.2587 27.2112 27.8516C27.8376 28.8607 28.7687 29.6171 29.8535 29.998Z" fill="#58F6BC"/>
<path opacity="0.4" d="M29.8535 29.998C29.5806 33.5318 25.1209 36.1887 25.003 37.0001C24.8914 36.1887 20.4316 33.5318 20.1587 29.998C21.2435 29.6171 22.1747 28.8607 22.8011 27.8516C23.4719 28.2587 24.2322 28.4729 25.0061 28.4729C25.78 28.4729 26.5403 28.2587 27.2112 27.8516C27.8376 28.8607 28.7687 29.6171 29.8535 29.998Z" fill="black"/>
<path d="M50.092 23.091C49.4593 23.091 48.8873 22.9827 48.376 22.766C47.8733 22.5493 47.4747 22.2373 47.18 21.83C46.8853 21.4227 46.7337 20.9417 46.725 20.387H48.675C48.701 20.7597 48.831 21.0543 49.065 21.271C49.3077 21.4877 49.637 21.596 50.053 21.596C50.4777 21.596 50.8113 21.4963 51.054 21.297C51.2967 21.089 51.418 20.8203 51.418 20.491C51.418 20.2223 51.3357 20.0013 51.171 19.828C51.0063 19.6547 50.7983 19.5203 50.547 19.425C50.3043 19.321 49.9663 19.2083 49.533 19.087C48.9437 18.9137 48.4627 18.7447 48.09 18.58C47.726 18.4067 47.4097 18.151 47.141 17.813C46.881 17.4663 46.751 17.007 46.751 16.435C46.751 15.8977 46.8853 15.4297 47.154 15.031C47.4227 14.6323 47.7997 14.329 48.285 14.121C48.7703 13.9043 49.325 13.796 49.949 13.796C50.885 13.796 51.6433 14.0257 52.224 14.485C52.8133 14.9357 53.1383 15.5683 53.199 16.383H51.197C51.1797 16.071 51.0453 15.8153 50.794 15.616C50.5513 15.408 50.2263 15.304 49.819 15.304C49.4637 15.304 49.1777 15.395 48.961 15.577C48.753 15.759 48.649 16.0233 48.649 16.37C48.649 16.6127 48.727 16.8163 48.883 16.981C49.0477 17.137 49.247 17.267 49.481 17.371C49.7237 17.4663 50.0617 17.579 50.495 17.709C51.0843 17.8823 51.5653 18.0557 51.938 18.229C52.3107 18.4023 52.6313 18.6623 52.9 19.009C53.1687 19.3557 53.303 19.8107 53.303 20.374C53.303 20.8593 53.1773 21.31 52.926 21.726C52.6747 22.142 52.3063 22.4757 51.821 22.727C51.3357 22.9697 50.7593 23.091 50.092 23.091ZM57.7939 17.38C58.2139 17.38 58.5872 17.4733 58.9139 17.66C59.2406 17.84 59.4939 18.11 59.6739 18.47C59.8606 18.8233 59.9539 19.25 59.9539 19.75V23H58.5539V19.94C58.5539 19.5 58.4439 19.1633 58.2239 18.93C58.0039 18.69 57.7039 18.57 57.3239 18.57C56.9372 18.57 56.6306 18.69 56.4039 18.93C56.1839 19.1633 56.0739 19.5 56.0739 19.94V23H54.6739V15.6H56.0739V18.15C56.2539 17.91 56.4939 17.7233 56.7939 17.59C57.0939 17.45 57.4272 17.38 57.7939 17.38ZM60.9252 20.21C60.9252 19.65 61.0352 19.1533 61.2552 18.72C61.4819 18.2867 61.7852 17.9533 62.1652 17.72C62.5519 17.4867 62.9819 17.37 63.4552 17.37C63.8685 17.37 64.2285 17.4533 64.5352 17.62C64.8485 17.7867 65.0985 17.9967 65.2852 18.25V17.46H66.6952V23H65.2852V22.19C65.1052 22.45 64.8552 22.6667 64.5352 22.84C64.2219 23.0067 63.8585 23.09 63.4452 23.09C62.9785 23.09 62.5519 22.97 62.1652 22.73C61.7852 22.49 61.4819 22.1533 61.2552 21.72C61.0352 21.28 60.9252 20.7767 60.9252 20.21ZM65.2852 20.23C65.2852 19.89 65.2185 19.6 65.0852 19.36C64.9519 19.1133 64.7719 18.9267 64.5452 18.8C64.3185 18.6667 64.0752 18.6 63.8152 18.6C63.5552 18.6 63.3152 18.6633 63.0952 18.79C62.8752 18.9167 62.6952 19.1033 62.5552 19.35C62.4219 19.59 62.3552 19.8767 62.3552 20.21C62.3552 20.5433 62.4219 20.8367 62.5552 21.09C62.6952 21.3367 62.8752 21.5267 63.0952 21.66C63.3219 21.7933 63.5619 21.86 63.8152 21.86C64.0752 21.86 64.3185 21.7967 64.5452 21.67C64.7719 21.5367 64.9519 21.35 65.0852 21.11C65.2185 20.8633 65.2852 20.57 65.2852 20.23ZM71.1326 17.38C71.7926 17.38 72.3259 17.59 72.7326 18.01C73.1392 18.4233 73.3426 19.0033 73.3426 19.75V23H71.9426V19.94C71.9426 19.5 71.8326 19.1633 71.6126 18.93C71.3926 18.69 71.0926 18.57 70.7126 18.57C70.3259 18.57 70.0192 18.69 69.7926 18.93C69.5726 19.1633 69.4626 19.5 69.4626 19.94V23H68.0626V17.46H69.4626V18.15C69.6492 17.91 69.8859 17.7233 70.1726 17.59C70.4659 17.45 70.7859 17.38 71.1326 17.38ZM76.3039 18.61V21.29C76.3039 21.4767 76.3472 21.6133 76.4339 21.7C76.5272 21.78 76.6806 21.82 76.8939 21.82H77.5439V23H76.6639C75.4839 23 74.8939 22.4267 74.8939 21.28V18.61H74.2339V17.46H74.8939V16.09H76.3039V17.46H77.5439V18.61H76.3039ZM79.2608 16.8C79.0142 16.8 78.8075 16.7233 78.6408 16.57C78.4808 16.41 78.4008 16.2133 78.4008 15.98C78.4008 15.7467 78.4808 15.5533 78.6408 15.4C78.8075 15.24 79.0142 15.16 79.2608 15.16C79.5075 15.16 79.7108 15.24 79.8708 15.4C80.0375 15.5533 80.1208 15.7467 80.1208 15.98C80.1208 16.2133 80.0375 16.41 79.8708 16.57C79.7108 16.7233 79.5075 16.8 79.2608 16.8ZM79.9508 17.46V23H78.5508V17.46H79.9508ZM91.8537 13.926L88.7857 19.841V23H86.9657V19.841L83.8847 13.926H85.9387L87.8887 18.073L89.8257 13.926H91.8537ZM95.1563 23.09C94.623 23.09 94.143 22.9733 93.7163 22.74C93.2897 22.5 92.953 22.1633 92.7063 21.73C92.4663 21.2967 92.3463 20.7967 92.3463 20.23C92.3463 19.6633 92.4697 19.1633 92.7163 18.73C92.9697 18.2967 93.313 17.9633 93.7463 17.73C94.1797 17.49 94.663 17.37 95.1963 17.37C95.7297 17.37 96.213 17.49 96.6463 17.73C97.0797 17.9633 97.4197 18.2967 97.6663 18.73C97.9197 19.1633 98.0463 19.6633 98.0463 20.23C98.0463 20.7967 97.9163 21.2967 97.6563 21.73C97.403 22.1633 97.0563 22.5 96.6163 22.74C96.183 22.9733 95.6963 23.09 95.1563 23.09ZM95.1563 21.87C95.4097 21.87 95.6463 21.81 95.8663 21.69C96.093 21.5633 96.273 21.3767 96.4063 21.13C96.5397 20.8833 96.6063 20.5833 96.6063 20.23C96.6063 19.7033 96.4663 19.3 96.1863 19.02C95.913 18.7333 95.5763 18.59 95.1763 18.59C94.7763 18.59 94.4397 18.7333 94.1663 19.02C93.8997 19.3 93.7663 19.7033 93.7663 20.23C93.7663 20.7567 93.8963 21.1633 94.1563 21.45C94.423 21.73 94.7563 21.87 95.1563 21.87ZM101.243 17.37C101.657 17.37 102.02 17.4533 102.333 17.62C102.647 17.78 102.893 17.99 103.073 18.25V17.46H104.483V23.04C104.483 23.5533 104.38 24.01 104.173 24.41C103.967 24.8167 103.657 25.1367 103.243 25.37C102.83 25.61 102.33 25.73 101.743 25.73C100.957 25.73 100.31 25.5467 99.8033 25.18C99.3033 24.8133 99.02 24.3133 98.9533 23.68H100.343C100.417 23.9333 100.573 24.1333 100.813 24.28C101.06 24.4333 101.357 24.51 101.703 24.51C102.11 24.51 102.44 24.3867 102.693 24.14C102.947 23.9 103.073 23.5333 103.073 23.04V22.18C102.893 22.44 102.643 22.6567 102.323 22.83C102.01 23.0033 101.65 23.09 101.243 23.09C100.777 23.09 100.35 22.97 99.9633 22.73C99.5766 22.49 99.27 22.1533 99.0433 21.72C98.8233 21.28 98.7133 20.7767 98.7133 20.21C98.7133 19.65 98.8233 19.1533 99.0433 18.72C99.27 18.2867 99.5733 17.9533 99.9533 17.72C100.34 17.4867 100.77 17.37 101.243 17.37ZM103.073 20.23C103.073 19.89 103.007 19.6 102.873 19.36C102.74 19.1133 102.56 18.9267 102.333 18.8C102.107 18.6667 101.863 18.6 101.603 18.6C101.343 18.6 101.103 18.6633 100.883 18.79C100.663 18.9167 100.483 19.1033 100.343 19.35C100.21 19.59 100.143 19.8767 100.143 20.21C100.143 20.5433 100.21 20.8367 100.343 21.09C100.483 21.3367 100.663 21.5267 100.883 21.66C101.11 21.7933 101.35 21.86 101.603 21.86C101.863 21.86 102.107 21.7967 102.333 21.67C102.56 21.5367 102.74 21.35 102.873 21.11C103.007 20.8633 103.073 20.57 103.073 20.23ZM105.491 20.21C105.491 19.65 105.601 19.1533 105.821 18.72C106.047 18.2867 106.351 17.9533 106.731 17.72C107.117 17.4867 107.547 17.37 108.021 17.37C108.434 17.37 108.794 17.4533 109.101 17.62C109.414 17.7867 109.664 17.9967 109.851 18.25V17.46H111.261V23H109.851V22.19C109.671 22.45 109.421 22.6667 109.101 22.84C108.787 23.0067 108.424 23.09 108.011 23.09C107.544 23.09 107.117 22.97 106.731 22.73C106.351 22.49 106.047 22.1533 105.821 21.72C105.601 21.28 105.491 20.7767 105.491 20.21ZM109.851 20.23C109.851 19.89 109.784 19.6 109.651 19.36C109.517 19.1133 109.337 18.9267 109.111 18.8C108.884 18.6667 108.641 18.6 108.381 18.6C108.121 18.6 107.881 18.6633 107.661 18.79C107.441 18.9167 107.261 19.1033 107.121 19.35C106.987 19.59 106.921 19.8767 106.921 20.21C106.921 20.5433 106.987 20.8367 107.121 21.09C107.261 21.3367 107.441 21.5267 107.661 21.66C107.887 21.7933 108.127 21.86 108.381 21.86C108.641 21.86 108.884 21.7967 109.111 21.67C109.337 21.5367 109.517 21.35 109.651 21.11C109.784 20.8633 109.851 20.57 109.851 20.23Z" fill="#58F6BC"/>
</svg>
