<svg width="89" height="65" viewBox="0 0 89 65" fill="none" xmlns="http://www.w3.org/2000/svg">
<g filter="url(#filter0_d_202_1277)">
<path d="M30.2199 36.6798L29.6199 36.7898C27.5507 37.3584 25.661 38.4462 24.1299 39.9498C21.0499 39.3498 17.84 36.3098 15.61 33.7298C14.5623 32.5265 13.584 31.2644 12.6799 29.9498C14.8734 29.5875 17.088 29.367 19.3099 29.2898C21.2444 29.1513 23.1877 29.3751 25.0399 29.9498C26.1124 32.6282 27.9052 34.9576 30.2199 36.6798V36.6798Z" fill="#58F6BC"/>
<path opacity="0.1" d="M30.2199 36.6798L29.6199 36.7898C27.5507 37.3584 25.661 38.4462 24.1299 39.9498C21.0499 39.3498 17.84 36.3098 15.61 33.7298C14.5623 32.5265 13.584 31.2644 12.6799 29.9498C14.8734 29.5875 17.088 29.367 19.3099 29.2898C21.2444 29.1513 23.1877 29.3751 25.0399 29.9498C26.1124 32.6282 27.9052 34.9576 30.2199 36.6798V36.6798Z" fill="black"/>
<path d="M75.8899 29.9498C74.9875 31.263 74.0127 32.525 72.9699 33.7298V33.7298C70.7399 36.3098 67.5299 39.3498 64.4499 39.9498C62.9285 38.4541 61.0538 37.3671 58.9999 36.7898L58.3999 36.6798C60.6999 34.9522 62.4785 32.6234 63.5399 29.9498C65.3922 29.3751 67.3355 29.1513 69.2699 29.2898C71.4885 29.3675 73.6997 29.5879 75.8899 29.9498V29.9498Z" fill="#58F6BC"/>
<path opacity="0.1" d="M75.8899 29.9498C74.9875 31.263 74.0127 32.525 72.9699 33.7298V33.7298C70.7399 36.3098 67.5299 39.3498 64.4499 39.9498C62.9285 38.4541 61.0538 37.3671 58.9999 36.7898L58.3999 36.6798C60.6999 34.9522 62.4785 32.6234 63.5399 29.9498C65.3922 29.3751 67.3355 29.1513 69.2699 29.2898C71.4885 29.3675 73.6997 29.5879 75.8899 29.9498V29.9498Z" fill="black"/>
<path d="M25.1301 29.9499C23.2778 29.3752 21.3345 29.1514 19.4 29.2899C16.8237 25.5992 15.5244 21.1675 15.7001 16.6699C17.7001 19.8299 21.02 19.6699 24.46 21.7599C23.9605 24.5014 24.1916 27.3261 25.1301 29.9499V29.9499Z" fill="#58F6BC"/>
<path d="M30.8601 17.4104C30.4952 20.0968 30.5899 22.8257 31.1401 25.4804L30.8601 25.3604C25.7501 23.1304 24.6 20.6804 24.6 20.6804C24.53 21.0404 24.47 21.4004 24.41 21.7604C23.6922 19.2106 23.3553 16.5687 23.41 13.9204C23.3863 11.7337 23.6587 9.55396 24.22 7.44043C25.8212 9.0471 27.5465 10.525 29.38 11.8604L29.81 12.1704C31.54 13.4104 33.81 14.6504 35.75 17.0204C37.2775 18.9851 38.3346 21.2737 38.84 23.7104C36.22 21.5304 32.2101 19.3604 30.8601 17.4104Z" fill="#58F6BC"/>
<path opacity="0.4" d="M30.8601 17.4104C30.4952 20.0968 30.5899 22.8257 31.1401 25.4804L30.8601 25.3604C25.7501 23.1304 24.6 20.6804 24.6 20.6804C24.53 21.0404 24.47 21.4004 24.41 21.7604C23.6922 19.2106 23.3553 16.5687 23.41 13.9204C23.3863 11.7337 23.6587 9.55396 24.22 7.44043C25.8212 9.0471 27.5465 10.525 29.38 11.8604L29.81 12.1704C31.54 13.4104 33.81 14.6504 35.75 17.0204C37.2775 18.9851 38.3346 21.2737 38.84 23.7104C36.22 21.5304 32.2101 19.3604 30.8601 17.4104Z" fill="white"/>
<path d="M36.49 11.1299C35.6826 12.9812 35.409 15.0213 35.7 17.0199C33.78 14.6499 31.49 13.4099 29.76 12.1699L29.33 11.8599C29.3043 9.62029 29.8297 7.40869 30.86 5.41992C31.8297 6.78534 33.0113 7.98714 34.36 8.97992C35.1589 9.59893 35.8747 10.3182 36.49 11.1199V11.1299Z" fill="#58F6BC"/>
<path d="M42.9801 6.70004C41.7294 8.50842 40.8522 10.5483 40.4001 12.7C39.9701 12.1 39.5601 11.56 39.2701 11.16C38.6476 10.3044 38.1711 9.35148 37.8601 8.34006C37.3232 9.22845 36.8648 10.162 36.4901 11.13C35.8748 10.3283 35.159 9.60906 34.3601 8.99005C34.3601 5.51005 37.4801 2.46004 37.8601 0.0400391C38.5901 1.77004 42.6901 4.18004 42.9801 6.70004Z" fill="#58F6BC"/>
<path opacity="0.1" d="M42.9801 6.70004C41.7294 8.50842 40.8522 10.5483 40.4001 12.7C39.9701 12.1 39.5601 11.56 39.2701 11.16C38.6476 10.3044 38.1711 9.35148 37.8601 8.34006C37.3232 9.22845 36.8648 10.162 36.4901 11.13C35.8748 10.3283 35.159 9.60906 34.3601 8.99005C34.3601 5.51005 37.4801 2.46004 37.8601 0.0400391C38.5901 1.77004 42.6901 4.18004 42.9801 6.70004Z" fill="black"/>
<path d="M64.2001 21.7604C64.1401 21.4004 64.0801 21.0404 64.0101 20.6804C64.0101 20.6804 62.8601 23.1304 57.7501 25.3604L57.4601 25.4804C58.0167 22.8267 58.1148 20.0972 57.7501 17.4104C56.4001 19.3604 52.3701 21.5404 49.8101 23.7204C50.3102 21.277 51.3714 18.9833 52.9101 17.0204C54.8301 14.6504 57.1201 13.4104 58.8501 12.1704L59.2801 11.8604C61.1136 10.525 62.8389 9.0471 64.4401 7.44043C65.0014 9.55396 65.2738 11.7337 65.2501 13.9204C65.2886 16.5712 64.9348 19.2132 64.2001 21.7604V21.7604Z" fill="#58F6BC"/>
<path opacity="0.4" d="M64.2001 21.7604C64.1401 21.4004 64.0801 21.0404 64.0101 20.6804C64.0101 20.6804 62.8601 23.1304 57.7501 25.3604L57.4601 25.4804C58.0167 22.8267 58.1148 20.0972 57.7501 17.4104C56.4001 19.3604 52.3701 21.5404 49.8101 23.7204C50.3102 21.277 51.3714 18.9833 52.9101 17.0204C54.8301 14.6504 57.1201 13.4104 58.8501 12.1704L59.2801 11.8604C61.1136 10.525 62.8389 9.0471 64.4401 7.44043C65.0014 9.55396 65.2738 11.7337 65.2501 13.9204C65.2886 16.5712 64.9348 19.2132 64.2001 21.7604V21.7604Z" fill="white"/>
<path d="M72.96 16.6699C73.1357 21.1675 71.8364 25.5992 69.26 29.2899C67.3256 29.1514 65.3823 29.3752 63.53 29.9499C64.4685 27.3261 64.6996 24.5014 64.2 21.7599C67.64 19.6499 70.91 19.8299 72.96 16.6699Z" fill="#58F6BC"/>
<path d="M59.2801 11.8597L58.8501 12.1697C57.1201 13.4097 54.8501 14.6497 52.9101 17.0197C53.2012 15.0211 52.9275 12.9809 52.1201 11.1297V11.1297C52.7354 10.3279 53.4513 9.6087 54.2501 8.98969C55.5989 7.9969 56.7804 6.79511 57.7501 5.42969C58.7788 7.41546 59.3042 9.62342 59.2801 11.8597Z" fill="#58F6BC"/>
<path d="M54.2499 8.97998C53.451 9.59899 52.7351 10.3182 52.1199 11.12C51.7396 10.1526 51.2779 9.21929 50.7399 8.32999C50.434 9.34346 49.9571 10.2972 49.3299 11.15C49.0399 11.55 48.6299 12.08 48.2099 12.68C47.7627 10.5267 46.8851 8.48585 45.6299 6.67999C45.9099 4.15999 50.0199 1.75 50.7399 0C51.1299 2.45 54.2799 5.49998 54.2499 8.97998Z" fill="#58F6BC"/>
<path opacity="0.1" d="M54.2499 8.97998C53.451 9.59899 52.7351 10.3182 52.1199 11.12C51.7396 10.1526 51.2779 9.21929 50.7399 8.32999C50.434 9.34346 49.9571 10.2972 49.3299 11.15C49.0399 11.55 48.6299 12.08 48.2099 12.68C47.7627 10.5267 46.8851 8.48585 45.6299 6.67999C45.9099 4.15999 50.0199 1.75 50.7399 0C51.1299 2.45 54.2799 5.49998 54.2499 8.97998Z" fill="black"/>
<path d="M52.91 17.0504C51.3714 19.0132 50.3101 21.307 49.81 23.7504C49.81 20.7504 47.92 18.4604 46.27 16.1904C46.7591 14.9493 47.4115 13.7789 48.21 12.7104C48.63 12.1104 49.04 11.5804 49.33 11.1804C49.9573 10.3276 50.4341 9.37382 50.74 8.36035C51.2781 9.24966 51.7397 10.183 52.12 11.1504C52.9293 13.0046 53.2029 15.0485 52.91 17.0504Z" fill="#58F6BC"/>
<path opacity="0.6" d="M52.91 17.0504C51.3714 19.0132 50.3101 21.307 49.81 23.7504C49.81 20.7504 47.92 18.4604 46.27 16.1904C46.7591 14.9493 47.4115 13.7789 48.21 12.7104C48.63 12.1104 49.04 11.5804 49.33 11.1804C49.9573 10.3276 50.4341 9.37382 50.74 8.36035C51.2781 9.24966 51.7397 10.183 52.12 11.1504C52.9293 13.0046 53.2029 15.0485 52.91 17.0504Z" fill="white"/>
<path d="M42.3399 16.1598C40.6899 18.4298 38.7699 20.7198 38.7899 23.7098C38.2845 21.2731 37.2274 18.9845 35.6999 17.0198C35.4089 15.0212 35.6825 12.9811 36.4899 11.1298V11.1298C36.8646 10.1618 37.323 9.22824 37.86 8.33984C38.171 9.35126 38.6474 10.3041 39.27 11.1598C39.56 11.5598 39.9699 12.0998 40.3999 12.6998C41.1964 13.7625 41.8488 14.9259 42.3399 16.1598V16.1598Z" fill="#58F6BC"/>
<path opacity="0.6" d="M42.3399 16.1598C40.6899 18.4298 38.7699 20.7198 38.7899 23.7098C38.2845 21.2731 37.2274 18.9845 35.6999 17.0198C35.4089 15.0212 35.6825 12.9811 36.4899 11.1298V11.1298C36.8646 10.1618 37.323 9.22824 37.86 8.33984C38.171 9.35126 38.6474 10.3041 39.27 11.1598C39.56 11.5598 39.9699 12.0998 40.3999 12.6998C41.1964 13.7625 41.8488 14.9259 42.3399 16.1598V16.1598Z" fill="white"/>
<path d="M48.2101 12.6802C47.4115 13.7488 46.7591 14.9191 46.2701 16.1602C45.4558 15.1494 44.783 14.0325 44.2701 12.8402C43.7577 14.0328 43.0848 15.1498 42.2701 16.1602C41.7797 14.9228 41.1273 13.756 40.3301 12.6902C40.7822 10.5385 41.6593 8.49859 42.9101 6.69022C43.5885 5.72343 44.0397 4.61584 44.2301 3.4502C44.4272 4.61866 44.8815 5.72873 45.5601 6.7002C46.8376 8.49441 47.7391 10.5286 48.2101 12.6802V12.6802Z" fill="#58F6BC"/>
<path opacity="0.7" d="M48.2101 12.6802C47.4115 13.7488 46.7591 14.9191 46.2701 16.1602C45.4558 15.1494 44.783 14.0325 44.2701 12.8402C43.7577 14.0328 43.0848 15.1498 42.2701 16.1602C41.7797 14.9228 41.1273 13.756 40.3301 12.6902C40.7822 10.5385 41.6593 8.49859 42.9101 6.69022C43.5885 5.72343 44.0397 4.61584 44.2301 3.4502C44.4272 4.61866 44.8815 5.72873 45.5601 6.7002C46.8376 8.49441 47.7391 10.5286 48.2101 12.6802V12.6802Z" fill="white"/>
<path d="M20.97 43.5103C20.97 43.5103 21.97 43.8803 23.66 44.4103C19.01 45.2703 16.19 44.5303 12.11 42.1603C8.03002 39.7903 6.53 38.8004 4 38.3704C4 38.3704 10.13 33.0603 15.65 33.7303C17.88 36.3103 21.09 39.3503 24.17 39.9503C22.9846 41.0246 21.9123 42.2175 20.97 43.5103Z" fill="#58F6BC"/>
<path opacity="0.4" d="M20.97 43.5103C20.97 43.5103 21.97 43.8803 23.66 44.4103C19.01 45.2703 16.19 44.5303 12.11 42.1603C8.03002 39.7903 6.53 38.8004 4 38.3704C4 38.3704 10.13 33.0603 15.65 33.7303C17.88 36.3103 21.09 39.3503 24.17 39.9503C22.9846 41.0246 21.9123 42.2175 20.97 43.5103Z" fill="black"/>
<path d="M84.61 38.37C82.08 38.8 80.6099 39.75 76.4999 42.16C72.3899 44.57 69.6 45.27 64.95 44.41C66.67 43.88 67.64 43.51 67.64 43.51C66.6977 42.2171 65.6254 41.0242 64.4399 39.95C67.5199 39.35 70.7299 36.31 72.9599 33.73C78.4899 33.05 84.61 38.37 84.61 38.37Z" fill="#58F6BC"/>
<path opacity="0.4" d="M84.61 38.37C82.08 38.8 80.6099 39.75 76.4999 42.16C72.3899 44.57 69.6 45.27 64.95 44.41C66.67 43.88 67.64 43.51 67.64 43.51C66.6977 42.2171 65.6254 41.0242 64.4399 39.95C67.5199 39.35 70.7299 36.31 72.9599 33.73C78.4899 33.05 84.61 38.37 84.61 38.37Z" fill="black"/>
<path d="M42.3401 30.0499C41.8601 30.5499 41.3401 31.0999 40.8001 31.7299C38.9301 27.9899 35.0701 27.1599 31.1401 25.4899C30.5899 22.8353 30.4952 20.1063 30.8601 17.4199C32.2101 19.3699 36.2201 21.5399 38.7901 23.7199C39.0301 23.9199 39.2601 24.1299 39.4801 24.3399C39.7001 24.5499 39.9001 24.7599 40.0801 24.9699C40.2601 25.1799 40.2901 25.2299 40.3801 25.3599C40.4701 25.4899 40.6201 25.6899 40.7201 25.8499C41.0131 26.2888 41.277 26.7465 41.5101 27.2199C41.6501 27.4999 41.7601 27.7599 41.8601 28.0099C41.9601 28.2599 42.0301 28.4799 42.0901 28.6899C42.2351 29.1297 42.3192 29.5873 42.3401 30.0499Z" fill="#58F6BC"/>
<path opacity="0.7" d="M42.3401 30.0499C41.8601 30.5499 41.3401 31.0999 40.8001 31.7299C38.9301 27.9899 35.0701 27.1599 31.1401 25.4899C30.5899 22.8353 30.4952 20.1063 30.8601 17.4199C32.2101 19.3699 36.2201 21.5399 38.7901 23.7199C39.0301 23.9199 39.2601 24.1299 39.4801 24.3399C39.7001 24.5499 39.9001 24.7599 40.0801 24.9699C40.2601 25.1799 40.2901 25.2299 40.3801 25.3599C40.4701 25.4899 40.6201 25.6899 40.7201 25.8499C41.0131 26.2888 41.277 26.7465 41.5101 27.2199C41.6501 27.4999 41.7601 27.7599 41.8601 28.0099C41.9601 28.2599 42.0301 28.4799 42.0901 28.6899C42.2351 29.1297 42.3192 29.5873 42.3401 30.0499Z" fill="white"/>
<path d="M49.8099 23.7196C49.2225 24.2044 48.6924 24.7546 48.2299 25.3596C47.1169 26.6886 46.4211 28.3167 46.2299 30.0396C45.4737 29.3781 44.8019 28.6257 44.2299 27.7996C43.6591 28.6266 42.9873 29.3791 42.2299 30.0396C42.2082 29.5804 42.1241 29.1262 41.9799 28.6896C41.9199 28.4796 41.8399 28.2496 41.7499 28.0096C41.6599 27.7696 41.5399 27.4996 41.3999 27.2196C41.1669 26.7462 40.903 26.2885 40.61 25.8496C40.51 25.6896 40.39 25.5296 40.27 25.3596C40.15 25.1896 40.0699 25.0996 39.9699 24.9696C39.8699 24.8396 39.5899 24.5496 39.3699 24.3396C39.1499 24.1296 38.9199 23.9196 38.6799 23.7196C38.6799 20.7196 40.5799 18.4396 42.2299 16.1696C43.0447 15.1592 43.7176 14.0422 44.2299 12.8496C44.7429 14.0419 45.4157 15.1588 46.2299 16.1696C47.92 18.4296 49.8399 20.7196 49.8099 23.7196Z" fill="#58F6BC"/>
<path opacity="0.8" d="M49.8099 23.7196C49.2225 24.2044 48.6924 24.7546 48.2299 25.3596C47.1169 26.6886 46.4211 28.3167 46.2299 30.0396C45.4737 29.3781 44.8019 28.6257 44.2299 27.7996C43.6591 28.6266 42.9873 29.3791 42.2299 30.0396C42.2082 29.5804 42.1241 29.1262 41.9799 28.6896C41.9199 28.4796 41.8399 28.2496 41.7499 28.0096C41.6599 27.7696 41.5399 27.4996 41.3999 27.2196C41.1669 26.7462 40.903 26.2885 40.61 25.8496C40.51 25.6896 40.39 25.5296 40.27 25.3596C40.15 25.1896 40.0699 25.0996 39.9699 24.9696C39.8699 24.8396 39.5899 24.5496 39.3699 24.3396C39.1499 24.1296 38.9199 23.9196 38.6799 23.7196C38.6799 20.7196 40.5799 18.4396 42.2299 16.1696C43.0447 15.1592 43.7176 14.0422 44.2299 12.8496C44.7429 14.0419 45.4157 15.1588 46.2299 16.1696C47.92 18.4296 49.8399 20.7196 49.8099 23.7196Z" fill="white"/>
<path d="M57.46 25.4802C53.54 27.1502 49.68 27.9802 47.82 31.7202C47.28 31.0902 46.75 30.5402 46.27 30.0402C46.4612 28.3172 47.1569 26.6891 48.27 25.3602C48.7325 24.7551 49.2626 24.2049 49.85 23.7202C52.41 21.5402 56.44 19.3602 57.79 17.4102C58.1416 20.0993 58.0299 22.8287 57.46 25.4802V25.4802Z" fill="#58F6BC"/>
<path opacity="0.7" d="M57.46 25.4802C53.54 27.1502 49.68 27.9802 47.82 31.7202C47.28 31.0902 46.75 30.5402 46.27 30.0402C46.4612 28.3172 47.1569 26.6891 48.27 25.3602C48.7325 24.7551 49.2626 24.2049 49.85 23.7202C52.41 21.5402 56.44 19.3602 57.79 17.4102C58.1416 20.0993 58.0299 22.8287 57.46 25.4802V25.4802Z" fill="white"/>
<path d="M51.33 30.3302C51.33 33.5602 48.51 34.0802 44.63 34.0802C40.75 34.0802 37.27 33.5602 37.27 30.3302C37.27 27.1002 40.42 24.4902 44.27 24.4902C48.12 24.4902 51.33 27.1002 51.33 30.3302Z" fill="white"/>
<path d="M40.7499 42.5596C39.7401 44.1017 38.2389 45.2575 36.4899 45.8396V45.8396C34.2201 46.5626 31.7904 46.6182 29.4899 45.9996C27.0899 45.4296 25.1 44.8496 23.64 44.3996C21.92 43.8696 20.95 43.4996 20.95 43.4996C21.8922 42.2068 22.9645 41.0139 24.1499 39.9396C25.6697 38.4418 27.545 37.3545 29.5999 36.7796L30.2 36.6696C32.7584 36.1841 35.3983 36.3597 37.8699 37.1796C37.7731 38.2595 37.9942 39.3442 38.5059 40.3C39.0176 41.2559 39.7976 42.0413 40.7499 42.5596Z" fill="#58F6BC"/>
<path opacity="0.15" d="M40.7499 42.5596C39.7401 44.1017 38.2389 45.2575 36.4899 45.8396V45.8396C34.2201 46.5626 31.7904 46.6182 29.4899 45.9996C27.0899 45.4296 25.1 44.8496 23.64 44.3996C21.92 43.8696 20.95 43.4996 20.95 43.4996C21.8922 42.2068 22.9645 41.0139 24.1499 39.9396C25.6697 38.4418 27.545 37.3545 29.5999 36.7796L30.2 36.6696C32.7584 36.1841 35.3983 36.3597 37.8699 37.1796C37.7731 38.2595 37.9942 39.3442 38.5059 40.3C39.0176 41.2559 39.7976 42.0413 40.7499 42.5596Z" fill="black"/>
<path d="M67.6401 43.5104C67.6401 43.5104 66.6401 43.8804 64.9501 44.4104C63.4901 44.8704 61.5001 45.4104 59.1001 46.0104C56.7996 46.629 54.3699 46.5734 52.1001 45.8504C50.3511 45.2683 48.85 44.1125 47.8401 42.5704C48.7843 42.0477 49.5564 41.2619 50.0623 40.3086C50.5683 39.3552 50.7864 38.2754 50.6901 37.2004C53.1653 36.3814 55.8083 36.2059 58.3701 36.6905L58.9701 36.8005C61.024 37.3777 62.8987 38.4647 64.4201 39.9605C65.612 41.0306 66.691 42.2201 67.6401 43.5104V43.5104Z" fill="#58F6BC"/>
<path opacity="0.15" d="M67.6401 43.5104C67.6401 43.5104 66.6401 43.8804 64.9501 44.4104C63.4901 44.8704 61.5001 45.4104 59.1001 46.0104C56.7996 46.629 54.3699 46.5734 52.1001 45.8504C50.3511 45.2683 48.85 44.1125 47.8401 42.5704C48.7843 42.0477 49.5564 41.2619 50.0623 40.3086C50.5683 39.3552 50.7864 38.2754 50.6901 37.2004C53.1653 36.3814 55.8083 36.2059 58.3701 36.6905L58.9701 36.8005C61.024 37.3777 62.8987 38.4647 64.4201 39.9605C65.612 41.0306 66.691 42.2201 67.6401 43.5104V43.5104Z" fill="black"/>
<path d="M47.86 42.5598C46.7784 43.1819 45.5526 43.5093 44.3049 43.5093C43.0573 43.5093 41.8315 43.1819 40.7499 42.5598C39.803 42.0394 39.0282 41.2544 38.5203 40.3007C38.0123 39.347 37.7933 38.266 37.89 37.1898C37.963 36.5805 38.1317 35.9865 38.39 35.4298C39.0194 34.0885 39.8304 32.8402 40.8 31.7198C41.33 31.0898 41.8599 30.5398 42.3399 30.0398C43.0973 29.3793 43.7691 28.6268 44.3399 27.7998C44.9119 28.6259 45.5836 29.3783 46.3399 30.0398C46.8199 30.5398 47.34 31.0898 47.89 31.7198C48.8529 32.8431 49.6601 34.091 50.29 35.4298C50.886 36.6942 50.9734 38.1392 50.5342 39.4662C50.0949 40.7932 49.1626 41.9007 47.9299 42.5598H47.86Z" fill="#58F6BC"/>
<path d="M40.8 31.7197C39.8304 32.84 39.0195 34.0884 38.39 35.4297C38.1318 35.9864 37.963 36.5804 37.89 37.1897C35.4184 36.3697 32.7784 36.1942 30.22 36.6797C27.9384 34.9454 26.1776 32.6172 25.13 29.9497C24.1915 27.3258 23.9604 24.5012 24.46 21.7597C24.52 21.3997 24.58 21.0397 24.65 20.6797C24.65 20.6797 25.8 23.1297 30.91 25.3597L31.19 25.4797C35.07 27.1497 38.93 27.9797 40.8 31.7197Z" fill="#58F6BC"/>
<path opacity="0.6" d="M40.8 31.7197C39.8304 32.84 39.0195 34.0884 38.39 35.4297C38.1318 35.9864 37.963 36.5804 37.89 37.1897C35.4184 36.3697 32.7784 36.1942 30.22 36.6797C27.9384 34.9454 26.1776 32.6172 25.13 29.9497C24.1915 27.3258 23.9604 24.5012 24.46 21.7597C24.52 21.3997 24.58 21.0397 24.65 20.6797C24.65 20.6797 25.8 23.1297 30.91 25.3597L31.19 25.4797C35.07 27.1497 38.93 27.9797 40.8 31.7197Z" fill="white"/>
<path d="M63.5301 29.9497C62.4687 32.6233 60.6901 34.9521 58.3901 36.6797C55.8283 36.1951 53.1853 36.3706 50.7101 37.1897C50.6454 36.5799 50.4798 35.9851 50.2201 35.4297C49.5902 34.0909 48.783 32.843 47.8201 31.7197C49.6801 27.9797 53.5401 27.1497 57.4601 25.4797L57.7501 25.3597C62.8601 23.1297 64.0101 20.6797 64.0101 20.6797C64.0801 21.0397 64.1401 21.3997 64.2001 21.7597C64.6997 24.5012 64.4686 27.3258 63.5301 29.9497V29.9497Z" fill="#58F6BC"/>
<path opacity="0.6" d="M63.5301 29.9497C62.4687 32.6233 60.6901 34.9521 58.3901 36.6797C55.8283 36.1951 53.1853 36.3706 50.7101 37.1897C50.6454 36.5799 50.4798 35.9851 50.2201 35.4297C49.5902 34.0909 48.783 32.843 47.8201 31.7197C49.6801 27.9797 53.5401 27.1497 57.4601 25.4797L57.7501 25.3597C62.8601 23.1297 64.0101 20.6797 64.0101 20.6797C64.0801 21.0397 64.1401 21.3997 64.2001 21.7597C64.6997 24.5012 64.4686 27.3258 63.5301 29.9497V29.9497Z" fill="white"/>
<path d="M52.13 45.8396C51.69 51.2396 44.5 55.2996 44.31 56.5396C44.13 55.2996 36.94 51.2396 36.5 45.8396C38.249 45.2575 39.7501 44.1017 40.76 42.5596C41.8415 43.1817 43.0673 43.509 44.315 43.509C45.5627 43.509 46.7885 43.1817 47.87 42.5596C48.8799 44.1017 50.381 45.2575 52.13 45.8396Z" fill="#58F6BC"/>
<path opacity="0.4" d="M52.13 45.8396C51.69 51.2396 44.5 55.2996 44.31 56.5396C44.13 55.2996 36.94 51.2396 36.5 45.8396C38.249 45.2575 39.7501 44.1017 40.76 42.5596C41.8415 43.1817 43.0673 43.509 44.315 43.509C45.5627 43.509 46.7885 43.1817 47.87 42.5596C48.8799 44.1017 50.381 45.2575 52.13 45.8396Z" fill="black"/>
</g>
<defs>
<filter id="filter0_d_202_1277" x="0" y="0" width="88.6099" height="64.5391" filterUnits="userSpaceOnUse" color-interpolation-filters="sRGB">
<feFlood flood-opacity="0" result="BackgroundImageFix"/>
<feColorMatrix in="SourceAlpha" type="matrix" values="0 0 0 0 0 0 0 0 0 0 0 0 0 0 0 0 0 0 127 0" result="hardAlpha"/>
<feOffset dy="4"/>
<feGaussianBlur stdDeviation="2"/>
<feComposite in2="hardAlpha" operator="out"/>
<feColorMatrix type="matrix" values="0 0 0 0 0 0 0 0 0 0 0 0 0 0 0 0 0 0 0.25 0"/>
<feBlend mode="normal" in2="BackgroundImageFix" result="effect1_dropShadow_202_1277"/>
<feBlend mode="normal" in="SourceGraphic" in2="effect1_dropShadow_202_1277" result="shape"/>
</filter>
</defs>
</svg>
