<svg width="265" height="199" viewBox="0 0 265 199" fill="none" xmlns="http://www.w3.org/2000/svg">
<g clip-path="url(#clip0_171_732)">
<path d="M226.305 96.0256L154.514 201.306L157.712 202.03L226.305 96.0256Z" fill="white"/>
<path d="M230.322 76.2959C230.322 76.2959 224.71 91.2375 226.304 96.025C226.304 96.025 233.897 88.4857 230.322 76.2959Z" fill="white"/>
<path d="M216.763 77.6382C216.763 77.6382 219.266 91.9068 222.994 95.3818C222.986 95.4025 225.826 86.6893 216.763 77.6382Z" fill="white"/>
<path d="M244.57 75.611C244.57 75.611 227.218 89.0122 227.205 95.5364C227.205 95.5364 243.742 91.9004 244.57 75.611Z" fill="white"/>
<path d="M209.286 81.8223C209.286 81.8223 211.006 99.7246 211.797 104.829C211.985 106.027 212.296 106.631 212.68 106.811C213.816 107.343 215.536 104.062 216.228 101.672C217.146 98.4889 217.135 87.9423 209.286 81.8223Z" fill="white"/>
<path d="M212.974 106.599C212.974 106.599 212.947 106.499 212.926 106.638C212.736 108.154 211.578 117.342 210.919 118.798C210.18 120.38 212.438 116.904 212.438 116.904L212.974 106.599Z" fill="white"/>
<path d="M223.027 95.2225C223.027 95.2225 222.867 95.0994 222.87 95.1625C223.042 96.7166 221.375 102.567 220.697 104.016C219.958 105.598 221.719 102.869 221.719 102.869L223.027 95.2225Z" fill="white"/>
<path d="M203.782 87.4224C203.782 87.4224 200.871 109.58 202.802 115.261C205.257 122.492 209.399 111.323 209.418 109.066C209.436 106.81 210.844 94.1031 203.782 87.4224Z" fill="white"/>
<path d="M223.027 95.2225C223.027 95.2225 222.867 95.0994 222.87 95.1625C223.042 96.7166 221.375 102.567 220.697 104.016C219.958 105.598 221.719 102.869 221.719 102.869L223.027 95.2225Z" fill="white"/>
<path d="M204.985 116.94C204.985 116.94 204.956 116.829 204.934 116.987C204.706 118.674 203.359 128.903 202.646 130.528C201.866 132.304 204.216 128.388 204.216 128.388L204.985 116.94Z" fill="white"/>
<path d="M187.913 92.5693C187.913 92.5693 190.438 119.281 193.646 125.625C197.73 133.696 200.737 119.673 200.21 116.999C199.683 114.326 196.277 99.1283 187.913 92.5693Z" fill="white"/>
<path d="M196.272 127.894C196.272 127.894 196.215 127.44 196.193 127.612C195.94 129.494 195.62 139.966 194.819 141.782C193.945 143.76 196.5 139.764 196.5 139.764L196.272 127.894Z" fill="white"/>
<path d="M177.576 102.224C177.576 102.224 182.256 130.446 185.395 137.144C189.391 145.661 191.937 129.751 191.253 125.054C190.556 120.247 185.883 109.075 177.576 102.224Z" fill="white"/>
<path d="M187.996 139.519C187.996 139.519 187.949 139.026 187.923 139.225C187.646 141.226 187.188 152.359 186.368 154.296C185.469 156.412 188.079 152.128 188.079 152.128L187.996 139.519Z" fill="white"/>
<path d="M169.625 113.641C169.625 113.641 174.305 141.863 177.443 148.561C181.44 157.079 183.986 141.168 183.302 136.471C182.595 131.661 177.931 120.496 169.625 113.641Z" fill="white"/>
<path d="M180.045 150.935C180.045 150.935 179.998 150.442 179.972 150.641C179.695 152.642 179.169 164.125 178.346 166.07C177.447 168.186 180.374 163.515 180.374 163.515L180.045 150.935Z" fill="white"/>
<path d="M157.998 122.523C157.998 122.523 165.537 152.387 168.676 159.085C172.672 167.603 174.722 149.368 174.043 144.673C173.338 139.858 166.305 129.375 157.998 122.523Z" fill="white"/>
<path d="M170.702 161.193C170.702 161.193 170.651 160.927 170.612 161.159C170.242 163.562 169.89 177.298 168.983 179.649C168.002 182.223 171.449 176.661 171.449 176.661L170.702 161.193Z" fill="white"/>
<path d="M143.09 133.565C143.09 133.565 146.373 144.47 151.348 154.145C154.687 160.648 159.732 166.299 161.546 168.821C167.297 176.819 164.447 158.671 162.732 154.057C160.99 149.284 152.603 139.259 143.09 133.565Z" fill="white"/>
<path d="M164.054 170.557C164.054 170.557 164.003 170.29 163.963 170.522C163.593 172.925 163.173 187.758 162.136 190.064C161.891 190.607 164.912 186.162 164.912 186.162L164.054 170.557Z" fill="white"/>
<path d="M134.826 145.709C134.826 145.709 138.507 157.977 144.023 168.872C147.728 176.19 153.277 182.555 155.278 185.401C161.622 194.409 158.354 173.991 156.449 168.786C154.494 163.452 145.265 152.141 134.826 145.709Z" fill="white"/>
<path d="M118.458 165.154C118.458 165.154 130.233 174.872 138.293 183.331C147.719 193.253 149.475 194.535 152.512 196.183C162.142 201.398 150.18 179.759 146.062 176.073C141.819 172.288 130.182 166.621 118.458 165.154Z" fill="white"/>
<path d="M158.128 187.866C158.128 187.866 158.048 187.203 158.037 187.318C157.909 188.586 158.988 194.742 158.185 195.886C157.995 196.156 159.66 193.923 159.66 193.923L158.128 187.866Z" fill="white"/>
<path d="M154.637 196.051C154.637 196.051 154.494 195.696 154.492 195.758C154.493 196.4 156.141 199.715 155.472 200.197C155.311 200.316 156.719 199.345 156.719 199.345L154.637 196.051Z" fill="white"/>
<path d="M239.867 84.9305C239.867 84.9305 228.911 97.1697 224.335 99.3442C224.34 99.346 228.367 90.7285 239.867 84.9305Z" fill="white"/>
<path d="M242.985 92.7425C242.985 92.7425 230.066 100.372 225.921 100.643C225.919 100.647 232.424 93.7677 242.985 92.7425Z" fill="white"/>
<path d="M235.976 77.1803C235.976 77.1803 230.019 94.4871 224.471 98.5829C224.468 98.5769 222.364 87.8034 235.976 77.1803Z" fill="white"/>
<path d="M241.776 99.2108C241.776 99.2108 225.995 109.535 221.405 112.322C220.325 112.976 219.712 113.194 219.463 113.118C218.65 112.87 220.907 109.931 222.721 108.078C225.12 105.597 234.083 99.0178 241.776 99.2108Z" fill="white"/>
<path d="M219.528 112.819C219.528 112.819 219.621 112.774 219.509 112.869C218.279 113.917 210.81 120.258 209.781 121.525C208.668 122.898 210.911 119.578 210.911 119.578L219.528 112.819Z" fill="white"/>
<path d="M226.045 100.534C226.045 100.534 226.2 100.541 226.149 100.574C224.769 101.474 220.322 105.961 219.296 107.234C218.183 108.608 219.95 105.991 219.95 105.991L226.045 100.534Z" fill="white"/>
<path d="M238.74 105.543C238.74 105.543 220.792 120.909 215.348 123.471C208.418 126.736 216.629 117.616 218.543 116.191C220.457 114.766 230.827 106.099 238.74 105.543Z" fill="white"/>
<path d="M226.045 100.534C226.045 100.534 226.2 100.541 226.149 100.574C224.769 101.474 220.322 105.961 219.296 107.234C218.183 108.608 219.95 105.991 219.95 105.991L226.045 100.534Z" fill="white"/>
<path d="M213.233 123.402C213.233 123.402 213.336 123.346 213.212 123.456C211.848 124.628 203.562 131.723 202.395 133.123C201.129 134.638 203.726 130.977 203.726 130.977L213.233 123.402Z" fill="white"/>
<path d="M239.342 116.923C239.342 116.923 215.81 132.349 209.398 134.67C201.242 137.625 212.235 127.297 214.67 125.895C217.105 124.493 231.13 116.728 239.342 116.923Z" fill="white"/>
<path d="M206.645 134.742C206.645 134.742 207.048 134.487 206.91 134.606C205.38 135.925 196.574 142.636 195.28 144.182C193.867 145.869 196.469 142.053 196.469 142.053L206.645 134.742Z" fill="white"/>
<path d="M234.371 128.272C234.371 128.272 208.89 143.54 202.191 146.113C193.683 149.39 206.427 138.122 210.638 135.542C214.954 132.888 225.932 128.303 234.371 128.272Z" fill="white"/>
<path d="M199.35 146.271C199.35 146.271 199.777 145.996 199.625 146.124C198.001 147.516 188.697 154.731 187.286 156.357C185.765 158.155 188.593 154.116 188.593 154.116L199.35 146.271Z" fill="white"/>
<path d="M227.148 139.514C227.148 139.514 201.666 154.781 194.967 157.354C186.46 160.631 199.203 149.363 203.414 146.784C207.732 144.126 218.707 139.535 227.148 139.514Z" fill="white"/>
<path d="M192.13 157.505C192.13 157.505 192.557 157.23 192.405 157.357C190.782 158.75 181.175 166.216 179.781 167.853C178.26 169.651 181.331 165.22 181.331 165.22L192.13 157.505Z" fill="white"/>
<path d="M223.267 151.059C223.267 151.059 195.476 165.879 188.782 168.454C180.274 171.731 195.153 159.261 199.368 156.673C203.668 154.018 214.802 151.071 223.267 151.059Z" fill="white"/>
<path d="M186.336 168.729C186.336 168.729 186.58 168.589 186.398 168.752C184.459 170.443 172.887 179.224 171.169 181.166C169.266 183.293 172.936 178.035 172.936 178.035L186.336 168.729Z" fill="white"/>
<path d="M218.534 165.631C212.027 168.83 205.313 171.714 198.418 174.27C191.836 176.622 185.44 177.57 182.714 178.214C174.1 180.266 190.445 170.371 194.919 168.348C199.513 166.281 210.694 164.303 218.534 165.631Z" fill="white"/>
<path d="M180.449 178.007C180.449 178.007 180.694 177.867 180.511 178.031C178.572 179.722 166.085 189.228 164.451 191.207C164.066 191.673 166.898 187.336 166.898 187.336L180.449 178.007Z" fill="white"/>
<path d="M210.788 177.482C210.788 177.482 199.188 183.271 188.182 187.255C180.789 189.93 173.622 191.064 170.573 191.814C160.926 194.195 179.315 183.091 184.346 180.81C189.503 178.472 202.037 176.139 210.788 177.482Z" fill="white"/>
<path d="M199.384 198.066C199.384 198.066 187.412 198.093 177.689 199.256C166.285 200.617 164.644 200.524 162.28 199.989C154.817 198.305 176.993 190.907 181.425 190.714C185.966 190.523 194.454 192.945 199.384 198.066Z" fill="white"/>
<path d="M167.578 191.89C167.578 191.89 168.169 191.516 168.07 191.602C167.033 192.462 161.45 195.76 160.73 196.889C160.562 197.157 161.936 194.899 161.936 194.899L167.578 191.89Z" fill="white"/>
<path d="M161.708 198.807C161.708 198.807 162.053 198.662 162.002 198.695C161.456 199.096 158.112 200.303 157.917 200.971C157.859 201.125 158.251 199.795 158.251 199.795L161.708 198.807Z" fill="white"/>
<path d="M41.2728 93.9866L114.547 188.653L116.071 186.108L41.2728 93.9866Z" fill="white"/>
<path d="M24.9346 84.4165C24.9346 84.4165 36.5982 93.8896 41.2729 93.9873C41.2729 93.9873 36.7029 85.0858 24.9346 84.4165Z" fill="white"/>
<path d="M22.375 96.5703C22.375 96.5703 35.686 98.8087 39.7892 96.6541C39.8054 96.6673 32.8841 91.5179 22.375 96.5703Z" fill="white"/>
<path d="M28.2654 71.8682C28.2654 71.8682 35.3228 91.0304 41.0895 93.0556C41.0895 93.0556 42.443 77.6152 28.2654 71.8682Z" fill="white"/>
<path d="M24.0088 104.336C24.0088 104.336 40.3168 108.375 45.0495 109.266C46.1614 109.474 46.7809 109.391 47.0464 109.114C47.831 108.295 45.4041 105.792 43.482 104.455C40.9205 102.677 31.5899 99.4305 24.0088 104.336Z" fill="white"/>
<path d="M46.9405 108.794C46.9405 108.794 46.844 108.786 46.9618 108.847C48.2499 109.48 56.0555 113.32 57.1613 114.34C58.3562 115.469 55.9062 112.44 55.9062 112.44L46.9405 108.794Z" fill="white"/>
<path d="M39.6576 96.5766C39.6576 96.5766 39.5044 96.6777 39.561 96.6944C40.9831 97.025 45.6968 100.275 46.7908 101.309C47.9858 102.438 46.059 100.071 46.059 100.071L39.6576 96.5766Z" fill="white"/>
<path d="M27.4414 110.831C27.4414 110.831 46.233 120.194 51.7912 120.276C58.8648 120.384 50.1306 113.348 48.1403 112.635C46.15 111.922 35.3009 106.78 27.4414 110.831Z" fill="white"/>
<path d="M39.6576 96.5766C39.6576 96.5766 39.5044 96.6777 39.561 96.6944C40.9831 97.025 45.6968 100.275 46.7908 101.309C47.9858 102.438 46.059 100.071 46.059 100.071L39.6576 96.5766Z" fill="white"/>
<path d="M53.8788 118.904C53.8788 118.904 53.7728 118.895 53.9065 118.963C55.3354 119.681 64.0092 124.006 65.2502 125.125C66.605 126.349 63.7905 123.105 63.7905 123.105L53.8788 118.904Z" fill="white"/>
<path d="M27.6084 126.159C27.6084 126.159 51.9294 132.221 58.4263 131.403C66.6931 130.359 55.1218 123.425 52.6118 123.056C50.1018 122.686 35.7202 120.943 27.6084 126.159Z" fill="white"/>
<path d="M61.1594 129.83C61.1594 129.83 60.7421 129.739 60.8884 129.811C62.4828 130.611 71.6559 134.122 73.0401 135.377C74.548 136.744 71.7204 133.298 71.7204 133.298L61.1594 129.83Z" fill="white"/>
<path d="M33.291 138.09C33.291 138.09 59.5436 142.754 66.3345 142.104C74.9718 141.275 61.6041 134.157 57.2608 133.299C52.8171 132.418 41.6455 133.014 33.291 138.09Z" fill="white"/>
<path d="M69.1544 140.585C69.1544 140.585 68.7051 140.473 68.8738 140.558C70.5672 141.415 80.2869 145.25 81.7732 146.558C83.3959 147.99 80.3287 144.407 80.3287 144.407L69.1544 140.585Z" fill="white"/>
<path d="M41.1914 148.499C41.1914 148.499 67.444 153.162 74.2348 152.513C82.8722 151.683 69.5045 144.566 65.1612 143.708C60.7117 142.834 49.5492 143.425 41.1914 148.499Z" fill="white"/>
<path d="M77.0538 150.994C77.0538 150.994 76.6045 150.882 76.7732 150.967C78.4666 151.824 88.477 155.825 89.9697 157.138C91.5924 158.57 88.2699 154.593 88.2699 154.593L77.0538 150.994Z" fill="white"/>
<path d="M45.835 161.309C45.835 161.309 74.3291 164.003 81.12 163.354C89.7573 162.524 74.1971 155.119 69.8567 154.257C65.4039 153.38 54.1895 156.232 45.835 161.309Z" fill="white"/>
<path d="M83.5447 162.251C83.5447 162.251 83.2946 162.213 83.4892 162.319C85.5123 163.381 97.5637 167.927 99.392 169.438C101.398 171.083 97.4308 166.381 97.4308 166.381L83.5447 162.251Z" fill="white"/>
<path d="M51.4814 177.626C51.4814 177.626 62.0324 178.15 71.9641 176.831C78.6378 175.948 85.0294 173.325 87.7608 172.534C96.4231 170.024 79.586 166.887 75.0309 166.947C70.3288 166.982 59.1456 171.148 51.4814 177.626Z" fill="white"/>
<path d="M89.9881 170.899C89.9881 170.899 89.738 170.861 89.9325 170.967C91.9557 172.029 104.958 176.973 106.71 178.583C107.123 178.963 104.027 174.975 104.027 174.975L89.9881 170.899Z" fill="white"/>
<path d="M59.9375 188.532C59.9375 188.532 71.8048 189.133 82.9637 187.722C90.4595 186.774 97.6223 183.935 100.692 183.081C110.412 180.371 91.4508 176.895 86.3208 176.937C81.0637 176.982 68.5102 181.48 59.9375 188.532Z" fill="white"/>
<path d="M72.612 208.707C72.612 208.707 84.4604 201.513 94.169 197.147C105.548 192.05 107.167 190.925 109.463 188.804C116.737 182.077 94.2936 185.752 89.8967 188.179C85.3764 190.684 77.1496 199.009 72.612 208.707Z" fill="white"/>
<path d="M103.659 181.374C103.659 181.374 103.051 181.239 103.149 181.284C104.235 181.787 109.977 182.754 110.768 183.802C110.954 184.05 109.439 181.919 109.439 181.919L103.659 181.374Z" fill="white"/>
<path d="M109.934 186.924C109.934 186.924 109.581 186.939 109.634 186.959C110.203 187.156 113.589 186.753 113.831 187.482C113.892 187.658 113.422 186.139 113.422 186.139L109.934 186.924Z" fill="white"/>
<path d="M35.2095 78.8191C35.2095 78.8191 43.0066 92.0847 43.6654 96.7177C43.6684 96.7141 37.1597 90.5665 35.2095 78.8191Z" fill="white"/>
<path d="M42.9796 78.5322C42.9796 78.5322 46.1579 92.0739 45.2516 95.7458C45.2549 95.7485 40.9684 87.9922 42.9796 78.5322Z" fill="white"/>
<path d="M27.2793 79.795C27.2793 79.795 40.9396 90.2966 43.029 96.3649C43.0229 96.3658 32.9133 94.8609 27.2793 79.795Z" fill="white"/>
<path d="M48.3655 81.5756C48.3655 81.5756 53.1359 98.4272 54.3323 103.262C54.6123 104.399 54.6359 104.997 54.4997 105.189C54.0561 105.816 52.0799 102.955 50.943 100.812C49.4114 97.9689 46.0692 88.1768 48.3655 81.5756Z" fill="white"/>
<path d="M54.2537 105.041C54.2537 105.041 54.2396 104.946 54.2925 105.073C54.8798 106.461 58.4238 114.886 59.2603 116.168C60.1671 117.556 57.8505 114.589 57.8505 114.589L54.2537 105.041Z" fill="white"/>
<path d="M45.1891 95.6046C45.1891 95.6046 45.2384 95.4719 45.2535 95.5261C45.6681 96.9996 48.408 102.235 49.2506 103.516C50.1575 104.904 48.3314 102.566 48.3314 102.566L45.1891 95.6046Z" fill="white"/>
<path d="M53.1274 86.1591C53.1274 86.1591 61.758 106.444 62.5192 111.948C63.4918 118.957 57.6949 109.031 56.9637 106.934C56.2325 104.837 51.4323 93.1816 53.1274 86.1591Z" fill="white"/>
<path d="M45.1891 95.6046C45.1891 95.6046 45.2384 95.4719 45.2535 95.5261C45.6681 96.9996 48.408 102.235 49.2506 103.516C50.1575 104.904 48.3314 102.566 48.3314 102.566L45.1891 95.6046Z" fill="white"/>
<path d="M61.8736 113.759C61.8736 113.759 61.8528 113.652 61.9156 113.793C62.5758 115.337 66.5607 124.701 67.4765 126.144C68.4666 127.708 65.9464 124.329 65.9464 124.329L61.8736 113.759Z" fill="white"/>
<path d="M63.3574 89.1535C63.3574 89.1535 70.4982 114.291 70.7793 120.559C71.1391 128.532 65.0422 115.825 64.4751 113.284C63.908 110.743 60.9158 96.2024 63.3574 89.1535Z" fill="white"/>
<path d="M70.0832 122.965C70.0832 122.965 69.9688 122.537 70.0355 122.693C70.7795 124.425 74.2814 134.121 75.2918 135.719C76.3933 137.463 73.7371 134.033 73.7371 134.033L70.0832 122.965Z" fill="white"/>
<path d="M72.0213 96.9613C72.0213 96.9613 78.4835 123.738 78.908 130.332C79.4555 138.71 73.0113 124.197 71.8933 119.755C70.7387 115.198 69.7172 104.278 72.0213 96.9613Z" fill="white"/>
<path d="M78.2628 132.84C78.2628 132.84 78.1378 132.385 78.2084 132.557C78.9917 134.392 82.802 144.675 83.8497 146.399C85.0196 148.271 82.2292 144.576 82.2292 144.576L78.2628 132.84Z" fill="white"/>
<path d="M79.9676 106.686C79.9676 106.686 86.4298 133.462 86.8543 140.057C87.4018 148.435 80.9575 133.922 79.8396 129.479C78.6818 124.92 77.6541 114.001 79.9676 106.686Z" fill="white"/>
<path d="M86.2038 142.56C86.2038 142.56 86.0787 142.105 86.1493 142.276C86.9327 144.112 90.8809 154.735 91.9436 156.448C93.1135 158.32 90.0428 154.293 90.0428 154.293L86.2038 142.56Z" fill="white"/>
<path d="M89.1063 113.612C89.1063 113.612 94.5348 142.249 94.9623 148.84C95.5098 157.218 88.592 140.485 87.4676 136.037C86.3074 131.494 86.7781 120.944 89.1063 113.612Z" fill="white"/>
<path d="M94.5293 151.044C94.5293 151.044 94.4731 150.789 94.5673 150.997C95.5271 153.198 100.095 165.929 101.338 168.015C102.694 170.32 99.0572 165.519 99.0572 165.519L94.5293 151.044Z" fill="white"/>
<path d="M100.686 122.21C101.717 128.832 102.413 135.535 102.768 142.294C103.029 148.718 102.1 154.549 101.917 157.108C101.352 165.2 97.1165 147.993 96.5637 143.495C96.0049 138.878 97.3449 128.588 100.686 122.21Z" fill="white"/>
<path d="M101.109 159.005C101.109 159.005 101.053 158.75 101.147 158.958C102.107 161.159 107.064 174.907 108.362 176.932C108.668 177.409 105.616 173.618 105.616 173.618L101.109 159.005Z" fill="white"/>
<path d="M109.027 132.575C109.027 132.575 110.941 144.406 111.424 155.165C111.746 162.392 110.77 168.948 110.59 171.819C110.031 180.907 105.291 161.557 104.664 156.496C104.021 151.309 105.421 139.737 109.027 132.575Z" fill="white"/>
<path d="M124.081 148.806C124.081 148.806 120.796 159.179 119.139 167.957C117.191 178.25 116.655 179.643 115.529 181.524C111.977 187.466 111.562 165.981 112.616 162.084C113.702 158.094 118.189 151.493 124.081 148.806Z" fill="white"/>
<path d="M109.83 174.435C109.83 174.435 109.662 173.809 109.711 173.92C110.185 175.084 111.559 180.936 112.359 181.908C112.55 182.136 110.932 180.249 110.932 180.249L109.83 174.435Z" fill="white"/>
<path d="M114.325 181.653C114.325 181.653 114.292 181.31 114.307 181.364C114.511 181.961 114.655 185.229 115.192 185.603C115.312 185.702 114.244 184.952 114.244 184.952L114.325 181.653Z" fill="white"/>
<path d="M21.2444 124.013L107.578 209.542L108.759 206.82L21.2444 124.013Z" fill="white"/>
<path d="M3.56543 116.447C3.56543 116.447 16.5458 124.482 21.2444 124.013C21.2444 124.013 15.4518 115.69 3.56543 116.447Z" fill="white"/>
<path d="M2.6543 128.877C2.6543 128.877 16.3005 129.498 20.1198 126.852C20.1378 126.864 12.4994 122.566 2.6543 128.877Z" fill="white"/>
<path d="M5.19561 103.531C5.19561 103.531 14.8787 121.785 20.9343 123.106C20.9343 123.106 20.1882 107.545 5.19561 103.531Z" fill="white"/>
<path d="M5.35059 136.422C5.35059 136.422 22.2459 138.476 27.1109 138.792C28.2535 138.864 28.8632 138.707 29.0915 138.398C29.7664 137.486 26.9931 135.284 24.8845 134.184C22.0751 132.721 12.281 130.613 5.35059 136.422Z" fill="white"/>
<path d="M28.9419 138.092C28.9419 138.092 28.8441 138.096 28.9705 138.142C30.3477 138.617 38.6941 141.501 39.9412 142.385C41.2926 143.366 38.4245 140.642 38.4245 140.642L28.9419 138.092Z" fill="white"/>
<path d="M19.9786 126.791C19.9786 126.791 19.8388 126.91 19.8979 126.92C21.3682 127.077 26.5353 129.748 27.7727 130.647C29.1241 131.628 26.8705 129.5 26.8705 129.5L19.9786 126.791Z" fill="white"/>
<path d="M9.6748 142.483C9.6748 142.483 29.7844 149.545 35.3665 148.954C42.471 148.205 32.7587 142.247 30.6667 141.777C28.5748 141.307 17.0006 137.493 9.6748 142.483Z" fill="white"/>
<path d="M19.9786 126.791C19.9786 126.791 19.8388 126.91 19.8979 126.92C21.3682 127.077 26.5353 129.748 27.7727 130.647C29.1241 131.628 26.8705 129.5 26.8705 129.5L19.9786 126.791Z" fill="white"/>
<path d="M37.2727 147.334C37.2727 147.334 37.1653 147.337 37.3085 147.389C38.8385 147.932 48.121 151.194 49.5172 152.16C51.0419 153.217 47.7792 150.322 47.7792 150.322L37.2727 147.334Z" fill="white"/>
<path d="M11.9297 157.749C11.9297 157.749 37.1319 160.85 43.5322 159.247C51.6757 157.205 39.1337 151.692 36.5677 151.627C34.0017 151.563 19.3496 151.565 11.9297 157.749Z" fill="white"/>
<path d="M46.0572 157.348C46.0572 157.348 45.6265 157.307 45.783 157.361C47.4899 157.966 57.1622 160.357 58.7204 161.44C60.4179 162.621 57.1146 159.527 57.1146 159.527L46.0572 157.348Z" fill="white"/>
<path d="M19.251 168.958C19.251 168.958 46.1987 170.43 52.9166 168.96C61.4607 167.087 47.0932 161.608 42.6231 161.278C38.0493 160.938 26.9332 162.884 19.251 168.958Z" fill="white"/>
<path d="M55.5353 167.104C55.5353 167.104 55.0698 167.047 55.2504 167.111C57.0644 167.761 67.3285 170.408 68.9963 171.532C70.8177 172.764 67.2557 169.563 67.2557 169.563L55.5353 167.104Z" fill="white"/>
<path d="M28.5859 178.381C28.5859 178.381 55.5336 179.853 62.2516 178.384C70.7957 176.511 56.4281 171.032 51.958 170.702C47.3793 170.369 36.2718 172.31 28.5859 178.381Z" fill="white"/>
<path d="M64.8703 176.527C64.8703 176.527 64.4048 176.47 64.5853 176.534C66.3994 177.184 76.9775 179.962 78.6525 181.091C80.4739 182.322 76.6022 178.759 76.6022 178.759L64.8703 176.527Z" fill="white"/>
<path d="M34.9854 190.593C34.9854 190.593 63.9116 189.83 70.6296 188.361C79.1737 186.488 62.5693 180.987 58.1017 180.653C53.5194 180.318 42.6676 184.519 34.9854 190.593Z" fill="white"/>
<path d="M72.9085 186.967C72.9085 186.967 72.6527 186.96 72.8621 187.042C75.0345 187.856 87.7326 190.931 89.7709 192.216C92.005 193.613 87.3887 189.404 87.3887 189.404L72.9085 186.967Z" fill="white"/>
<path d="M42.8672 206.18C42.8672 206.18 53.5137 205.426 63.2883 202.907C69.8571 201.22 75.9061 197.83 78.536 196.71C86.8763 193.159 69.5736 192.069 65.0163 192.681C60.3081 193.285 49.6667 198.792 42.8672 206.18Z" fill="white"/>
<path d="M80.5452 194.811C80.5452 194.811 80.2894 194.803 80.4988 194.885C82.6712 195.699 96.3763 199.055 98.3521 200.449C98.8178 200.778 95.1709 197.175 95.1709 197.175L80.5452 194.811Z" fill="white"/>
<path d="M52.8262 216.032C52.8262 216.032 64.8025 215.195 75.7947 212.436C83.1785 210.583 89.9712 206.886 92.9315 205.663C102.304 201.783 82.8268 200.612 77.6908 201.275C72.4279 201.957 60.4581 207.962 52.8262 216.032Z" fill="white"/>
<path d="M68.2768 234.616C68.2768 234.616 79.1725 226.008 88.3087 220.479C99.0194 214.018 100.49 212.701 102.502 210.308C108.876 202.72 86.8818 209.101 82.8054 212.053C78.6159 215.098 71.504 224.397 68.2768 234.616Z" fill="white"/>
<path d="M13.1012 109.621C13.1012 109.621 22.7226 121.906 24.0139 126.446C24.0164 126.442 16.6556 121.099 13.1012 109.621Z" fill="white"/>
<path d="M20.8502 108.394C20.8502 108.394 25.8799 121.513 25.4716 125.284C25.4752 125.286 20.1226 118.071 20.8502 108.394Z" fill="white"/>
<path d="M5.28583 111.554C5.28583 111.554 20.4075 120.372 23.3281 126.171C23.322 126.172 12.9844 125.896 5.28583 111.554Z" fill="white"/>
<path d="M26.6633 110.777C26.6633 110.777 33.7395 127.004 35.5971 131.68C36.0324 132.78 36.1375 133.373 36.0272 133.582C35.668 134.26 33.2976 131.646 31.8662 129.647C29.944 126.998 25.2607 117.638 26.6633 110.777Z" fill="white"/>
<path d="M35.7598 133.464C35.7598 133.464 35.7328 133.371 35.8031 133.491C36.5808 134.804 41.2802 142.776 42.2932 143.953C43.3911 145.227 40.6651 142.549 40.6651 142.549L35.7598 133.464Z" fill="white"/>
<path d="M25.3893 125.152C25.3893 125.152 25.4206 125.013 25.4431 125.065C26.0594 126.485 29.5185 131.374 30.5375 132.549C31.6355 133.824 29.4868 131.713 29.4868 131.713L25.3893 125.152Z" fill="white"/>
<path d="M32.0597 114.772C32.0597 114.772 43.4725 133.955 44.9851 139.352C46.9143 146.222 39.7525 137.027 38.734 135.024C37.7156 133.022 31.3171 121.98 32.0597 114.772Z" fill="white"/>
<path d="M25.3893 125.152C25.3893 125.152 25.4206 125.013 25.4431 125.065C26.0594 126.485 29.5185 131.374 30.5375 132.549C31.6355 133.824 29.4868 131.713 29.4868 131.713L25.3893 125.152Z" fill="white"/>
<path d="M44.5848 141.234C44.5848 141.234 44.5494 141.13 44.6317 141.263C45.5036 142.723 50.7729 151.578 51.8873 152.906C53.0925 154.346 50.1064 151.281 50.1064 151.281L44.5848 141.234Z" fill="white"/>
<path d="M42.721 116.518C42.721 116.518 53.3014 140.72 54.4367 146.937C55.8831 154.844 48.0419 142.911 47.1274 140.446C46.213 137.981 41.2338 123.843 42.721 116.518Z" fill="white"/>
<path d="M54.0671 149.421C54.0671 149.421 53.8941 149.008 53.9823 149.155C54.9638 150.792 59.7941 160.037 61.0245 161.508C62.366 163.114 59.2366 160.015 59.2366 160.015L54.0671 149.421Z" fill="white"/>
<path d="M52.4681 123.256C52.4681 123.256 62.5915 149.174 63.9151 155.699C65.6047 163.987 57.1693 150.295 55.4439 146C53.6661 141.597 51.1551 130.831 52.4681 123.256Z" fill="white"/>
<path d="M63.6103 158.278C63.6103 158.278 63.4231 157.84 63.5172 158.002C64.5522 159.737 69.7717 169.53 71.0566 171.123C72.4841 172.848 69.184 169.5 69.184 169.5L63.6103 158.278Z" fill="white"/>
<path d="M61.7571 131.991C61.7571 131.991 71.8806 157.91 73.2042 164.434C74.8938 172.722 66.4584 159.03 64.7329 154.736C62.9516 150.33 60.4345 139.565 61.7571 131.991Z" fill="white"/>
<path d="M72.8926 167.009C72.8926 167.009 72.7054 166.571 72.7994 166.733C73.8345 168.468 79.2385 178.584 80.5368 180.163C81.9643 181.888 78.3382 178.244 78.3382 178.244L72.8926 167.009Z" fill="white"/>
<path d="M71.8593 137.791C71.8593 137.791 81.2002 165.69 82.5262 172.211C84.2158 180.499 75.0035 164.651 73.2708 160.352C71.4894 155.962 70.5244 145.385 71.8593 137.791Z" fill="white"/>
<path d="M82.3927 174.461C82.3927 174.461 82.3017 174.214 82.4245 174.41C83.6861 176.489 89.9985 188.63 91.5282 190.561C93.201 192.695 88.9022 188.347 88.9022 188.347L82.3927 174.461Z" fill="white"/>
<path d="M84.637 144.963C86.5729 151.441 88.1825 158.041 89.4596 164.738C90.5961 171.113 90.459 177.04 90.6241 179.614C91.1596 187.751 84.571 171.106 83.4042 166.687C82.2155 162.151 82.1572 151.727 84.637 144.963Z" fill="white"/>
<path d="M90.0713 181.603C90.0713 181.603 89.9804 181.356 90.1031 181.552C91.3648 183.631 98.2054 196.739 99.7827 198.601C100.155 199.041 96.5785 195.629 96.5785 195.629L90.0713 181.603Z" fill="white"/>
<path d="M94.4081 154.289C94.4081 154.289 97.9376 165.855 99.8869 176.526C101.194 183.694 101.108 190.349 101.319 193.234C101.996 202.364 94.6107 183.642 93.2927 178.671C91.9419 173.577 91.7695 161.868 94.4081 154.289Z" fill="white"/>
<path d="M111.707 168.652C111.707 168.652 109.827 179.393 109.362 188.347C108.811 198.847 108.464 200.301 107.591 202.313C104.841 208.668 101.499 187.294 102.024 183.28C102.569 179.17 106.167 172.044 111.707 168.652Z" fill="white"/>
<path d="M100.915 195.934C100.915 195.934 100.661 195.33 100.725 195.435C101.359 196.539 103.533 202.208 104.466 203.08C104.689 203.284 102.811 201.599 102.811 201.599L100.915 195.934Z" fill="white"/>
<path d="M245.904 136.075L175.164 219.952L177.998 220.888L245.904 136.075Z" fill="white"/>
<path d="M250.674 119.439C250.674 119.439 244.75 131.788 245.904 136.075C245.904 136.075 253.174 130.307 250.674 119.439Z" fill="white"/>
<path d="M238.399 119.278C238.399 119.278 239.815 131.836 242.964 135.198C242.956 135.215 246.021 127.971 238.399 119.278Z" fill="white"/>
<path d="M263.529 120.234C263.529 120.234 247.136 130.112 246.743 135.741C246.743 135.741 261.829 134.212 263.529 120.234Z" fill="white"/>
<path d="M231.43 122.161C231.43 122.161 231.927 137.779 232.339 142.261C232.438 143.314 232.682 143.865 233.017 144.058C234.007 144.628 235.747 141.963 236.51 139.968C237.522 137.31 238.13 128.207 231.43 122.161Z" fill="white"/>
<path d="M233.294 143.904C233.294 143.904 233.275 143.814 233.249 143.932C232.989 145.222 231.409 153.039 230.731 154.232C229.973 155.525 232.208 152.745 232.208 152.745L233.294 143.904Z" fill="white"/>
<path d="M243.003 135.064C243.003 135.064 242.866 134.942 242.865 134.997C242.929 136.355 241.087 141.242 240.392 142.426C239.634 143.72 241.378 141.536 241.378 141.536L243.003 135.064Z" fill="white"/>
<path d="M226.151 126.459C226.151 126.459 222.234 145.299 223.638 150.39C225.422 156.87 229.802 147.633 229.951 145.688C230.1 143.742 232.111 132.912 226.151 126.459Z" fill="white"/>
<path d="M243.003 135.064C243.003 135.064 242.866 134.942 242.865 134.997C242.929 136.355 241.087 141.242 240.392 142.426C239.634 143.72 241.378 141.536 241.378 141.536L243.003 135.064Z" fill="white"/>
<path d="M225.502 152.051C225.502 152.051 225.482 151.953 225.453 152.087C225.15 153.521 223.338 162.217 222.602 163.551C221.796 165.008 224.139 161.856 224.139 161.856L225.502 152.051Z" fill="white"/>
<path d="M211.577 129.357C211.577 129.357 212.282 152.656 214.795 158.443C217.996 165.806 221.522 153.996 221.205 151.638C220.888 149.279 218.715 135.831 211.577 129.357Z" fill="white"/>
<path d="M217.024 160.657C217.024 160.657 217 160.26 216.97 160.406C216.632 162.006 215.73 171.013 214.903 172.502C214.001 174.124 216.533 170.924 216.533 170.924L217.024 160.657Z" fill="white"/>
<path d="M201.714 136.684C201.714 136.684 204.268 161.497 206.699 167.583C209.793 175.323 213.016 161.839 212.676 157.718C212.331 153.502 208.784 143.405 201.714 136.684Z" fill="white"/>
<path d="M208.9 169.885C208.9 169.885 208.886 169.455 208.851 169.624C208.485 171.324 207.42 180.888 206.569 182.48C205.636 184.218 208.235 180.775 208.235 180.775L208.9 169.885Z" fill="white"/>
<path d="M193.895 145.764C193.895 145.764 196.449 170.576 198.879 176.662C201.974 184.402 205.197 170.918 204.857 166.798C204.503 162.578 200.963 152.488 193.895 145.764Z" fill="white"/>
<path d="M201.079 178.965C201.079 178.965 201.066 178.534 201.03 178.703C200.664 180.404 199.519 190.263 198.664 191.862C197.731 193.6 200.638 189.853 200.638 189.853L201.079 178.965Z" fill="white"/>
<path d="M182.916 152.299C182.916 152.299 187.946 178.806 190.376 184.892C193.471 192.632 196.384 177.094 196.048 172.976C195.696 168.752 189.986 159.02 182.916 152.299Z" fill="white"/>
<path d="M192.075 186.909C192.075 186.909 192.044 186.673 191.995 186.87C191.522 188.908 190.4 200.729 189.447 202.67C188.413 204.796 191.84 200.331 191.84 200.331L192.075 186.909Z" fill="white"/>
<path d="M168.86 160.378C168.86 160.378 171.174 170.109 175.082 178.943C177.703 184.881 181.909 190.248 183.393 192.601C188.096 200.064 186.597 184.124 185.325 179.974C184.038 175.686 177.082 166.218 168.86 160.378Z" fill="white"/>
<path d="M185.545 194.343C185.545 194.343 185.515 194.107 185.466 194.304C184.993 196.342 183.745 209.103 182.677 210.992C182.425 211.437 185.403 207.894 185.403 207.894L185.545 194.343Z" fill="white"/>
<path d="M160.715 170.054C160.715 170.054 163.306 181 167.629 190.939C170.532 197.615 175.149 203.649 176.782 206.3C181.96 214.692 180.218 196.752 178.809 192.074C177.364 187.281 169.726 176.62 160.715 170.054Z" fill="white"/>
<path d="M144.854 185.243C144.854 185.243 154.875 194.776 161.628 202.861C169.524 212.341 171.028 213.619 173.663 215.336C182.019 220.774 172.528 200.934 169.041 197.353C165.447 193.673 155.313 187.65 144.854 185.243Z" fill="white"/>
<path d="M258.753 127.821C258.753 127.821 248.181 137.318 243.938 138.749C243.942 138.751 248.069 131.706 258.753 127.821Z" fill="white"/>
<path d="M261.098 134.866C261.098 134.866 249.031 140.194 245.288 140.024C245.286 140.027 251.54 134.723 261.098 134.866Z" fill="white"/>
<path d="M255.707 120.753C255.707 120.753 249.335 135.11 244.105 138.105C244.102 138.099 242.841 128.597 255.707 120.753Z" fill="white"/>
<path d="M259.632 140.331C259.632 140.331 244.833 147.706 240.541 149.664C239.532 150.124 238.968 150.252 238.748 150.162C238.032 149.869 240.234 147.552 241.975 146.13C244.277 144.222 252.724 139.416 259.632 140.331Z" fill="white"/>
<path d="M238.824 149.91C238.824 149.91 238.91 149.88 238.804 149.951C237.636 150.736 230.547 155.482 229.547 156.475C228.465 157.552 230.677 154.905 230.677 154.905L238.824 149.91Z" fill="white"/>
<path d="M245.406 139.942C245.406 139.942 245.546 139.963 245.498 139.987C244.203 140.629 239.941 144.069 238.944 145.068C237.862 146.145 239.605 144.059 239.605 144.059L245.406 139.942Z" fill="white"/>
<path d="M256.531 145.5C256.531 145.5 239.487 157.015 234.44 158.696C228.016 160.84 235.936 153.768 237.741 152.724C239.545 151.681 249.381 145.209 256.531 145.5Z" fill="white"/>
<path d="M245.406 139.942C245.406 139.942 245.546 139.963 245.498 139.987C244.203 140.629 239.941 144.069 238.944 145.068C237.862 146.145 239.605 144.059 239.605 144.059L245.406 139.942Z" fill="white"/>
<path d="M232.542 158.431C232.542 158.431 232.639 158.393 232.521 158.476C231.225 159.355 223.357 164.672 222.225 165.767C220.998 166.951 223.548 164.044 223.548 164.044L232.542 158.431Z" fill="white"/>
<path d="M256.404 155.38C256.404 155.38 234.336 166.404 228.433 167.783C220.925 169.54 231.417 161.696 233.689 160.722C235.961 159.749 249.031 154.412 256.404 155.38Z" fill="white"/>
<path d="M225.952 167.578C225.952 167.578 226.33 167.397 226.199 167.486C224.746 168.475 216.432 173.41 215.178 174.619C213.808 175.938 216.371 172.897 216.371 172.897L225.952 167.578Z" fill="white"/>
<path d="M251.269 164.692C251.269 164.692 227.456 175.389 221.28 176.958C213.436 178.958 225.558 170.473 229.497 168.657C233.534 166.786 243.677 163.898 251.269 164.692Z" fill="white"/>
<path d="M218.715 176.818C218.715 176.818 219.115 176.622 218.971 176.717C217.429 177.762 208.638 183.083 207.274 184.349C205.8 185.753 208.581 182.542 208.581 182.542L218.715 176.818Z" fill="white"/>
<path d="M244.114 173.691C244.114 173.691 220.301 184.388 214.125 185.957C206.281 187.957 218.403 179.472 222.342 177.656C226.381 175.782 236.52 172.888 244.114 173.691Z" fill="white"/>
<path d="M211.564 185.811C211.564 185.811 211.964 185.615 211.82 185.71C210.278 186.754 201.2 192.263 199.85 193.54C198.377 194.944 201.398 191.418 201.398 191.418L211.564 185.811Z" fill="white"/>
<path d="M239.946 183.277C239.946 183.277 214.082 193.364 207.91 194.935C200.066 196.935 214.179 187.62 218.121 185.797C222.145 183.923 232.332 182.464 239.946 183.277Z" fill="white"/>
<path d="M205.693 194.934C205.693 194.934 205.921 194.837 205.747 194.961C203.904 196.231 192.982 202.683 191.323 204.192C189.487 205.843 193.096 201.662 193.096 201.662L205.693 194.934Z" fill="white"/>
<path d="M234.834 195.394C228.794 197.522 222.587 199.357 216.236 200.893C210.178 202.282 204.369 202.477 201.88 202.768C194.012 203.701 209.293 196.751 213.435 195.441C217.689 194.104 227.861 193.484 234.834 195.394Z" fill="white"/>
<path d="M199.856 202.369C199.856 202.369 200.084 202.272 199.911 202.395C198.068 203.666 186.279 210.656 184.694 212.204C184.32 212.57 187.122 209.102 187.122 209.102L199.856 202.369Z" fill="white"/>
<path d="M227.173 204.868C227.173 204.868 216.401 208.735 206.268 211.103C199.462 212.692 192.95 212.974 190.163 213.324C181.347 214.441 198.537 206.646 203.196 205.167C207.971 203.651 219.381 202.857 227.173 204.868Z" fill="white"/>
</g>
<defs>
<clipPath id="clip0_171_732">
<rect width="265" height="199" fill="white"/>
</clipPath>
</defs>
</svg>
