<svg width="380" height="109" viewBox="0 0 380 109" fill="none" xmlns="http://www.w3.org/2000/svg">
<path d="M123.333 38.2402C123.333 38.2402 117.533 108.24 193.333 108.24C193.303 70.8702 162.473 41.3802 123.333 38.2402Z" fill="#27DFC1"/>
<path d="M261.993 38.2897C261.993 38.2897 191.993 32.4897 191.993 108.29C229.363 108.26 258.833 77.4597 261.993 38.2897Z" fill="#27DFC1"/>
<path d="M189.943 0C189.943 0 132.783 51.31 193.073 108.21C221.113 78.5 218.733 31.92 189.943 0Z" fill="#58F6BC"/>
<path d="M0.0332334 64.6299C0.0332334 64.6299 -1.84677 87.2799 22.6732 87.2799C22.6732 75.1899 12.7032 65.6499 0.0332334 64.6299Z" fill="#27DFC1"/>
<path d="M44.9032 64.6504C44.9032 64.6504 22.2532 62.7704 22.2532 87.2904C34.3432 87.2904 43.8832 77.3204 44.9032 64.6504Z" fill="#27DFC1"/>
<path d="M21.5832 52.2598C21.5832 52.2598 3.08322 68.8598 22.5832 87.2598C31.6732 77.6598 30.9032 62.5898 21.5832 52.2598Z" fill="#58F6BC"/>
<path d="M334.573 62.8096C334.573 62.8096 332.693 85.4496 357.213 85.4496C357.213 73.3796 347.253 63.8296 334.573 62.8096Z" fill="#27DFC1"/>
<path d="M379.473 62.8203C379.473 62.8203 356.833 60.9403 356.833 85.4703C368.883 85.4703 378.473 75.5003 379.473 62.8203Z" fill="#27DFC1"/>
<path d="M356.133 50.4297C356.133 50.4297 337.633 67.0297 357.133 85.4297C366.213 75.8297 365.473 60.7597 356.133 50.4297Z" fill="#58F6BC"/>
</svg>
