<svg width="90" height="90" viewBox="0 0 90 90" fill="none" xmlns="http://www.w3.org/2000/svg">
<path d="M45 90C69.8528 90 90 69.8528 90 45C90 20.1472 69.8528 0 45 0C20.1472 0 0 20.1472 0 45C0 69.8528 20.1472 90 45 90Z" fill="#27DFC1"/>
<g opacity="0.7">
<path opacity="0.7" d="M45 90C69.8528 90 90 69.8528 90 45C90 20.1472 69.8528 0 45 0C20.1472 0 0 20.1472 0 45C0 69.8528 20.1472 90 45 90Z" fill="white"/>
</g>
<g opacity="0.7">
<path opacity="0.7" d="M45 90C69.8528 90 90 69.8528 90 45C90 20.1472 69.8528 0 45 0C20.1472 0 0 20.1472 0 45C0 69.8528 20.1472 90 45 90Z" fill="white"/>
</g>
<path d="M75.1321 59.8507C75.202 58.4503 74.9639 57.0515 74.4346 55.7531C73.9052 54.4546 73.0976 53.2881 72.0684 52.3357C73.4388 52.0386 74.7265 51.4418 75.8388 50.588C76.9512 49.7342 77.8607 48.6447 78.5021 47.3977C78.8678 46.7234 79.3428 46.1145 79.9078 45.5956C80.0595 45.4969 80.1859 45.3639 80.2767 45.2074C80.3674 45.0509 80.4201 44.8752 80.4304 44.6945C80.4457 44.5134 80.4158 44.3314 80.3434 44.1647C80.2711 43.998 80.1586 43.8519 80.016 43.7393C79.53 43.2484 79.1007 42.7043 78.7364 42.1174C77.4436 39.8631 75.3338 38.192 72.8433 37.4498C74.4809 35.5557 75.3603 33.1229 75.3123 30.6195C75.3134 29.8705 75.4413 29.1271 75.6907 28.4209C75.7703 28.2582 75.8117 28.0794 75.8117 27.8983C75.8117 27.7171 75.7703 27.5384 75.6907 27.3756C75.6119 27.2144 75.4954 27.0746 75.3511 26.9679C75.2068 26.8613 75.039 26.791 74.8617 26.7629C74.1972 26.5711 73.5564 26.3052 72.9515 25.9699C70.6772 24.5414 67.9287 24.0747 65.3103 24.6724C65.8729 22.1078 65.4139 19.425 64.0307 17.1934C63.695 16.5823 63.429 15.9355 63.2378 15.265C63.2078 15.0871 63.1359 14.9189 63.028 14.7744C62.92 14.6298 62.7791 14.513 62.6171 14.4338C62.455 14.3545 62.2764 14.315 62.096 14.3185C61.9156 14.322 61.7387 14.3685 61.5798 14.4541C60.87 14.6874 60.1283 14.809 59.3812 14.8145C56.884 14.7464 54.4504 15.6068 52.551 17.2294C51.7823 14.7108 50.0628 12.5905 47.7572 11.3183C47.1659 10.9532 46.6212 10.5175 46.1353 10.0207C46.0238 9.87683 45.8779 9.7634 45.7109 9.69094C45.5439 9.61848 45.3614 9.58934 45.1801 9.60622C44.9995 9.61654 44.8238 9.66923 44.6672 9.76002C44.5107 9.85081 44.3777 9.97716 44.279 10.1289C43.7608 10.6896 43.1515 11.1588 42.4769 11.5165C40.2025 12.7108 38.4782 14.7385 37.6651 17.1753C35.7125 15.3573 33.1234 14.3799 30.4565 14.4541C29.7679 14.448 29.0832 14.3511 28.42 14.1657C28.2478 14.1051 28.0639 14.085 27.8827 14.1068C27.7014 14.1287 27.5276 14.192 27.3748 14.2919C27.223 14.3932 27.0978 14.5297 27.01 14.6897C26.9222 14.8497 26.8742 15.0285 26.8701 15.211C26.7144 15.9386 26.4469 16.6377 26.0772 17.2835C24.7626 19.4411 24.2939 22.0093 24.7616 24.4922C22.197 23.9046 19.5045 24.3307 17.2466 25.6816C16.6365 26.0102 15.9891 26.2643 15.3183 26.4385C15.1388 26.4667 14.9686 26.5369 14.8214 26.6434C14.6742 26.7499 14.5542 26.8896 14.4713 27.0512C14.3917 27.214 14.3503 27.3927 14.3503 27.5739C14.3503 27.755 14.3917 27.9338 14.4713 28.0965C14.6963 28.8078 14.8118 29.5491 14.8137 30.2951C14.7327 31.6952 14.9639 33.0958 15.4906 34.3955C16.0174 35.6952 16.8265 36.8616 17.8593 37.8102C16.4913 38.1131 15.2062 38.7122 14.0946 39.5654C12.9831 40.4185 12.072 41.5049 11.4256 42.7481C11.0687 43.4282 10.5926 44.0386 10.0199 44.5503C9.86862 44.645 9.7422 44.7747 9.65127 44.9283C9.56034 45.0819 9.50753 45.2551 9.4973 45.4334C9.48366 45.6143 9.51429 45.7958 9.58651 45.9622C9.65873 46.1286 9.77038 46.2749 9.91182 46.3885C10.4017 46.8826 10.8312 47.4332 11.1913 48.0285C12.4338 50.2698 14.4627 51.9713 16.8862 52.8043H17.0844C15.4465 54.6911 14.5668 57.1184 14.6155 59.6165C14.61 60.3636 14.4884 61.1053 14.255 61.8151C14.1713 61.9766 14.1276 62.1558 14.1276 62.3377C14.1276 62.5196 14.1713 62.6989 14.255 62.8604C14.3381 63.0236 14.4578 63.1655 14.6047 63.2749C14.7516 63.3843 14.9218 63.4583 15.102 63.4911C15.771 63.6699 16.4134 63.9366 17.0123 64.2841C18.019 64.8179 19.0752 65.2525 20.1661 65.5816C21.6258 66.0052 23.1758 66.0052 24.6355 65.5816C24.0898 68.1582 24.5474 70.8459 25.915 73.0967C26.2548 73.6995 26.521 74.3408 26.708 75.007C26.7362 75.1865 26.8064 75.3567 26.9129 75.5039C27.0193 75.6511 27.1591 75.7711 27.3207 75.854H27.537C27.8046 75.9518 28.0983 75.9518 28.3659 75.854C29.0737 75.6124 29.8168 75.4906 30.5646 75.4936C33.0705 75.5629 35.5123 74.6955 37.4128 73.0607C38.1815 75.5784 39.8923 77.7024 42.1885 78.9898C42.7821 79.3446 43.3273 79.7747 43.8105 80.2693C43.9642 80.4585 44.1715 80.5967 44.4052 80.6658H44.7656C44.9466 80.6569 45.1229 80.6049 45.2796 80.5139C45.4364 80.423 45.5691 80.2959 45.6667 80.1432C46.18 79.577 46.7903 79.107 47.4689 78.7555C49.7501 77.5475 51.4793 75.5085 52.2987 73.0607C53.331 74.1647 54.6561 74.9523 56.1193 75.3314C57.2296 75.6031 58.3649 75.7601 59.5073 75.8C60.2003 75.8243 60.8889 75.921 61.5618 76.0883C61.7306 76.1513 61.9121 76.1733 62.0911 76.1523C62.2701 76.1313 62.4415 76.068 62.5912 75.9676C62.7409 75.8672 62.8645 75.7326 62.9519 75.575C63.0393 75.4174 63.0878 75.2412 63.0936 75.0611C63.245 74.3265 63.5127 73.6207 63.8866 72.9705C65.2145 70.818 65.6841 68.2447 65.2022 65.7619H65.4004C67.9171 66.2712 70.5333 65.8212 72.7352 64.5003C73.3462 64.1736 73.9934 63.9195 74.6635 63.7434C74.8408 63.7154 75.0086 63.645 75.1529 63.5384C75.2972 63.4317 75.4137 63.2919 75.4925 63.1307C75.5809 62.9707 75.6272 62.7909 75.6272 62.6081C75.6272 62.4253 75.5809 62.2455 75.4925 62.0854C75.2502 61.3654 75.1284 60.6104 75.1321 59.8507V59.8507Z" fill="#27DFC1"/>
<g opacity="0.2">
<path opacity="0.2" d="M75.1321 59.8507C75.202 58.4503 74.9639 57.0515 74.4346 55.7531C73.9052 54.4546 73.0976 53.2881 72.0684 52.3357C73.4388 52.0386 74.7265 51.4418 75.8388 50.588C76.9512 49.7342 77.8607 48.6447 78.5021 47.3977C78.8678 46.7234 79.3428 46.1145 79.9078 45.5956C80.0595 45.4969 80.1859 45.3639 80.2767 45.2074C80.3674 45.0509 80.4201 44.8752 80.4304 44.6945C80.4457 44.5134 80.4158 44.3314 80.3434 44.1647C80.2711 43.998 80.1586 43.8519 80.016 43.7393C79.53 43.2484 79.1007 42.7043 78.7364 42.1174C77.4436 39.8631 75.3338 38.192 72.8433 37.4498C74.4809 35.5557 75.3603 33.1229 75.3123 30.6195C75.3134 29.8705 75.4413 29.1271 75.6907 28.4209C75.7703 28.2582 75.8117 28.0794 75.8117 27.8983C75.8117 27.7171 75.7703 27.5384 75.6907 27.3756C75.6119 27.2144 75.4954 27.0746 75.3511 26.9679C75.2068 26.8613 75.039 26.791 74.8617 26.7629C74.1972 26.5711 73.5564 26.3052 72.9515 25.9699C70.6772 24.5414 67.9287 24.0747 65.3103 24.6724C65.8729 22.1078 65.4139 19.425 64.0307 17.1934C63.695 16.5823 63.429 15.9355 63.2378 15.265C63.2078 15.0871 63.1359 14.9189 63.028 14.7744C62.92 14.6298 62.7791 14.513 62.6171 14.4338C62.455 14.3545 62.2764 14.315 62.096 14.3185C61.9156 14.322 61.7387 14.3685 61.5798 14.4541C60.87 14.6874 60.1283 14.809 59.3812 14.8145C56.884 14.7464 54.4504 15.6068 52.551 17.2294C51.7823 14.7108 50.0628 12.5905 47.7572 11.3183C47.1659 10.9532 46.6212 10.5175 46.1353 10.0207C46.0238 9.87683 45.8779 9.7634 45.7109 9.69094C45.5439 9.61848 45.3614 9.58934 45.1801 9.60622C44.9995 9.61654 44.8238 9.66923 44.6672 9.76002C44.5107 9.85081 44.3777 9.97716 44.279 10.1289C43.7608 10.6896 43.1515 11.1588 42.4769 11.5165C40.2025 12.7108 38.4782 14.7385 37.6651 17.1753C35.7125 15.3573 33.1234 14.3799 30.4565 14.4541C29.7679 14.448 29.0832 14.3511 28.42 14.1657C28.2478 14.1051 28.0639 14.085 27.8827 14.1068C27.7014 14.1287 27.5276 14.192 27.3748 14.2919C27.223 14.3932 27.0978 14.5297 27.01 14.6897C26.9222 14.8497 26.8742 15.0285 26.8701 15.211C26.7144 15.9386 26.4469 16.6377 26.0772 17.2835C24.7626 19.4411 24.2939 22.0093 24.7616 24.4922C22.197 23.9046 19.5045 24.3307 17.2466 25.6816C16.6365 26.0102 15.9891 26.2643 15.3183 26.4385C15.1388 26.4667 14.9686 26.5369 14.8214 26.6434C14.6742 26.7499 14.5542 26.8896 14.4713 27.0512C14.3917 27.214 14.3503 27.3927 14.3503 27.5739C14.3503 27.755 14.3917 27.9338 14.4713 28.0965C14.6963 28.8078 14.8118 29.5491 14.8137 30.2951C14.7327 31.6952 14.9639 33.0958 15.4906 34.3955C16.0174 35.6952 16.8265 36.8616 17.8593 37.8102C16.4913 38.1131 15.2062 38.7122 14.0946 39.5654C12.9831 40.4185 12.072 41.5049 11.4256 42.7481C11.0687 43.4282 10.5926 44.0386 10.0199 44.5503C9.86862 44.645 9.7422 44.7747 9.65127 44.9283C9.56034 45.0819 9.50753 45.2551 9.4973 45.4334C9.48366 45.6143 9.51429 45.7958 9.58651 45.9622C9.65873 46.1286 9.77038 46.2749 9.91182 46.3885C10.4017 46.8826 10.8312 47.4332 11.1913 48.0285C12.4338 50.2698 14.4627 51.9713 16.8862 52.8043H17.0844C15.4465 54.6911 14.5668 57.1184 14.6155 59.6165C14.61 60.3636 14.4884 61.1053 14.255 61.8151C14.1713 61.9766 14.1276 62.1558 14.1276 62.3377C14.1276 62.5196 14.1713 62.6989 14.255 62.8604C14.3381 63.0236 14.4578 63.1655 14.6047 63.2749C14.7516 63.3843 14.9218 63.4583 15.102 63.4911C15.771 63.6699 16.4134 63.9366 17.0123 64.2841C18.019 64.8179 19.0752 65.2525 20.1661 65.5816C21.6258 66.0052 23.1758 66.0052 24.6355 65.5816C24.0898 68.1582 24.5474 70.8459 25.915 73.0967C26.2548 73.6995 26.521 74.3408 26.708 75.007C26.7362 75.1865 26.8064 75.3567 26.9129 75.5039C27.0193 75.6511 27.1591 75.7711 27.3207 75.854H27.537C27.8046 75.9518 28.0983 75.9518 28.3659 75.854C29.0737 75.6124 29.8168 75.4906 30.5646 75.4936C33.0705 75.5629 35.5123 74.6955 37.4128 73.0607C38.1815 75.5784 39.8923 77.7024 42.1885 78.9898C42.7821 79.3446 43.3273 79.7747 43.8105 80.2693C43.9642 80.4585 44.1715 80.5967 44.4052 80.6658H44.7656C44.9466 80.6569 45.1229 80.6049 45.2796 80.5139C45.4364 80.423 45.5691 80.2959 45.6667 80.1432C46.18 79.577 46.7903 79.107 47.4689 78.7555C49.7501 77.5475 51.4793 75.5085 52.2987 73.0607C53.331 74.1647 54.6561 74.9523 56.1193 75.3314C57.2296 75.6031 58.3649 75.7601 59.5073 75.8C60.2003 75.8243 60.8889 75.921 61.5618 76.0883C61.7306 76.1513 61.9121 76.1733 62.0911 76.1523C62.2701 76.1313 62.4415 76.068 62.5912 75.9676C62.7409 75.8672 62.8645 75.7326 62.9519 75.575C63.0393 75.4174 63.0878 75.2412 63.0936 75.0611C63.245 74.3265 63.5127 73.6207 63.8866 72.9705C65.2145 70.818 65.6841 68.2447 65.2022 65.7619H65.4004C67.9171 66.2712 70.5333 65.8212 72.7352 64.5003C73.3462 64.1736 73.9934 63.9195 74.6635 63.7434C74.8408 63.7154 75.0086 63.645 75.1529 63.5384C75.2972 63.4317 75.4137 63.2919 75.4925 63.1307C75.5809 62.9707 75.6272 62.7909 75.6272 62.6081C75.6272 62.4253 75.5809 62.2455 75.4925 62.0854C75.2502 61.3654 75.1284 60.6104 75.1321 59.8507V59.8507Z" fill="black"/>
</g>
<path d="M76.9884 51.2544C76.3036 49.2179 72.1226 46.2263 69.3292 45.0008C72.1226 43.7573 76.3036 40.7837 76.9884 38.7292C77.1694 38.0235 77.4679 37.3534 77.8715 36.7468C77.9898 36.6172 78.0759 36.4616 78.1229 36.2925C78.1699 36.1235 78.1763 35.9457 78.1418 35.7737C78.1022 35.6026 78.0228 35.4433 77.9101 35.3086C77.7973 35.174 77.6544 35.0678 77.493 34.9987C76.9171 34.6543 76.3794 34.2495 75.8891 33.7913C74.4294 32.5297 69.3653 32.2053 66.5899 32.2774C67.8515 30.0427 70.0861 25.6634 69.7257 23.7531C69.5389 23.0484 69.466 22.3183 69.5094 21.5905C69.5533 21.4215 69.5549 21.2444 69.514 21.0746C69.4731 20.9049 69.3911 20.7479 69.2752 20.6173C69.1578 20.4825 69.0099 20.3777 68.8437 20.3118C68.6775 20.246 68.4979 20.221 68.32 20.2389C67.6516 20.2336 66.9861 20.149 66.3376 19.9866C64.4093 19.5901 59.8138 21.7888 57.3268 23.2846C57.3268 20.5272 56.9664 15.4811 55.7049 14.0214C55.228 13.5426 54.816 13.0033 54.4794 12.4174C54.4078 12.258 54.298 12.1187 54.1596 12.0118C54.0213 11.9049 53.8588 11.8338 53.6864 11.8047C53.5144 11.7716 53.337 11.7788 53.1682 11.8257C52.9993 11.8726 52.8436 11.9579 52.7133 12.075C52.1112 12.4791 51.4479 12.7834 50.7489 12.9761C48.9468 13.6249 46.2615 17.7339 44.964 19.9505C43.6304 17.5176 40.783 13.3005 38.9628 12.7418C38.3343 12.5458 37.7298 12.2798 37.1606 11.9489C37.0174 11.8435 36.8512 11.7738 36.6756 11.7456C36.5001 11.7174 36.3204 11.7315 36.1514 11.7867C35.9846 11.8408 35.8334 11.9347 35.711 12.0603C35.5885 12.1859 35.4985 12.3394 35.4486 12.5075C35.1208 13.1726 34.6888 13.781 34.169 14.3097C32.8534 15.8055 32.529 20.7615 32.5651 23.4287C30.1502 21.9329 25.5547 19.8244 23.5543 20.1308C22.906 20.2941 22.2404 20.3789 21.5719 20.3831C21.3967 20.365 21.2197 20.3901 21.0564 20.4561C20.8931 20.522 20.7483 20.6269 20.6348 20.7615C20.5208 20.8935 20.4388 21.0499 20.395 21.2187C20.3513 21.3874 20.347 21.564 20.3825 21.7347C20.434 22.4615 20.3671 23.1919 20.1842 23.8973C19.8238 25.8076 21.9864 30.1869 23.32 32.4216C20.5447 32.4216 15.4806 32.6739 14.0028 33.9354C13.5195 34.402 12.9809 34.8075 12.3989 35.1429C12.24 35.2131 12.1 35.3199 11.9904 35.4546C11.8807 35.5893 11.8046 35.748 11.7681 35.9178C11.729 36.0897 11.7332 36.2687 11.7804 36.4386C11.8276 36.6084 11.9162 36.7639 12.0385 36.891C12.4276 37.5031 12.7194 38.1718 12.9035 38.8734C13.5883 40.9279 17.7873 43.9015 20.5627 45.145C17.7873 46.3705 13.5883 49.3621 12.9035 51.3985C12.7194 52.1001 12.4276 52.7689 12.0385 53.3809C11.9129 53.5109 11.8207 53.6694 11.7698 53.8427C11.7189 54.0161 11.7109 54.1993 11.7463 54.3765C11.7817 54.5537 11.8597 54.7197 11.9733 54.8601C12.087 55.0006 12.233 55.1115 12.3989 55.1831C12.9849 55.5124 13.5243 55.9185 14.0028 56.3906C15.4445 57.616 20.4546 57.9044 23.1398 57.9044H23.32C22.0945 59.9589 19.9139 64.3202 20.2924 66.2845C20.4758 66.9836 20.5428 67.7082 20.4906 68.4291C20.455 68.6027 20.4592 68.782 20.5029 68.9537C20.5466 69.1254 20.6286 69.2849 20.7429 69.4203C20.8583 69.5517 21.0039 69.6531 21.1671 69.7159C21.3303 69.7787 21.5063 69.8009 21.68 69.7808C22.3492 69.7926 23.0145 69.8833 23.6624 70.0511C26.7944 69.3237 29.822 68.2035 32.6732 66.717C32.6732 69.5104 33.0337 74.5565 34.3132 75.9983C34.7756 76.4851 35.1807 77.0232 35.5206 77.6022C35.5949 77.7616 35.7052 77.9015 35.8428 78.0109C35.9804 78.1204 36.1416 78.1964 36.3136 78.233H36.5118C36.652 78.2343 36.791 78.2079 36.9209 78.1553C37.0508 78.1027 37.169 78.025 37.2687 77.9266C37.8702 77.5257 38.534 77.2273 39.2331 77.0435C41.0353 76.3947 43.7385 72.2677 45.0361 70.0511C46.3697 72.502 49.1991 76.7191 51.0193 77.2598C51.6471 77.4575 52.2515 77.7234 52.8214 78.0527C53.0073 78.1955 53.2358 78.2717 53.4702 78.269C53.5837 78.2863 53.6991 78.2863 53.8126 78.269C53.981 78.2177 54.1337 78.1248 54.2565 77.9988C54.3794 77.8727 54.4685 77.7177 54.5155 77.5481C54.8526 76.8887 55.2836 76.2817 55.795 75.746C57.1286 74.2501 57.4349 69.2942 57.3989 66.6269C60.2548 68.0985 63.2812 69.2123 66.4097 69.9429C67.0578 69.7763 67.7231 69.6856 68.3921 69.6726C68.5687 69.6965 68.7484 69.6764 68.9153 69.6141C69.0822 69.5518 69.2312 69.4492 69.3489 69.3154C69.4666 69.1817 69.5494 69.0209 69.59 68.8474C69.6306 68.6739 69.6277 68.4931 69.5815 68.321C69.5375 67.5991 69.6105 66.8749 69.7978 66.1764C70.1582 64.2481 67.9956 59.8868 66.662 57.6521C66.662 57.6521 74.5195 57.3637 75.9612 56.1383C76.4468 55.6744 76.9851 55.2691 77.5651 54.9308C77.7287 54.86 77.8729 54.751 77.9857 54.6131C78.0986 54.4751 78.1769 54.3122 78.2139 54.1378C78.247 53.9658 78.2398 53.7884 78.1929 53.6195C78.146 53.4507 78.0607 53.295 77.9436 53.1647C77.5218 52.585 77.1991 51.9395 76.9884 51.2544V51.2544Z" fill="#27DFC1"/>
<path d="M67.4182 56.0479C67.3101 54.3899 64.1743 51.146 62.4263 49.7223C64.6609 49.3799 69.0042 48.1545 69.9233 46.7848C70.1971 46.2972 70.5503 45.8586 70.9685 45.4873C71.0829 45.4157 71.1786 45.3179 71.2475 45.2019C71.3165 45.0859 71.3568 44.9552 71.365 44.8205C71.3722 44.6858 71.3464 44.5513 71.2898 44.4289C71.2333 44.3064 71.1478 44.1996 71.0406 44.1176C70.6855 43.7502 70.3713 43.3454 70.1035 42.9102C69.2565 41.6847 64.9313 40.5674 62.8948 40.0808C64.2284 38.7112 67.4002 35.7376 67.5084 34.2419C67.5081 33.6826 67.6056 33.1275 67.7967 32.6019C67.8543 32.4809 67.8843 32.3485 67.8843 32.2144C67.8843 32.0804 67.8543 31.948 67.7967 31.827C67.7348 31.7055 67.6457 31.6 67.5363 31.5187C67.4269 31.4374 67.3001 31.3825 67.1659 31.3584C66.669 31.2187 66.1909 31.019 65.7422 30.7637C64.4086 30.0969 60.0474 31.2503 58.029 31.845C58.5876 29.8626 59.8311 25.5735 59.1103 24.2399C58.8594 23.7913 58.6657 23.313 58.5336 22.8162C58.5095 22.6821 58.4546 22.5553 58.3733 22.4459C58.292 22.3364 58.1865 22.2473 58.065 22.1855C57.944 22.1278 57.8116 22.0979 57.6775 22.0979C57.5435 22.0979 57.4111 22.1278 57.2901 22.1855C56.7606 22.3596 56.2074 22.4508 55.6501 22.4558C54.1723 22.5639 51.1627 25.6997 49.8111 27.0333C49.3245 25.0329 48.2252 20.6897 46.9997 19.8247C46.5623 19.5462 46.1573 19.2198 45.7923 18.8515C45.7137 18.7435 45.6107 18.6557 45.4917 18.5951C45.3727 18.5345 45.241 18.5029 45.1075 18.5029C44.9739 18.5029 44.8423 18.5345 44.7233 18.5951C44.6042 18.6557 44.5012 18.7435 44.4226 18.8515C44.0489 19.2623 43.6106 19.6092 43.1251 19.8787C41.8455 20.7257 40.7462 24.9608 40.2596 26.8711C38.8179 25.3392 35.6641 22.1674 34.1683 22.0593C33.6515 22.0559 33.1371 21.9893 32.6365 21.8611C32.5214 21.7946 32.3909 21.7597 32.258 21.7597C32.1252 21.7597 31.9946 21.7946 31.8796 21.8611C31.7653 21.9312 31.6706 22.0291 31.6044 22.1457C31.5382 22.2623 31.5027 22.3938 31.5011 22.5279C31.3898 23.0738 31.1889 23.5975 30.9064 24.0777C30.2576 25.4293 31.4471 29.5923 31.9337 31.4485C29.9513 30.8538 25.6621 29.6464 24.3285 30.2771C23.8751 30.5133 23.3979 30.7006 22.9048 30.8358C22.7719 30.8567 22.6457 30.9082 22.5362 30.9865C22.4267 31.0647 22.3369 31.1673 22.2741 31.2863C22.2124 31.4062 22.1802 31.539 22.1802 31.6738C22.1802 31.8086 22.2124 31.9414 22.2741 32.0612C22.438 32.5926 22.523 33.1451 22.5264 33.7012C22.5264 35.3592 25.7342 38.6031 27.4823 40.0268C25.2476 40.3692 20.9224 41.5946 20.0033 42.9823C19.7297 43.4597 19.3831 43.8914 18.9761 44.2618C18.8617 44.3333 18.766 44.4312 18.6971 44.5471C18.6281 44.6631 18.5878 44.7939 18.5796 44.9286C18.5704 45.0644 18.5933 45.2004 18.6465 45.3257C18.6998 45.4509 18.7818 45.5619 18.886 45.6495C19.2521 46.0118 19.5728 46.4172 19.8411 46.8569C20.6521 48.0463 24.9232 49.1276 26.8516 49.6502C26.8516 49.6502 22.5084 54.0295 22.3822 55.5252C22.3782 56.0768 22.287 56.6242 22.1119 57.1472C22.0502 57.267 22.0181 57.3999 22.0181 57.5346C22.0181 57.6694 22.0502 57.8023 22.1119 57.9221C22.1684 58.044 22.2537 58.1504 22.3604 58.232C22.4672 58.3136 22.5922 58.3681 22.7246 58.3907C23.2199 58.5352 23.6974 58.7347 24.1483 58.9854C26.7453 58.9086 29.326 58.546 31.8436 57.9041C31.2849 59.8864 30.0414 64.1936 30.7803 65.5092C31.0318 65.9638 31.2256 66.4482 31.357 66.9509C31.381 67.0828 31.436 67.2071 31.5174 67.3137C31.5989 67.4202 31.7045 67.5059 31.8255 67.5636H31.9877C32.1841 67.6437 32.4041 67.6437 32.6005 67.5636C33.129 67.3876 33.6835 67.3023 34.2404 67.3113C35.7362 67.2032 38.7098 64.0674 40.0614 62.7158C40.548 64.7342 41.6653 69.0594 42.8908 69.9244C43.3312 70.1917 43.7368 70.5125 44.0983 70.8796C44.2102 71.0169 44.3609 71.1174 44.5308 71.1679H44.8011C44.9358 71.1597 45.0666 71.1195 45.1825 71.0505C45.2985 70.9815 45.3964 70.8859 45.4679 70.7714C45.8451 70.3645 46.2828 70.018 46.7655 69.7442C48.045 68.8792 49.1263 64.6441 49.6309 62.7338C51.4738 64.5618 53.5172 66.176 55.7222 67.5456C56.2391 67.5625 56.7526 67.635 57.254 67.7618C57.3751 67.8195 57.5075 67.8494 57.6415 67.8494C57.7756 67.8494 57.9079 67.8195 58.029 67.7618C58.1381 67.6835 58.2275 67.5809 58.29 67.462C58.3526 67.3431 58.3866 67.2113 58.3894 67.077C58.5121 66.5345 58.7124 66.0125 58.9841 65.5272C59.6329 64.1756 58.4254 60.0126 57.9389 58.1564C57.9389 58.1564 64.2464 59.9585 65.562 59.3458C66.0167 59.0943 66.501 58.9005 67.0038 58.7691C67.1381 58.7526 67.2662 58.7028 67.3764 58.6241C67.4866 58.5454 67.5753 58.4404 67.6345 58.3186C67.6921 58.1975 67.722 58.0652 67.722 57.9311C67.722 57.7971 67.6921 57.6647 67.6345 57.5437C67.4874 57.0588 67.4145 56.5545 67.4182 56.0479V56.0479Z" fill="#27DFC1"/>
<g opacity="0.5">
<path opacity="0.5" d="M67.4182 56.0479C67.3101 54.3899 64.1743 51.146 62.4263 49.7223C64.6609 49.3799 69.0042 48.1545 69.9233 46.7848C70.1971 46.2972 70.5503 45.8586 70.9685 45.4873C71.0829 45.4157 71.1786 45.3179 71.2475 45.2019C71.3165 45.0859 71.3568 44.9552 71.365 44.8205C71.3722 44.6858 71.3464 44.5513 71.2898 44.4289C71.2333 44.3064 71.1478 44.1996 71.0406 44.1176C70.6855 43.7502 70.3713 43.3454 70.1035 42.9102C69.2565 41.6847 64.9313 40.5674 62.8948 40.0808C64.2284 38.7112 67.4002 35.7376 67.5084 34.2419C67.5081 33.6826 67.6056 33.1275 67.7967 32.6019C67.8543 32.4809 67.8843 32.3485 67.8843 32.2144C67.8843 32.0804 67.8543 31.948 67.7967 31.827C67.7348 31.7055 67.6457 31.6 67.5363 31.5187C67.4269 31.4374 67.3001 31.3825 67.1659 31.3584C66.669 31.2187 66.1909 31.019 65.7422 30.7637C64.4086 30.0969 60.0474 31.2503 58.029 31.845C58.5876 29.8626 59.8311 25.5735 59.1103 24.2399C58.8594 23.7913 58.6657 23.313 58.5336 22.8162C58.5095 22.6821 58.4546 22.5553 58.3733 22.4459C58.292 22.3364 58.1865 22.2473 58.065 22.1855C57.944 22.1278 57.8116 22.0979 57.6775 22.0979C57.5435 22.0979 57.4111 22.1278 57.2901 22.1855C56.7606 22.3596 56.2074 22.4508 55.6501 22.4558C54.1723 22.5639 51.1627 25.6997 49.8111 27.0333C49.3245 25.0329 48.2252 20.6897 46.9997 19.8247C46.5623 19.5462 46.1573 19.2198 45.7923 18.8515C45.7137 18.7435 45.6107 18.6557 45.4917 18.5951C45.3727 18.5345 45.241 18.5029 45.1075 18.5029C44.9739 18.5029 44.8423 18.5345 44.7233 18.5951C44.6042 18.6557 44.5012 18.7435 44.4226 18.8515C44.0489 19.2623 43.6106 19.6092 43.1251 19.8787C41.8455 20.7257 40.7462 24.9608 40.2596 26.8711C38.8179 25.3392 35.6641 22.1674 34.1683 22.0593C33.6515 22.0559 33.1371 21.9893 32.6365 21.8611C32.5214 21.7946 32.3909 21.7597 32.258 21.7597C32.1252 21.7597 31.9946 21.7946 31.8796 21.8611C31.7653 21.9312 31.6706 22.0291 31.6044 22.1457C31.5382 22.2623 31.5027 22.3938 31.5011 22.5279C31.3898 23.0738 31.1889 23.5975 30.9064 24.0777C30.2576 25.4293 31.4471 29.5923 31.9337 31.4485C29.9513 30.8538 25.6621 29.6464 24.3285 30.2771C23.8751 30.5133 23.3979 30.7006 22.9048 30.8358C22.7719 30.8567 22.6457 30.9082 22.5362 30.9865C22.4267 31.0647 22.3369 31.1673 22.2741 31.2863C22.2124 31.4062 22.1802 31.539 22.1802 31.6738C22.1802 31.8086 22.2124 31.9414 22.2741 32.0612C22.438 32.5926 22.523 33.1451 22.5264 33.7012C22.5264 35.3592 25.7342 38.6031 27.4823 40.0268C25.2476 40.3692 20.9224 41.5946 20.0033 42.9823C19.7297 43.4597 19.3831 43.8914 18.9761 44.2618C18.8617 44.3333 18.766 44.4312 18.6971 44.5471C18.6281 44.6631 18.5878 44.7939 18.5796 44.9286C18.5704 45.0644 18.5933 45.2004 18.6465 45.3257C18.6998 45.4509 18.7818 45.5619 18.886 45.6495C19.2521 46.0118 19.5728 46.4172 19.8411 46.8569C20.6521 48.0463 24.9232 49.1276 26.8516 49.6502C26.8516 49.6502 22.5084 54.0295 22.3822 55.5252C22.3782 56.0768 22.287 56.6242 22.1119 57.1472C22.0502 57.267 22.0181 57.3999 22.0181 57.5346C22.0181 57.6694 22.0502 57.8023 22.1119 57.9221C22.1684 58.044 22.2537 58.1504 22.3604 58.232C22.4672 58.3136 22.5922 58.3681 22.7246 58.3907C23.2199 58.5352 23.6974 58.7347 24.1483 58.9854C26.7453 58.9086 29.326 58.546 31.8436 57.9041C31.2849 59.8864 30.0414 64.1936 30.7803 65.5092C31.0318 65.9638 31.2256 66.4482 31.357 66.9509C31.381 67.0828 31.436 67.2071 31.5174 67.3137C31.5989 67.4202 31.7045 67.5059 31.8255 67.5636H31.9877C32.1841 67.6437 32.4041 67.6437 32.6005 67.5636C33.129 67.3876 33.6835 67.3023 34.2404 67.3113C35.7362 67.2032 38.7098 64.0674 40.0614 62.7158C40.548 64.7342 41.6653 69.0594 42.8908 69.9244C43.3312 70.1917 43.7368 70.5125 44.0983 70.8796C44.2102 71.0169 44.3609 71.1174 44.5308 71.1679H44.8011C44.9358 71.1597 45.0666 71.1195 45.1825 71.0505C45.2985 70.9815 45.3964 70.8859 45.4679 70.7714C45.8451 70.3645 46.2828 70.018 46.7655 69.7442C48.045 68.8792 49.1263 64.6441 49.6309 62.7338C51.4738 64.5618 53.5172 66.176 55.7222 67.5456C56.2391 67.5625 56.7526 67.635 57.254 67.7618C57.3751 67.8195 57.5075 67.8494 57.6415 67.8494C57.7756 67.8494 57.9079 67.8195 58.029 67.7618C58.1381 67.6835 58.2275 67.5809 58.29 67.462C58.3526 67.3431 58.3866 67.2113 58.3894 67.077C58.5121 66.5345 58.7124 66.0125 58.9841 65.5272C59.6329 64.1756 58.4254 60.0126 57.9389 58.1564C57.9389 58.1564 64.2464 59.9585 65.562 59.3458C66.0167 59.0943 66.501 58.9005 67.0038 58.7691C67.1381 58.7526 67.2662 58.7028 67.3764 58.6241C67.4866 58.5454 67.5753 58.4404 67.6345 58.3186C67.6921 58.1975 67.722 58.0652 67.722 57.9311C67.722 57.7971 67.6921 57.6647 67.6345 57.5437C67.4874 57.0588 67.4145 56.5545 67.4182 56.0479V56.0479Z" fill="white"/>
</g>
<path d="M60.751 48.0801C59.8265 46.6972 58.508 45.6236 56.9664 44.9984C58.5041 44.3666 59.8208 43.2945 60.751 41.9167C60.8337 41.5714 60.9738 41.2424 61.1655 40.9435C61.2275 40.8804 61.2731 40.803 61.2982 40.7182C61.3234 40.6333 61.3273 40.5436 61.3097 40.4569C61.2911 40.3697 61.252 40.2883 61.1956 40.2193C61.1392 40.1503 61.067 40.0959 60.9852 40.0604C60.7014 39.8966 60.4357 39.7033 60.1923 39.4837C58.7527 38.8562 57.1798 38.5961 55.6148 38.7268C56.4592 37.4709 56.9906 36.0311 57.1647 34.5278C57.0762 34.1868 57.0397 33.8344 57.0565 33.4825C57.076 33.3985 57.0765 33.3111 57.0578 33.2269C57.039 33.1427 57.0017 33.0638 56.9484 32.9959C56.8917 32.9289 56.8191 32.8773 56.7372 32.8458C56.6553 32.8144 56.5668 32.804 56.4798 32.8157C56.1505 32.811 55.8232 32.7625 55.5067 32.6715C53.9211 32.841 52.4032 33.4048 51.0914 34.3115C51.1961 32.7501 50.9242 31.1863 50.2984 29.752C50.0653 29.5113 49.8598 29.2453 49.6857 28.959C49.6494 28.8809 49.5951 28.8126 49.5271 28.7598C49.4591 28.7069 49.3795 28.6711 49.2949 28.6552C49.2103 28.6394 49.1231 28.6439 49.0406 28.6686C48.9581 28.6932 48.8827 28.7372 48.8206 28.7968C48.5195 28.9884 48.1915 29.1342 47.8475 29.2293C46.9464 29.5537 45.6489 31.5722 45.0001 32.6715C44.3239 31.2468 43.3092 30.0093 42.0445 29.0671C41.7313 28.974 41.4292 28.8471 41.1434 28.6887C41.068 28.6507 40.9846 28.6309 40.9001 28.6309C40.8156 28.6309 40.7323 28.6507 40.6569 28.6887C40.5725 28.7159 40.4958 28.7627 40.4331 28.8254C40.3704 28.8881 40.3236 28.9648 40.2964 29.0491C40.142 29.3743 39.9281 29.6677 39.6657 29.9142C39.0372 31.322 38.7709 32.8646 38.8907 34.4016C37.5838 33.4984 36.0726 32.9348 34.4935 32.7616C34.1705 32.8516 33.8374 32.9 33.5023 32.9058C33.418 32.8938 33.332 32.9041 33.2529 32.9357C33.1739 32.9674 33.1045 33.0192 33.0517 33.086C32.9915 33.15 32.9483 33.2281 32.9263 33.3131C32.9042 33.3982 32.904 33.4874 32.9256 33.5726C32.9519 33.9247 32.9152 34.2786 32.8174 34.6179C32.9915 36.1212 33.5229 37.561 34.3673 38.8169C32.8023 38.6862 31.2294 38.9463 29.7898 39.5739C29.5498 39.7975 29.2835 39.9911 28.9969 40.1505C28.9157 40.1842 28.8447 40.2385 28.791 40.3081C28.7372 40.3776 28.7026 40.46 28.6905 40.547C28.6705 40.6323 28.6716 40.7211 28.6936 40.8059C28.7155 40.8906 28.7578 40.9688 28.8166 41.0336C29.0082 41.3348 29.154 41.6628 29.2492 42.0068C30.1714 43.3847 31.4824 44.4574 33.0157 45.0885C31.5108 45.6988 30.2195 46.7394 29.3032 48.0801C29.208 48.4242 29.0623 48.7521 28.8707 49.0533C28.812 49.1145 28.7697 49.1895 28.7476 49.2714C28.7256 49.3533 28.7245 49.4395 28.7446 49.5219C28.7567 49.6089 28.7913 49.6913 28.845 49.7608C28.8988 49.8304 28.9697 49.8847 29.0509 49.9184C29.3374 50.0851 29.6035 50.2847 29.8439 50.5131C31.2641 51.097 32.7987 51.3497 34.3312 51.252H34.4214C33.5901 52.5181 33.0713 53.9634 32.9075 55.4691C33.0052 55.8145 33.0418 56.1743 33.0157 56.5324C32.9972 56.6177 32.999 56.7061 33.0209 56.7906C33.0428 56.8751 33.0843 56.9533 33.1418 57.0189C33.1977 57.082 33.2675 57.1311 33.3457 57.1624C33.424 57.1937 33.5084 57.2063 33.5924 57.1992C33.9263 57.2063 34.2585 57.2486 34.5835 57.3253C36.1108 56.9602 37.5875 56.4095 38.9808 55.6853C38.8745 57.2544 39.1529 58.8258 39.7918 60.2629C40.0192 60.4975 40.2187 60.7575 40.3865 61.0378C40.4202 61.119 40.4745 61.1899 40.5441 61.2437C40.6136 61.2974 40.6959 61.332 40.783 61.3442H40.8911C41.025 61.3424 41.1534 61.291 41.2516 61.2C41.5471 60.9941 41.8765 60.8416 42.2247 60.7495C43.1258 60.4431 44.4414 58.4066 45.0721 57.3253C45.7389 58.5147 47.1266 60.6053 48.0277 60.9297C48.3448 61.02 48.648 61.1534 48.9288 61.3261C49.0235 61.3942 49.1366 61.4319 49.2532 61.4343H49.4334C49.5159 61.4074 49.5904 61.3603 49.6502 61.2974C49.71 61.2345 49.7531 61.1576 49.7758 61.0738C49.94 60.7599 50.1529 60.4741 50.4066 60.2268C51.0332 58.8182 51.3054 57.2775 51.1995 55.7394C52.5919 56.4612 54.0691 57.0061 55.5968 57.3614C55.9156 57.2839 56.2419 57.2415 56.57 57.2352C56.6566 57.2424 56.7437 57.23 56.8249 57.1988C56.906 57.1676 56.979 57.1184 57.0385 57.055C57.0907 56.9865 57.1273 56.9076 57.146 56.8236C57.1647 56.7396 57.1649 56.6525 57.1466 56.5684C57.1296 56.2106 57.1661 55.8522 57.2548 55.5051C57.0773 54.0026 56.5462 52.5635 55.7049 51.306C57.2601 51.3021 58.805 51.0528 60.2824 50.5671C60.5262 50.3429 60.7918 50.1437 61.0754 49.9724C61.1571 49.937 61.2292 49.8825 61.2857 49.8136C61.3421 49.7446 61.3812 49.6631 61.3997 49.5759C61.4159 49.492 61.4111 49.4054 61.386 49.3237C61.3609 49.242 61.3161 49.1677 61.2556 49.1074C61.0265 48.7984 60.8555 48.4503 60.751 48.0801Z" fill="#27DFC1"/>
</svg>
